<?xml version="1.0" encoding="utf-8"?>
<svg viewBox="0 0 94 405" id="asclepius" xmlns="http://www.w3.org/2000/svg" xmlns:xlink="http://www.w3.org/1999/xlink">
<style type="text/css">
	.st0{fill:none;stroke:#000000;stroke-width:5;stroke-linecap:round;stroke-linejoin:round;}
</style>
<path class="st0" d="M34.3,29.4c-12.1,4-25.1,15.2-25.4,34.1c-0.3,15.7,15.5,33.7,29.5,44c-1.1-23,0.2-18.3,0.6-26.8
	c-5.2-4.5-8.5-8.8-8.9-13.2c-0.5-5,2.2-10.7,7.2-12.4c0.8-0.3,1.7-0.4,2.6-0.5c5.8,1,9.8,6.3,13.7,10.2c2.5,1.9,5.1,3.6,7.9,4.6
	c2.1,0.7,6.2,0.1,8.4-0.2c4.3-0.5,0-6.3-2-11.4c3.5,2.4,11.3,11.9,11.7,1.1c0.2-6.1-3.6-20.2-18.7-27.2
	C52.5,27.3,43.3,27.4,34.3,29.4z M58.6,95c-0.2,1.1-0.2,25,0.1,27c6.2,6,11.4,14.2,11.4,26.2c0,15.7-6.4,23.8-14.6,31.3
	c-6.9,5.9-13.4,12.2-19.6,18.8c-13.1,14-24,29-23.5,47.5c0.5,18.1,13.5,26.7,26.9,34.1c-0.5-10.9-0.6-11.7-0.9-22.9
	c-5.2-4.8-8.1-9.3-8-14.8c0.1-6.6,3.1-13.3,7.4-19.8c5-7.3,11.3-13.6,17.4-19.9c3.3-3.2,6.7-6.2,10.1-9.3
	c12.2-11,24.4-28.6,24.7-49.4C90.4,119.8,73.5,105.4,58.6,95z M56.5,271.1c0.1,2.3,0.7,11.6,0.9,19.4c23.1,15.7,9,36.4-4.6,51.9
	c-3,3.5-6.8,6.2-10.4,9c-11.9,8.9-25.6,14.3-39.8,18c17.6-2.2,30.4-7.1,39.9-12.2c3.8-1.6,7.1-4,10.4-6.4c4.7-3.4,8.2-6.4,10.9-8.5
	c8.2-6.3,21.5-20.6,19.6-33.7C80.7,289.3,69,280.5,56.5,271.1z"/>
<path class="st0" d="M58.6,95c-0.2,1.1-0.2,25,0.1,27s0.6,3.9,0.6,5.8c0,3-1.6,6.6-1.8,9.4c-0.7,9.8,3.1,4.3,3.6,9.8
	c0.4,4.3-3,6.7-2.7,9.8c0.8,9-1.5,14.9-2.8,22.4l-19.6,18.5c1.2-9.5-1.8-15.2-4.3-19.7c-3.5-6.3-2-11-4.3-16.9
	c-2.6-6.4-4.7-10.2,4.3-12.9c3.9,1.3,3.4,6.4,7.1,7.1c4.7-1.2,0.8-24.7-0.3-47.8s0.2-18.3,0.6-26.9S38.4,63.4,37.2,55l0,0
	c9.5-2.8,15.2,13.1,24.3,14.3c-0.2,7.4-1,14.5-2.4,22.2C58.9,92.7,58.8,93.8,58.6,95z M55.4,202.4c0,0-0.1,0.1-0.1,0.1
	c-3.6,3.5-13,13.4-17.3,19.8c0.1,11.5,0.2,25.7,0.5,34.7c0.3,11.2,0.4,12,0.9,22.9s1.1,21.9,1.7,33.4c0.7,12.9,1.2,25.6,1.4,38.1
	c3.6-2.7,7.3-5.4,10.4-9c0.2-10,1.4-19.6,3.5-29.9c1.3-6.5,1.4-14.2,1.1-22s-0.8-17.1-0.9-19.4s-0.2-4.6-0.2-6.8
	c0-9,0-14.1,2.9-21.6c1.7-4.4,9.2-14.1-0.2-16c-1.1,1.8-2.9,2.6-3.9,4.4C53.9,221.6,55,212,55.4,202.4z M52.9,350.8
	c-4.7,3.4-0.8,1.3-10.4,6.4c0,13.8-0.6,27.3-2.2,40c13.7-12.9,14.5-16.9,12.9-39.6C53,355.3,52.9,353.1,52.9,350.8z M60.9,31.6
	c0.9-6.7,5.5-14.3,3.7-21.1c-3.5-4.9-8.7,0.9-12.2,0C45.5,8.6,47.3,4.2,39.9,3c-6.4-1-8.2-1.6-6.7,13.3c0.5,4.5,0.8,8.8,1.1,13
	c3.8-1.2,7.5-1.8,10.6-1.6C51.2,28.1,56.5,29.6,60.9,31.6z"/>
<path id="eye" d="M65.1,42.8c1.6,1.6,3.6,4.5,1.9,6.2c-1.7,1.7-4.4-0.5-6-2.1c-1.6-1.6-1.2-5.3-0.3-5.6
	C61.4,41.1,63.5,41.2,65.1,42.8z"/>
</svg>
