<svg id="bayes-theorem" data-name="bayes-theorem" xmlns="http://www.w3.org/2000/svg" viewBox="0 0 1000 1000">
  <defs>
    <style>
      .cls-1, .cls-28 {
        font-size: 72px;
      }

      .cls-1, .cls-13, .cls-28, .cls-29, .cls-4 {
        fill: #231f20;
      }

      .cls-1, .cls-13, .cls-4 {
        font-family: MyriadPro-Regular, Myriad Pro;
      }

      .cls-2 {
        font-family: Arial-ItalicMT, Arial;
        font-style: italic;
      }

      .cls-28, .cls-3 {
        font-family: ArialMT, Arial;
      }

      .cls-4 {
        font-size: 60px;
      }

      .cls-5 {
        letter-spacing: -0.02em;
      }

      .cls-6 {
        letter-spacing: -0.01em;
      }

      .cls-7 {
        letter-spacing: 0em;
      }

      .cls-8 {
        letter-spacing: 0.01em;
      }

      .cls-9 {
        letter-spacing: -0.01em;
      }

      .cls-10 {
        letter-spacing: -0.01em;
      }

      .cls-11 {
        letter-spacing: 0em;
      }

      .cls-12 {
        letter-spacing: -0.02em;
      }

      .cls-13 {
        font-size: 40px;
      }

      .cls-14 {
        letter-spacing: 0em;
      }

      .cls-15 {
        letter-spacing: 0em;
      }

      .cls-16 {
        letter-spacing: 0.01em;
      }

      .cls-17 {
        letter-spacing: -0.01em;
      }

      .cls-18 {
        letter-spacing: 0.03em;
      }

      .cls-19 {
        letter-spacing: -0.01em;
      }

      .cls-20 {
        letter-spacing: 0em;
      }

      .cls-21 {
        letter-spacing: -0.01em;
      }

      .cls-22 {
        letter-spacing: -0.01em;
      }

      .cls-23 {
        letter-spacing: 0em;
      }

      .cls-24 {
        letter-spacing: -0.01em;
      }

      .cls-25 {
        letter-spacing: 0.02em;
      }

      .cls-26 {
        letter-spacing: -0.01em;
      }

      .cls-27 {
        letter-spacing: 0em;
      }

      .cls-29 {
        stroke: #231f20;
        stroke-miterlimit: 10;
        stroke-width: 2px;
      }
    </style>
  </defs>
  <title>bayes-theorem</title>
  <text class="cls-1" transform="translate(25 683.96)">P(<tspan class="cls-2" x="58.75" y="0">H</tspan><tspan class="cls-3" x="110.75" y="0" xml:space="preserve"> | </tspan><tspan class="cls-2" x="169.46" y="0">e</tspan><tspan class="cls-3" x="209.5" y="0">) = </tspan></text>
  <text class="cls-4" transform="translate(25 857.51)"><tspan class="cls-5">P</tspan><tspan x="30.42" y="0">os</tspan><tspan class="cls-6" x="87.12" y="0">t</tspan><tspan x="106.62" y="0">e</tspan><tspan class="cls-7" x="136.68" y="0">r</tspan><tspan x="156.54" y="0">ior</tspan></text>
  <text class="cls-4" transform="translate(25 222.65)">Likelihood</text>
  <text class="cls-4" transform="translate(25 388.82)"><tspan class="cls-8">M</tspan><tspan x="48.6" y="0">a</tspan><tspan class="cls-9" x="77.52" y="0">r</tspan><tspan class="cls-10" x="96.66" y="0">g</tspan><tspan class="cls-11" x="129.84" y="0">inal</tspan></text>
  <text class="cls-4" transform="translate(25 108.01)"><tspan class="cls-12">P</tspan><tspan class="cls-7" x="30.96" y="0">r</tspan><tspan x="50.82" y="0">ior</tspan></text>
  <text class="cls-13" transform="translate(333.09 843.31)"><tspan class="cls-14">B</tspan><tspan class="cls-15" x="21.84" y="0">elief a</tspan><tspan class="cls-16" x="120.16" y="0">f</tspan><tspan class="cls-17" x="132.28" y="0">t</tspan><tspan x="145.28" y="0">er obse</tspan><tspan class="cls-18" x="267.47" y="0">r</tspan><tspan x="281.55" y="0">ving new in</tspan><tspan class="cls-19" x="474.91" y="0">f</tspan><tspan x="486.07" y="0">o</tspan><tspan class="cls-14" x="508.03" y="0">r</tspan><tspan x="521.27" y="0">m</tspan><tspan class="cls-20" x="554.63" y="0">a</tspan><tspan x="573.75" y="0">tion</tspan></text>
  <text class="cls-13" transform="translate(333.09 208.45)"><tspan class="cls-14">B</tspan><tspan class="cls-15" x="21.84" y="0">elief about the in</tspan><tspan class="cls-19" x="304.15" y="0">f</tspan><tspan x="315.31" y="0">o</tspan><tspan class="cls-14" x="337.27" y="0">r</tspan><tspan x="350.51" y="0">m</tspan><tspan class="cls-20" x="383.88" y="0">a</tspan><tspan x="402.99" y="0">tion, </tspan><tspan class="cls-21" x="486.51" y="0">g</tspan><tspan x="508.63" y="0">i</tspan><tspan class="cls-22" x="517.99" y="0">v</tspan><tspan x="536.83" y="0">en </tspan><tspan x="0" y="48">wh</tspan><tspan class="cls-20" x="51.64" y="48">a</tspan><tspan class="cls-23" x="70.76" y="48">t </tspan><tspan class="cls-24" x="92.48" y="48">w</tspan><tspan x="121.52" y="48">e thoug</tspan><tspan class="cls-20" x="251.84" y="48">h</tspan><tspan x="273.88" y="48">t be</tspan><tspan class="cls-19" x="338.39" y="48">f</tspan><tspan x="349.55" y="48">o</tspan><tspan class="cls-22" x="371.51" y="48">r</tspan><tspan x="384.19" y="48">e</tspan></text>
  <text class="cls-13" transform="translate(333.09 374.62)"><tspan class="cls-14">B</tspan><tspan class="cls-15" x="21.84" y="0">elief about the in</tspan><tspan class="cls-19" x="304.15" y="0">f</tspan><tspan x="315.31" y="0">o</tspan><tspan class="cls-14" x="337.27" y="0">r</tspan><tspan x="350.51" y="0">m</tspan><tspan class="cls-20" x="383.88" y="0">a</tspan><tspan x="402.99" y="0">tion </tspan><tspan class="cls-21" x="478.23" y="0">g</tspan><tspan x="500.35" y="0">i</tspan><tspan class="cls-22" x="509.71" y="0">v</tspan><tspan x="528.55" y="0">en </tspan><tspan x="0" y="48">e</tspan><tspan class="cls-24" x="20.04" y="48">v</tspan><tspan x="38.88" y="48">e</tspan><tspan class="cls-18" x="58.92" y="48">r</tspan><tspan x="73" y="48">ything </tspan><tspan class="cls-24" x="189.68" y="48">w</tspan><tspan x="218.72" y="48">e </tspan><tspan class="cls-25" x="247.23" y="48">k</tspan><tspan class="cls-15" x="266.67" y="48">n</tspan><tspan class="cls-26" x="288.87" y="48">o</tspan><tspan x="310.55" y="48">w about the </tspan><tspan class="cls-22" x="520.19" y="48">w</tspan><tspan x="549.23" y="48">o</tspan><tspan class="cls-27" x="571.19" y="48">r</tspan><tspan x="584.43" y="48">ld</tspan></text>
  <text class="cls-13" transform="translate(333.09 93.81)"><tspan class="cls-14">B</tspan><tspan class="cls-15" x="21.84" y="0">elief p</tspan><tspan class="cls-14" x="123.64" y="0">r</tspan><tspan x="136.88" y="0">ior </tspan><tspan class="cls-17" x="189.76" y="0">t</tspan><tspan x="202.76" y="0">o new in</tspan><tspan class="cls-19" x="344.91" y="0">f</tspan><tspan x="356.07" y="0">o</tspan><tspan class="cls-14" x="378.03" y="0">r</tspan><tspan x="391.27" y="0">m</tspan><tspan class="cls-20" x="424.63" y="0">a</tspan><tspan x="443.75" y="0">tion</tspan></text>
  <text class="cls-28" transform="translate(445.94 621.7)">P(<tspan class="cls-2" x="72" y="0">H</tspan><tspan x="124" y="0">)</tspan></text>
  <text class="cls-1" transform="translate(624.47 621.7)">P(<tspan class="cls-2" x="58.75" y="0">e</tspan><tspan class="cls-3" x="98.79" y="0" xml:space="preserve"> | </tspan><tspan class="cls-2" x="157.51" y="0">H</tspan><tspan class="cls-3" x="209.5" y="0">)</tspan></text>
  <text class="cls-1" transform="translate(586.48 736.21)">P(<tspan class="cls-2" x="58.75" y="0">e</tspan><tspan class="cls-3" x="98.79" y="0">)</tspan></text>
  <line id="line-divisor" class="cls-29" x1="347.87" y1="660.82" x2="947.87" y2="660.82"/>
</svg>
