<svg xmlns="http://www.w3.org/2000/svg" viewBox="0 0 127.06 164.43"><g id="black-and-white-inverted"><path d="M89.79,159.89a1.33,1.33,0,0,0-.14-.19l-1-1.28.44-.72-.77.24.77-1.55-.63.14.35-1.07-.14-.08-1.76,2.44-.17-.1L88.92,154l-.24-.16-1.36,1.88-.14-.07,1.51-3.07-.18-.1c-.62.94-1.24,1.88-1.85,2.82l-.15-.1,2.15-4.14-.2-.12-1.83,2.71-.15-.08L88,150.74l-.19-.13-.93,1.08-.15-.08,1.76-3.42-.19-.1-1.81,2.46-.15-.1,2-3.62-.25-.15-1.45,2-.2-.11,1.64-3.07-.27-.15-1.2,1.57-.1,0Q87.71,144.42,89,142l-.22-.11L87,145l-.23-.11L88,142.09l-.29-.21-.34.72-.24-.15.8-2.14-.13-.06-.94,1.31-.13-.05,1.16-2.6-.21-.13-1.2,1.47-.16-.09,1.63-3.6-.25-.15L86.31,138c.35-1.08.72-2.13,1-3.19.1-.36.46-1-.42-1.05a1.81,1.81,0,0,1-.09-.85c.15-1,.34-2,.54-3.08-.64,0-1.44,0-1-1a6.36,6.36,0,0,0,.75-1.76l-.82.65-.2-.14,1.39-2.34-.16-.11-1.21,1.34-.23-.17L87.25,124l-.88.27a6,6,0,0,0,.75-4.64l-1,.69,1.36-2.2-.2-.19-.78.43-.39-2.46-.54.69.31-3,.22,0,.46,1c.63-1.14-.49-1.81-.55-3l1.16,1.92.27-.13-1.26-2.85.1-.06.66.74.22,0-.36-1.35.48-1.29.47.64c.08-.07.22-.13.24-.22.51-2,1-4,1.5-6.09.16-.72.14-1.49.28-2.22.46-2.38-.74-4.3-1.66-6.3l-.85-1.77-.82,7.75-.19,0c-.09-.5-.4-1.08-.24-1.47a10.52,10.52,0,0,0,.59-5.6,9.53,9.53,0,0,1,0-1.07l-.29-.08-.54,2.46-.14-.86-.61.94c0-1.78,1.31-3.33.84-5.16l-.38-.08-.35,2.23c-.71-2-.62-2.09,1.17-3.1a18.12,18.12,0,0,0,1.8-1.52,15.13,15.13,0,0,1,1.66-1l.26,3.34.64-1,.29.08-.36,1.82,1.06-.74-.23,1.46.86-.5L92,92.76l.33.08.61-1-.2,2.92.34,0L93.4,94v1.86l.17,0,.49-1.32-.28,3.76.28,0,.22-1.68.24,0a12.92,12.92,0,0,0-.14,2c0,.43-.46,1.14.47,1.27a6.47,6.47,0,0,1-.54,1.39c-.07.1-.7-.09-1-.27s-.36-.48-.63-.86l.75,2.7.66-.4c0,1.45-1.26,2.66-.4,4.28l.89-2.06.14,0-1.19,5.52.41.08.94-2.6.17,0-1,4.56.41.1L95,111a45.5,45.5,0,0,0-.2,4.8c.1,1.72.51,3.44.81,5.29l-.7-.47.56,2.45c-1.1-.59-1.21-1.64-1.16-2.76-.15-1-.32-2-.46-3s0-2-1.38-2.1c-.06,0-.1-.26-.16-.39a.57.57,0,0,0,0,.5,4.72,4.72,0,0,1,.66,4c-.24.67-.34,1.4.51,1.82-.11.62-.24,1.25-.29,1.88,0,.16.23.35.36.52l.35-.18-1.14,5.25.33.09.58-1.37.19,0a4.68,4.68,0,0,1,0,.53q-.45,2.89-.89,5.79l.29.09.49-.64.13,0-.77,2.72.18.05,1-2,.21.06q-.78,2.73-1.58,5.46l.2.05,1.28-3.22.29.11a10.44,10.44,0,0,0-.72,1.82c-.3,1.5-1,3.13-.62,4.51.27,1.13-.32,1.85-.42,3.08l1.18-1c-.93,1.78-1.73,3.33-2.53,4.87l.25.17,1.48-2.2.16.1-1.65,3.14.25.17,1.49-2c-.53,1.25-1.07,2.32-1.45,3.45s-.61,2.33-.92,3.57a9.49,9.49,0,0,1-.78-6.24H90q-.19,4.34-.39,8.63" style="fill:#fff"/><path d="M79.31,43.64l-1.25-.27c.25.58.25.58,4,1l-2.46.37,0,.16h2.89l0,.09-3.32.33v.09l2.56.11v.11l-1.86.13v.1l1.76.11v.26a26,26,0,0,1-2.8-.2,1.13,1.13,0,0,0-1.49.8,29.36,29.36,0,0,1-2.5-3.11c-.52-.84.7-.23.83-.7,0-.15.32-.23.53-.51-1.72.24-2.37-1.15-3.41-1.94s-.55.51-.88.83c-.58-.79-1.29-1.2-.17-2.4a3.44,3.44,0,0,0,.3-4,.79.79,0,0,1-.06-.67c.06-.12.38-.11.59-.18s.47-.27.65-.22a7.4,7.4,0,0,1,1.52.6c.56.3,1.07.67,1.6,1a17,17,0,0,1,.31-1.77c0-.1.48-.21.61-.13.48.35.91.77,1.4,1.21l.41-1.23.61.85L81,33.83l-.07.29,1.73.44.12-.37.73,1,.22-.17,0-.47c1.51,1,1.71,3.4,3.83,4H86.35l1.08.69-.56.34L88.2,41c-.42.78-1,.22-1.43-.13.06.55.12,1,.17,1.51,0,.18,0,.37,0,.55-.24,0-.58,0-.69-.13a3.86,3.86,0,0,1-.8-1.38,5.12,5.12,0,0,0-6.33-4.26,2.19,2.19,0,0,0-1.22.72c1.51.39,3.21.49,4.5,1.27s2.14,2.22,3.19,3.37l-.24.29-.82-.37-2.31,1.27-.44-.62c.46-.09,1-.15,1.43-.29s.77-.49.42-1.08a3.9,3.9,0,0,0-5.06-1.57l1.68.13-1.07.23.77.26v.14l-.29,0,.74,2-1.59-.35Z" style="fill:#fff"/><path d="M19.46,158.77c-.77-.16-1.53-.38-2.3-.47a2.19,2.19,0,0,1-1.92-2.72,7.14,7.14,0,0,0,.17-1.39,22.22,22.22,0,0,0,.15-2.45c0-.44-.36-.88-.37-1.32a1.26,1.26,0,0,1,.6-1.07v-9.13l-.41,0-.6,1.49-.23-.07,1.51-6.15c-1.07-.36-.88-1.27-.69-2,.38-1.53.92-3,1.34-4.52a1.21,1.21,0,0,0-.35-1l.05,1.15-.34,0c0-.93.36-2.09-.07-2.74-.78-1.18,1-1.71.16-2.68l.49,0v3.12l.25,0,.23-1.41.38.11v-2l.33,0,.36,1.83c.27-1,.51-1.88.81-2.79.07-.21.34-.35.52-.53l0,0c-.22,1.26-.4,2.53-.68,3.78-.37,1.7-.84,3.37-1.23,5.06a6.48,6.48,0,0,0,0,1.26l1-3.73a4.49,4.49,0,0,1,.56,4.85s0,0-.05,0S19,133,19,133.1l-.22,3.78-.61-1c0,.07-.1.14-.08.17a6,6,0,0,1-.08,4.36,24.5,24.5,0,0,0-.56,4.2l.64-.54v4.72l-.38-.92-.22,0q.27,3.54.55,7.08a2.86,2.86,0,0,1,0,.58c-.3,1.52-.09,1.94,1.44,2.8Z"/><path d="M97.41,152.53a6.66,6.66,0,0,1,.45-3.38c.28-.72,0-1.63.14-2.43.88-5,1.83-9.91,2.7-14.87.27-1.57.37-3.16.57-4.74.25-2,.57-4.06.79-6.09.29-2.64.48-5.28.78-7.92.14-1.27.45-2.52.64-3.6l1,1,.27.47,0,0,0,.71,0,.6v1.11l0,0-.27.75c-.81,1.79,0,3.59,0,5.39a3.41,3.41,0,0,1,.1,1.25c-.2.63-.64,1.17-.88,1.79-.07.16.22.47.35.71l.37,0a47.45,47.45,0,0,0-1.6,5.73,11.61,11.61,0,0,1-.25,2.33c-.65,1.75.15,3.48-.06,5.21a9,9,0,0,1-.47,1.64c-.14.48-.29,1-.4,1.33-.2-.4-.49-1-.77-1.56.21-.69.42-1.39.62-2.08a5,5,0,0,0-.26-4.39c.09,1.48.19,2.95.28,4.42-.17-.31-.34-.61-.54-.95-.39,2.27-.39,2.27-.08,3l.48,2.76-.17,0-.56-2-.28.07.6,2.46-.16.05L99.9,139l-.18.06.7,2.89-.39-.59h-.19l.35,3.21h.13v-2.29l.35,0a4.64,4.64,0,0,1,.1,1.22c-.27,1.56-.61,3.11-.88,4.67,0,.19.22.49.41.65.37.3.28.39,0,.94a4.35,4.35,0,0,0,0,1.61l-.46-1.45-.2,0,.65,3.4-.47-.36-.7,5.47-.39,0c-.07-2.73,1.21-5.41.65-8.17l-.41,0c-.06,1.15-.11,2.31-.17,3.46l-.47-1.09-.82,1.1Z" style="fill:#fff"/><path d="M102.91,96.32l2.84,1.36c-.61.6-.5.74,1.23,2l-.66-.28a1.94,1.94,0,0,0-.86-.25l2.16,1.8,0,.13-1.35-.67,2.19,3.47-.82-.2,1.59,2.26-1.51-1.12c.5.9,1.29,1.63.18,2.63-1.43-3.22-2.78-6.3-4.16-9.37a14.47,14.47,0,0,0-1-1.53Z" style="fill:#fff"/><path d="M27.43,143c-.05.26-.21.57-.13.79.47,1.27,1,2.52,1.51,3.78l.48,2.55-1.08-2-.14,0c.25.69.49,1.38.74,2.06a6.58,6.58,0,0,1,.54,2.08l-2.08-4.81-.34.12a9.79,9.79,0,0,1,.4,1,2.32,2.32,0,0,1,.13,1.09.85.85,0,0,1-.79.3c-.23-.14-.29-.55-.41-.85s-.24-.58-.48-1.15l-.12,1.23-.18,0a3.91,3.91,0,0,1,0-1c.48-2.22,1-4.43,1.53-6.84Z" style="fill:#fff"/><path d="M79.31,43.64l-.47-1.12,1.59.35-.74-2,.29,0v-.14l-.77-.26,1.07-.23-1.68-.13a3.9,3.9,0,0,1,5.06,1.57c.35.59.15.91-.42,1.08s-1,.2-1.43.29l.44.62Z"/><path d="M41.4,130.77v4.72l-.1,0-.52-3c-.14.18-.23.3-.13.18-.17-.75-.36-1.68-.56-2.61l0-2.36,0,0,.29.56,1-1.54v2.38h.25l1.21-2.62.15,1.74h.16l.49-1.41h.23a5.71,5.71,0,0,1,0,1.3c0,.22-.46.37-.52.6a13.92,13.92,0,0,0-.46,3.32l-.5-1-.59,2.09c-.18-.87-.32-1.59-.47-2.3l-.3-2.35h-.27v2.93Z" style="fill:#fff"/><path d="M76.34,92.42c.43,1.28,1,2.53,1.25,3.84s-.38,2.37-1.6,2.4c1.29-1.93.6-3.72-.36-5.49l-1.11-.81-2.16-.49c-.34-.89-.1-1.29,1.22-1.25A10.65,10.65,0,0,1,75.4,91Z"/><path d="M71,62.91c-.08.44,0,1.08-.26,1.28-1.06.81-1.56,1.65-.55,3-1.24.06-2.34.55-3-.79a11,11,0,0,1,.64-1.91c.32-.6.84-1.1.29-1.81.78-.08,1,.3.72,1.18a3.8,3.8,0,0,0-.12,1.68c.19-.47.39-.92.57-1.39.22-.63,1-1.16.36-1.94l.68-.48Z"/><path d="M86.92,76.15l1.4,2.39L88.59,81l0,0-.71,1.41-.29.29L88,79.49c-.47,2.3-.48,2.35-2.35,3.69-.17.12-.56-.06-.85-.09l0,0c1.46-.51,1.71-1.88,2.22-3.07a3,3,0,0,0-.58-2.91,7.16,7.16,0,0,1-.66-1.46Z"/><path d="M63.17,80.43a3.72,3.72,0,0,0-.4,3.94c.16.32.27.66.48,1.18a3.43,3.43,0,0,1-1.75-3.63c.23-1.18.49-2.35.77-3.7l1.65,1.51Z"/><path d="M40.34,123.09c0-1.42,0-2.85.06-4.27.05-1.2.17-2.39.26-3.65a1.72,1.72,0,0,1,1.67,1.44l-.77,1.77-.37-.69c-.13.69-.6,1.58-.36,2.17A3.11,3.11,0,0,1,40.34,123.09Z"/><path d="M87.91,82.33l.71-1.41a2.86,2.86,0,0,0,.2.33c.82-.43,1.64-.89,2.45-1.34l.18.31c-.07.09-.13.26-.2.27-1.91.21-2,1.79-2.41,3.14A2.81,2.81,0,0,1,86,85.71l.36-.89L86,84.61l1-.2L86,84.23l1.76-.52-.38.62C88.83,83.45,88.94,82.9,87.91,82.33Z" style="fill:#fff"/><path d="M28.08,137.4l-.17-1.79.42.35v-1.41c.09.5.21,1,.28,1.5s.09,1,.13,1.45l.36,0V134.7l0,0,1.62,3.4-.23.11-.46-.71-.15.06.44,1.87-.19.06-.61-1.76-.3.08,1.33,4.42-.15.05c-.52-1.25-1-2.5-1.55-3.73A9.62,9.62,0,0,0,28.08,137.4Z" style="fill:#fff"/><path d="M87.25,96.8c1.35,4.62,1.22,7.11-.58,10.31l1.11-3.68-.34-.12-.64,1.82-.14,0,.93-4.14c-.94-.37-.58-1.07-.55-1.67S87.17,97.8,87.25,96.8Z" style="fill:#fff"/><path d="M42,144.16c.31.81.65,1.62.9,2.46,0,.15-.3.42-.35.49l-1.12-2.67-.42.14.92,3.82a2.24,2.24,0,0,1-.93-1.91,7.16,7.16,0,0,0-1.28-4.76v1.56l-.12,0L39,140l.16-.13,1.21,2.44.17,0-.25-1.75h.06l1.15,4.32.37-.07.09-.61Z" style="fill:#fff"/><path d="M86.51,68.22a2,2,0,0,1,.11-.76,5.1,5.1,0,0,1,.78-.76l.54,1c1-.18,2.12-.33,2.38-1.86l.1,1.78H92.3l0,.49-2.86.21-1.16.06c-.19,0-.41-.16-.58-.11a5.88,5.88,0,0,0-1,.45l-.33-.08c0-.06,0-.12,0-.17v0c.08-.08.15-.17.23-.26l.07-.14-.11.12Z" style="fill:#fff"/><path d="M93.47,121.12c-.85-.42-.75-1.15-.51-1.82a4.72,4.72,0,0,0-.66-4,.57.57,0,0,1,0-.5c.06.13.1.38.16.39,1.34.13,1.26,1.17,1.38,2.1s.31,2,.46,3Z"/><path d="M50.72,116.38c.53.54,1,1.12,1.59,1.61s.66.56.61,1.73c0,.37.44.76.68,1.14h-1l-.59-.77h0l-.61-.35-.72-1.41c0-.54,0-1.08,0-1.63Z"/><path d="M83.19,89.36l.2-2.18.84,3.59c-1.48.44-3,.77-4.38-.45L82,90.5l0-.26L81.44,90Z" style="fill:#fff"/><path d="M89.06,56.31a15.93,15.93,0,0,1-1-1.7c-.39-.86.07-1.5,1-1.62a3.24,3.24,0,0,0,.83-.38c.07.4.3.85.19,1.19A25.22,25.22,0,0,1,89.06,56.31Z"/><path d="M42.82,126.52l-1.21,2.62h-.25v-2.38l.18-1.36.74-.29.09.89.16,0v-2.45l.22-.22.24,3.12Z"/><path d="M83.45,82.49l-1.1,1L81,84.77a8.38,8.38,0,0,0,.29-.82c.1-.45.18-.9.27-1.35a3.83,3.83,0,0,1,.18-.76c.37-.76.37.22.63.15a2.74,2.74,0,0,1,.71,0l-.23-2.37c1,.86.73,1.87.6,2.87Z" style="fill:#fff"/><path d="M86.77,68.74a5.88,5.88,0,0,1,1-.45c.17-.05.39.07.58.11l-.18,1-.31.29-1.67,1.5-1.66.57.29-1,.94-.74Z"/><path d="M96,48.71c.13,1.92,1.28,4-.54,5.87C96.08,52.63,94.37,50.49,96,48.71Z" style="fill:#fff"/><path d="M69.49,74.45h.07c.59,1.09.13,1.93-.58,2.79-1.08,1.3-1,1.5.12,2.88L69.25,79l1.6,2.54c-.81-.45-1.62-.88-2.43-1.32l0,0c-.13-.25-.27-.49-.38-.74-.41-1-.23-3,.41-3.08C70,76.22,69.37,75.2,69.49,74.45Z" style="fill:#fff"/><path d="M104.39,119.46c.06-1.8-.77-3.6,0-5.39h.26l0,0,.27.74.15,0,.59-.12c-.2.59-.38,1.1-.55,1.61-.07.22-.26.51-.19.64C105.56,118,104.73,118.66,104.39,119.46Z" style="fill:#fff"/><path d="M84.48,71.74l1.66-.57-.23.21-.2.55,0,.07c-1,.4-.76,1.23-.64,2,.08.48.17,1,.25,1.43h-.83l-.34-.71A3.11,3.11,0,0,1,84.48,71.74Z"/><path d="M42.53,123.54V126l-.16,0-.09-.89-.74.29,0-.68.3-2v-3.56h1c-.17,1-.38,1.92-.48,2.87A7.66,7.66,0,0,0,42.53,123.54Z" style="fill:#fff"/><path d="M98.87,41.83c.27,1.16-.3,2-1.69,2.38a3.84,3.84,0,0,0-1.15.72v-4c.31.82.6,1.67,1,2.47.07.14.73.22.83.09A14.1,14.1,0,0,0,98.87,41.83Z" style="fill:#fff"/><path d="M87,80.06c-.51,1.19-.76,2.56-2.22,3.07.9-1.38,1.37-2.82.31-4.45l.34,0,.59.7.19-1.11Z" style="fill:#fff"/><path d="M97.41,152.53l.06,1.1.7,1.47c-1.54.79-.42,2.71-1.79,3.77.18-1.39.33-2.66.49-3.93.06-.45.09-.9.18-1.34A11.21,11.21,0,0,1,97.41,152.53Z" style="fill:#fff"/><path d="M50.64,116.7c0,.55,0,1.09,0,1.63l-2.87-1.89c-.09-.32-.19-.64-.37-1.26l2.61,1.21Z"/><path d="M41.87,122.74l-.3,2c-.63.16-.77-.14-.65-.69s.16-.81.25-1.28l-.81.3,0,0a3.11,3.11,0,0,0,.49-3.23c-.24-.59.23-1.48.36-2.17l.37.69-.37,4.81Z" style="fill:#fff"/><path d="M90.24,82.09a2.89,2.89,0,0,1-2.09,4Z" style="fill:#fff"/><path d="M82.61,93.46c-.26.38-.51.76-.8,1.12a.64.64,0,0,1-.44.28,24.14,24.14,0,0,1-3-.28c-.4-.08-.73-.5-1.06-.9,1.86,1.26,3.4-.16,5-.48Z"/><path d="M87,80.06l-.79-1.82-1.65-2.81h.83c.12.09.24.18.37.26a7.16,7.16,0,0,0,.66,1.46A3,3,0,0,1,87,80.06Z"/><path d="M97.47,50.94V47.38l-.7.6-.21-.12,1-2.69C98.63,47.26,97.54,49.1,97.47,50.94Z" style="fill:#fff"/><path d="M87.58,63.62c.51-.71.73-1.46,1.85-1.09.77.26,2.62-1.12,3-2a4.32,4.32,0,0,1,.65-.75C92.4,63.12,89.64,62.68,87.58,63.62Z" style="fill:#fff"/><path d="M33.86,140.19c-.07,2.59-.15,5.18-.21,7.78,0,1,0,2,0,3.11-.11-.12-.32-.24-.32-.36.11-3.41.24-6.82.37-10.23,0-.1.13-.19.2-.28Z" style="fill:#fff"/><path d="M36,138.19v-.55l.23,0,.91,2.94.4,2.15-.37.08C35.93,141.48,36.51,139.66,36,138.19Z"/><path d="M84.77,83.09c.29,0,.68.21.85.09,1.87-1.34,1.88-1.39,2.35-3.69l-.35,3.13-3.34,1.29-.23-.46Z" style="fill:#fff"/><path d="M41.49,16.36,38.7,19.51l.25-.9,0-.31c0-.08,0-.16,0-.24h0l.18-.21.31-.47,1.22-.74h.16Z" style="fill:#fff"/><path d="M76.62,100.15l1.64-3.08c.86.77.16,1.62,0,2.44C77.83,100,77.41,100.56,76.62,100.15Z"/><path d="M51.4,119.74l.6.35h0l.59.77L54,122.13l-1.91-.38.2.53A2.08,2.08,0,0,1,51.4,119.74Z" style="fill:#fff"/><path d="M45.76,116.34l.14-.58.78.39c0,.71.54,1.37,0,2.18-.18.26.38,1,.6,1.54L47,120Z" style="fill:#fff"/><path d="M32.19,127c-.08,2-.18,3.94-.22,5.91a16.93,16.93,0,0,0,.2,2l-.36,0-.33-4.54.26-2.42,0,0,.51-1Z" style="fill:#fff"/><path d="M26.1,135.47l1.19,4-.28.1-1.06-2-.71-1.9.26-1,.61.86Z"/><path d="M86.76,72.69c.76-.33,1.42-.93,2.44-.23.32.22,1.08-.15,1.61-.32.1,0,.1-.39.17-.76l.43.05c0,.22,0,.51-.1.64a1.94,1.94,0,0,1-1,.66c-1.16.2-2.35.29-3.53.42Z" style="fill:#fff"/><path d="M85.72,75.69c-.13-.08-.25-.17-.37-.26-.08-.48-.17-1-.25-1.43-.12-.77-.4-1.6.64-2-.61,1.47.17,2.55,1,3.61.11.13.1.35.15.54Z" style="fill:#fff"/><path d="M90.71,66l2.19-2.61.52,1.47Z" style="fill:#fff"/><path d="M31.74,128l-.26,2.42c0-.22-.08-.43-.13-.65l-1.17-4.42.35-.12Z"/><path d="M79,80.22c-.57,0-.62-.16-.78-.87-.21-.89-.49-1.76-.76-2.72l1.07.68Z" style="fill:#fff"/><path d="M76.61,70.32l-.72-.95a9.51,9.51,0,0,1,1.07.5c.34.21.86.44.91.73A11.87,11.87,0,0,1,78,73.06c0,.14-.31.27-.58.4C78,72.16,77.43,71.2,76.61,70.32Z" style="fill:#fff"/><path d="M49.92,12c-.1.22-.14.51-.3.63A34.37,34.37,0,0,1,46,14.84l3.65-3.06Z"/><path d="M94.58,48.27l.24,5C93.94,51.72,93.94,48.9,94.58,48.27Z" style="fill:#fff"/><path d="M22.38,152.59l-.67.43-1.78-4.14.31-.13,2.15,3.88Z"/><path d="M83.44,82.48l.78-2.68.82.13a5.93,5.93,0,0,1-.37,1.8c-.2.37-.8.51-1.22.76Z" style="fill:#fff"/><path d="M79,80.22l-.47-2.91c.83,0,1.14.41.84,1.23a1.89,1.89,0,0,0-.12.93c.08.42,0,1.2.87.69.08,0,.4.32.6.5l-.36.43Z" style="fill:#fff"/><path d="M61.24,115.26c0,1,.11,1.94.17,2.9-.12,0-.35,0-.35,0-.13-.87-.23-1.74-.34-2.62l-.23-1.26C61.46,114.05,60.77,115.08,61.24,115.26Z" style="fill:#fff"/><path d="M87.81,69.67l.31-.29c.87,0,2-.95,2.48.67.05.16.59.16.86.44Z" style="fill:#fff"/><path d="M44.55,130.88l-.22-.87-.38.79.53-3.91.12,0,.18,4Z" style="fill:#fff"/><path d="M44,142.59l.71,5.69-.3,0-.69-5.71Z" style="fill:#fff"/><path d="M84.19,65.83l.12.85,1.63-.74.23.37-1.88,1.45-.39-1.88Z" style="fill:#fff"/><path d="M98.17,155.1l-.7-1.47.82-1.1.47,1.09Z"/><path d="M94.8,35.25c1.21.74,1.8,1.7.79,3.15Z" style="fill:#fff"/><path d="M33.35,151.71l-.61,6.52h-.1l.45-6.53Z" style="fill:#fff"/><path d="M94.31,92.32c-.75-1.18-1.51-2.4-2.23-3.54C93.07,89,94.47,91.2,94.31,92.32Z" style="fill:#fff"/><path d="M85.9,100.35l.65,5.84-.25,0-.72-5.78Z" style="fill:#fff"/><path d="M39.06,133.47v4.6h-.29v-4.6Z" style="fill:#fff"/><path d="M86.77,68.74,85.71,70a4.2,4.2,0,0,0-.53-.58c-.34-.27-.71-.48-1.36-.91l2.4.17h.22Z" style="fill:#fff"/><path d="M20.12,157.22l.11-1,.95.82.17-.23-.42-1,0,0,1.69,1.81Z" style="fill:#fff"/><path d="M81.49,74.86a1.81,1.81,0,0,1,1.09,2.78Z" style="fill:#fff"/><path d="M77.35,86.05l-.23-.38c1.6-.61.43-1.83.66-2.74.81.23,1,1.43.32,2.71h0Z" style="fill:#fff"/><path d="M74.57,85.5l-2-1.77c.3-.08.65-.3.86-.21A1.73,1.73,0,0,1,74.57,85.5Z" style="fill:#fff"/><path d="M60.49,114.24l.23,1.26-1.51-1.19L58.77,113l1.3.92Z"/><path d="M82.39,93l-1.59-.09c0-.1,0-.28,0-.29,1-.4,1.93-.78,2.89-1.17Z" style="fill:#fff"/><path d="M40.13,127.73l0,2.36-.6.23C39.46,129.4,39,128.36,40.13,127.73Z"/><path d="M110.61,130.22l-1-3.47.17-.07.84,2.22.19-1.24v2.53Z" style="fill:#fff"/><path d="M29.12,132.4l-.83-3.65.44-.09.74,4.34Z"/><path d="M94.63,60.17l-.88,3.09c-1-1.31.52-2.18.46-3.27Z" style="fill:#fff"/><path d="M71.79,88.62c.36.44.06.64-.3.72A2.24,2.24,0,0,0,69.8,91.4l-.3-.14c.3-.61.6-1.22.91-1.83.2-.36.43-.7.64-1.05h.27Z"/><path d="M78.1,85.64c1.29-.49,1.22-1.58,1.19-2.64.91.6.73,1.37.16,2-.3.34-.88.42-1.34.62Z" style="fill:#fff"/><path d="M35.51,141.61l0,0a9.16,9.16,0,0,1,.47,1.66,8.23,8.23,0,0,1-.17,2.56Z" style="fill:#fff"/><path d="M91.75,57.76a2.38,2.38,0,0,1-2.56.17c.81-.3,1.67-.62,2.53-.92,0,0,.15.12.23.18Z" style="fill:#fff"/><path d="M113.8,129.62l1.44,3.94-.27.11-1.49-3.93Z" style="fill:#fff"/><path d="M102.91,96.32l-.17.27-2.67-2C101.6,94.19,102.06,95.57,102.91,96.32Z" style="fill:#fff"/><path d="M42.6,141.8l-.79-4.32.19,0,.9,4.3Z" style="fill:#fff"/><path d="M89.06,56.31a25.22,25.22,0,0,0,1.07-2.51c.11-.34-.12-.79-.19-1.19l.92.13C90,53.85,90.88,55.7,89.06,56.31Z" style="fill:#fff"/><path d="M45.75,130.17l.09,1.38-.44-.66L45,133.11C44.16,132,45.18,131.11,45.75,130.17Z" style="fill:#fff"/><path d="M43,126.44l-.24-3.12.38-2c.11.58.21.87.23,1.16a18.28,18.28,0,0,1,.07,2.45A6.42,6.42,0,0,1,43,126.44Z" style="fill:#fff"/><path d="M109.7,131.23l-.81-2.32.73.87.14-.05-.4-1.27.39,0,.26,2.76Z" style="fill:#fff"/><path d="M42,144.13l-.83-4,.49-.07c.11,1.36.21,2.72.32,4.08Z" style="fill:#fff"/><path d="M88.59,81l-.27-2.43.54-.91.35,2.48L89,79.74Z" style="fill:#fff"/><path d="M96.33,94.71,97.82,98l-.29.13L96,94.87Z" style="fill:#fff"/><path d="M91.75,57.76l.2-.57c1.18-.78.75-2,.79-3.06A2.62,2.62,0,0,1,91.75,57.76Z" style="fill:#fff"/><path d="M103.17,106.19l.14,1,.35-1.16.34,2.18-.17,0-.16-.9h-.17l-.07,1.19h-.1l-.27-2.25Z" style="fill:#fff"/><path d="M84.48,71.74a3.11,3.11,0,0,0-.3,3c-1-1.07-.73-2.58.59-4Z" style="fill:#fff"/><path d="M105.09,114.81l-.15,0-.27-.74,0,0v-.76l0,0,.52.75v-1l0,0,.27-.77,0,0,.2-1a10.55,10.55,0,0,1,0,1.86A7.72,7.72,0,0,1,105.09,114.81Z" style="fill:#fff"/><path d="M40.62,16.63l-1.22.74,2.15-2v.27l0,0-.28.28,0,0-.28.28,0,0-.28.28,0,0Z"/><path d="M70.11,37.75l-.78-.86.14-.13.4.29,0,0h.29l0,0,.61.58-.27.09Z" style="fill:#fff"/><path d="M105.59,111.4l-.2,1c0-.51-.11-.84-.7-.75,0-.24,0-.47,0-.71l.48.31.08-.56Z"/><path d="M76.47,61.12l.86.57L77,62l-.64-.79Z" style="fill:#fff"/><path d="M76.88,59.57l-.47-.21c.06-.24.11-.48.17-.73l.45-.08,0,.64Z"/><path d="M105.21,110.69l-.08.56-.48-.31,0,0,0-1Z" style="fill:#fff"/><path d="M76.58,58.63l-.17.73-.06-1,0,0,.29.29Z" style="fill:#fff"/><path d="M104.65,110l0,1-.27-.47-.09-.65Z"/><path d="M79.74,48.38c-.12.08-.19.16-.23.14a1.37,1.37,0,0,1-.24-.18c.06-.05.14-.16.18-.15A1.43,1.43,0,0,1,79.74,48.38Z" style="fill:#fff"/><path d="M76.88,59.57l.17-.38.2.48Z" style="fill:#fff"/><path d="M86.44,68.66h-.22l-.16-.18h.39C86.45,68.54,86.44,68.6,86.44,68.66Z" style="fill:#fff"/><path d="M38.46,19l-.05-.56.27-.15,0,0,0,.48,0,0-.28.27Z"/><path d="M71.32,88.38h-.27l-.2-.14Z" style="fill:#fff"/><path d="M109.15,110.16c0,.14,0,.28,0,.11,0,.16,0,0,0-.08Z" style="fill:#fff"/><path d="M76.35,58.41l.23,0,0,0h-.29Z" style="fill:#fff"/><path d="M77,58.55l-.45.08,0,0v-.3l0,0Z" style="fill:#fff"/><path d="M85.71,71.93l.2-.55Z" style="fill:#fff"/><path d="M109.18,110.19l.1-.45,0,0,.2.32-.29.06Z" style="fill:#fff"/><path d="M39.09,17.84l-.18.21Z"/><path d="M109.28,109.74l-.25-.12.21.16Z" style="fill:#fff"/><path d="M69.87,37.05l.18-.18.07.18,0,0h-.29Z" style="fill:#fff"/><path d="M59.22,115.18h0Z"/><path d="M41.55,15.69v-.27l.27.14v0Z" style="fill:#fff"/><path d="M86.69,68.21l-.23.26.05-.25.14,0Z" style="fill:#fff"/><path d="M70.11,37.75l.35,0Z"/><path d="M38.9,18.06c0,.08,0,.16,0,.24l-.22,0,0,0Z"/><path d="M53.79,57.93l-.43-.75-.37.09.66-.91-.91-.16L54,55.06l-.09-.13L51.56,56.6l.37-1.22.06-.1c.55-.26.49-1-.12-1.44l-.48-.48-.7-.29c0-.58.08-1.24-1.14-.72l.77-1h0l-1.56.72-.16-.32L50,50.51l-.06-.1-1.8.88c-.88-1,.2-2.69-1.34-3.45l1.52-1.65c.44-.51.52-1.44,1.53-1.24l1,.27,0,.8,3.62.61.08.57c1.86-.81,3.91.81,5.71-.66a3,3,0,0,1,1.8-.38l-3.75,2.47,2.41.63.29,1.09L60,50.79l1.48.22-1.22.68c.38.67,1.7-.63,1.23.93l-3.14,3.12-3.06,2.4-.81-.73-.19.51Z"/><path d="M64.56,86.45c.73,1.15,1.46,2.29,2.16,3.45a1.58,1.58,0,0,1,.08.63.22.22,0,0,1-.11,0l-.07-.07-2.08-1.73c-.92,0-1.85,0-2.77.11-1.08.1-2.18.46-3.09-.55.43-1.11-1.47-1.82-.68-3.18l-1.21.51L56.43,87,56,87c0-1.45-.14-2.82-1.76-3.38l-.94-.72-.55-.79,1.07.23-2.49-3.88c.93.81,2.23,1.29,2.42,2.79a1,1,0,0,0,.85.59,15.78,15.78,0,0,0,2.22-.5,5.51,5.51,0,0,0-2-.2c-1.26.08-.76-1-1.13-1.58-.16-.23-.23-.6-.44-.69-.6-.26-1.05-1.16-1.9-.53-1.08-1-1.17-1.54-.55-3.06.25-.62.44-1.26.67-1.89,0-.08.17-.13.41-.32-.38,2.07,0,3.66,1.88,4.7.43.25.63,1,.83,1.5s.51,1.2,1.48.85l-.69-.23.17-1.55c.94.65,1.87,1.69,3.08.5h2a6.19,6.19,0,0,0-1.91,4.7l-.38-.12.89-3.89-2.49,2.68.12.19.81-.21c.24,1.28.44,2.6.75,3.89.19.84.48,1.63,1.71,1.42.63-.11,1.32.14,2.05.06-1.05-.43-2.53-.06-2.82-1.78l1.25.56,0-.6c.29.08.65.3.79.2,1.29-.89,2.16.32,3.22.58Z"/><path d="M64.54,88.71l2.08,1.73c.25.34.52.68.74,1,.83,1.39.62,1.89-.93,2.33-.1,0-.17.19-.26.3a3.2,3.2,0,0,0-3.36-2.26,4.82,4.82,0,0,1-1.3-.31,4.85,4.85,0,0,1,4.21,0,2.54,2.54,0,0,0-1.16-.62c-1.07-.14-2.23-.5-3,.68H59.46l-.06-.35,3.4-1.06-3.3-.3v-.31Z"/><path d="M53.75,69.41c-.62.57-.59.72-.07,1.42.14.2,0,.59,0,1l-.42-.54-1.15,1.28c.46-1.57,1.13-3.12-.91-4.1a4.07,4.07,0,0,1,.68-3.35L52.09,67c1.55-1.66,3-3.25,4.52-4.83.11-.11.36-.09.54-.13l-2.6,3.32c-.17.3-.46.58-.5.9C53.9,67.29,53.84,68.35,53.75,69.41Z"/><path d="M58.67,78.82h0c-1.66-.16-2-.52-2.51-2.45l-.31.16c-.26-.37-.69-.7-.76-1.1-.23-1.35-.86-2.68-.31-4.08.88,1.19,2.06,2.21,1.94,3.92-.1,1.4.78,2.18,1.91,2.77Z"/><path d="M74.52,92.36l1.11.81a4,4,0,0,0,.18,1.12c.74,1.43.72,2.34-.22,3.41-.57-1,.55-2.62-1.18-3.1l0,.05-1.82-.51,1.9-.38,0-.3-2.38.23C72.15,92.44,72.62,92.14,74.52,92.36Z"/><path d="M22.85,130.64l.29-2.55-.23,0-.13,1.14-.28-.05,2.24-12.37.36,0q-1,6.93-1.94,13.86Z"/><path d="M55.87,70.83l1,1.23.29-.19-.64-1.93a4.8,4.8,0,0,1,2.14,5.14l-.17-.73-.29,0c.09.71.2,1.42.28,2.13,0,.36,0,.74.07,1.11a6.26,6.26,0,0,1-.91-2.16,5.21,5.21,0,0,0-1-3.31A11,11,0,0,1,55.87,70.83Z"/><path d="M55.87,70.83a11,11,0,0,0,.79,1.32,5.21,5.21,0,0,1,1,3.31,6.26,6.26,0,0,0,.91,2.16l0,.41c-1.13-.59-2-1.37-1.91-2.77.12-1.71-1.06-2.73-1.94-3.92L55.44,70Z" style="fill:#fff"/><path d="M52.36,82.11h-.42l-.15,2.71h-.34L51.34,84h-.15l-.06,1.38c-.52-1.32-.42-1.9.66-2.28-.56-.71-1-1.38-1.6-2a4.77,4.77,0,0,1-.85-5.48c0,.83.11,1.63.15,2.44a3.7,3.7,0,0,0,2,2.9,6.93,6.93,0,0,1,.83.8Z"/><path d="M68.27,106v5.48h-.2l-.15-2h-.18v2.61l-.32,0a5.83,5.83,0,0,0-.11-1.12c-.16-.54-.44-1-.61-1.57a1.67,1.67,0,0,1-.12-1c.39-.87.9-1.68,1.37-2.51Z"/><path d="M24.86,131.89a20.83,20.83,0,0,1-.1-2.73c.17-1.88.45-3.75.68-5.62h.38a26.05,26.05,0,0,1,.1,3.18c-.14,1.67-.42,3.34-.67,5,0,.06-.28.08-.43.12Z"/><path d="M58.27,40.67,55,40.31v-.13h2.26V40l-1.4-.15v-.18l1.29-.11-.67-.22c1.4-.41,2.22.46,3.07,1.08.14.1-.1.73-.17,1.16a2.47,2.47,0,0,0-.81-.19c-.19,0-.35.42-.53.43a11.48,11.48,0,0,1-1.64-.23l1.17-.37L55,40.79v-.2l3.23.2Z"/><path d="M40.36,123.06l.81-.3c-.09.47-.16.88-.25,1.28s0,.85.65.69l0,.68-.18,1.36-1,1.54-.29-.56c.18-.57.39-1.13.54-1.71a9.45,9.45,0,0,0,.16-1.19l-.29,0-.44,1.34-.39-.08Z"/><path d="M56.68,88.72l-2.17-.46.08-.36c1-.14,2.11-1,2.94.28.44.68,1.26,1.4.23,2.59Z"/><path d="M54.55,65.34,57.15,62l2.54-1.65.09.06L57,63.68l-2,1.91-.43.25Z"/><path d="M69.49,74.45c-.12.75.52,1.77-1,2-.64.08-.82,2.12-.41,3.08.11.25.25.49.38.74-1-.64-1.25-2-.88-3.48a10.6,10.6,0,0,0,.15-2l0-.09a2.36,2.36,0,0,1,.68-.33A6.13,6.13,0,0,1,69.49,74.45Z"/><path d="M26.35,131c-.06-.92-.17-1.84-.18-2.76s.07-1.71.11-2.62c.95,1.17.8,2.43.66,3.71-.07.54,0,1.1-.06,1.64,0,.19-.3.36-.47.53Z"/><path d="M51.37,78.31c.85-.63,1.3.27,1.9.53.21.09.28.46.44.69.37.53-.13,1.66,1.13,1.58a5.51,5.51,0,0,1,2,.2,15.78,15.78,0,0,1-2.22.5,1,1,0,0,1-.85-.59c-.19-1.5-1.49-2-2.42-2.79A.24.24,0,0,0,51.37,78.31Z" style="fill:#fff"/><path d="M51.9,65.09a4.07,4.07,0,0,0-.68,3.35c-.46.12-1.39-.59-1.25-1,.22-.67.63-1.27.9-1.92a2.71,2.71,0,0,0,.07-.86l.47-.48Z" style="fill:#fff"/><path d="M49.58,84.14c.94,1,1.57,1.86,2.34,2.54a26.45,26.45,0,0,0,2.45,1.74l-.37.49a15.26,15.26,0,0,1-4-3.49A4,4,0,0,1,49.58,84.14Z"/><path d="M68.14,62.68c.55.71,0,1.21-.29,1.81a11,11,0,0,0-.64,1.91,2.12,2.12,0,0,1,.2-3.35Z"/><path d="M70.57,91.32,70.8,90a11.78,11.78,0,0,1,2.74-.72c.52,0,1.06.58,1.56,1C73.5,90.15,72,90.06,70.57,91.32Z"/><path d="M49.88,45c-1-.2-1.09.73-1.53,1.24l-1.58.94L46.61,47l1.29-1.7-.57-.91L49,44.26C49.48,44.21,50,44.2,49.88,45Z"/><path d="M54.65,43.65l5.49-.56a4.3,4.3,0,0,1-3.72,1.16A10.87,10.87,0,0,1,54.65,43.65Z"/><path d="M51.41,64.15l-.47.48-2.16,1.7-.25-1,.24-.45L50,63.56Z"/><path d="M55.3,58.14l3.06-2.4.31.28c-.76.79-1.49,1.61-2.29,2.36a4,4,0,0,1-1.14.52Z"/><path d="M37.26,136.64l-.62,1a6.15,6.15,0,0,1,.38-5.11c.08,1.59.15,2.87.21,4.15Z"/><path d="M58.67,56l-.31-.28,3.14-3.12c0,.29,0,.65-.11.85a19.35,19.35,0,0,1-1.69,2A3.56,3.56,0,0,1,58.67,56Z"/><path d="M26.28,134.08l1.25,3.4-.37.13-1.06-2.13v0l-.74-3.21c.39.33.56.47.72.62C26.15,133.3,26.22,133.69,26.28,134.08Z"/><path d="M32.22,127l-.51,1c-.29-1-.59-2.1-.85-3.15a2.93,2.93,0,0,1,0-1.5l.7.82.4,1.2Z"/><path d="M55,65.59l2-1.91c-.54.84-1.08,1.68-1.6,2.53a11.51,11.51,0,0,0-.79,1.41c-.24.59-.4,1.21-.59,1.82C54.48,68.2,53.89,66.68,55,65.59Z"/><path d="M67.74,74.73a3.55,3.55,0,0,1-1.75,3c.3-1,.52-1.94.86-2.81.07-.19.55-.21.84-.32Z"/><path d="M51.32,69.45c.87,1.8.7,2.67-.94,3.9L51,70.73l.21.08L51,69.48Z"/><path d="M28.33,134.55V136l-.42-.35c-.18-.56-.4-1.12-.53-1.69s-.2-1.26-.3-1.89l.37-.15.5.62Z"/><path d="M53.34,82.87l.94.72c.59,1,1.43,2,.88,3.27a1.37,1.37,0,0,1-.73.63c.83-1.36.16-2.44-.47-3.53Z"/><path d="M14,156.45l-.07,1-.35.11c-.68-1.65-1.38-3.3-2-5-.08-.21.14-.53.22-.8l0,0c.59,1.53,1.17,3.06,1.78,4.58C13.53,156.42,13.8,156.41,14,156.45Z"/><path d="M34.43,121.22l-1.75-4.65.45-.16,1.69,4.67Z"/><path d="M28.33,134.55,28,132.5c.22.36.46.7.65,1.06s.33.76.5,1.14v2.77l-.36,0c0-.48-.07-1-.13-1.45S28.42,135.05,28.33,134.55Z"/><path d="M37.06,133.69l.87-4.22.39.07-.76,4.24Z"/><path d="M12.83,150.85l-1.47-4.36a.78.78,0,0,1,.09-.75c.58,1.59,1.17,3.17,1.73,4.76,0,.06-.25.21-.39.31Z"/><path d="M13,135.48l-.63,3.33C11.42,137.61,11.72,135.8,13,135.48Z"/><path d="M60.49,114.24l-.42-.36-1.5-2.16c1,1.07,2.86,1.62,2.67,3.54C60.77,115.08,61.46,114.05,60.49,114.24Z"/><path d="M38.73,31.45l-3,2.09a6.74,6.74,0,0,1,1.17-1.79,4.35,4.35,0,0,1,1.71-.41Z"/><path d="M14,156.45c-.17,0-.44,0-.48-.12-.61-1.52-1.19-3.05-1.78-4.58.28.6.51,1.21.83,1.79a9.43,9.43,0,0,0,.84,1.1Z" style="fill:#fff"/><path d="M26.28,134.08c-.06-.39-.13-.78-.19-1.17-.17-.77-.34-1.54-.57-2.56l.83.6.06.5c.09.69.21,1.38.25,2.08C26.66,133.71,26.41,133.9,26.28,134.08Z"/><path d="M47.89,59.61c-.64.64-1.1,1-1.47,1.48S45.7,62.16,45.16,63C45.64,61.14,46.8,59.55,47.89,59.61Z"/><path d="M19.53,122l.24-3.17A2.38,2.38,0,0,1,19.5,122Z"/><path d="M55,65.59c-1.09,1.09-.5,2.61-1,3.85l-.25,0c.09-1.06.15-2.12.3-3.17,0-.32.33-.6.5-.9v.5Z" style="fill:#fff"/><path d="M48.77,64.89l-.24.45c-.49,1.13-1,2.26-1.45,3.39a.41.41,0,0,1-.31.27C47.42,67.62,46.78,65.64,48.77,64.89Z"/><path d="M64.61,86.5c.08-.12.2-.34.23-.33.65.26,1.29.55,1.93.84l-.48,1.16-1.72-1.72Z"/><path d="M50.64,116.7l-.59-.31-1.56-1.57.31-.34c.7.56,1.74.72,1.92,1.9Z"/><path d="M19.12,120.58c-1.23-1.15.53-2-.05-3.21C19.74,117.87,19.74,117.87,19.12,120.58Z"/><path d="M74.41,94.6c.47.71,1.06,1.39.57,2.33L73.3,94.65h1.15Z"/><path d="M35.14,135.88l-.85,1.43.32-3.88h.32c.06.83.11,1.66.16,2.49Z"/><path d="M54.16,120.9c-.25-.85-.56-1.68-.74-2.54a7.57,7.57,0,0,1,0-1.58l.34,0,.42,4.15Z"/><path d="M32.71,117.71c.17,1.14,1.34,2,.8,3.62l-1.19-3.56Z"/><path d="M31.93,125.38l-.4-1.2-.13-1.38.42-.1c.21.81.41,1.61.58,2.43C32.41,125.18,32.09,125.3,31.93,125.38Z"/><path d="M59,107.91l.9,3A2.26,2.26,0,0,1,59,107.91Z"/><path d="M28.91,143.29c-1-.1-.75-.93-.77-1.5a3.37,3.37,0,0,1,.53-1.72c.07,1.08.13,2.17.2,3.25Z"/><path d="M13.38,154.64a9.43,9.43,0,0,1-.84-1.1c-.32-.58-.55-1.19-.83-1.79l0,0-.3-1.19.27-.08Z"/><path d="M20.93,155.82l.42,1-.17.23-.95-.82L19.6,154l.15,0Z"/><path d="M23.46,114.68l-.92,4.91h-.18c.08-.84.12-1.68.25-2.51s.36-1.65.55-2.47Z"/><path d="M52,55.28l-.06.1-.77.52.21-.91-1.43.94.52-1.42,0,.05.75-.27Z"/><path d="M32.58,124.06l-.81-2.76.48-.13.84,2.79Z"/><path d="M13,122l.93,3.5-.31.09-1-3.46Z"/><path d="M25.13,111.57l-.45,3-.36,0,.46-3.07Z"/><path d="M24,116.81l-.46,3.55-.36,0,.36-3.52Z"/><path d="M35.47,116.74l-1.14-3.42.29-.09,1.13,3.45Z"/><path d="M35.9,126.51l-.88.27v1.47c.09-.8-.7-1.8.5-2.41.17-.1.06-.74.19-1.14Z"/><path d="M12.79,150.81l.39,1.66-.24.09-1.53-3.9.2-.08c.41.75.81,1.51,1.22,2.27Z"/><path d="M13.43,122.59l-.75-2.93.37-.1.79,3Z"/><path d="M22.36,145.45l-.29,3.05-.38,0,.28-3Z"/><path d="M21.88,129.87l-.34-2.22.19,0,.35.6.08-1.34.29,0-.4,2.92Z"/><path d="M60.37,71.63l-1.83-2.35.3-.24,1.85,2.33Z"/><path d="M55.3,58.14l-.06.76,0,0-.76.51,0,0-.51.5-.46-.74.73-.47,0,0c.46-.26.76-.52,0-.76l0,0,.19-.51Z" style="fill:#fff"/><path d="M50.46,54.51l-.6.39-.28-1.46.67-.11.44.47-.27.76Z"/><path d="M41.55,15.69l.26-.16c-.11.28-.21.56-.32.83l-.71.28.08-.27,0,0,.28-.28,0,0,.28-.28,0,0,.28-.28Z"/><path d="M54.5,59.37l.76-.51Z"/><path d="M54.3,58.62l-.73.47.26-.62Z"/><path d="M54.3,58.62l-.47-.15,0-.54h.51l0,0v.76Z" style="fill:#fff"/><path d="M38.43,19.49l-.27.7L37.94,20l.51-.52Z"/><path d="M54,59.83l.51-.5Z"/><path d="M39,18.61l-.25.9-.27,0,0,0V19l0,0,.28-.27,0,0Z"/><path d="M50.69,53.07l.7.29,0,0-.71.05-.06-.06Z" style="fill:#fff"/><path d="M50.69,53.8l-.44-.47h.41l.06.06-.06.45Z" style="fill:#fff"/><path d="M52.36,82.11v0Z"/><polygon points="56.11 109.07 56.15 109.16 56.06 109.15 56.11 109.07"/><polygon points="35.98 43.88 35.9 43.91 35.91 43.83 35.98 43.88"/><path d="M101.42,135.82c-.09-1.47-.19-2.94-.28-4.42a5,5,0,0,1,.26,4.39Z"/><path d="M101.4,135.79c-.2.69-.41,1.39-.62,2.08l0,0c-.32-.71-.32-.71.07-3,.2.34.37.64.54.95Z"/><path d="M104.69,111.65c.59-.09.74.24.7.75l0,0-.27.77,0,0-.51-.85Z" style="fill:#fff"/><path d="M104.67,112.25l.51.85v1l-.52-.75Z"/><path d="M104.7,113.32v.76h-.26Z"/><path d="M41.4,130.77l-.61.63v-2.93h.27l.3,2.35Z"/><path d="M89.33,160.39Z" style="fill:#fff"/><path d="M86.65,68.19l.11-.12-.07.14Z" style="fill:#fff"/><path d="M52,120.09Z"/><path d="M104.67,114.05l.27.74Z"/><path d="M39,18.61l-.28.2,0-.48.22,0Z" style="fill:#fff"/><path d="M40.86,16.37l-.08.27h-.16Z" style="fill:#fff"/><path d="M105.15,113.13l.27-.77Z"/><path d="M41.1,16.13l-.28.28Z" style="fill:#fff"/><path d="M41.34,15.89l-.28.28Z" style="fill:#fff"/><path d="M41.58,15.65l-.28.28Z" style="fill:#fff"/><path d="M69.85,37h0Z"/><path d="M76.62,58.36v.3l-.29-.29Z"/><path d="M38.7,18.77l-.28.27Z" style="fill:#fff"/><path d="M52,55.28l-.82-1,0,0,.76-.51,0,0C52.48,54.28,52.54,55,52,55.28Z" style="fill:#fff"/><path d="M51.39,53.36l.48.48,0,0-.75.25,0,0,.26-.75Z" style="fill:#fff"/><path d="M61.54,91.58c.79-1.18,2-.82,3-.68a2.54,2.54,0,0,1,1.16.62,4.85,4.85,0,0,0-4.21,0Z" style="fill:#fff"/><path d="M50.42,54.56l.27-.76,0,0,.51.25,0,0v.26l0,0Z" style="fill:#fff"/><path d="M54.27,58.65v-.76C55,58.13,54.73,58.39,54.27,58.65Z"/><path d="M51.17,54.08l-.51-.25.06-.45.71-.05Z"/><path d="M51.14,54.32v-.26l.75-.25Z"/></g></svg>