<svg id="model-ct-dm" xmlns="http://www.w3.org/2000/svg" viewBox="0 0 993.5 974.92">
  <defs>
    <style>
      .cls-1, .cls-2 {
        fill: #fff;
      }

      .cls-1, .cls-10, .cls-3, .cls-5, .cls-6, .cls-7, .cls-8, .cls-9 {
        stroke: #231f20;
        stroke-miterlimit: 10;
      }

      .cls-3 {
        fill: none;
      }

      .cls-11, .cls-15, .cls-16, .cls-17, .cls-18, .cls-4 {
        fill: #231f20;
      }

      .cls-5 {
        fill: #b4b2ad;
      }

      .cls-6 {
        fill: #e13c30;
      }

      .cls-7 {
        fill: #4b8cca;
      }

      .cls-8 {
        fill: #e5e2e0;
      }

      .cls-9 {
        fill: #f99d22;
      }

      .cls-10 {
        fill: #74aa4e;
      }

      .cls-11 {
        font-size: 27px;
      }

      .cls-11, .cls-15, .cls-16, .cls-17, .cls-18 {
        font-family: ArialMT, Arial;
      }

      .cls-12 {
        letter-spacing: -0.06em;
      }

      .cls-13 {
        letter-spacing: -0.02em;
      }

      .cls-14 {
        letter-spacing: -0.04em;
      }

      .cls-15 {
        font-size: 18px;
      }

      .cls-16 {
        font-size: 23px;
      }

      .cls-17 {
        font-size: 20px;
      }

      .cls-18 {
        font-size: 14px;
      }

      .cls-19 {
        letter-spacing: -0.02em;
      }
    </style>
  </defs>
  <title>model-ct-dm</title>
  <g id="Lines">
    <polyline class="cls-1" points="150.9 654.21 150.9 457.76 150.9 280.56"/>
    <g>
      <line class="cls-2" x1="150.9" y1="475.34" x2="344.69" y2="475.34"/>
      <g>
        <line class="cls-3" x1="150.9" y1="475.34" x2="337.52" y2="475.34"/>
        <polygon class="cls-4" points="336.06 480.32 344.69 475.34 336.06 470.35 336.06 480.32"/>
      </g>
    </g>
    <g>
      <line class="cls-2" x1="646.27" y1="475.34" x2="693.16" y2="475.34"/>
      <g>
        <line class="cls-3" x1="646.27" y1="475.34" x2="685.98" y2="475.34"/>
        <polygon class="cls-4" points="684.52 480.32 693.16 475.34 684.52 470.35 684.52 480.32"/>
      </g>
    </g>
    <g>
      <line class="cls-2" x1="483.88" y1="653.83" x2="483.88" y2="575.89"/>
      <g>
        <line class="cls-3" x1="483.88" y1="653.83" x2="483.88" y2="583.07"/>
        <polygon class="cls-4" points="488.87 584.53 483.88 575.89 478.9 584.53 488.87 584.53"/>
      </g>
    </g>
  </g>
  <g id="Shapes">
    <g id="outcomes">
      <rect id="rect-outcomes" class="cls-5" x="691.42" y="325.89" width="301.58" height="250"/>
      <rect id="rect-outcomes-satisfaction" class="cls-1" x="696.77" y="384.25" width="290.88" height="53.91"/>
      <rect id="rect-outcomes-regret" class="cls-1" x="696.77" y="463.1" width="290.88" height="53.91"/>
    </g>
    <g id="info">
      <rect id="rect-info" class="cls-6" x="8.04" y="30.56" width="301.58" height="250"/>
      <rect id="rect-info-comm" class="cls-1" x="12.64" y="38.21" width="290.88" height="133.95"/>
      <rect id="rect-info-feasibility" class="cls-1" x="12.64" y="184.25" width="290.88" height="89.07"/>
    </g>
    <g id="inter">
      <rect id="rect-inter" class="cls-7" x="344.69" y="653.83" width="301.58" height="250"/>
      <rect id="rect-inter-spirit" class="cls-1" x="349.98" y="677.35" width="290.88" height="53.91"/>
      <rect id="rect-inter-dpp" class="cls-1" x="349.98" y="753.34" width="290.88" height="111.81"/>
      <rect id="rect-inter-dpp-benefits" class="cls-8" x="361.32" y="799.79" width="119.66" height="58.6"/>
      <rect id="rect-inter-dpp-mistrust" class="cls-8" x="507.76" y="799.79" width="119.66" height="58.6"/>
    </g>
    <g id="process">
      <rect id="rect-processing" class="cls-9" x="344.69" y="325.89" width="301.58" height="250"/>
      <rect id="rect-process-dm" class="cls-1" x="349.98" y="384.25" width="290.88" height="132.75"/>
      <rect id="rect-process-dm-balance" class="cls-8" x="358.32" y="446.04" width="119.66" height="58.6"/>
      <rect id="rect-process-dm-imbalance" class="cls-8" x="504.76" y="446.04" width="119.66" height="58.6"/>
    </g>
    <g id="intra">
      <rect id="rect-intra" class="cls-10" x="8.04" y="653.83" width="301.58" height="250"/>
      <rect id="rect-intra-health-disparitites" class="cls-1" x="12.64" y="677.35" width="290.88" height="187.8"/>
      <rect id="rect-intra-disparities-benefits" class="cls-8" x="25.03" y="799.79" width="119.66" height="58.6"/>
      <rect id="rect-intra-disparities-mistrust" class="cls-8" x="171.47" y="799.79" width="119.66" height="58.6"/>
    </g>
  </g>
  <g id="Words">
    <text class="cls-11" transform="translate(376.4 135.61)"><tspan class="cls-12">A</tspan><tspan x="16.52" y="0" xml:space="preserve"> Model of Cancer Clinical</tspan><tspan class="cls-13" x="316.64" y="0"> </tspan><tspan class="cls-14" x="323.65" y="0">T</tspan><tspan x="339.14" y="0">rial Decision-making</tspan></text>
    <g id="intra-2" data-name="intra">
      <text class="cls-15" transform="translate(36.34 821.59)">+ Benefits to <tspan x="6.77" y="21.6">community</tspan></text>
      <text class="cls-15" transform="translate(186.18 821.59)">- Mistrust of <tspan x="11.99" y="21.6">research</tspan></text>
      <text class="cls-16" transform="translate(46.84 719.98)">The Health Disparities <tspan x="67.76" y="27.6">Dilemma</tspan></text>
      <text class="cls-11" transform="translate(80.03 933.75)">Intrapersonal <tspan x="1.52" y="32.4">Perspectives</tspan></text>
    </g>
    <g id="inter-2" data-name="inter">
      <text class="cls-15" transform="translate(372.72 822.93)">+ Benefits to <tspan x="-1.25" y="21.6">concordance</tspan></text>
      <text class="cls-15" transform="translate(524.7 822.93)">- Mistrust of <tspan x="-1.52" y="21.6">discordance</tspan></text>
      <text class="cls-16" transform="translate(401.51 707.8)">Spiritual Guidance</text>
      <text class="cls-16" transform="translate(397.06 788.53)">Decision Partner(s)</text>
      <text class="cls-11" transform="translate(416.68 932.75)">Interpersonal <tspan x="1.52" y="32.4">Perspectives</tspan></text>
    </g>
    <g id="process-2" data-name="process">
      <text class="cls-15" transform="translate(376.79 468.44)">+ Decision <tspan x="10.75" y="21.6">balance</tspan></text>
      <text class="cls-15" transform="translate(530.87 468.44)">- Decision <tspan x="-1.01" y="21.6">imbalance</tspan></text>
      <text class="cls-16" transform="translate(385.35 427.67)"><tspan class="cls-14">T</tspan><tspan x="13.2" y="0">rial Decision-making</tspan></text>
      <text class="cls-11" transform="translate(373.18 318.75)">Decision Processing</text>
    </g>
    <g id="outcomes-2" data-name="outcomes">
      <text class="cls-17" transform="translate(717.15 414.73)">Decision-related satisfaction</text>
      <text class="cls-17" transform="translate(741.05 495.65)">Decision-related regret</text>
      <text class="cls-11" transform="translate(725.16 318.75)">Decision Outcomes</text>
    </g>
    <g id="info-2" data-name="info">
      <text class="cls-15" transform="translate(22.81 76.55)">Communication</text>
      <text class="cls-18" transform="translate(182.06 129.54)">Lack of clinical <tspan x="0" y="16.8">trial knowledge</tspan></text>
      <text class="cls-18" transform="translate(36.41 129.54)">Methods of <tspan x="0" y="16.8">introduction</tspan></text>
      <text class="cls-15" transform="translate(178.68 55.96)">Multifaceted<tspan x="3.5" y="21.6">Information</tspan><tspan x="22.51" y="43.2">Needs </tspan></text>
      <text class="cls-11" transform="translate(19.33 23.17)">Information Gathering</text>
      <text class="cls-18" transform="translate(35.27 236.13)">Costs<tspan class="cls-14" x="0" y="16.8">T</tspan><tspan x="8.03" y="16.8">ransportation</tspan></text>
      <text class="cls-18" transform="translate(168.1 236.13)"><tspan class="cls-14">T</tspan><tspan x="8.03" y="0">ime</tspan><tspan x="0" y="16.8">Perceived harm/fear</tspan></text>
      <text class="cls-15" transform="translate(21.67 210.78)">Feasibility &amp;<tspan class="cls-19" x="97.03" y="0"> </tspan><tspan x="101.71" y="0">Therapy Side E</tspan><tspan class="cls-19" x="225.77" y="0">f</tspan><tspan x="230.45" y="0">fects</tspan></text>
    </g>
  </g>
</svg>
