<svg id="Layer_1" data-name="Layer 1" xmlns="http://www.w3.org/2000/svg" viewBox="0 0 1000 202.05">
  <defs>
    <style>
      .cls-1 {
        fill: #fff;
      }

      .cls-1, .cls-3 {
        stroke: #231f20;
        stroke-miterlimit: 10;
      }

      .cls-2 {
        fill: #231f20;
      }

      .cls-3 {
        fill: none;
        stroke-width: 2px;
      }
    </style>
  </defs>
  <title>model-decisionKEYS-Hollen</title>
  <rect class="cls-1" x="25" y="23.44" width="150" height="150"/>
  <rect class="cls-1" x="225" y="23.44" width="150" height="150"/>
  <rect class="cls-1" x="425" y="23.44" width="150" height="150"/>
  <rect class="cls-1" x="625" y="23.44" width="150" height="150"/>
  <rect class="cls-1" x="825" y="23.44" width="150" height="150"/>
  <g>
    <path class="cls-2" d="M37.78,49.64v-15h5.67a14.49,14.49,0,0,1,2.29.14,4.72,4.72,0,0,1,1.86.7,3.64,3.64,0,0,1,1.2,1.46A4.87,4.87,0,0,1,48,42.2c-.82.89-2.29,1.33-4.41,1.33H39.77v6.11Zm2-7.88h3.89A4.13,4.13,0,0,0,46.4,41a2.56,2.56,0,0,0,.81-2,2.72,2.72,0,0,0-.48-1.62,2.25,2.25,0,0,0-1.26-.88,8.22,8.22,0,0,0-1.85-.14H39.77Z"/>
    <path class="cls-2" d="M51.53,49.64V38.75h1.66V40.4a4.65,4.65,0,0,1,1.18-1.53,2.08,2.08,0,0,1,1.18-.36,3.54,3.54,0,0,1,1.9.59l-.64,1.71a2.69,2.69,0,0,0-1.35-.4,1.75,1.75,0,0,0-1.09.37,1.92,1.92,0,0,0-.68,1,7,7,0,0,0-.31,2.15v5.7Z"/>
    <path class="cls-2" d="M66,46.13l1.91.24A4.62,4.62,0,0,1,66.24,49a5.65,5.65,0,0,1-6.91-.54,5.77,5.77,0,0,1-1.4-4.13A6,6,0,0,1,59.35,40,4.77,4.77,0,0,1,63,38.51,4.68,4.68,0,0,1,66.59,40,5.93,5.93,0,0,1,68,44.18c0,.11,0,.27,0,.49H59.84a4.26,4.26,0,0,0,1,2.75,3,3,0,0,0,2.28.95,2.82,2.82,0,0,0,1.73-.53A3.57,3.57,0,0,0,66,46.13Zm-6.06-3H66a3.72,3.72,0,0,0-.69-2.06A2.84,2.84,0,0,0,63,40a3,3,0,0,0-2.14.85A3.37,3.37,0,0,0,59.94,43.15Z"/>
    <path class="cls-2" d="M77.33,45.65l1.82.24a4.72,4.72,0,0,1-1.53,2.94,4.45,4.45,0,0,1-3,1.06A4.69,4.69,0,0,1,71,48.43a6,6,0,0,1-1.36-4.19,7.57,7.57,0,0,1,.59-3.09,4.06,4.06,0,0,1,1.78-2,5.26,5.26,0,0,1,2.6-.66,4.5,4.5,0,0,1,2.9.89A4.12,4.12,0,0,1,79,42l-1.79.28a3,3,0,0,0-.91-1.65A2.34,2.34,0,0,0,74.7,40a2.89,2.89,0,0,0-2.27,1,4.76,4.76,0,0,0-.87,3.17,4.93,4.93,0,0,0,.84,3.19,2.74,2.74,0,0,0,2.19,1,2.57,2.57,0,0,0,1.82-.67A3.25,3.25,0,0,0,77.33,45.65Z"/>
    <path class="cls-2" d="M80,44.2a5.61,5.61,0,0,1,1.68-4.48,5.06,5.06,0,0,1,3.43-1.21A4.9,4.9,0,0,1,88.82,40,5.58,5.58,0,0,1,90.24,44a7.22,7.22,0,0,1-.63,3.31,4.46,4.46,0,0,1-1.83,1.87,5.3,5.3,0,0,1-2.63.67,4.89,4.89,0,0,1-3.7-1.47A5.85,5.85,0,0,1,80,44.2Zm1.9,0a4.62,4.62,0,0,0,.91,3.13,2.94,2.94,0,0,0,2.3,1,2.9,2.9,0,0,0,2.28-1,4.72,4.72,0,0,0,.92-3.18,4.54,4.54,0,0,0-.92-3.07,3,3,0,0,0-4.58,0A4.61,4.61,0,0,0,81.94,44.2Z"/>
    <path class="cls-2" d="M92.41,49.64V38.75h1.66V40.3a3.89,3.89,0,0,1,3.46-1.79,4.46,4.46,0,0,1,1.81.35,3,3,0,0,1,1.24.93,3.56,3.56,0,0,1,.57,1.36,10.49,10.49,0,0,1,.1,1.8v6.69H99.41V43a4.81,4.81,0,0,0-.22-1.69,1.73,1.73,0,0,0-.76-.89,2.46,2.46,0,0,0-1.29-.34,3,3,0,0,0-2,.75,3.7,3.7,0,0,0-.86,2.84v6Z"/>
    <path class="cls-2" d="M111.15,49.64V48.27a3.39,3.39,0,0,1-3.05,1.62,4.27,4.27,0,0,1-2.39-.72,4.75,4.75,0,0,1-1.69-2,7,7,0,0,1-.6-3,7.77,7.77,0,0,1,.54-3,4.33,4.33,0,0,1,1.63-2,4.39,4.39,0,0,1,2.43-.7,3.63,3.63,0,0,1,1.76.41A3.75,3.75,0,0,1,111,40V34.61h1.83v15Zm-5.83-5.43a4.75,4.75,0,0,0,.88,3.13,2.68,2.68,0,0,0,2.08,1,2.59,2.59,0,0,0,2-1,4.54,4.54,0,0,0,.85-3,5.15,5.15,0,0,0-.86-3.28,2.64,2.64,0,0,0-2.12-1,2.57,2.57,0,0,0-2.06,1A5,5,0,0,0,105.32,44.21Z"/>
    <path class="cls-2" d="M115.77,36.73V34.61h1.85v2.12Zm0,12.91V38.75h1.85V49.64Z"/>
    <path class="cls-2" d="M124.46,48l.27,1.63a6.83,6.83,0,0,1-1.4.16,3.19,3.19,0,0,1-1.56-.31,1.75,1.75,0,0,1-.78-.84,6.65,6.65,0,0,1-.22-2.18V40.19h-1.36V38.75h1.36V36.06L122.6,35v3.8h1.86v1.44H122.6v6.37a3.34,3.34,0,0,0,.1,1,.79.79,0,0,0,.32.36,1.23,1.23,0,0,0,.63.13A5.74,5.74,0,0,0,124.46,48Z"/>
    <path class="cls-2" d="M126.27,36.73V34.61h1.85v2.12Zm0,12.91V38.75h1.85V49.64Z"/>
    <path class="cls-2" d="M130.24,44.2a5.61,5.61,0,0,1,1.68-4.48,5.06,5.06,0,0,1,3.43-1.21A4.88,4.88,0,0,1,139,40,5.58,5.58,0,0,1,140.45,44a7.21,7.21,0,0,1-.64,3.31A4.46,4.46,0,0,1,138,49.22a5.28,5.28,0,0,1-2.63.67,4.89,4.89,0,0,1-3.7-1.47A5.85,5.85,0,0,1,130.24,44.2Zm1.9,0a4.62,4.62,0,0,0,.91,3.13,3,3,0,0,0,2.3,1,2.91,2.91,0,0,0,2.29-1,4.77,4.77,0,0,0,.91-3.18,4.54,4.54,0,0,0-.92-3.07,3,3,0,0,0-4.58,0A4.61,4.61,0,0,0,132.14,44.2Z"/>
    <path class="cls-2" d="M142.61,49.64V38.75h1.66V40.3a3.91,3.91,0,0,1,3.47-1.79,4.49,4.49,0,0,1,1.81.35,2.87,2.87,0,0,1,1.23.93,3.57,3.57,0,0,1,.58,1.36,11.66,11.66,0,0,1,.1,1.8v6.69h-1.85V43a5.11,5.11,0,0,0-.21-1.69,1.79,1.79,0,0,0-.77-.89,2.42,2.42,0,0,0-1.28-.34,3,3,0,0,0-2,.75,3.7,3.7,0,0,0-.86,2.84v6Z"/>
    <path class="cls-2" d="M153.55,46.39l1.83-.29a2.53,2.53,0,0,0,.85,1.69,3,3,0,0,0,2,.58,2.86,2.86,0,0,0,1.89-.52,1.54,1.54,0,0,0,.62-1.21,1.12,1.12,0,0,0-.55-1,8.09,8.09,0,0,0-1.88-.62,17,17,0,0,1-2.82-.89,2.68,2.68,0,0,1-1.59-2.5,2.87,2.87,0,0,1,.33-1.35,3,3,0,0,1,.91-1,3.54,3.54,0,0,1,1.17-.54,5.53,5.53,0,0,1,1.6-.22,6.48,6.48,0,0,1,2.25.36,3.14,3.14,0,0,1,1.43,1,3.83,3.83,0,0,1,.63,1.69l-1.8.25a2,2,0,0,0-.71-1.31A2.59,2.59,0,0,0,158,40a3,3,0,0,0-1.81.42,1.22,1.22,0,0,0-.55,1,1,1,0,0,0,.23.64,1.6,1.6,0,0,0,.7.5c.19.06.73.22,1.64.47a24.24,24.24,0,0,1,2.73.85,2.86,2.86,0,0,1,1.21,1,2.67,2.67,0,0,1,.44,1.58,3.15,3.15,0,0,1-.53,1.74,3.52,3.52,0,0,1-1.56,1.26,5.57,5.57,0,0,1-2.29.45A5.17,5.17,0,0,1,155,49,4.09,4.09,0,0,1,153.55,46.39Z"/>
    <path class="cls-2" d="M55.66,74.84H53.81V63.08a9.45,9.45,0,0,1-1.75,1.27,12.63,12.63,0,0,1-1.94,1V63.52a11.5,11.5,0,0,0,2.71-1.76,6.94,6.94,0,0,0,1.64-2h1.19Z"/>
    <path class="cls-2" d="M62.11,79.26H60.78a18.46,18.46,0,0,0,3.07-9.85,17.11,17.11,0,0,0-.44-3.83,15.71,15.71,0,0,0-1-2.95,31.33,31.33,0,0,0-1.65-3.08h1.33A20,20,0,0,1,65,64.72a14.11,14.11,0,0,1,.79,4.68,13.92,13.92,0,0,1-1.07,5.35A18.7,18.7,0,0,1,62.11,79.26Z"/>
    <path class="cls-2" d="M74,74.84v-15h6.66a8.93,8.93,0,0,1,3.06.4,3.36,3.36,0,0,1,1.67,1.43A4.27,4.27,0,0,1,86,63.91a3.79,3.79,0,0,1-1,2.7A5.27,5.27,0,0,1,81.77,68a5.11,5.11,0,0,1,1.2.75,10.29,10.29,0,0,1,1.65,2l2.62,4.09h-2.5l-2-3.13q-.87-1.35-1.44-2.07a4.25,4.25,0,0,0-1-1,2.91,2.91,0,0,0-.91-.4,5.72,5.72,0,0,0-1.1-.07H76v6.67Zm2-8.4h4.27a6.4,6.4,0,0,0,2.14-.28,2.32,2.32,0,0,0,1.17-.9,2.48,2.48,0,0,0,.4-1.35,2.22,2.22,0,0,0-.78-1.75,3.59,3.59,0,0,0-2.44-.69H76Z"/>
    <path class="cls-2" d="M88.9,61.93V59.81h1.84v2.12Zm0,12.91V64h1.84V74.84Z"/>
    <path class="cls-2" d="M92.82,71.59l1.82-.29A2.56,2.56,0,0,0,95.5,73a3,3,0,0,0,2,.58,2.86,2.86,0,0,0,1.89-.52,1.53,1.53,0,0,0,.61-1.21,1.13,1.13,0,0,0-.54-1,8,8,0,0,0-1.89-.62,17.87,17.87,0,0,1-2.81-.89,2.71,2.71,0,0,1-1.6-2.5,2.76,2.76,0,0,1,.34-1.35,3.07,3.07,0,0,1,.9-1,3.72,3.72,0,0,1,1.18-.53,5.46,5.46,0,0,1,1.59-.23,6.39,6.39,0,0,1,2.25.37,3,3,0,0,1,1.43,1,4,4,0,0,1,.64,1.69l-1.8.25a2,2,0,0,0-.72-1.32,2.62,2.62,0,0,0-1.66-.47,3,3,0,0,0-1.82.42,1.23,1.23,0,0,0-.54,1,1,1,0,0,0,.22.64,1.64,1.64,0,0,0,.71.5l1.63.47a22.93,22.93,0,0,1,2.73.85,2.89,2.89,0,0,1,1.22,1,2.75,2.75,0,0,1,.44,1.58,3.08,3.08,0,0,1-.54,1.74,3.55,3.55,0,0,1-1.55,1.26,5.62,5.62,0,0,1-2.3.45,5.09,5.09,0,0,1-3.23-.89A4,4,0,0,1,92.82,71.59Z"/>
    <path class="cls-2" d="M104.06,74.84v-15h1.85v8.57L110.28,64h2.39l-4.17,4,4.59,6.85h-2.28l-3.6-5.57-1.3,1.25v4.32Z"/>
    <path class="cls-2" d="M58.4,98.27V100H48.47a3.28,3.28,0,0,1,.21-1.28,6.9,6.9,0,0,1,1.22-2,19.7,19.7,0,0,1,2.41-2.28,20.13,20.13,0,0,0,3.31-3.18,3.78,3.78,0,0,0,.87-2.22,2.48,2.48,0,0,0-.79-1.85,2.83,2.83,0,0,0-2-.76,2.92,2.92,0,0,0-2.14.8,3.08,3.08,0,0,0-.81,2.22l-1.89-.2a4.69,4.69,0,0,1,1.46-3.23A5,5,0,0,1,53.7,85a4.75,4.75,0,0,1,3.42,1.2,3.94,3.94,0,0,1,1.26,3A4.43,4.43,0,0,1,58,90.89a6.58,6.58,0,0,1-1.22,1.84,28.5,28.5,0,0,1-2.85,2.64c-1.1.94-1.82,1.57-2.13,1.9a6.32,6.32,0,0,0-.78,1Z"/>
    <path class="cls-2" d="M62.11,104.46H60.78a18.46,18.46,0,0,0,3.07-9.85,17.11,17.11,0,0,0-.44-3.83,15.71,15.71,0,0,0-1-3,31.33,31.33,0,0,0-1.65-3.08h1.33A20,20,0,0,1,65,89.92a14.11,14.11,0,0,1,.79,4.68A13.92,13.92,0,0,1,64.68,100,18.51,18.51,0,0,1,62.11,104.46Z"/>
    <path class="cls-2" d="M74,100V85h2v6.17h7.81V85h2v15h-2V93H76V100Z"/>
    <path class="cls-2" d="M88.2,94.6a5.64,5.64,0,0,1,1.68-4.49,5.11,5.11,0,0,1,3.43-1.2A4.88,4.88,0,0,1,97,90.38a5.58,5.58,0,0,1,1.42,4.06,7.22,7.22,0,0,1-.63,3.31,4.46,4.46,0,0,1-1.83,1.87,5.41,5.41,0,0,1-2.63.67,4.89,4.89,0,0,1-3.7-1.47A5.85,5.85,0,0,1,88.2,94.6Zm1.9,0A4.64,4.64,0,0,0,91,97.73a3,3,0,0,0,2.3,1,2.89,2.89,0,0,0,2.28-1,4.73,4.73,0,0,0,.92-3.19,4.53,4.53,0,0,0-.92-3.06,3,3,0,0,0-4.58,0A4.61,4.61,0,0,0,90.1,94.6Z"/>
    <path class="cls-2" d="M100.57,104.21V89.15h1.68v1.42a4.14,4.14,0,0,1,1.34-1.25,3.68,3.68,0,0,1,1.82-.41,4.28,4.28,0,0,1,2.46.71,4.43,4.43,0,0,1,1.61,2,7.43,7.43,0,0,1,.54,2.86,7.25,7.25,0,0,1-.6,3,4.58,4.58,0,0,1-4.15,2.77,3.46,3.46,0,0,1-1.65-.39,3.81,3.81,0,0,1-1.21-1v5.3Zm1.67-9.55a4.73,4.73,0,0,0,.85,3.11,2.6,2.6,0,0,0,2.06,1,2.69,2.69,0,0,0,2.11-1,5,5,0,0,0,.88-3.23,4.81,4.81,0,0,0-.86-3.11,2.58,2.58,0,0,0-2-1,2.66,2.66,0,0,0-2.08,1.1A4.93,4.93,0,0,0,102.24,94.66Z"/>
    <path class="cls-2" d="M119.7,96.53l1.91.24a4.65,4.65,0,0,1-1.67,2.59,5.65,5.65,0,0,1-6.91-.54,5.77,5.77,0,0,1-1.4-4.13,6,6,0,0,1,1.42-4.27,4.77,4.77,0,0,1,3.67-1.51,4.68,4.68,0,0,1,3.57,1.48,5.93,5.93,0,0,1,1.38,4.19c0,.11,0,.27,0,.49h-8.12a4.24,4.24,0,0,0,1,2.75,3,3,0,0,0,2.28,1,2.85,2.85,0,0,0,1.73-.53A3.57,3.57,0,0,0,119.7,96.53Zm-6.06-3h6.08a3.61,3.61,0,0,0-.7-2.06,2.82,2.82,0,0,0-2.28-1.07,3,3,0,0,0-2.14.85A3.37,3.37,0,0,0,113.64,93.55Z"/>
    <path class="cls-2" d="M48.71,121.27l1.85-.24a4.06,4.06,0,0,0,1.08,2.26,2.68,2.68,0,0,0,1.86.69,3,3,0,0,0,2.2-.9,3,3,0,0,0,.9-2.24,2.84,2.84,0,0,0-2.94-2.92,5.65,5.65,0,0,0-1.31.2l.21-1.61h.3a3.81,3.81,0,0,0,2.12-.61,2.1,2.1,0,0,0,.94-1.9,2.28,2.28,0,0,0-.68-1.68,2.46,2.46,0,0,0-1.78-.66,2.5,2.5,0,0,0-1.79.67,3.41,3.41,0,0,0-.93,2L48.9,114a4.72,4.72,0,0,1,1.54-2.87,4.44,4.44,0,0,1,3-1,4.84,4.84,0,0,1,2.27.53,3.81,3.81,0,0,1,1.58,1.44,3.62,3.62,0,0,1,.55,1.93,3.19,3.19,0,0,1-.52,1.78,3.66,3.66,0,0,1-1.55,1.27,3.44,3.44,0,0,1,2.07,1.28,3.87,3.87,0,0,1,.74,2.42,4.44,4.44,0,0,1-1.44,3.34,5,5,0,0,1-3.63,1.37,4.73,4.73,0,0,1-3.28-1.18A4.58,4.58,0,0,1,48.71,121.27Z"/>
    <path class="cls-2" d="M62.11,129.66H60.78a18.44,18.44,0,0,0,3.07-9.85,17.11,17.11,0,0,0-.44-3.83,15.71,15.71,0,0,0-1-3A31.33,31.33,0,0,0,60.78,110h1.33A20,20,0,0,1,65,115.12a14.11,14.11,0,0,1,.79,4.68,13.92,13.92,0,0,1-1.07,5.35A18.7,18.7,0,0,1,62.11,129.66Z"/>
    <path class="cls-2" d="M77.4,125.24V112h-5v-1.77H84.37V112h-5v13.26Z"/>
    <path class="cls-2" d="M85.4,112.33v-2.12h1.85v2.12Zm0,12.91V114.35h1.85v10.89Z"/>
    <path class="cls-2" d="M90.06,125.24V114.35h1.65v1.53A3.83,3.83,0,0,1,95,114.1a3.51,3.51,0,0,1,2,.51,2.7,2.7,0,0,1,1.1,1.4,3.91,3.91,0,0,1,3.36-1.91,3.3,3.3,0,0,1,2.49.9,3.85,3.85,0,0,1,.87,2.77v7.47H103v-6.86a5,5,0,0,0-.18-1.59,1.56,1.56,0,0,0-.65-.79,2.05,2.05,0,0,0-1.11-.3,2.59,2.59,0,0,0-1.91.77,3.39,3.39,0,0,0-.76,2.45v6.32H96.53v-7.07a3.13,3.13,0,0,0-.45-1.85,1.72,1.72,0,0,0-1.48-.62,2.71,2.71,0,0,0-1.44.41,2.38,2.38,0,0,0-1,1.21,6.64,6.64,0,0,0-.3,2.27v5.65Z"/>
    <path class="cls-2" d="M115,121.73l1.9.24a4.62,4.62,0,0,1-1.67,2.59,5.64,5.64,0,0,1-6.9-.54,5.74,5.74,0,0,1-1.4-4.13,6,6,0,0,1,1.41-4.27A4.8,4.8,0,0,1,112,114.1a4.66,4.66,0,0,1,3.57,1.49,5.93,5.93,0,0,1,1.38,4.19c0,.11,0,.27,0,.49h-8.12a4.21,4.21,0,0,0,1,2.75,3,3,0,0,0,2.27,1,2.88,2.88,0,0,0,1.74-.53A3.57,3.57,0,0,0,115,121.73Zm-6.06-3H115a3.79,3.79,0,0,0-.7-2.06,2.84,2.84,0,0,0-2.29-1.07,3,3,0,0,0-2.14.85A3.41,3.41,0,0,0,109,118.75Z"/>
  </g>
  <g>
    <path class="cls-2" d="M237.43,49.64v-15h5.18a12.15,12.15,0,0,1,2.68.22,4.93,4.93,0,0,1,2.2,1.07,6,6,0,0,1,1.78,2.57,9.9,9.9,0,0,1,.59,3.57,10.37,10.37,0,0,1-.4,3,7.43,7.43,0,0,1-1,2.19,5.51,5.51,0,0,1-1.37,1.36,5.92,5.92,0,0,1-1.8.76,10.26,10.26,0,0,1-2.41.25Zm2-1.77h3.21a8,8,0,0,0,2.34-.28,3.19,3.19,0,0,0,1.34-.78,4.69,4.69,0,0,0,1.11-1.9,9.42,9.42,0,0,0,.39-2.9,7,7,0,0,0-.77-3.62,3.94,3.94,0,0,0-1.88-1.7,8,8,0,0,0-2.58-.31h-3.16Z"/>
    <path class="cls-2" d="M259.82,46.13l1.91.24A4.63,4.63,0,0,1,260.05,49a5.64,5.64,0,0,1-6.9-.54,5.73,5.73,0,0,1-1.4-4.13A6,6,0,0,1,253.16,40a4.8,4.8,0,0,1,3.67-1.51A4.65,4.65,0,0,1,260.4,40a5.89,5.89,0,0,1,1.39,4.19c0,.11,0,.27,0,.49h-8.12a4.16,4.16,0,0,0,1,2.75,3,3,0,0,0,2.28.95,2.87,2.87,0,0,0,1.73-.53A3.57,3.57,0,0,0,259.82,46.13Zm-6.06-3h6.08a3.71,3.71,0,0,0-.7-2.06A2.83,2.83,0,0,0,256.86,40a3,3,0,0,0-2.14.85A3.37,3.37,0,0,0,253.76,43.15Z"/>
    <path class="cls-2" d="M263.71,50.54l1.79.27a1.7,1.7,0,0,0,.62,1.21,3.11,3.11,0,0,0,1.88.51,3.29,3.29,0,0,0,2-.51,2.47,2.47,0,0,0,.94-1.43,11.88,11.88,0,0,0,.14-2.37,3.8,3.8,0,0,1-3,1.42A4.09,4.09,0,0,1,264.57,48a6.22,6.22,0,0,1-1.23-3.88,7.18,7.18,0,0,1,.56-2.88,4.52,4.52,0,0,1,1.64-2,4.45,4.45,0,0,1,2.51-.71,3.88,3.88,0,0,1,3.18,1.55V38.75h1.7v9.42a9.05,9.05,0,0,1-.51,3.6,3.85,3.85,0,0,1-1.64,1.68,5.7,5.7,0,0,1-2.77.61,5.25,5.25,0,0,1-3.15-.87A3,3,0,0,1,263.71,50.54ZM265.23,44a4.78,4.78,0,0,0,.85,3.13,2.82,2.82,0,0,0,4.27,0,4.58,4.58,0,0,0,.86-3.07,4.42,4.42,0,0,0-.89-3,2.72,2.72,0,0,0-4.23,0A4.48,4.48,0,0,0,265.23,44Z"/>
    <path class="cls-2" d="M275.7,49.64V38.75h1.66V40.4a4.65,4.65,0,0,1,1.18-1.53,2.08,2.08,0,0,1,1.18-.36,3.57,3.57,0,0,1,1.9.59L281,40.81a2.69,2.69,0,0,0-1.35-.4,1.73,1.73,0,0,0-1.09.37,1.92,1.92,0,0,0-.68,1,7,7,0,0,0-.31,2.15v5.7Z"/>
    <path class="cls-2" d="M290.17,46.13l1.91.24A4.62,4.62,0,0,1,290.41,49a5.65,5.65,0,0,1-6.91-.54,5.77,5.77,0,0,1-1.4-4.13A6,6,0,0,1,283.52,40a4.77,4.77,0,0,1,3.67-1.51A4.64,4.64,0,0,1,290.75,40a5.89,5.89,0,0,1,1.39,4.19c0,.11,0,.27,0,.49H284a4.21,4.21,0,0,0,1,2.75,3,3,0,0,0,2.28.95,2.85,2.85,0,0,0,1.73-.53A3.57,3.57,0,0,0,290.17,46.13Zm-6.06-3h6.08a3.64,3.64,0,0,0-.7-2.06A2.82,2.82,0,0,0,287.21,40a3,3,0,0,0-2.14.85A3.37,3.37,0,0,0,284.11,43.15Z"/>
    <path class="cls-2" d="M301.85,46.13l1.91.24A4.58,4.58,0,0,1,302.08,49a5.64,5.64,0,0,1-6.9-.54,5.77,5.77,0,0,1-1.4-4.13A6,6,0,0,1,295.19,40a4.81,4.81,0,0,1,3.68-1.51A4.64,4.64,0,0,1,302.43,40a5.89,5.89,0,0,1,1.39,4.19c0,.11,0,.27,0,.49h-8.12a4.16,4.16,0,0,0,1,2.75,3,3,0,0,0,2.28.95,2.85,2.85,0,0,0,1.73-.53A3.57,3.57,0,0,0,301.85,46.13Zm-6.06-3h6.08a3.64,3.64,0,0,0-.7-2.06A2.83,2.83,0,0,0,298.89,40a3,3,0,0,0-2.14.85A3.37,3.37,0,0,0,295.79,43.15Z"/>
    <path class="cls-2" d="M311.22,44.2a5.61,5.61,0,0,1,1.68-4.48,5.06,5.06,0,0,1,3.43-1.21A4.88,4.88,0,0,1,320,40,5.58,5.58,0,0,1,321.42,44a7.22,7.22,0,0,1-.63,3.31A4.46,4.46,0,0,1,319,49.22a5.3,5.3,0,0,1-2.63.67,4.89,4.89,0,0,1-3.7-1.47A5.85,5.85,0,0,1,311.22,44.2Zm1.9,0a4.62,4.62,0,0,0,.91,3.13,3,3,0,0,0,2.3,1,2.89,2.89,0,0,0,2.28-1,4.72,4.72,0,0,0,.92-3.18,4.54,4.54,0,0,0-.92-3.07,3,3,0,0,0-4.58,0A4.61,4.61,0,0,0,313.12,44.2Z"/>
    <path class="cls-2" d="M324,49.64V40.19H322.4V38.75H324V37.59a5.12,5.12,0,0,1,.19-1.63,2.36,2.36,0,0,1,.94-1.16,3.37,3.37,0,0,1,1.88-.45,9.41,9.41,0,0,1,1.73.19l-.28,1.61A6.1,6.1,0,0,0,327.4,36a1.67,1.67,0,0,0-1.19.36,2,2,0,0,0-.35,1.35v1H328v1.44h-2.13v9.45Z"/>
    <path class="cls-2" d="M236.46,71.59l1.83-.29a2.55,2.55,0,0,0,.85,1.69,3,3,0,0,0,2,.58,2.85,2.85,0,0,0,1.88-.52,1.54,1.54,0,0,0,.62-1.21,1.12,1.12,0,0,0-.55-1,8.09,8.09,0,0,0-1.88-.62,18.09,18.09,0,0,1-2.82-.89,2.68,2.68,0,0,1-1.59-2.5,2.87,2.87,0,0,1,.33-1.35,3.1,3.1,0,0,1,.91-1,3.76,3.76,0,0,1,1.17-.53,5.52,5.52,0,0,1,1.6-.23,6.47,6.47,0,0,1,2.25.37,3.14,3.14,0,0,1,1.43,1,3.83,3.83,0,0,1,.63,1.69l-1.8.25a2,2,0,0,0-.71-1.32,2.65,2.65,0,0,0-1.67-.47,3,3,0,0,0-1.81.42,1.22,1.22,0,0,0-.55,1,1,1,0,0,0,.23.64,1.58,1.58,0,0,0,.71.5c.18.06.72.22,1.63.47a24.24,24.24,0,0,1,2.73.85,2.86,2.86,0,0,1,1.21,1,2.67,2.67,0,0,1,.44,1.58,3.07,3.07,0,0,1-.53,1.74,3.52,3.52,0,0,1-1.56,1.26,5.57,5.57,0,0,1-2.29.45,5.11,5.11,0,0,1-3.24-.89A4.09,4.09,0,0,1,236.46,71.59Z"/>
    <path class="cls-2" d="M251.73,73.19l.27,1.63a6.83,6.83,0,0,1-1.4.16,3.19,3.19,0,0,1-1.56-.31,1.8,1.8,0,0,1-.78-.84,6.65,6.65,0,0,1-.22-2.18V65.39h-1.36V64H248V61.26l1.83-1.11V64h1.86v1.44h-1.86v6.37a3,3,0,0,0,.1,1,.74.74,0,0,0,.32.36,1.21,1.21,0,0,0,.63.13A5.74,5.74,0,0,0,251.73,73.19Z"/>
    <path class="cls-2" d="M253.51,74.84V64h1.66V65.6a4.65,4.65,0,0,1,1.18-1.53,2.09,2.09,0,0,1,1.18-.37,3.59,3.59,0,0,1,1.9.6L258.79,66a2.69,2.69,0,0,0-1.35-.4,1.73,1.73,0,0,0-1.09.37,1.92,1.92,0,0,0-.68,1,7,7,0,0,0-.31,2.15v5.7Z"/>
    <path class="cls-2" d="M268,71.33l1.91.24a4.62,4.62,0,0,1-1.67,2.59,5,5,0,0,1-3.12.93,5,5,0,0,1-3.79-1.48,5.74,5.74,0,0,1-1.4-4.12,6,6,0,0,1,1.42-4.27A4.78,4.78,0,0,1,265,63.7a4.69,4.69,0,0,1,3.57,1.49A5.93,5.93,0,0,1,270,69.38c0,.11,0,.27,0,.49h-8.12a4.21,4.21,0,0,0,1,2.75,3,3,0,0,0,2.28.95,2.85,2.85,0,0,0,1.73-.53A3.57,3.57,0,0,0,268,71.33Zm-6.06-3H268a3.64,3.64,0,0,0-.7-2.06A2.82,2.82,0,0,0,265,65.22a3,3,0,0,0-2.14.85A3.37,3.37,0,0,0,261.92,68.35Z"/>
    <path class="cls-2" d="M271.47,71.59l1.82-.29a2.56,2.56,0,0,0,.86,1.69,3,3,0,0,0,2,.58,2.86,2.86,0,0,0,1.89-.52,1.53,1.53,0,0,0,.61-1.21,1.13,1.13,0,0,0-.54-1,8,8,0,0,0-1.89-.62,17.87,17.87,0,0,1-2.81-.89,2.71,2.71,0,0,1-1.6-2.5,2.88,2.88,0,0,1,.34-1.35,3,3,0,0,1,.91-1,3.55,3.55,0,0,1,1.17-.53,5.46,5.46,0,0,1,1.59-.23,6.49,6.49,0,0,1,2.26.37,3,3,0,0,1,1.42,1,4,4,0,0,1,.64,1.69l-1.8.25a2,2,0,0,0-.72-1.32,2.62,2.62,0,0,0-1.66-.47,3,3,0,0,0-1.82.42,1.23,1.23,0,0,0-.54,1,1,1,0,0,0,.22.64,1.64,1.64,0,0,0,.71.5l1.63.47a23.91,23.91,0,0,1,2.74.85,2.86,2.86,0,0,1,1.21,1,2.75,2.75,0,0,1,.44,1.58,3.08,3.08,0,0,1-.54,1.74,3.5,3.5,0,0,1-1.55,1.26,5.62,5.62,0,0,1-2.3.45,5.09,5.09,0,0,1-3.23-.89A4,4,0,0,1,271.47,71.59Z"/>
    <path class="cls-2" d="M282,71.59l1.82-.29a2.56,2.56,0,0,0,.86,1.69,3,3,0,0,0,2,.58,2.86,2.86,0,0,0,1.89-.52,1.53,1.53,0,0,0,.61-1.21,1.13,1.13,0,0,0-.54-1,8,8,0,0,0-1.89-.62,17.87,17.87,0,0,1-2.81-.89,2.71,2.71,0,0,1-1.6-2.5,2.88,2.88,0,0,1,.34-1.35,3,3,0,0,1,.91-1,3.55,3.55,0,0,1,1.17-.53,5.46,5.46,0,0,1,1.59-.23,6.49,6.49,0,0,1,2.26.37,3,3,0,0,1,1.42,1,4,4,0,0,1,.64,1.69l-1.8.25a2,2,0,0,0-.72-1.32,2.62,2.62,0,0,0-1.66-.47,3,3,0,0,0-1.82.42,1.23,1.23,0,0,0-.54,1,1,1,0,0,0,.22.64,1.64,1.64,0,0,0,.71.5l1.63.47a23.91,23.91,0,0,1,2.74.85,2.86,2.86,0,0,1,1.21,1,2.75,2.75,0,0,1,.44,1.58,3.08,3.08,0,0,1-.54,1.74,3.5,3.5,0,0,1-1.55,1.26,5.62,5.62,0,0,1-2.3.45,5.09,5.09,0,0,1-3.23-.89A4,4,0,0,1,282,71.59Z"/>
    <path class="cls-2" d="M255.31,100h-1.85V88.28a9.45,9.45,0,0,1-1.75,1.27,12.78,12.78,0,0,1-1.94,1V88.72A11.2,11.2,0,0,0,252.48,87a6.94,6.94,0,0,0,1.64-2h1.19Z"/>
    <path class="cls-2" d="M261.76,104.46h-1.33a18.46,18.46,0,0,0,3.07-9.85,17.11,17.11,0,0,0-.44-3.83,15.71,15.71,0,0,0-1-3,31.33,31.33,0,0,0-1.65-3.08h1.33a20,20,0,0,1,2.85,5.17,14.11,14.11,0,0,1,.79,4.68,13.92,13.92,0,0,1-1.07,5.35A18.51,18.51,0,0,1,261.76,104.46Z"/>
    <path class="cls-2" d="M273.53,100V85h2V98.27h7.4V100Z"/>
    <path class="cls-2" d="M284.37,94.6a5.64,5.64,0,0,1,1.68-4.49,5.08,5.08,0,0,1,3.42-1.2,4.88,4.88,0,0,1,3.67,1.47,5.58,5.58,0,0,1,1.43,4.06,7.22,7.22,0,0,1-.63,3.31,4.42,4.42,0,0,1-1.84,1.87,5.38,5.38,0,0,1-2.63.67,4.88,4.88,0,0,1-3.69-1.47A5.85,5.85,0,0,1,284.37,94.6Zm1.89,0a4.64,4.64,0,0,0,.92,3.13,3,3,0,0,0,4.58,0,4.73,4.73,0,0,0,.91-3.19,4.48,4.48,0,0,0-.92-3.06,3,3,0,0,0-4.57,0A4.61,4.61,0,0,0,286.26,94.6Z"/>
    <path class="cls-2" d="M298.74,100l-3.33-10.89h1.91l1.73,6.29.65,2.33c0-.11.21-.86.56-2.24L302,89.15h1.9l1.63,6.32.54,2.08.63-2.1,1.87-6.3h1.79L307,100H305l-1.74-6.52-.41-1.86L300.67,100Z"/>
    <path class="cls-2" d="M258.05,123.47v1.77h-9.93a3.48,3.48,0,0,1,.21-1.28,6.9,6.9,0,0,1,1.22-2,19,19,0,0,1,2.41-2.28,20.73,20.73,0,0,0,3.32-3.18,3.83,3.83,0,0,0,.86-2.22,2.44,2.44,0,0,0-.79-1.85,2.82,2.82,0,0,0-2-.75,2.88,2.88,0,0,0-2.14.8,3,3,0,0,0-.81,2.21l-1.89-.19a4.7,4.7,0,0,1,1.46-3.24,5,5,0,0,1,3.42-1.11,4.75,4.75,0,0,1,3.42,1.2,3.94,3.94,0,0,1,1.26,3,4.68,4.68,0,0,1-.36,1.78,7,7,0,0,1-1.23,1.83,30.91,30.91,0,0,1-2.85,2.65q-1.65,1.4-2.13,1.89a6.32,6.32,0,0,0-.78,1Z"/>
    <path class="cls-2" d="M261.76,129.66h-1.33a18.44,18.44,0,0,0,3.07-9.85,17.11,17.11,0,0,0-.44-3.83,15.71,15.71,0,0,0-1-3,31.33,31.33,0,0,0-1.65-3.08h1.33a20,20,0,0,1,2.85,5.17,14.11,14.11,0,0,1,.79,4.68,13.92,13.92,0,0,1-1.07,5.35A18.7,18.7,0,0,1,261.76,129.66Z"/>
    <path class="cls-2" d="M273.55,125.24v-15h3l3.56,10.64c.33,1,.57,1.74.72,2.23.17-.55.44-1.35.8-2.41l3.6-10.46h2.67v15H286V112.66l-4.37,12.58h-1.8l-4.34-12.8v12.8Z"/>
    <path class="cls-2" d="M290.18,119.8a5.61,5.61,0,0,1,1.68-4.48,5.07,5.07,0,0,1,3.43-1.22,4.9,4.9,0,0,1,3.67,1.48,5.58,5.58,0,0,1,1.42,4.06,7.22,7.22,0,0,1-.63,3.31,4.46,4.46,0,0,1-1.83,1.87,5.3,5.3,0,0,1-2.63.67,4.89,4.89,0,0,1-3.7-1.47A5.85,5.85,0,0,1,290.18,119.8Zm1.9,0a4.62,4.62,0,0,0,.91,3.13,2.94,2.94,0,0,0,2.3,1,2.9,2.9,0,0,0,2.28-1,4.72,4.72,0,0,0,.92-3.18,4.54,4.54,0,0,0-.92-3.07,3,3,0,0,0-4.58,0A4.61,4.61,0,0,0,292.08,119.8Z"/>
    <path class="cls-2" d="M309.61,125.24v-1.37a3.38,3.38,0,0,1-3,1.62,4.28,4.28,0,0,1-2.4-.72,4.75,4.75,0,0,1-1.69-2,7,7,0,0,1-.6-3,7.77,7.77,0,0,1,.54-3,4.34,4.34,0,0,1,1.63-2,4.4,4.4,0,0,1,2.43-.71,3.63,3.63,0,0,1,1.76.42,3.75,3.75,0,0,1,1.25,1.08v-5.39h1.83v15Zm-5.83-5.43a4.75,4.75,0,0,0,.88,3.13,2.68,2.68,0,0,0,2.08,1,2.62,2.62,0,0,0,2.06-1,4.59,4.59,0,0,0,.84-3,5.09,5.09,0,0,0-.86-3.28,2.64,2.64,0,0,0-2.12-1.05,2.57,2.57,0,0,0-2.06,1A5,5,0,0,0,303.78,119.81Z"/>
    <path class="cls-2" d="M321.68,121.73l1.91.24a4.62,4.62,0,0,1-1.67,2.59A5.65,5.65,0,0,1,315,124a5.79,5.79,0,0,1-1.4-4.13,6,6,0,0,1,1.42-4.27,4.78,4.78,0,0,1,3.67-1.52,4.65,4.65,0,0,1,3.56,1.49,5.89,5.89,0,0,1,1.39,4.19c0,.11,0,.27,0,.49h-8.12a4.21,4.21,0,0,0,1,2.75,3,3,0,0,0,2.28,1,2.85,2.85,0,0,0,1.73-.53A3.57,3.57,0,0,0,321.68,121.73Zm-6.06-3h6.08a3.64,3.64,0,0,0-.7-2.06,2.82,2.82,0,0,0-2.28-1.07,3,3,0,0,0-2.14.85A3.37,3.37,0,0,0,315.62,118.75Z"/>
    <path class="cls-2" d="M325.88,125.24V114.35h1.67V116a4.52,4.52,0,0,1,1.17-1.53,2.09,2.09,0,0,1,1.18-.37,3.56,3.56,0,0,1,1.9.6l-.63,1.71a2.76,2.76,0,0,0-1.36-.4,1.75,1.75,0,0,0-1.09.37,1.92,1.92,0,0,0-.68,1,7,7,0,0,0-.31,2.15v5.7Z"/>
    <path class="cls-2" d="M340,123.9a6.88,6.88,0,0,1-2,1.23,5.67,5.67,0,0,1-2,.36,4,4,0,0,1-2.76-.88,2.87,2.87,0,0,1-1-2.24,2.91,2.91,0,0,1,.37-1.46,3,3,0,0,1,.95-1.06,4.49,4.49,0,0,1,1.33-.61,12.82,12.82,0,0,1,1.64-.27,16.6,16.6,0,0,0,3.29-.64c0-.25,0-.41,0-.48a2,2,0,0,0-.52-1.59,3.06,3.06,0,0,0-2.1-.63,3.25,3.25,0,0,0-1.93.46,2.74,2.74,0,0,0-.91,1.61l-1.81-.24a4.35,4.35,0,0,1,.81-1.87,3.57,3.57,0,0,1,1.63-1.1,7.19,7.19,0,0,1,2.47-.39,6.53,6.53,0,0,1,2.27.33,3,3,0,0,1,1.28.83,2.93,2.93,0,0,1,.57,1.26,9.23,9.23,0,0,1,.1,1.7v2.46a28.7,28.7,0,0,0,.11,3.25,4.2,4.2,0,0,0,.47,1.31h-1.93A4,4,0,0,1,340,123.9Zm-.15-4.12a13.67,13.67,0,0,1-3,.69,7.29,7.29,0,0,0-1.61.37,1.62,1.62,0,0,0-.73.6,1.63,1.63,0,0,0,.3,2.11,2.4,2.4,0,0,0,1.64.49,3.78,3.78,0,0,0,1.89-.46,2.89,2.89,0,0,0,1.22-1.28,4.43,4.43,0,0,0,.3-1.85Z"/>
    <path class="cls-2" d="M348.61,123.59l.26,1.63a6.74,6.74,0,0,1-1.39.16,3.19,3.19,0,0,1-1.56-.31,1.8,1.8,0,0,1-.78-.84,6.65,6.65,0,0,1-.22-2.18v-6.26h-1.36v-1.44h1.36v-2.69l1.83-1.11v3.8h1.86v1.44h-1.86v6.37a3,3,0,0,0,.1,1,.74.74,0,0,0,.32.36,1.18,1.18,0,0,0,.63.13A5.74,5.74,0,0,0,348.61,123.59Z"/>
    <path class="cls-2" d="M357.87,121.73l1.9.24a4.57,4.57,0,0,1-1.67,2.59,5.64,5.64,0,0,1-6.9-.54,5.74,5.74,0,0,1-1.4-4.13,6,6,0,0,1,1.41-4.27,4.81,4.81,0,0,1,3.67-1.52,4.66,4.66,0,0,1,3.57,1.49,5.93,5.93,0,0,1,1.38,4.19v.49H351.7a4.21,4.21,0,0,0,1,2.75,3,3,0,0,0,2.28,1,2.87,2.87,0,0,0,1.73-.53A3.57,3.57,0,0,0,357.87,121.73Zm-6.06-3h6.08a3.79,3.79,0,0,0-.7-2.06,2.84,2.84,0,0,0-2.29-1.07,3,3,0,0,0-2.14.85A3.41,3.41,0,0,0,351.81,118.75Z"/>
    <path class="cls-2" d="M248.37,146.47l1.84-.24a4.06,4.06,0,0,0,1.08,2.26,2.68,2.68,0,0,0,1.86.69,3,3,0,0,0,2.2-.9,3,3,0,0,0,.9-2.24,2.86,2.86,0,0,0-.83-2.1,2.9,2.9,0,0,0-2.11-.82,5.23,5.23,0,0,0-1.31.21l.21-1.63.3,0a3.81,3.81,0,0,0,2.12-.62,2.1,2.1,0,0,0,.94-1.9,2.28,2.28,0,0,0-.68-1.68,2.47,2.47,0,0,0-1.78-.67,2.51,2.51,0,0,0-1.79.68,3.35,3.35,0,0,0-.92,2l-1.85-.33a4.77,4.77,0,0,1,1.54-2.87,4.44,4.44,0,0,1,3-1,4.84,4.84,0,0,1,2.27.53,3.75,3.75,0,0,1,1.58,1.44,3.65,3.65,0,0,1,.55,1.93A3.17,3.17,0,0,1,257,141a3.59,3.59,0,0,1-1.55,1.27,3.48,3.48,0,0,1,2.07,1.28,3.87,3.87,0,0,1,.74,2.42,4.44,4.44,0,0,1-1.44,3.34,5,5,0,0,1-3.63,1.37,4.69,4.69,0,0,1-3.28-1.18A4.57,4.57,0,0,1,248.37,146.47Z"/>
    <path class="cls-2" d="M261.76,154.86h-1.33A18.46,18.46,0,0,0,263.5,145a17.11,17.11,0,0,0-.44-3.83,15.71,15.71,0,0,0-1-3,31.33,31.33,0,0,0-1.65-3.08h1.33a20,20,0,0,1,2.85,5.17,14.11,14.11,0,0,1,.79,4.68,13.92,13.92,0,0,1-1.07,5.35A18.51,18.51,0,0,1,261.76,154.86Z"/>
    <path class="cls-2" d="M273.67,150.44v-15h2v6.17h7.81v-6.17h2v15h-2v-7.09h-7.81v7.09Z"/>
    <path class="cls-2" d="M288.55,137.53v-2.12h1.85v2.12Zm0,12.91V139.55h1.85v10.89Z"/>
    <path class="cls-2" d="M292.87,151.34l1.79.27a1.74,1.74,0,0,0,.63,1.21,3.07,3.07,0,0,0,1.87.51,3.29,3.29,0,0,0,2-.51,2.53,2.53,0,0,0,.95-1.44,12,12,0,0,0,.13-2.36,3.8,3.8,0,0,1-3,1.42,4.11,4.11,0,0,1-3.47-1.62,6.22,6.22,0,0,1-1.23-3.88,7.36,7.36,0,0,1,.56-2.88,4.52,4.52,0,0,1,1.64-2,4.38,4.38,0,0,1,2.51-.71,3.91,3.91,0,0,1,3.18,1.55v-1.31h1.71V149a9,9,0,0,1-.52,3.61,3.8,3.8,0,0,1-1.64,1.68,5.7,5.7,0,0,1-2.77.61A5.17,5.17,0,0,1,294,154,3,3,0,0,1,292.87,151.34Zm1.52-6.54a4.72,4.72,0,0,0,.86,3.13,2.66,2.66,0,0,0,2.13,1,2.71,2.71,0,0,0,2.13-1,4.57,4.57,0,0,0,.86-3.08,4.45,4.45,0,0,0-.88-3,2.76,2.76,0,0,0-2.14-1,2.68,2.68,0,0,0-2.09,1A4.42,4.42,0,0,0,294.39,144.8Z"/>
    <path class="cls-2" d="M304.88,150.44v-15h1.85v5.39a4.11,4.11,0,0,1,3.26-1.49,4.34,4.34,0,0,1,2.1.47,2.82,2.82,0,0,1,1.28,1.32,6,6,0,0,1,.38,2.44v6.9h-1.84v-6.9a2.89,2.89,0,0,0-.6-2,2.24,2.24,0,0,0-1.7-.63,3,3,0,0,0-1.54.43,2.39,2.39,0,0,0-1,1.15,5.23,5.23,0,0,0-.31,2v6Z"/>
  </g>
  <g>
    <path class="cls-2" d="M437.09,49.64v-15h5.17a12.09,12.09,0,0,1,2.68.22,4.93,4.93,0,0,1,2.2,1.07,6,6,0,0,1,1.78,2.57,9.9,9.9,0,0,1,.59,3.57,10.37,10.37,0,0,1-.4,3,7.43,7.43,0,0,1-1,2.19,5.51,5.51,0,0,1-1.37,1.36,5.92,5.92,0,0,1-1.8.76,10.26,10.26,0,0,1-2.41.25Zm2-1.77h3.2a8,8,0,0,0,2.34-.28,3.3,3.3,0,0,0,1.35-.78,4.79,4.79,0,0,0,1.1-1.9,9.42,9.42,0,0,0,.39-2.9,7,7,0,0,0-.77-3.62,3.94,3.94,0,0,0-1.88-1.7,7.94,7.94,0,0,0-2.58-.31h-3.15Z"/>
    <path class="cls-2" d="M459.47,46.13l1.91.24A4.62,4.62,0,0,1,459.71,49a5.65,5.65,0,0,1-6.91-.54,5.77,5.77,0,0,1-1.4-4.13A6,6,0,0,1,452.82,40a4.77,4.77,0,0,1,3.67-1.51A4.64,4.64,0,0,1,460.05,40a5.89,5.89,0,0,1,1.39,4.19c0,.11,0,.27,0,.49h-8.12a4.21,4.21,0,0,0,1,2.75,3,3,0,0,0,2.28.95,2.85,2.85,0,0,0,1.73-.53A3.57,3.57,0,0,0,459.47,46.13Zm-6.06-3h6.08a3.64,3.64,0,0,0-.7-2.06A2.82,2.82,0,0,0,456.51,40a3,3,0,0,0-2.14.85A3.37,3.37,0,0,0,453.41,43.15Z"/>
    <path class="cls-2" d="M470.8,45.65l1.82.24a4.72,4.72,0,0,1-1.53,2.94,4.46,4.46,0,0,1-3,1.06,4.67,4.67,0,0,1-3.59-1.46,5.92,5.92,0,0,1-1.36-4.19,7.74,7.74,0,0,1,.58-3.09,4.1,4.1,0,0,1,1.78-2,5.32,5.32,0,0,1,2.6-.66,4.53,4.53,0,0,1,2.91.89A4.12,4.12,0,0,1,472.44,42l-1.79.28a3,3,0,0,0-.91-1.65,2.36,2.36,0,0,0-1.57-.56,2.89,2.89,0,0,0-2.27,1,4.76,4.76,0,0,0-.87,3.17,4.93,4.93,0,0,0,.84,3.19,2.74,2.74,0,0,0,2.19,1,2.57,2.57,0,0,0,1.82-.67A3.3,3.3,0,0,0,470.8,45.65Z"/>
    <path class="cls-2" d="M474.21,36.73V34.61h1.84v2.12Zm0,12.91V38.75h1.84V49.64Z"/>
    <path class="cls-2" d="M478.12,46.39,480,46.1a2.53,2.53,0,0,0,.85,1.69,3,3,0,0,0,2,.58,2.85,2.85,0,0,0,1.88-.52,1.54,1.54,0,0,0,.62-1.21,1.13,1.13,0,0,0-.54-1,8.43,8.43,0,0,0-1.89-.62,17.38,17.38,0,0,1-2.82-.89,2.68,2.68,0,0,1-1.59-2.5,2.87,2.87,0,0,1,.33-1.35,3,3,0,0,1,.91-1,3.54,3.54,0,0,1,1.17-.54,5.53,5.53,0,0,1,1.6-.22,6.48,6.48,0,0,1,2.25.36,3.14,3.14,0,0,1,1.43,1,4,4,0,0,1,.64,1.69l-1.81.25a2,2,0,0,0-.71-1.31,2.59,2.59,0,0,0-1.67-.48,3,3,0,0,0-1.81.42,1.22,1.22,0,0,0-.55,1,1,1,0,0,0,.23.64,1.64,1.64,0,0,0,.71.5l1.63.47a24.24,24.24,0,0,1,2.73.85,2.8,2.8,0,0,1,1.21,1,2.68,2.68,0,0,1,.45,1.58,3.08,3.08,0,0,1-.54,1.74,3.52,3.52,0,0,1-1.56,1.26,5.57,5.57,0,0,1-2.29.45,5.17,5.17,0,0,1-3.24-.88A4.14,4.14,0,0,1,478.12,46.39Z"/>
    <path class="cls-2" d="M489.37,36.73V34.61h1.85v2.12Zm0,12.91V38.75h1.85V49.64Z"/>
    <path class="cls-2" d="M493.34,44.2A5.61,5.61,0,0,1,495,39.72a5.06,5.06,0,0,1,3.43-1.21A4.9,4.9,0,0,1,502.12,40,5.58,5.58,0,0,1,503.54,44a7.22,7.22,0,0,1-.63,3.31,4.46,4.46,0,0,1-1.83,1.87,5.3,5.3,0,0,1-2.63.67,4.89,4.89,0,0,1-3.7-1.47A5.85,5.85,0,0,1,493.34,44.2Zm1.9,0a4.62,4.62,0,0,0,.91,3.13,2.94,2.94,0,0,0,2.3,1,2.9,2.9,0,0,0,2.28-1,4.72,4.72,0,0,0,.91-3.18,4.54,4.54,0,0,0-.91-3.07,3,3,0,0,0-4.58,0A4.61,4.61,0,0,0,495.24,44.2Z"/>
    <path class="cls-2" d="M505.71,49.64V38.75h1.66V40.3a3.89,3.89,0,0,1,3.46-1.79,4.46,4.46,0,0,1,1.81.35,3,3,0,0,1,1.24.93,3.56,3.56,0,0,1,.57,1.36,10.49,10.49,0,0,1,.1,1.8v6.69h-1.84V43a4.81,4.81,0,0,0-.22-1.69,1.77,1.77,0,0,0-.76-.89,2.48,2.48,0,0,0-1.29-.34,3,3,0,0,0-2,.75,3.7,3.7,0,0,0-.86,2.84v6Z"/>
    <path class="cls-2" d="M516.67,45.13V43.27h5.67v1.86Z"/>
    <path class="cls-2" d="M436.85,74.84V64h1.65v1.53a4,4,0,0,1,1.36-1.29,3.91,3.91,0,0,1,1.94-.49,3.56,3.56,0,0,1,2,.51,2.68,2.68,0,0,1,1.09,1.4,3.91,3.91,0,0,1,3.36-1.91,3.3,3.3,0,0,1,2.49.9,3.85,3.85,0,0,1,.88,2.77v7.47h-1.84V68a5,5,0,0,0-.18-1.59,1.56,1.56,0,0,0-.65-.79,2,2,0,0,0-1.11-.3,2.6,2.6,0,0,0-1.91.77,3.39,3.39,0,0,0-.75,2.45v6.32h-1.85V67.77a3.11,3.11,0,0,0-.45-1.85,1.71,1.71,0,0,0-1.48-.62,2.71,2.71,0,0,0-1.44.41,2.38,2.38,0,0,0-1,1.21,6.68,6.68,0,0,0-.29,2.27v5.65Z"/>
    <path class="cls-2" d="M461.45,73.5a6.88,6.88,0,0,1-2,1.23,5.76,5.76,0,0,1-2,.36,4,4,0,0,1-2.76-.88,2.89,2.89,0,0,1-1-2.24,3,3,0,0,1,.36-1.46,2.89,2.89,0,0,1,1-1.06,4.43,4.43,0,0,1,1.32-.61,13.14,13.14,0,0,1,1.64-.27,16.6,16.6,0,0,0,3.29-.64c0-.25,0-.41,0-.48a2,2,0,0,0-.53-1.59,3.06,3.06,0,0,0-2.1-.63,3.19,3.19,0,0,0-1.92.46,2.74,2.74,0,0,0-.92,1.61l-1.8-.24a4.35,4.35,0,0,1,.81-1.87,3.47,3.47,0,0,1,1.63-1.1A7.15,7.15,0,0,1,459,63.7a6.46,6.46,0,0,1,2.26.33,3.1,3.1,0,0,1,1.29.83,3,3,0,0,1,.57,1.25,10.82,10.82,0,0,1,.09,1.71v2.46a25.57,25.57,0,0,0,.12,3.25,4,4,0,0,0,.47,1.31h-1.93A3.82,3.82,0,0,1,461.45,73.5Zm-.16-4.12a13.67,13.67,0,0,1-3,.69,7.44,7.44,0,0,0-1.61.37,1.67,1.67,0,0,0-.73.6,1.58,1.58,0,0,0-.25.88,1.55,1.55,0,0,0,.56,1.23,2.37,2.37,0,0,0,1.63.49,3.84,3.84,0,0,0,1.9-.46A3,3,0,0,0,461,71.9a4.46,4.46,0,0,0,.29-1.85Z"/>
    <path class="cls-2" d="M466,74.84v-15h1.85v8.57L472.25,64h2.39l-4.17,4,4.59,6.85h-2.28l-3.6-5.57-1.3,1.25v4.32Z"/>
    <path class="cls-2" d="M476.53,61.93V59.81h1.85v2.12Zm0,12.91V64h1.85V74.84Z"/>
    <path class="cls-2" d="M481.19,74.84V64h1.66V65.5a3.9,3.9,0,0,1,3.46-1.8,4.47,4.47,0,0,1,1.81.36,2.75,2.75,0,0,1,1.24.93,3.41,3.41,0,0,1,.57,1.36,10.2,10.2,0,0,1,.11,1.8v6.69h-1.85V68.22a5.07,5.07,0,0,0-.21-1.69,1.79,1.79,0,0,0-.77-.89,2.43,2.43,0,0,0-1.29-.34,3,3,0,0,0-2,.75,3.7,3.7,0,0,0-.86,2.84v6Z"/>
    <path class="cls-2" d="M492.53,75.74l1.79.27a1.74,1.74,0,0,0,.63,1.21,3.09,3.09,0,0,0,1.88.51,3.28,3.28,0,0,0,2-.51,2.53,2.53,0,0,0,.95-1.44,12,12,0,0,0,.13-2.36,3.79,3.79,0,0,1-3,1.42,4.11,4.11,0,0,1-3.48-1.62,6.22,6.22,0,0,1-1.23-3.88,7.36,7.36,0,0,1,.56-2.88,4.52,4.52,0,0,1,1.64-2,4.39,4.39,0,0,1,2.52-.72,3.89,3.89,0,0,1,3.17,1.56V64h1.71v9.41a9,9,0,0,1-.52,3.61,3.8,3.8,0,0,1-1.64,1.68,5.7,5.7,0,0,1-2.77.61,5.17,5.17,0,0,1-3.14-.88A3,3,0,0,1,492.53,75.74Zm1.53-6.54a4.72,4.72,0,0,0,.85,3.13,2.8,2.8,0,0,0,4.26,0,4.52,4.52,0,0,0,.86-3.07,4.47,4.47,0,0,0-.88-3,2.75,2.75,0,0,0-2.14-1,2.68,2.68,0,0,0-2.09,1A4.42,4.42,0,0,0,494.06,69.2Z"/>
    <path class="cls-2" d="M436.41,95.21l1.88-.16a4,4,0,0,0,.62,1.85,3.35,3.35,0,0,0,1.51,1.17,5.84,5.84,0,0,0,2.31.44,5.73,5.73,0,0,0,2-.33,2.81,2.81,0,0,0,1.29-.93,2.13,2.13,0,0,0,.43-1.29,2,2,0,0,0-.41-1.24,3.11,3.11,0,0,0-1.36-.88A26.91,26.91,0,0,0,442,93.1a13.84,13.84,0,0,1-2.9-.93,4.15,4.15,0,0,1-1.61-1.4,3.46,3.46,0,0,1-.53-1.88,3.83,3.83,0,0,1,.65-2.12,4,4,0,0,1,1.89-1.5,7,7,0,0,1,2.75-.52,7.5,7.5,0,0,1,3,.54,4.33,4.33,0,0,1,2,1.58,4.6,4.6,0,0,1,.73,2.37l-1.9.15a3.14,3.14,0,0,0-1-2.16,4.11,4.11,0,0,0-2.62-.72,4.2,4.2,0,0,0-2.63.66,2,2,0,0,0-.83,1.59,1.73,1.73,0,0,0,.59,1.34,8.13,8.13,0,0,0,3,1.07,19.74,19.74,0,0,1,3.33,1,4.6,4.6,0,0,1,1.94,1.54,3.72,3.72,0,0,1,.63,2.14,4.08,4.08,0,0,1-.69,2.26,4.57,4.57,0,0,1-2,1.65,6.88,6.88,0,0,1-2.89.59,8.59,8.59,0,0,1-3.42-.6,4.78,4.78,0,0,1-2.17-1.79A5.08,5.08,0,0,1,436.41,95.21Z"/>
    <path class="cls-2" d="M454.89,98.39l.26,1.63a6.81,6.81,0,0,1-1.39.17,3.18,3.18,0,0,1-1.56-.32,1.75,1.75,0,0,1-.78-.84,6.65,6.65,0,0,1-.22-2.18V90.59h-1.36V89.15h1.36v-2.7l1.83-1.1v3.8h1.86v1.44H453V97a3.06,3.06,0,0,0,.1,1,.74.74,0,0,0,.32.36,1.18,1.18,0,0,0,.63.13A5.74,5.74,0,0,0,454.89,98.39Z"/>
    <path class="cls-2" d="M456.61,104.23l-.21-1.73a4.2,4.2,0,0,0,1.06.17,2,2,0,0,0,1-.21,1.75,1.75,0,0,0,.61-.57,9.32,9.32,0,0,0,.56-1.38c0-.1.09-.25.17-.45l-4.13-10.91h2l2.27,6.31c.29.8.56,1.64.79,2.52a25.44,25.44,0,0,1,.76-2.48l2.33-6.35h1.84l-4.14,11.08a20.43,20.43,0,0,1-1,2.47,3.6,3.6,0,0,1-1.12,1.33,2.64,2.64,0,0,1-1.52.43A3.72,3.72,0,0,1,456.61,104.23Z"/>
    <path class="cls-2" d="M467.15,100V85H469v15Z"/>
    <path class="cls-2" d="M479.31,96.53l1.91.24a4.65,4.65,0,0,1-1.67,2.59,5.65,5.65,0,0,1-6.91-.54,5.77,5.77,0,0,1-1.4-4.13,6,6,0,0,1,1.42-4.27,4.77,4.77,0,0,1,3.67-1.51,4.68,4.68,0,0,1,3.57,1.48,5.93,5.93,0,0,1,1.38,4.19c0,.11,0,.27,0,.49h-8.12a4.24,4.24,0,0,0,1,2.75,3,3,0,0,0,2.28,1,2.85,2.85,0,0,0,1.73-.53A3.57,3.57,0,0,0,479.31,96.53Zm-6.06-3h6.08a3.61,3.61,0,0,0-.7-2.06,2.82,2.82,0,0,0-2.28-1.07,3,3,0,0,0-2.14.85A3.37,3.37,0,0,0,473.25,93.55Z"/>
  </g>
  <g>
    <path class="cls-2" d="M648.13,48a12.21,12.21,0,0,0,2.55,1.4l-.58,1.38A11.48,11.48,0,0,1,646.87,49a7.39,7.39,0,0,1-3.69.94,7.13,7.13,0,0,1-3.71-1,6.49,6.49,0,0,1-2.55-2.76,8.8,8.8,0,0,1-.9-4,9,9,0,0,1,.9-4.05,6.31,6.31,0,0,1,2.57-2.78,7.32,7.32,0,0,1,3.73-1,7.2,7.2,0,0,1,3.75,1,6.57,6.57,0,0,1,2.55,2.77,9,9,0,0,1,.88,4,9.25,9.25,0,0,1-.57,3.34A6.88,6.88,0,0,1,648.13,48Zm-4.38-2.54a7.25,7.25,0,0,1,2.84,1.44,6.2,6.2,0,0,0,1.75-4.82,7.52,7.52,0,0,0-.62-3.18,4.71,4.71,0,0,0-1.81-2.12,5,5,0,0,0-2.68-.75,4.86,4.86,0,0,0-3.69,1.52,6.3,6.3,0,0,0-1.47,4.55,6.39,6.39,0,0,0,1.45,4.5,4.85,4.85,0,0,0,3.71,1.57,5.22,5.22,0,0,0,2-.4,6,6,0,0,0-2-.86Z"/>
    <path class="cls-2" d="M660,49.64V48a4,4,0,0,1-3.45,1.85,4.3,4.3,0,0,1-1.8-.37,3,3,0,0,1-1.24-.93,3.48,3.48,0,0,1-.57-1.37,8.82,8.82,0,0,1-.12-1.72V38.75h1.85v6a11.31,11.31,0,0,0,.11,2,1.93,1.93,0,0,0,.74,1.14,2.28,2.28,0,0,0,1.4.42,3,3,0,0,0,1.55-.43,2.32,2.32,0,0,0,1-1.16,5.54,5.54,0,0,0,.31-2.12V38.75h1.84V49.64Z"/>
    <path class="cls-2" d="M671.62,48.3a6.88,6.88,0,0,1-2,1.23,5.72,5.72,0,0,1-2,.36,4,4,0,0,1-2.76-.88,2.89,2.89,0,0,1-1-2.24,3,3,0,0,1,.36-1.46,3.07,3.07,0,0,1,1-1.06,4.38,4.38,0,0,1,1.33-.61,12.51,12.51,0,0,1,1.64-.27,16.76,16.76,0,0,0,3.29-.64c0-.25,0-.41,0-.48a2,2,0,0,0-.53-1.59,3.06,3.06,0,0,0-2.1-.63,3.27,3.27,0,0,0-1.92.46A2.8,2.8,0,0,0,666,42.1l-1.8-.24A4.35,4.35,0,0,1,665,40a3.52,3.52,0,0,1,1.63-1.1,7.16,7.16,0,0,1,2.47-.38,6.49,6.49,0,0,1,2.26.32,3,3,0,0,1,1.29.83,2.93,2.93,0,0,1,.57,1.26,10.58,10.58,0,0,1,.09,1.7v2.46a25.57,25.57,0,0,0,.12,3.25,4.2,4.2,0,0,0,.47,1.31H672A4,4,0,0,1,671.62,48.3Zm-.15-4.12a13.79,13.79,0,0,1-3,.69,7.44,7.44,0,0,0-1.61.37,1.73,1.73,0,0,0-.73.6,1.58,1.58,0,0,0-.25.88,1.55,1.55,0,0,0,.56,1.23,2.37,2.37,0,0,0,1.63.49A3.82,3.82,0,0,0,670,48a3,3,0,0,0,1.22-1.28,4.43,4.43,0,0,0,.3-1.85Z"/>
    <path class="cls-2" d="M676.15,49.64v-15H678v15Z"/>
    <path class="cls-2" d="M680.87,36.73V34.61h1.85v2.12Zm0,12.91V38.75h1.85V49.64Z"/>
    <path class="cls-2" d="M689.55,48l.27,1.63a6.74,6.74,0,0,1-1.39.16,3.19,3.19,0,0,1-1.56-.31,1.75,1.75,0,0,1-.78-.84,6.56,6.56,0,0,1-.23-2.18V40.19h-1.35V38.75h1.35V36.06L687.7,35v3.8h1.85v1.44H687.7v6.37a3,3,0,0,0,.1,1,.77.77,0,0,0,.31.36,1.25,1.25,0,0,0,.64.13A5.51,5.51,0,0,0,689.55,48Z"/>
    <path class="cls-2" d="M691.28,53.84l-.21-1.74a4.2,4.2,0,0,0,1.06.17,2,2,0,0,0,1-.21,1.66,1.66,0,0,0,.61-.57,10,10,0,0,0,.56-1.38c0-.1.09-.25.17-.45l-4.14-10.91h2l2.27,6.31c.29.8.56,1.64.79,2.52a23,23,0,0,1,.76-2.48l2.33-6.35h1.84l-4.14,11.08a22.25,22.25,0,0,1-1,2.47A3.65,3.65,0,0,1,694,53.64a2.67,2.67,0,0,1-1.51.42A3.63,3.63,0,0,1,691.28,53.84Z"/>
    <path class="cls-2" d="M635.81,69.4a5.61,5.61,0,0,1,1.69-4.48,5,5,0,0,1,3.42-1.22,4.85,4.85,0,0,1,3.67,1.48A5.58,5.58,0,0,1,646,69.24a7.22,7.22,0,0,1-.63,3.31,4.48,4.48,0,0,1-1.84,1.87,5.38,5.38,0,0,1-2.63.67,4.9,4.9,0,0,1-3.7-1.47A5.85,5.85,0,0,1,635.81,69.4Zm1.9,0a4.68,4.68,0,0,0,.91,3.13,3,3,0,0,0,2.3,1,2.91,2.91,0,0,0,2.29-1,4.72,4.72,0,0,0,.91-3.18,4.54,4.54,0,0,0-.92-3.07,3,3,0,0,0-4.58,0A4.66,4.66,0,0,0,637.71,69.4Z"/>
    <path class="cls-2" d="M648.16,74.84V64h1.66V65.6A4.65,4.65,0,0,1,651,64.07a2.06,2.06,0,0,1,1.18-.37,3.61,3.61,0,0,1,1.9.6L653.44,66a2.69,2.69,0,0,0-1.35-.4A1.71,1.71,0,0,0,651,66a2,2,0,0,0-.69,1,7.3,7.3,0,0,0-.3,2.15v5.7Z"/>
    <path class="cls-2" d="M636.5,100V89.15h1.66V90.7a3.91,3.91,0,0,1,3.47-1.79,4.49,4.49,0,0,1,1.81.35,2.79,2.79,0,0,1,1.23.93,3.42,3.42,0,0,1,.58,1.36,10.49,10.49,0,0,1,.1,1.8V100H643.5V93.42a5.11,5.11,0,0,0-.21-1.69,1.77,1.77,0,0,0-.76-.89,2.48,2.48,0,0,0-1.29-.33,3,3,0,0,0-2,.74,3.7,3.7,0,0,0-.85,2.84v6Z"/>
    <path class="cls-2" d="M647.49,94.6a5.64,5.64,0,0,1,1.68-4.49,5.11,5.11,0,0,1,3.43-1.2,4.88,4.88,0,0,1,3.67,1.47,5.58,5.58,0,0,1,1.43,4.06,7.22,7.22,0,0,1-.63,3.31,4.54,4.54,0,0,1-1.84,1.87,5.38,5.38,0,0,1-2.63.67,4.9,4.9,0,0,1-3.7-1.47A5.85,5.85,0,0,1,647.49,94.6Zm1.9,0a4.64,4.64,0,0,0,.91,3.13,3,3,0,0,0,2.3,1,2.91,2.91,0,0,0,2.29-1,4.73,4.73,0,0,0,.91-3.19,4.53,4.53,0,0,0-.92-3.06,3,3,0,0,0-4.58,0A4.61,4.61,0,0,0,649.39,94.6Z"/>
    <path class="cls-2" d="M659.86,100V89.15h1.66V90.7A3.91,3.91,0,0,1,665,88.91a4.49,4.49,0,0,1,1.81.35,2.79,2.79,0,0,1,1.23.93,3.42,3.42,0,0,1,.58,1.36,11.66,11.66,0,0,1,.1,1.8V100h-1.85V93.42a5.11,5.11,0,0,0-.21-1.69,1.79,1.79,0,0,0-.77-.89,2.41,2.41,0,0,0-1.28-.33,3,3,0,0,0-2,.74,3.7,3.7,0,0,0-.85,2.84v6Z"/>
    <path class="cls-2" d="M678.48,104.21V98.88a3.34,3.34,0,0,1-1.2,1,3.65,3.65,0,0,1-1.65.4,4.38,4.38,0,0,1-3.34-1.55,6.12,6.12,0,0,1-1.4-4.25,7.27,7.27,0,0,1,.57-2.94,4.2,4.2,0,0,1,1.65-2,4.39,4.39,0,0,1,2.38-.67,3.65,3.65,0,0,1,3.18,1.7V89.15h1.66v15.06Zm-5.69-9.64a4.79,4.79,0,0,0,.88,3.15,2.67,2.67,0,0,0,2.11,1,2.56,2.56,0,0,0,2-1,4.59,4.59,0,0,0,.86-3,5.06,5.06,0,0,0-.9-3.27,2.67,2.67,0,0,0-2.11-1.1,2.56,2.56,0,0,0-2,1A5,5,0,0,0,672.79,94.57Z"/>
    <path class="cls-2" d="M690.35,100v-1.6a4,4,0,0,1-3.45,1.85,4.53,4.53,0,0,1-1.8-.37,3,3,0,0,1-1.24-.93,3.48,3.48,0,0,1-.57-1.37,8.94,8.94,0,0,1-.11-1.72V89.15H685v6a10.21,10.21,0,0,0,.12,2,1.9,1.9,0,0,0,.73,1.14,2.28,2.28,0,0,0,1.4.42,3,3,0,0,0,1.56-.43,2.36,2.36,0,0,0,1-1.16,5.82,5.82,0,0,0,.3-2.12V89.15H692V100Z"/>
    <path class="cls-2" d="M702,98.7a6.88,6.88,0,0,1-2,1.23,5.68,5.68,0,0,1-2,.36,3.92,3.92,0,0,1-2.75-.88,2.87,2.87,0,0,1-1-2.24,2.91,2.91,0,0,1,.37-1.46,3,3,0,0,1,1-1.06,4.38,4.38,0,0,1,1.33-.61,12.82,12.82,0,0,1,1.64-.27,16.6,16.6,0,0,0,3.29-.64c0-.25,0-.41,0-.48a2,2,0,0,0-.52-1.59,3.09,3.09,0,0,0-2.11-.63,3.31,3.31,0,0,0-1.92.46,2.8,2.8,0,0,0-.92,1.61l-1.8-.24a4.35,4.35,0,0,1,.81-1.87,3.57,3.57,0,0,1,1.63-1.1,7.16,7.16,0,0,1,2.47-.38,6.8,6.8,0,0,1,2.27.32,3,3,0,0,1,1.28.83,3,3,0,0,1,.57,1.25,10.48,10.48,0,0,1,.1,1.71v2.46a26.37,26.37,0,0,0,.11,3.25,4.2,4.2,0,0,0,.47,1.31h-1.93A4,4,0,0,1,702,98.7Zm-.15-4.12a13.79,13.79,0,0,1-3,.69,7.6,7.6,0,0,0-1.61.37,1.64,1.64,0,0,0-.72.6,1.62,1.62,0,0,0-.26.88,1.59,1.59,0,0,0,.56,1.23,2.39,2.39,0,0,0,1.63.49,3.7,3.7,0,0,0,1.9-.47,2.82,2.82,0,0,0,1.22-1.27,4.43,4.43,0,0,0,.3-1.85Z"/>
    <path class="cls-2" d="M706.54,100V85h1.84v15Z"/>
    <path class="cls-2" d="M711.25,87.13V85h1.85v2.12Zm0,12.91V89.15h1.85V100Z"/>
    <path class="cls-2" d="M719.94,98.39l.26,1.63a6.81,6.81,0,0,1-1.39.17,3.18,3.18,0,0,1-1.56-.32,1.75,1.75,0,0,1-.78-.84,6.65,6.65,0,0,1-.22-2.18V90.59h-1.36V89.15h1.36v-2.7l1.83-1.1v3.8h1.86v1.44h-1.86V97a3.06,3.06,0,0,0,.1,1,.74.74,0,0,0,.32.36,1.18,1.18,0,0,0,.63.13A5.74,5.74,0,0,0,719.94,98.39Z"/>
    <path class="cls-2" d="M721.66,104.23l-.2-1.73a4.06,4.06,0,0,0,1,.17,2,2,0,0,0,1-.21,1.81,1.81,0,0,0,.6-.57,9.32,9.32,0,0,0,.56-1.38c0-.1.09-.25.17-.45L720.7,89.15h2L725,95.46a25.64,25.64,0,0,1,.79,2.52,25.44,25.44,0,0,1,.76-2.48l2.33-6.35h1.84l-4.14,11.08a22.76,22.76,0,0,1-1,2.47,3.71,3.71,0,0,1-1.13,1.33,2.64,2.64,0,0,1-1.52.43A3.72,3.72,0,0,1,721.66,104.23Z"/>
    <path class="cls-2" d="M643.57,125.24v-1.37a3.39,3.39,0,0,1-3.05,1.62,4.22,4.22,0,0,1-2.39-.72,4.77,4.77,0,0,1-1.7-2,7.11,7.11,0,0,1-.6-3,7.77,7.77,0,0,1,.55-3,4.22,4.22,0,0,1,1.63-2,4.35,4.35,0,0,1,2.43-.71,3.59,3.59,0,0,1,1.75.42,3.66,3.66,0,0,1,1.25,1.08v-5.39h1.84v15Zm-5.84-5.43a4.81,4.81,0,0,0,.88,3.13,2.7,2.7,0,0,0,2.09,1,2.6,2.6,0,0,0,2-1,4.54,4.54,0,0,0,.85-3,5.15,5.15,0,0,0-.86-3.28,2.67,2.67,0,0,0-2.13-1.05,2.55,2.55,0,0,0-2.05,1A5,5,0,0,0,637.73,119.81Z"/>
    <path class="cls-2" d="M655.63,121.73l1.91.24a4.62,4.62,0,0,1-1.67,2.59A5.65,5.65,0,0,1,649,124a5.78,5.78,0,0,1-1.39-4.13,6,6,0,0,1,1.41-4.27,4.8,4.8,0,0,1,3.67-1.52,4.66,4.66,0,0,1,3.57,1.49,5.93,5.93,0,0,1,1.38,4.19c0,.11,0,.27,0,.49h-8.12a4.21,4.21,0,0,0,1,2.75,3,3,0,0,0,2.27,1,2.88,2.88,0,0,0,1.74-.53A3.56,3.56,0,0,0,655.63,121.73Zm-6-3h6.08a3.79,3.79,0,0,0-.7-2.06,2.84,2.84,0,0,0-2.29-1.07,3,3,0,0,0-2.14.85A3.41,3.41,0,0,0,649.58,118.75Z"/>
    <path class="cls-2" d="M667,121.25l1.81.24a4.76,4.76,0,0,1-1.52,2.94,4.48,4.48,0,0,1-3,1.06,4.71,4.71,0,0,1-3.6-1.46,6,6,0,0,1-1.35-4.19,7.57,7.57,0,0,1,.58-3.09,4.06,4.06,0,0,1,1.78-2,5.3,5.3,0,0,1,2.6-.67,4.51,4.51,0,0,1,2.9.9,4.18,4.18,0,0,1,1.45,2.55l-1.8.28a3,3,0,0,0-.91-1.65,2.32,2.32,0,0,0-1.57-.56,2.91,2.91,0,0,0-2.27,1,4.76,4.76,0,0,0-.87,3.17A4.93,4.93,0,0,0,662,123a2.76,2.76,0,0,0,2.2,1,2.55,2.55,0,0,0,1.81-.67A3.26,3.26,0,0,0,667,121.25Z"/>
    <path class="cls-2" d="M670.37,112.33v-2.12h1.85v2.12Zm0,12.91V114.35h1.85v10.89Z"/>
    <path class="cls-2" d="M674.29,122l1.82-.29a2.54,2.54,0,0,0,.86,1.69,3,3,0,0,0,2,.58,2.86,2.86,0,0,0,1.89-.52,1.53,1.53,0,0,0,.61-1.21,1.13,1.13,0,0,0-.54-1,8,8,0,0,0-1.89-.62,17.87,17.87,0,0,1-2.81-.89,2.71,2.71,0,0,1-1.6-2.5,2.88,2.88,0,0,1,.34-1.35,3.07,3.07,0,0,1,.9-1,3.72,3.72,0,0,1,1.18-.53,5.46,5.46,0,0,1,1.59-.23,6.39,6.39,0,0,1,2.25.37,3.12,3.12,0,0,1,1.44,1,4.09,4.09,0,0,1,.63,1.69l-1.8.25a2,2,0,0,0-.72-1.31,2.55,2.55,0,0,0-1.66-.48,3,3,0,0,0-1.82.42,1.23,1.23,0,0,0-.54,1,1,1,0,0,0,.22.64,1.64,1.64,0,0,0,.71.5l1.63.47a22.93,22.93,0,0,1,2.73.85,2.83,2.83,0,0,1,1.22,1,2.75,2.75,0,0,1,.44,1.58,3.08,3.08,0,0,1-.54,1.74,3.5,3.5,0,0,1-1.55,1.26,5.62,5.62,0,0,1-2.3.45,5.09,5.09,0,0,1-3.23-.89A4,4,0,0,1,674.29,122Z"/>
    <path class="cls-2" d="M685.54,112.33v-2.12h1.84v2.12Zm0,12.91V114.35h1.84v10.89Z"/>
    <path class="cls-2" d="M689.5,119.8a5.58,5.58,0,0,1,1.69-4.48,5,5,0,0,1,3.42-1.22,4.89,4.89,0,0,1,3.67,1.48,5.58,5.58,0,0,1,1.43,4.06,7.22,7.22,0,0,1-.63,3.31,4.48,4.48,0,0,1-1.84,1.87,5.28,5.28,0,0,1-2.63.67,4.9,4.9,0,0,1-3.7-1.47A5.85,5.85,0,0,1,689.5,119.8Zm1.9,0a4.68,4.68,0,0,0,.91,3.13,3,3,0,0,0,2.3,1,2.91,2.91,0,0,0,2.29-1,4.77,4.77,0,0,0,.91-3.18,4.54,4.54,0,0,0-.92-3.07,3,3,0,0,0-4.58,0A4.66,4.66,0,0,0,691.4,119.8Z"/>
    <path class="cls-2" d="M701.87,125.24V114.35h1.66v1.55a3.92,3.92,0,0,1,3.47-1.8,4.5,4.5,0,0,1,1.81.36,2.79,2.79,0,0,1,1.23.93,3.42,3.42,0,0,1,.58,1.36,11.66,11.66,0,0,1,.1,1.8v6.69h-1.85v-6.62a5.07,5.07,0,0,0-.21-1.69,1.79,1.79,0,0,0-.77-.89,2.42,2.42,0,0,0-1.28-.34,3,3,0,0,0-2,.75,3.7,3.7,0,0,0-.85,2.84v5.95Z"/>
    <path class="cls-2" d="M712.83,120.73v-1.86h5.67v1.86Z"/>
    <path class="cls-2" d="M636.5,150.44V139.55h1.65v1.53a4,4,0,0,1,1.37-1.29,3.84,3.84,0,0,1,1.93-.48,3.56,3.56,0,0,1,2,.5,2.68,2.68,0,0,1,1.09,1.4,3.9,3.9,0,0,1,3.36-1.9,3.3,3.3,0,0,1,2.49.89,3.81,3.81,0,0,1,.88,2.77v7.47h-1.84v-6.86a5,5,0,0,0-.18-1.59,1.52,1.52,0,0,0-.65-.79,2.08,2.08,0,0,0-1.11-.29,2.55,2.55,0,0,0-1.9.76,3.33,3.33,0,0,0-.76,2.44v6.33H643v-7.07a3.13,3.13,0,0,0-.45-1.85,1.7,1.7,0,0,0-1.48-.61,2.62,2.62,0,0,0-1.44.41,2.31,2.31,0,0,0-1,1.2,6.94,6.94,0,0,0-.29,2.27v5.65Z"/>
    <path class="cls-2" d="M661.1,149.1a6.88,6.88,0,0,1-2,1.23,5.72,5.72,0,0,1-2,.36,3.94,3.94,0,0,1-2.76-.88,2.89,2.89,0,0,1-1-2.24,3,3,0,0,1,1.32-2.52,4.43,4.43,0,0,1,1.32-.61,15.19,15.19,0,0,1,1.65-.27,16.76,16.76,0,0,0,3.29-.64c0-.25,0-.41,0-.48a2,2,0,0,0-.53-1.59,3.06,3.06,0,0,0-2.1-.63,3.27,3.27,0,0,0-1.92.46,2.8,2.8,0,0,0-.92,1.61l-1.8-.24a4.35,4.35,0,0,1,.81-1.87,3.52,3.52,0,0,1,1.63-1.1,7.16,7.16,0,0,1,2.47-.38,6.73,6.73,0,0,1,2.26.32,3,3,0,0,1,1.29.83,3,3,0,0,1,.57,1.25,10.82,10.82,0,0,1,.09,1.71v2.46a25.46,25.46,0,0,0,.12,3.25,4.2,4.2,0,0,0,.47,1.31h-1.93A4,4,0,0,1,661.1,149.1ZM661,145a13.79,13.79,0,0,1-3,.69,7.44,7.44,0,0,0-1.61.37,1.67,1.67,0,0,0-.73.6,1.61,1.61,0,0,0-.25.88,1.55,1.55,0,0,0,.56,1.23,2.37,2.37,0,0,0,1.63.49,3.72,3.72,0,0,0,1.9-.47,2.87,2.87,0,0,0,1.22-1.27,4.43,4.43,0,0,0,.3-1.85Z"/>
    <path class="cls-2" d="M665.68,150.44v-15h1.85V144l4.37-4.43h2.39l-4.17,4,4.59,6.85h-2.28l-3.6-5.57-1.3,1.25v4.32Z"/>
    <path class="cls-2" d="M676.18,137.53v-2.12H678v2.12Zm0,12.91V139.55H678v10.89Z"/>
    <path class="cls-2" d="M680.84,150.44V139.55h1.66v1.55a3.91,3.91,0,0,1,3.47-1.79,4.49,4.49,0,0,1,1.81.35,2.79,2.79,0,0,1,1.23.93,3.48,3.48,0,0,1,.58,1.36,11.66,11.66,0,0,1,.1,1.8v6.69h-1.85v-6.62a5.11,5.11,0,0,0-.21-1.69,1.79,1.79,0,0,0-.77-.89,2.41,2.41,0,0,0-1.28-.33,3,3,0,0,0-2,.74,3.7,3.7,0,0,0-.86,2.84v5.95Z"/>
    <path class="cls-2" d="M692.18,151.34l1.79.27a1.74,1.74,0,0,0,.63,1.21,3.09,3.09,0,0,0,1.88.51,3.33,3.33,0,0,0,2-.51,2.56,2.56,0,0,0,.94-1.44,12,12,0,0,0,.13-2.36,3.78,3.78,0,0,1-3,1.42,4.11,4.11,0,0,1-3.48-1.62,6.22,6.22,0,0,1-1.23-3.88,7.19,7.19,0,0,1,.57-2.88,4.5,4.5,0,0,1,1.63-2,4.39,4.39,0,0,1,2.52-.71,3.94,3.94,0,0,1,3.18,1.55v-1.31h1.7V149a8.86,8.86,0,0,1-.52,3.61,3.8,3.8,0,0,1-1.64,1.68,5.69,5.69,0,0,1-2.76.61,5.18,5.18,0,0,1-3.15-.88A3,3,0,0,1,692.18,151.34Zm1.53-6.54a4.72,4.72,0,0,0,.85,3.13,2.81,2.81,0,0,0,4.26,0,4.57,4.57,0,0,0,.87-3.08,4.45,4.45,0,0,0-.89-3,2.73,2.73,0,0,0-2.14-1,2.68,2.68,0,0,0-2.09,1A4.48,4.48,0,0,0,693.71,144.8Z"/>
  </g>
  <g>
    <path class="cls-2" d="M836.42,49.64v-15h6.66a8.65,8.65,0,0,1,3.06.41,3.29,3.29,0,0,1,1.67,1.42,4.27,4.27,0,0,1,.63,2.27,3.79,3.79,0,0,1-1,2.7,5.27,5.27,0,0,1-3.2,1.39,5.11,5.11,0,0,1,1.2.75,10.29,10.29,0,0,1,1.65,2l2.62,4.09h-2.5l-2-3.12c-.59-.91-1.06-1.6-1.44-2.08a4.44,4.44,0,0,0-1-1,2.91,2.91,0,0,0-.91-.4,5.72,5.72,0,0,0-1.1-.07h-2.31v6.67Zm2-8.4h4.27a6.44,6.44,0,0,0,2.14-.28,2.32,2.32,0,0,0,1.17-.9,2.48,2.48,0,0,0,.4-1.35,2.23,2.23,0,0,0-.78-1.75,3.59,3.59,0,0,0-2.44-.69h-4.76Z"/>
    <path class="cls-2" d="M858.77,46.13l1.91.24A4.62,4.62,0,0,1,859,49a5.65,5.65,0,0,1-6.91-.54,5.77,5.77,0,0,1-1.4-4.13A6,6,0,0,1,852.12,40a4.79,4.79,0,0,1,3.67-1.51A4.66,4.66,0,0,1,859.36,40a5.93,5.93,0,0,1,1.38,4.19c0,.11,0,.27,0,.49h-8.12a4.26,4.26,0,0,0,1,2.75,3,3,0,0,0,2.28.95,2.82,2.82,0,0,0,1.73-.53A3.57,3.57,0,0,0,858.77,46.13Zm-6.06-3h6.08a3.72,3.72,0,0,0-.69-2.06A2.84,2.84,0,0,0,855.81,40a3,3,0,0,0-2.14.85A3.37,3.37,0,0,0,852.71,43.15Z"/>
    <path class="cls-2" d="M862.66,50.54l1.79.27a1.74,1.74,0,0,0,.63,1.21,3.09,3.09,0,0,0,1.88.51,3.28,3.28,0,0,0,2-.51,2.53,2.53,0,0,0,1-1.43,12.15,12.15,0,0,0,.13-2.37,3.79,3.79,0,0,1-3,1.42A4.11,4.11,0,0,1,863.52,48a6.22,6.22,0,0,1-1.23-3.88,7.36,7.36,0,0,1,.56-2.88,4.52,4.52,0,0,1,1.64-2,4.46,4.46,0,0,1,2.52-.71,3.91,3.91,0,0,1,3.18,1.55V38.75h1.7v9.42a9,9,0,0,1-.52,3.6,3.8,3.8,0,0,1-1.64,1.68,5.69,5.69,0,0,1-2.76.61,5.25,5.25,0,0,1-3.15-.87A3,3,0,0,1,862.66,50.54ZM864.19,44a4.72,4.72,0,0,0,.85,3.13,2.8,2.8,0,0,0,4.26,0,4.52,4.52,0,0,0,.87-3.07,4.47,4.47,0,0,0-.89-3,2.75,2.75,0,0,0-2.14-1,2.68,2.68,0,0,0-2.09,1A4.42,4.42,0,0,0,864.19,44Z"/>
    <path class="cls-2" d="M874.66,49.64V38.75h1.66V40.4a4.52,4.52,0,0,1,1.17-1.53,2.11,2.11,0,0,1,1.19-.36,3.54,3.54,0,0,1,1.89.59l-.63,1.71a2.73,2.73,0,0,0-1.36-.4,1.7,1.7,0,0,0-1.08.37,1.94,1.94,0,0,0-.69,1,7,7,0,0,0-.31,2.15v5.7Z"/>
    <path class="cls-2" d="M889.12,46.13l1.91.24A4.62,4.62,0,0,1,889.36,49a5.65,5.65,0,0,1-6.91-.54,5.77,5.77,0,0,1-1.4-4.13A6,6,0,0,1,882.47,40a4.79,4.79,0,0,1,3.67-1.51A4.65,4.65,0,0,1,889.71,40a5.93,5.93,0,0,1,1.38,4.19c0,.11,0,.27,0,.49H883a4.21,4.21,0,0,0,1,2.75,3,3,0,0,0,2.27.95,2.88,2.88,0,0,0,1.74-.53A3.64,3.64,0,0,0,889.12,46.13Zm-6.06-3h6.08a3.72,3.72,0,0,0-.69-2.06A2.84,2.84,0,0,0,886.16,40a3,3,0,0,0-2.14.85A3.46,3.46,0,0,0,883.06,43.15Z"/>
    <path class="cls-2" d="M897.38,48l.27,1.63a6.83,6.83,0,0,1-1.4.16,3.19,3.19,0,0,1-1.56-.31,1.75,1.75,0,0,1-.78-.84,6.65,6.65,0,0,1-.22-2.18V40.19h-1.36V38.75h1.36V36.06L895.52,35v3.8h1.86v1.44h-1.86v6.37a3,3,0,0,0,.1,1,.74.74,0,0,0,.32.36,1.18,1.18,0,0,0,.63.13A5.74,5.74,0,0,0,897.38,48Z"/>
    <path class="cls-2" d="M835.47,69.4a5.61,5.61,0,0,1,1.68-4.48,5,5,0,0,1,3.42-1.22,4.85,4.85,0,0,1,3.67,1.48,5.58,5.58,0,0,1,1.43,4.06,7.22,7.22,0,0,1-.63,3.31,4.48,4.48,0,0,1-1.84,1.87,5.38,5.38,0,0,1-2.63.67,4.88,4.88,0,0,1-3.69-1.47A5.85,5.85,0,0,1,835.47,69.4Zm1.89,0a4.62,4.62,0,0,0,.92,3.13,3,3,0,0,0,4.58,0,4.72,4.72,0,0,0,.91-3.18,4.54,4.54,0,0,0-.92-3.07,3,3,0,0,0-4.57,0A4.61,4.61,0,0,0,837.36,69.4Z"/>
    <path class="cls-2" d="M847.81,74.84V64h1.66V65.6a4.65,4.65,0,0,1,1.18-1.53,2.06,2.06,0,0,1,1.18-.37,3.61,3.61,0,0,1,1.9.6L853.09,66a2.69,2.69,0,0,0-1.35-.4,1.71,1.71,0,0,0-1.09.37,2,2,0,0,0-.69,1,7.3,7.3,0,0,0-.3,2.15v5.7Z"/>
    <path class="cls-2" d="M835.71,95.21l1.88-.16a4.09,4.09,0,0,0,.62,1.85,3.41,3.41,0,0,0,1.51,1.17,5.84,5.84,0,0,0,2.31.44,5.65,5.65,0,0,0,2-.33,2.81,2.81,0,0,0,1.29-.93,2.13,2.13,0,0,0,.43-1.29,2,2,0,0,0-.41-1.24,3,3,0,0,0-1.35-.88c-.41-.16-1.3-.4-2.68-.74a13.84,13.84,0,0,1-2.9-.93,4.22,4.22,0,0,1-1.61-1.4,3.45,3.45,0,0,1-.52-1.88,3.82,3.82,0,0,1,.64-2.12,4,4,0,0,1,1.89-1.5,7,7,0,0,1,2.76-.52,7.57,7.57,0,0,1,2.95.54,4.3,4.3,0,0,1,2,1.58,4.6,4.6,0,0,1,.74,2.37l-1.91.15a3.1,3.1,0,0,0-1-2.16,4.09,4.09,0,0,0-2.62-.72,4.22,4.22,0,0,0-2.63.66,2,2,0,0,0-.83,1.59,1.73,1.73,0,0,0,.59,1.34,8.12,8.12,0,0,0,3,1.07,19.84,19.84,0,0,1,3.32,1,4.54,4.54,0,0,1,1.94,1.54,3.72,3.72,0,0,1,.63,2.14,4.08,4.08,0,0,1-.69,2.26,4.54,4.54,0,0,1-2,1.65,7,7,0,0,1-2.9.59,8.59,8.59,0,0,1-3.42-.6,4.7,4.7,0,0,1-2.16-1.79A5,5,0,0,1,835.71,95.21Z"/>
    <path class="cls-2" d="M857.27,98.7a7.05,7.05,0,0,1-2,1.23,5.67,5.67,0,0,1-2,.36,3.93,3.93,0,0,1-2.76-.88,2.9,2.9,0,0,1-1-2.24,3,3,0,0,1,.37-1.46,3,3,0,0,1,1-1.06,4.49,4.49,0,0,1,1.33-.61,12.82,12.82,0,0,1,1.64-.27,16.6,16.6,0,0,0,3.29-.64c0-.25,0-.41,0-.48a2,2,0,0,0-.52-1.59,3.06,3.06,0,0,0-2.1-.63,3.33,3.33,0,0,0-1.93.46,2.74,2.74,0,0,0-.91,1.61l-1.81-.24a4.61,4.61,0,0,1,.81-1.87,3.57,3.57,0,0,1,1.63-1.1,7.2,7.2,0,0,1,2.47-.38,6.8,6.8,0,0,1,2.27.32,3,3,0,0,1,1.28.83,3,3,0,0,1,.58,1.25A10.82,10.82,0,0,1,859,93v2.46a25.57,25.57,0,0,0,.12,3.25,3.94,3.94,0,0,0,.46,1.31h-1.93A3.82,3.82,0,0,1,857.27,98.7Zm-.16-4.12a13.67,13.67,0,0,1-3,.69,7.29,7.29,0,0,0-1.61.37,1.59,1.59,0,0,0-1,1.48,1.59,1.59,0,0,0,.56,1.23,2.4,2.4,0,0,0,1.64.49,3.68,3.68,0,0,0,1.89-.47,2.82,2.82,0,0,0,1.22-1.27,4.43,4.43,0,0,0,.3-1.85Z"/>
    <path class="cls-2" d="M865.87,98.39l.26,1.63a6.73,6.73,0,0,1-1.39.17,3.18,3.18,0,0,1-1.56-.32,1.75,1.75,0,0,1-.78-.84,6.65,6.65,0,0,1-.22-2.18V90.59h-1.36V89.15h1.36v-2.7l1.83-1.1v3.8h1.86v1.44H864V97a3.06,3.06,0,0,0,.1,1,.74.74,0,0,0,.32.36,1.21,1.21,0,0,0,.63.13A5.74,5.74,0,0,0,865.87,98.39Z"/>
    <path class="cls-2" d="M867.68,87.13V85h1.85v2.12Zm0,12.91V89.15h1.85V100Z"/>
    <path class="cls-2" d="M871.6,96.79l1.83-.29a2.55,2.55,0,0,0,.85,1.69,3,3,0,0,0,2,.58,2.85,2.85,0,0,0,1.88-.52,1.54,1.54,0,0,0,.62-1.21,1.12,1.12,0,0,0-.55-1,8.09,8.09,0,0,0-1.88-.62,17,17,0,0,1-2.82-.89,2.76,2.76,0,0,1-1.19-1,2.72,2.72,0,0,1-.4-1.46,2.87,2.87,0,0,1,.33-1.35,3.1,3.1,0,0,1,.91-1,3.76,3.76,0,0,1,1.17-.53,5.53,5.53,0,0,1,1.6-.22,6.48,6.48,0,0,1,2.25.36,3.14,3.14,0,0,1,1.43,1,3.83,3.83,0,0,1,.63,1.69l-1.8.25a2,2,0,0,0-.71-1.32,2.65,2.65,0,0,0-1.67-.47,3,3,0,0,0-1.81.42,1.22,1.22,0,0,0-.55,1,1,1,0,0,0,.23.64,1.6,1.6,0,0,0,.7.5c.19.06.73.22,1.64.47a24.24,24.24,0,0,1,2.73.85,2.86,2.86,0,0,1,1.21,1,2.67,2.67,0,0,1,.44,1.58,3.15,3.15,0,0,1-.53,1.74,3.52,3.52,0,0,1-1.56,1.26,5.57,5.57,0,0,1-2.29.45,5.17,5.17,0,0,1-3.24-.88A4.14,4.14,0,0,1,871.6,96.79Z"/>
    <path class="cls-2" d="M883.28,100V90.59h-1.63V89.15h1.63V88a5.12,5.12,0,0,1,.19-1.63,2.36,2.36,0,0,1,.94-1.16,3.37,3.37,0,0,1,1.88-.45,8.61,8.61,0,0,1,1.73.19l-.28,1.61a6,6,0,0,0-1.09-.11,1.63,1.63,0,0,0-1.19.36,2,2,0,0,0-.34,1.35v1h2.12v1.44h-2.12V100Z"/>
    <path class="cls-2" d="M895.78,98.7a6.88,6.88,0,0,1-2,1.23,5.76,5.76,0,0,1-2,.36,3.93,3.93,0,0,1-2.76-.88,2.89,2.89,0,0,1-1-2.24,3,3,0,0,1,.36-1.46,2.89,2.89,0,0,1,1-1.06,4.43,4.43,0,0,1,1.32-.61,13.14,13.14,0,0,1,1.64-.27,16.6,16.6,0,0,0,3.29-.64c0-.25,0-.41,0-.48a2,2,0,0,0-.53-1.59,3.06,3.06,0,0,0-2.1-.63,3.27,3.27,0,0,0-1.92.46,2.74,2.74,0,0,0-.92,1.61l-1.8-.24a4.35,4.35,0,0,1,.81-1.87,3.47,3.47,0,0,1,1.63-1.1,7.16,7.16,0,0,1,2.47-.38,6.73,6.73,0,0,1,2.26.32,3.1,3.1,0,0,1,1.29.83,3,3,0,0,1,.57,1.25,10.82,10.82,0,0,1,.09,1.71v2.46a25.57,25.57,0,0,0,.12,3.25,4,4,0,0,0,.47,1.31h-1.93A3.82,3.82,0,0,1,895.78,98.7Zm-.16-4.12a13.53,13.53,0,0,1-3,.69,7.44,7.44,0,0,0-1.61.37,1.67,1.67,0,0,0-.73.6,1.61,1.61,0,0,0-.25.88,1.55,1.55,0,0,0,.56,1.23,2.37,2.37,0,0,0,1.63.49,3.75,3.75,0,0,0,1.9-.47,2.87,2.87,0,0,0,1.22-1.27,4.46,4.46,0,0,0,.29-1.85Z"/>
    <path class="cls-2" d="M907.46,96.05l1.81.24a4.66,4.66,0,0,1-1.52,2.94,4.48,4.48,0,0,1-3,1.06,4.67,4.67,0,0,1-3.59-1.46,5.92,5.92,0,0,1-1.36-4.19,7.57,7.57,0,0,1,.58-3.09,4.1,4.1,0,0,1,1.78-2,5.29,5.29,0,0,1,2.6-.66,4.5,4.5,0,0,1,2.9.89,4.08,4.08,0,0,1,1.45,2.55l-1.8.28a3,3,0,0,0-.9-1.65,2.37,2.37,0,0,0-1.58-.56,2.87,2.87,0,0,0-2.26,1,4.76,4.76,0,0,0-.87,3.17,4.88,4.88,0,0,0,.84,3.18,2.71,2.71,0,0,0,2.19,1,2.57,2.57,0,0,0,1.82-.67A3.33,3.33,0,0,0,907.46,96.05Z"/>
    <path class="cls-2" d="M914.88,98.39l.27,1.63a6.9,6.9,0,0,1-1.4.17,3.12,3.12,0,0,1-1.55-.32,1.75,1.75,0,0,1-.78-.84,6.56,6.56,0,0,1-.23-2.18V90.59h-1.35V89.15h1.35v-2.7l1.84-1.1v3.8h1.85v1.44H913V97a3.49,3.49,0,0,0,.09,1,.79.79,0,0,0,.32.36,1.23,1.23,0,0,0,.63.13A5.52,5.52,0,0,0,914.88,98.39Z"/>
    <path class="cls-2" d="M916.7,87.13V85h1.84v2.12Zm0,12.91V89.15h1.84V100Z"/>
    <path class="cls-2" d="M920.67,94.6a5.64,5.64,0,0,1,1.68-4.49,5.06,5.06,0,0,1,3.42-1.2,4.88,4.88,0,0,1,3.67,1.47,5.58,5.58,0,0,1,1.43,4.06,7.22,7.22,0,0,1-.63,3.31,4.42,4.42,0,0,1-1.84,1.87,5.38,5.38,0,0,1-2.63.67,4.87,4.87,0,0,1-3.69-1.47A5.8,5.8,0,0,1,920.67,94.6Zm1.89,0a4.69,4.69,0,0,0,.91,3.13,3,3,0,0,0,2.3,1,2.91,2.91,0,0,0,2.29-1,4.73,4.73,0,0,0,.91-3.19,4.48,4.48,0,0,0-.92-3.06,3,3,0,0,0-4.58,0A4.66,4.66,0,0,0,922.56,94.6Z"/>
    <path class="cls-2" d="M933,100V89.15h1.66V90.7a3.91,3.91,0,0,1,3.47-1.79,4.49,4.49,0,0,1,1.81.35,2.79,2.79,0,0,1,1.23.93,3.42,3.42,0,0,1,.58,1.36,10.49,10.49,0,0,1,.1,1.8V100H940V93.42a5.06,5.06,0,0,0-.22-1.69,1.77,1.77,0,0,0-.76-.89,2.48,2.48,0,0,0-1.29-.33,3,3,0,0,0-2,.74,3.7,3.7,0,0,0-.85,2.84v6Z"/>
    <path class="cls-2" d="M838.16,125.24l-3.33-10.89h1.91l1.73,6.29.65,2.34c0-.12.21-.87.56-2.25l1.73-6.38h1.9l1.63,6.32.54,2.08.63-2.1,1.87-6.3h1.79l-3.4,10.89h-1.92l-1.74-6.52-.42-1.86-2.2,8.38Z"/>
    <path class="cls-2" d="M851.33,112.33v-2.12h1.84v2.12Zm0,12.91V114.35h1.84v10.89Z"/>
    <path class="cls-2" d="M860,123.59l.27,1.63a6.74,6.74,0,0,1-1.39.16,3.19,3.19,0,0,1-1.56-.31,1.8,1.8,0,0,1-.78-.84,6.56,6.56,0,0,1-.23-2.18v-6.26H855v-1.44h1.35v-2.69l1.84-1.11v3.8H860v1.44h-1.85v6.37a3.45,3.45,0,0,0,.09,1,.86.86,0,0,0,.32.36,1.23,1.23,0,0,0,.63.13A5.52,5.52,0,0,0,860,123.59Z"/>
    <path class="cls-2" d="M861.82,125.24v-15h1.84v5.39a4.13,4.13,0,0,1,3.26-1.5,4.53,4.53,0,0,1,2.11.48,2.79,2.79,0,0,1,1.27,1.32,6,6,0,0,1,.39,2.44v6.9h-1.85v-6.9a2.84,2.84,0,0,0-.6-2,2.23,2.23,0,0,0-1.7-.64,3,3,0,0,0-1.54.43,2.44,2.44,0,0,0-1,1.15,5.43,5.43,0,0,0-.31,2v6Z"/>
    <path class="cls-2" d="M878.64,119.8a5.61,5.61,0,0,1,1.69-4.48,5,5,0,0,1,3.42-1.22,4.89,4.89,0,0,1,3.67,1.48,5.58,5.58,0,0,1,1.43,4.06,7.22,7.22,0,0,1-.63,3.31,4.48,4.48,0,0,1-1.84,1.87,5.28,5.28,0,0,1-2.63.67,4.9,4.9,0,0,1-3.7-1.47A5.85,5.85,0,0,1,878.64,119.8Zm1.9,0a4.68,4.68,0,0,0,.91,3.13,3,3,0,0,0,2.3,1,2.91,2.91,0,0,0,2.29-1,4.72,4.72,0,0,0,.91-3.18,4.54,4.54,0,0,0-.92-3.07,3,3,0,0,0-4.58,0A4.66,4.66,0,0,0,880.54,119.8Z"/>
    <path class="cls-2" d="M898.15,125.24v-1.6a4,4,0,0,1-3.46,1.85,4.53,4.53,0,0,1-1.8-.37,3,3,0,0,1-1.24-.93,3.48,3.48,0,0,1-.57-1.37,9.93,9.93,0,0,1-.11-1.72v-6.75h1.85v6a10.41,10.41,0,0,0,.11,2,1.84,1.84,0,0,0,.74,1.14,2.25,2.25,0,0,0,1.39.42,3,3,0,0,0,1.56-.43,2.32,2.32,0,0,0,1-1.16,5.78,5.78,0,0,0,.3-2.12v-5.84h1.85v10.89Z"/>
    <path class="cls-2" d="M906.72,123.59l.27,1.63a6.83,6.83,0,0,1-1.4.16,3.19,3.19,0,0,1-1.56-.31,1.8,1.8,0,0,1-.78-.84,6.65,6.65,0,0,1-.22-2.18v-6.26h-1.36v-1.44H903v-2.69l1.83-1.11v3.8h1.86v1.44h-1.86v6.37a3.34,3.34,0,0,0,.1,1,.79.79,0,0,0,.32.36,1.23,1.23,0,0,0,.63.13A5.63,5.63,0,0,0,906.72,123.59Z"/>
    <path class="cls-2" d="M915.63,121.25l1.82.24a4.72,4.72,0,0,1-1.53,2.94,4.46,4.46,0,0,1-3,1.06,4.67,4.67,0,0,1-3.59-1.46,5.92,5.92,0,0,1-1.36-4.19,7.74,7.74,0,0,1,.58-3.09,4.1,4.1,0,0,1,1.78-2,5.33,5.33,0,0,1,2.6-.67,4.53,4.53,0,0,1,2.91.9,4.12,4.12,0,0,1,1.44,2.55l-1.79.28a3,3,0,0,0-.91-1.65,2.36,2.36,0,0,0-1.57-.56,2.89,2.89,0,0,0-2.27,1,4.76,4.76,0,0,0-.87,3.17,4.93,4.93,0,0,0,.84,3.19,2.74,2.74,0,0,0,2.19,1,2.57,2.57,0,0,0,1.82-.67A3.3,3.3,0,0,0,915.63,121.25Z"/>
    <path class="cls-2" d="M918.34,119.8a5.61,5.61,0,0,1,1.68-4.48,5.06,5.06,0,0,1,3.42-1.22,4.91,4.91,0,0,1,3.68,1.48,5.58,5.58,0,0,1,1.42,4.06,7.22,7.22,0,0,1-.63,3.31,4.42,4.42,0,0,1-1.84,1.87,5.28,5.28,0,0,1-2.63.67,4.88,4.88,0,0,1-3.69-1.47A5.85,5.85,0,0,1,918.34,119.8Zm1.89,0a4.62,4.62,0,0,0,.92,3.13,3,3,0,0,0,4.58,0,4.72,4.72,0,0,0,.91-3.18,4.54,4.54,0,0,0-.91-3.07,3,3,0,0,0-4.58,0A4.61,4.61,0,0,0,920.23,119.8Z"/>
    <path class="cls-2" d="M930.7,125.24V114.35h1.65v1.53a4,4,0,0,1,1.37-1.29,3.88,3.88,0,0,1,1.94-.49,3.55,3.55,0,0,1,2,.51,2.63,2.63,0,0,1,1.09,1.4,3.91,3.91,0,0,1,3.37-1.91,3.3,3.3,0,0,1,2.49.9,3.85,3.85,0,0,1,.87,2.77v7.47h-1.84v-6.86a5,5,0,0,0-.18-1.59,1.52,1.52,0,0,0-.65-.79,2,2,0,0,0-1.1-.3,2.57,2.57,0,0,0-1.91.77,3.35,3.35,0,0,0-.76,2.45v6.32h-1.85v-7.07a3.13,3.13,0,0,0-.45-1.85,1.7,1.7,0,0,0-1.47-.62,2.71,2.71,0,0,0-1.44.41,2.28,2.28,0,0,0-1,1.21,6.64,6.64,0,0,0-.3,2.27v5.65Z"/>
    <path class="cls-2" d="M955.65,121.73l1.91.24a4.62,4.62,0,0,1-1.67,2.59A5.65,5.65,0,0,1,949,124a5.79,5.79,0,0,1-1.4-4.13,6,6,0,0,1,1.42-4.27,4.78,4.78,0,0,1,3.67-1.52,4.69,4.69,0,0,1,3.57,1.49,5.93,5.93,0,0,1,1.38,4.19c0,.11,0,.27,0,.49h-8.12a4.26,4.26,0,0,0,1,2.75,3,3,0,0,0,2.28,1,2.82,2.82,0,0,0,1.73-.53A3.57,3.57,0,0,0,955.65,121.73Zm-6.06-3h6.08a3.64,3.64,0,0,0-.7-2.06,2.82,2.82,0,0,0-2.28-1.07,3,3,0,0,0-2.14.85A3.37,3.37,0,0,0,949.59,118.75Z"/>
  </g>
  <g>
    <line class="cls-3" x1="175" y1="96.56" x2="207.8" y2="96.56"/>
    <polygon class="cls-2" points="206.18 84.41 206.18 108.71 218.32 96.56 206.18 84.41"/>
  </g>
  <g>
    <line class="cls-3" x1="375" y1="96.56" x2="407.8" y2="96.56"/>
    <polygon class="cls-2" points="406.18 84.41 406.18 108.71 418.32 96.56 406.18 84.41"/>
  </g>
  <g>
    <line class="cls-3" x1="575" y1="96.56" x2="607.8" y2="96.56"/>
    <polygon class="cls-2" points="606.17 84.41 606.17 108.71 618.32 96.56 606.17 84.41"/>
  </g>
  <g>
    <line class="cls-3" x1="775" y1="96.56" x2="807.8" y2="96.56"/>
    <polygon class="cls-2" points="806.17 84.41 806.17 108.71 818.32 96.56 806.17 84.41"/>
  </g>
</svg>
