<svg xmlns="http://www.w3.org/2000/svg" viewBox="0 0 393 263">
  <g id="Shapes">
    <rect x="10" y="44.65" width="41.21" height="41.21" style="fill: none;stroke: #231f20;stroke-miterlimit: 10"/>
    <rect x="10" y="85.78" width="41.21" height="20.91" style="fill: none;stroke: #231f20;stroke-miterlimit: 10;stroke-width: 0.5px"/>
    <rect x="51.21" y="44.65" width="41.21" height="41.21" style="fill: none;stroke: #231f20;stroke-miterlimit: 10"/>
    <rect x="51.21" y="85.78" width="41.21" height="20.91" style="fill: none;stroke: #231f20;stroke-miterlimit: 10;stroke-width: 0.5px"/>
    <rect x="92.41" y="44.65" width="41.21" height="41.21" style="fill: none;stroke: #231f20;stroke-miterlimit: 10"/>
    <rect x="92.41" y="85.78" width="41.21" height="20.91" style="fill: none;stroke: #231f20;stroke-miterlimit: 10;stroke-width: 0.5px"/>
    <rect x="133.62" y="44.65" width="41.21" height="41.21" style="fill: none;stroke: #231f20;stroke-miterlimit: 10"/>
    <rect x="133.62" y="85.78" width="41.21" height="20.91" style="fill: none;stroke: #231f20;stroke-miterlimit: 10;stroke-width: 0.5px"/>
    <rect x="174.82" y="44.65" width="41.21" height="41.21" style="fill: none;stroke: #231f20;stroke-miterlimit: 10"/>
    <rect x="174.82" y="85.78" width="41.21" height="20.91" style="fill: none;stroke: #231f20;stroke-miterlimit: 10;stroke-width: 0.5px"/>
    <rect x="216.03" y="44.65" width="41.21" height="41.21" style="fill: none;stroke: #231f20;stroke-miterlimit: 10"/>
    <rect x="216.03" y="85.78" width="41.21" height="20.91" style="fill: none;stroke: #231f20;stroke-miterlimit: 10;stroke-width: 0.5px"/>
    <rect x="257.23" y="44.65" width="41.21" height="41.21" style="fill: none;stroke: #231f20;stroke-miterlimit: 10"/>
    <rect x="257.23" y="85.78" width="41.21" height="20.91" style="fill: none;stroke: #231f20;stroke-miterlimit: 10;stroke-width: 0.5px"/>
    <rect x="298.44" y="44.65" width="41.21" height="41.21" style="fill: none;stroke: #231f20;stroke-miterlimit: 10"/>
    <rect x="298.44" y="85.78" width="41.21" height="20.91" style="fill: none;stroke: #231f20;stroke-miterlimit: 10;stroke-width: 0.5px"/>
    <rect x="51.21" y="106.61" width="41.21" height="20.91" style="fill: none;stroke: #231f20;stroke-miterlimit: 10;stroke-width: 0.5px"/>
    <rect x="92.41" y="106.61" width="41.21" height="20.91" style="fill: none;stroke: #231f20;stroke-miterlimit: 10;stroke-width: 0.5px"/>
    <rect x="133.62" y="106.61" width="41.21" height="20.91" style="fill: none;stroke: #231f20;stroke-miterlimit: 10;stroke-width: 0.5px"/>
    <rect x="174.82" y="106.61" width="41.21" height="20.91" style="fill: none;stroke: #231f20;stroke-miterlimit: 10;stroke-width: 0.5px"/>
    <rect x="216.03" y="106.61" width="41.21" height="20.91" style="fill: none;stroke: #231f20;stroke-miterlimit: 10;stroke-width: 0.5px"/>
    <rect x="257.23" y="106.61" width="41.21" height="20.91" style="fill: none;stroke: #231f20;stroke-miterlimit: 10;stroke-width: 0.5px"/>
    <rect x="298.44" y="106.61" width="41.21" height="20.91" style="fill: none;stroke: #231f20;stroke-miterlimit: 10;stroke-width: 0.5px"/>
    <rect x="51.21" y="127.52" width="41.21" height="20.91" style="fill: none;stroke: #231f20;stroke-miterlimit: 10;stroke-width: 0.5px"/>
    <rect x="92.41" y="127.52" width="41.21" height="20.91" style="fill: none;stroke: #231f20;stroke-miterlimit: 10;stroke-width: 0.5px"/>
    <rect x="133.62" y="127.52" width="41.21" height="20.91" style="fill: none;stroke: #231f20;stroke-miterlimit: 10;stroke-width: 0.5px"/>
    <rect x="174.82" y="127.52" width="41.21" height="20.91" style="fill: none;stroke: #231f20;stroke-miterlimit: 10;stroke-width: 0.5px"/>
    <rect x="216.03" y="127.52" width="41.21" height="20.91" style="fill: none;stroke: #231f20;stroke-miterlimit: 10;stroke-width: 0.5px"/>
    <rect x="257.23" y="127.52" width="41.21" height="20.91" style="fill: none;stroke: #231f20;stroke-miterlimit: 10;stroke-width: 0.5px"/>
    <rect x="92.41" y="148.27" width="41.21" height="20.91" style="fill: none;stroke: #231f20;stroke-miterlimit: 10;stroke-width: 0.5px"/>
    <rect x="133.62" y="148.27" width="41.21" height="20.91" style="fill: none;stroke: #231f20;stroke-miterlimit: 10;stroke-width: 0.5px"/>
    <rect x="174.82" y="148.27" width="41.21" height="20.91" style="fill: none;stroke: #231f20;stroke-miterlimit: 10;stroke-width: 0.5px"/>
    <rect x="216.03" y="148.27" width="41.21" height="20.91" style="fill: none;stroke: #231f20;stroke-miterlimit: 10;stroke-width: 0.5px"/>
    <rect x="257.23" y="148.27" width="41.21" height="20.91" style="fill: none;stroke: #231f20;stroke-miterlimit: 10;stroke-width: 0.5px"/>
    <rect x="92.41" y="169.03" width="41.21" height="20.91" style="fill: none;stroke: #231f20;stroke-miterlimit: 10;stroke-width: 0.5px"/>
    <rect x="133.62" y="169.03" width="41.21" height="20.91" style="fill: none;stroke: #231f20;stroke-miterlimit: 10;stroke-width: 0.5px"/>
    <rect x="174.82" y="169.03" width="41.21" height="20.91" style="fill: none;stroke: #231f20;stroke-miterlimit: 10;stroke-width: 0.5px"/>
    <rect x="216.03" y="169.03" width="41.21" height="20.91" style="fill: none;stroke: #231f20;stroke-miterlimit: 10;stroke-width: 0.5px"/>
    <rect x="133.62" y="189.78" width="41.21" height="20.91" style="fill: none;stroke: #231f20;stroke-miterlimit: 10;stroke-width: 0.5px"/>
    <rect x="174.82" y="189.78" width="41.21" height="20.91" style="fill: none;stroke: #231f20;stroke-miterlimit: 10;stroke-width: 0.5px"/>
    <rect x="216.03" y="189.78" width="41.21" height="20.91" style="fill: none;stroke: #231f20;stroke-miterlimit: 10;stroke-width: 0.5px"/>
    <rect x="133.62" y="210.54" width="41.21" height="20.91" style="fill: none;stroke: #231f20;stroke-miterlimit: 10;stroke-width: 0.5px"/>
    <rect x="174.82" y="210.54" width="41.21" height="20.91" style="fill: none;stroke: #231f20;stroke-miterlimit: 10;stroke-width: 0.5px"/>
    <rect x="174.82" y="231.29" width="41.21" height="20.91" style="fill: none;stroke: #231f20;stroke-miterlimit: 10;stroke-width: 0.5px"/>
    <rect x="216.03" y="210.54" width="41.21" height="20.91" style="fill: none;stroke: #231f20;stroke-miterlimit: 10;stroke-width: 0.5px"/>
    <rect x="257.23" y="169.03" width="41.21" height="20.91" style="fill: none;stroke: #231f20;stroke-miterlimit: 10;stroke-width: 0.5px"/>
    <rect x="298.44" y="127.52" width="41.21" height="20.91" style="fill: none;stroke: #231f20;stroke-miterlimit: 10;stroke-width: 0.5px"/>
    <rect x="339.65" y="44.65" width="41.21" height="41.21" style="fill: none;stroke: #231f20;stroke-miterlimit: 10"/>
    <rect x="339.65" y="85.78" width="41.21" height="20.91" style="fill: none;stroke: #231f20;stroke-miterlimit: 10;stroke-width: 0.5px"/>
  </g>
  <g id="Words">
    <text transform="translate(21.66 56.41)" style="font-size: 7.478050231933594px;fill: #231f20;font-family: ArialMT, Arial">Most <tspan x="-7.48" y="8.97">important</tspan></text>
    <text transform="translate(182.53 56.41)" style="font-size: 7.478050231933594px;fill: #231f20;font-family: ArialMT, Arial">Neither</text>
    <text transform="translate(350.26 56.41)" style="font-size: 7.478050231933594px;fill: #231f20;font-family: ArialMT, Arial">Least<tspan x="-6.44" y="8.97">important</tspan></text>
    <text transform="translate(27.68 79.38)" style="font-size: 7.478050231933594px;fill: #231f20;font-family: ArialMT, Arial">1</text>
    <text transform="translate(68.89 79.38)" style="font-size: 7.478050231933594px;fill: #231f20;font-family: ArialMT, Arial">2</text>
    <text transform="translate(110.1 79.38)" style="font-size: 7.478050231933594px;fill: #231f20;font-family: ArialMT, Arial">3</text>
    <text transform="translate(151.3 79.38)" style="font-size: 7.478050231933594px;fill: #231f20;font-family: ArialMT, Arial">4</text>
    <text transform="translate(192.51 79.38)" style="font-size: 7.478050231933594px;fill: #231f20;font-family: ArialMT, Arial">5</text>
    <text transform="translate(233.71 79.38)" style="font-size: 7.478050231933594px;fill: #231f20;font-family: ArialMT, Arial">6</text>
    <text transform="translate(274.92 79.38)" style="font-size: 7.478050231933594px;fill: #231f20;font-family: ArialMT, Arial">7</text>
    <text transform="translate(316.13 79.38)" style="font-size: 7.478050231933594px;fill: #231f20;font-family: ArialMT, Arial">8</text>
    <text transform="translate(357.33 79.38)" style="font-size: 7.478050231933594px;fill: #231f20;font-family: ArialMT, Arial">9</text>
    <text transform="translate(10 19.59)" style="font-size: 12px;fill: #231f20;font-family: ArialMT, Arial">Please put the cards in order with more important ones to the left and<tspan x="0" y="14.4">less important ones to the right.</tspan></text>
  </g>
</svg>
