<svg xmlns="http://www.w3.org/2000/svg" viewBox="0 0 360 432">
  <defs>
    <style>
      .cls-1, .cls-2 {
        fill: #fff;
        stroke: #231f20;
        stroke-miterlimit: 10;
      }

      .cls-2 {
        fill-rule: evenodd;
      }
    </style>
  </defs>
  <title>ProstateCancer</title>
  <g id="symbols">
    <g id="dna">
      <g id="first">
        <path id="ph" class="cls-1" d="M198.44,31a63.21,63.21,0,0,0,13.21,13.43C227.21,55.57,241.34,66.9,241.53,67a65.57,65.57,0,0,0,7.68-9.85C257.11,44.89,199.37,8,198.78,8Z"/>
        <path id="ph-2" data-name="ph" class="cls-2" d="M235.19,50.57h.2c4-5.46.33-7.47-2.74-9.42l-46.11-1.74c3.46,2.39,0-.31,0-.31,3.46,2.95,5.44,2.48,1.19,9.3l.26.05,47.28,2"/>
        <path id="ph-3" data-name="ph" class="cls-2" d="M183.35,201.9s-17.46-4.93-31.82-14.81-24.72-23.78-25-24c-.59.31-4.94,10.39-6.07,15-3.78,15.46,34.09,36,34.16,36.34l28.86-12.17"/>
        <path id="t" class="cls-2" d="M211.9,86.39l-18.8,9,.1-.06-12-.07-.06,0c-5.62-5.53-.23-6.36,1.76-9.11,0,0-2,2.75.06-.06Z"/>
        <path id="c" class="cls-2" d="M233.68,73l9.63-8.14-57.13-1.1.12,0v7.92Z"/>
        <path id="ph-4" data-name="ph" class="cls-2" d="M182.84,99.61S165.38,94.68,151,84.8,126.3,61,126,60.76c-.59.32-4.94,10.39-6.07,15-3.77,15.46,34.1,36,34.16,36.34L183,100"/>
        <path id="ph-5" data-name="ph" class="cls-1" d="M164.5,6.06c-15.65,3.37-44.08,23.86-48.74,37.11-4,15.45-3.28,27.34,1,38.06C139.42,106.54,141.6,103.66,154,112c0-.26-38.5-19.21-34.1-36.26,5.84-22.64,18-38.81,44.53-48.25Z"/>
        <path id="ph-6" data-name="ph" class="cls-1" d="M199,8s57.64,36.62,50.26,49.2C227.64,94,131.08,109.36,116.26,145.46c-4,15.45-3.28,27.34,1,38.06,22.66,25.31,24.83,22.43,37.25,30.81,0-.26-38.44-19.2-34.09-36.26,14.3-56.07,79.18-42.19,134.94-95.65,3.84-6.1,4.51-16.15.85-30.14C256.4,44.79,217.39,20.7,199,8Z"/>
        <path id="t-2" data-name="t" class="cls-2" d="M187.73,48.4c4.51-6.77,2.27-6.11-1.19-9,0,0,3.46,2.94,0,.06L146,36.79c-.06-.29-2.73,1.5-6.07,3.81s-5.51,5.86-5.28,6.22Z"/>
        <path id="g" class="cls-2" d="M186.18,63.75l.12,8-64.55-.89,3.7-8.52Z"/>
        <path id="a" class="cls-2" d="M181.14,95c-5.57-5.28.83-6.15,2.19-8.9,0,0-1.36,2.75,0-.06L135.74,86c-1.8,2.78,0,0,0,0-1.78,2.75-2.52,6,1.49,9.3h.12Z"/>
      </g>
      <g id="second">
        <path id="ph-7" data-name="ph" class="cls-1" d="M181.77,126.05A320.2,320.2,0,0,1,216.35,145a293.59,293.59,0,0,1,29.87,22.58,65,65,0,0,0,7.69-9.85c7.9-12.26-46.53-42.17-46.27-42.16Z"/>
        <path id="ph-8" data-name="ph" class="cls-1" d="M207.38,115.54s53.91,29.59,46.53,42.17C232.33,194.51,135.78,209.92,121,246c-4,15.45-3.28,27.34,1,38.06,22.66,25.31,24.84,22.43,37.26,30.81,0-.26-38.45-19.2-34.1-36.26,14.31-56.07,79.19-42.19,135-95.65,3.83-6.1,4.51-16.15.85-30.14C261.09,145.35,225.83,128.29,207.38,115.54Z"/>
        <path id="t-3" data-name="t" class="cls-2" d="M192.43,149c4.51-6.77,2.27-6.11-1.19-9.05,0,0,3.46,2.94,0,.06l-35-3.47a40.52,40.52,0,0,0-7.11,3.91c-3.34,2.31-8.16,5.05-7.92,5.41Z"/>
        <path id="a-2" data-name="a" class="cls-2" d="M185.84,195.6c-5.57-5.28.83-6.15,2.18-8.9,0,0-1.35,2.75.06-.06l-47.64-.12c-1.8,2.78,0,0,0,0-1.78,2.75-2.52,6,1.49,9.3H142Z"/>
        <path id="g-2" data-name="g" class="cls-2" d="M190.87,164.31l.13,8H125.78l.48-6.18Z"/>
        <path id="a-3" data-name="a" class="cls-2" d="M239.89,151.13h.2c4-5.46.33-7.47-2.75-9.42L191.23,140c3.47,2.39,0-.3,0-.3,3.46,2.94,5.43,2.47,1.19,9.29l.26,0L240,151.06"/>
        <path id="g-3" data-name="g" class="cls-1" d="M204.53,129.16c2.59-2.92,1.64-7.39-1.25-9.61,0,0,2.89,2.22-.41-.14l-3.41-.42,0-.07-21,8.6,0,.09Z"/>
        <path id="ph-9" data-name="ph" class="cls-2" d="M188,302.46s-17.46-4.93-31.82-14.81-24.72-23.78-25-24c-.59.31-4.93,10.39-6.07,15-3.77,15.46,34.1,36,34.17,36.34l28.86-12.17"/>
        <path id="t-4" data-name="t" class="cls-2" d="M216.6,187l-18.8,9,.09-.06-12-.07,0-.05c-5.62-5.53-.23-6.36,1.76-9.11,0,0-2,2.75.06-.06Z"/>
        <path id="c-2" data-name="c" class="cls-2" d="M238.38,173.55l9.62-8.13-57.13-1.11.13,0v7.92Z"/>
      </g>
      <g id="third">
        <path id="ph-10" data-name="ph" class="cls-1" d="M207.88,216.94s53.9,29.59,46.53,42.17c-21.58,36.8-118.14,52.21-133,88.3-4,15.45-3.27,27.35,1,38.06,22.66,25.31,28.68,26.66,41.1,35,0-.26-42.29-23.42-37.94-40.48,14.31-56.07,79.18-42.2,134.94-95.65,3.84-6.1,4.52-16.15.85-30.15C261.59,246.75,226.32,229.69,207.88,216.94Z"/>
        <path id="t-5" data-name="t" class="cls-2" d="M192.92,250.36c4.52-6.78,2.27-6.11-1.18-9.06,0,0,3.45,2.95,0,.07l-34.68-2.75c-.07-.29-2.73,1.5-6.08,3.81s-7.35,5.14-7.12,5.5Z"/>
        <path id="a-4" data-name="a" class="cls-2" d="M186.34,297c-5.58-5.27.83-6.15,2.18-8.9,0,0-1.35,2.75.06,0l-47.64-.13c-1.8,2.79,0,0,0,0-1.77,2.75-2.52,6,1.5,9.29h.11Z"/>
        <path id="g-4" data-name="g" class="cls-2" d="M191.37,265.71l.12,8-64.55-.89,3.7-8.53Z"/>
        <path id="a-5" data-name="a" class="cls-2" d="M240.39,252.53h.2c4-5.46.32-7.48-2.75-9.42l-46.11-1.74c3.46,2.39,0-.31,0-.31,3.45,2.94,5.43,2.47,1.18,9.3l.27,0,47.27,2"/>
        <path id="g-5" data-name="g" class="cls-1" d="M205,230.55c2.59-2.91,1.64-7.39-1.25-9.61,0,0,2.89,2.22-.41-.13l-3.41-.43,0-.06-21,8.59,0,.1Z"/>
        <path id="t-6" data-name="t" class="cls-2" d="M217.09,288.35l-18.79,9,.09-.07-12-.07,0-.05c-5.63-5.53-.23-6.36,1.76-9.11,0,0-2,2.75.05,0Z"/>
        <path id="c-3" data-name="c" class="cls-2" d="M238.87,274.94l9.63-8.13-57.13-1.1h.12v7.92Z"/>
        <path id="ph-11" data-name="ph" class="cls-2" d="M163.86,393.1C149.5,383.23,132,365.27,131.69,365c-.59.31-4.94,10.39-6.07,15-3.77,15.46,37.88,40.2,37.88,40.2Z"/>
        <path id="ph-12" data-name="ph" class="cls-1" d="M182.26,227.44a321.86,321.86,0,0,1,34.59,18.93A294.18,294.18,0,0,1,246.72,269a66.28,66.28,0,0,0,7.69-9.85c7.9-12.26-46.53-42.17-46.28-42.16Z"/>
      </g>
      <g id="fourth">
        <path id="ph-13" data-name="ph" class="cls-1" d="M183.66,328.8a320.2,320.2,0,0,1,34.58,18.93,293.59,293.59,0,0,1,29.87,22.58,65.4,65.4,0,0,0,7.69-9.84c7.9-12.27-46.53-42.18-46.28-42.17Z"/>
        <path id="t-7" data-name="t" class="cls-2" d="M194.31,351.71c4.52-6.77,2.28-6.11-1.18-9,0,0,3.46,2.94,0,.06L158.44,340c-.06-.29-2.73,1.49-6.07,3.8s-7.36,5.14-7.13,5.5Z"/>
        <path id="a-6" data-name="a" class="cls-2" d="M241.78,353.88h.2c4-5.46.33-7.47-2.75-9.42l-46.11-1.74c3.47,2.39,0-.3,0-.3,3.46,2.94,5.43,2.47,1.18,9.29l.27.05,47.27,2.05"/>
        <path id="g-6" data-name="g" class="cls-1" d="M206.42,331.91c2.59-2.92,1.64-7.39-1.25-9.61,0,0,2.89,2.22-.41-.14l-3.41-.42,0-.07-21,8.6,0,.09Z"/>
        <path id="c-4" data-name="c" class="cls-2" d="M240.27,376.3l9.62-8.13-57.13-1.11.13,0V375Z"/>
        <path id="ph-14" data-name="ph" class="cls-1" d="M209.27,318.29s53,29.09,46.53,42.18c-4.85,9.82-33.26,25.21-46.9,33.62v26.14c15.49-8.69,45.46-26.05,53.06-34.5,3.83-6.1,4.51-16.14.85-30.14C263,348.1,227.71,331,209.27,318.29Z"/>
        <path id="g-7" data-name="g" class="cls-2" d="M192.76,367.06l.13,8-64.55-.88,3.69-8.53Z"/>
      </g>
    </g>
  </g>
</svg>
