<svg xmlns="http://www.w3.org/2000/svg" viewBox="0 0 360 432">
  <defs>
    <style>
      .cls-1 {
        fill: #fff;
        stroke: #231f20;
        stroke-miterlimit: 10;
      }
    </style>
  </defs>
  <title>ProstateCancer</title>
  <g id="symbols">
    <g id="antigen">
      <g id="paratrope">
        <path class="cls-1" d="M7.7,283.61,15.53,278c-.59,2,2.55,8.72,7.48,15.81,5.45,7.83,11.1,13.31,12.64,12.24l-8.16,6.11c-1.52,1.06-7.18-4.43-12.63-12.26S6.17,284.68,7.7,283.61Z"/>
        <path class="cls-1" d="M15.9,277.67a.68.68,0,0,1,.5-.11h0a.45.45,0,0,1,.16,0c2.12.31,7.13,5.41,12,12.37,5.1,7.35,8.22,14.14,7.33,15.83a.78.78,0,0,1-.23.27c-1.54,1.07-7.19-4.41-12.64-12.24-4.93-7.09-8-13.67-7.43-15.65A.86.86,0,0,1,15.9,277.67Z"/>
        <path class="cls-1" d="M22.87,287c-1.16.84,5.65,10.24,6.58,9.6l30.42-20.83-6.58-9.61S24.24,286,22.87,287Z"/>
      </g>
      <path id="soma" class="cls-1" d="M331,207.82A151.87,151.87,0,1,1,179.12,55.94,151.86,151.86,0,0,1,331,207.82Z"/>
      <g id="paratrope-2" data-name="paratrope">
        <path class="cls-1" d="M293.59,43.37,289,51.83c-.33-2-6.07-6.76-13.58-11-8.3-4.71-15.76-7.21-16.69-5.59-.06.11,4.68-9,4.72-9,.91-1.62,8.39.89,16.69,5.59S294.51,41.75,293.59,43.37Z"/>
        <path class="cls-1" d="M288.76,52.27a.74.74,0,0,1-.4.33h0l-.15,0c-2,.64-8.77-1.79-16.15-6-7.77-4.43-13.52-9.21-13.45-11.12a.79.79,0,0,1,.09-.35c.93-1.62,8.39.88,16.69,5.59,7.51,4.26,13.13,8.86,13.46,10.9A.79.79,0,0,1,288.76,52.27Z"/>
        <path class="cls-1" d="M278.44,46.86c.69-1.26-9.52-6.79-10.08-5.82L249.93,73,260,78.79S277.64,48.35,278.44,46.86Z"/>
      </g>
      <g id="paratrope-3" data-name="paratrope">
        <path class="cls-1" d="M146.31,401.59c0-.13.33-6.9.46-9.63,1.18,1.69,8.41,3.43,17,4,9.52.6,17.33-.41,17.45-2.27,0-.12-.3,10.1-.3,10.18-.12,1.85-7.93,2.86-17.45,2.26S146.19,403.45,146.31,401.59Z"/>
        <path class="cls-1" d="M147.11,391.89a.7.7,0,0,1,.23-.46v0a.57.57,0,0,1,.11-.11c1.58-1.46,8.7-2.15,17.15-1.55,8.92.66,16.17,2.49,16.93,4.25a.74.74,0,0,1,.06.35c-.14,1.87-8,2.82-17.47,2.14-8.61-.62-15.66-2.36-16.83-4.06A.77.77,0,0,1,147.11,391.89Z"/>
        <path class="cls-1" d="M158.4,392c0,1.29,11.59,1.53,11.63.52l1.49-33.18-11.64-.52S158.43,390.46,158.4,392Z"/>
      </g>
      <g id="paratrope-4" data-name="paratrope">
        <path class="cls-1" d="M185.88,32.79c0,.14-.33,6.9-.46,9.63-1.18-1.69-8.41-3.43-17-4-9.52-.61-17.33.4-17.45,2.26,0,.12.3-10.1.3-10.18.12-1.85,7.93-2.86,17.45-2.25S186,30.93,185.88,32.79Z"/>
        <path class="cls-1" d="M185.08,42.49a.73.73,0,0,1-.23.47h0l-.11.12c-1.58,1.45-8.7,2.15-17.15,1.54-8.92-.65-16.17-2.49-16.93-4.25a.74.74,0,0,1-.06-.35c.14-1.86,7.95-2.81,17.47-2.13,8.61.62,15.66,2.35,16.83,4.05A.79.79,0,0,1,185.08,42.49Z"/>
        <path class="cls-1" d="M173.81,41.92c0-.57-11.61-1-11.63-.51S161.13,57,161.13,57l12.05-.88S173.82,42.6,173.81,41.92Z"/>
      </g>
      <g id="paratrope-5" data-name="paratrope">
        <path class="cls-1" d="M195.73,207.81a16.6,16.6,0,1,1-16.6-16.6A16.6,16.6,0,0,1,195.73,207.81Z"/>
        <path class="cls-1" d="M190,207.81a10.89,10.89,0,1,1-10.88-10.88A10.89,10.89,0,0,1,190,207.81Z"/>
      </g>
      <g id="paratrope-6" data-name="paratrope">
        <path class="cls-1" d="M50.68,56l7,6.58c-2.06-.19-8.06,4.19-14,10.41-6.62,6.87-10.9,13.48-9.56,14.78L26.55,81c-1.34-1.28,2.95-7.9,9.57-14.77S49.34,54.72,50.68,56Z"/>
        <path class="cls-1" d="M58.1,62.89a.77.77,0,0,1,.22.48h0a.78.78,0,0,1,0,.16c.1,2.15-3.92,8-9.81,14.15C42.32,84.11,36.27,88.49,34.43,88a.78.78,0,0,1-.31-.17c-1.34-1.3,2.94-7.91,9.56-14.78,6-6.22,11.85-10.52,13.9-10.32A.8.8,0,0,1,58.1,62.89Z"/>
        <path class="cls-1" d="M50.3,71.55c-1-1-8.95,7.53-8.14,8.32L68.5,105.66l8.15-8.32S51.54,72.69,50.3,71.55Z"/>
      </g>
      <g id="paratrope-7" data-name="paratrope">
        <path class="cls-1" d="M307.73,323.6l7-9.33-29.54-22.06c.38.29-6.05,10.09-7,9.33S307.73,323.6,307.73,323.6Z"/>
        <path class="cls-1" d="M299,333c.12.07,5.63,4,7.85,5.62-.6-2,2.52-8.72,7.43-15.81,5.43-7.83,11.07-13.32,12.61-12.26l-8.18-6.09c-1.53-1.06-7.17,4.43-12.6,12.27S297.42,332,299,333Z"/>
        <path class="cls-1" d="M326.45,310.77a.68.68,0,0,0-.5-.11h0a.45.45,0,0,0-.16,0c-2.12.31-7.13,5.42-12,12.39-5.11,7.36-8.23,14.16-7.34,15.85a.81.81,0,0,0,.23.28c1.53,1.06,7.18-4.43,12.64-12.27,4.93-7.1,8-13.69,7.43-15.67A.86.86,0,0,0,326.45,310.77Z"/>
      </g>
      <g id="paratrope-8" data-name="paratrope">
        <path class="cls-1" d="M351.54,170.26c-.13,0-6.68,1.76-9.32,2.46,1.25-1.64.73-9.05-1.34-17.44-2.29-9.26-5.61-16.4-7.43-15.95l9.8-2.79c1.8-.44,5.12,6.7,7.42,16S353.35,169.8,351.54,170.26Z"/>
        <path class="cls-1" d="M342.05,172.42a.72.72,0,0,1-.51-.08h0l-.15-.07c-1.86-1.07-4.67-7.64-6.64-15.88-2.07-8.71-2.51-16.17-1.06-17.42a.77.77,0,0,1,.32-.17c1.81-.43,5.08,6.73,7.3,16,2,8.4,2.48,15.65,1.21,17.28A.86.86,0,0,1,342.05,172.42Z"/>
        <path class="cls-1" d="M339.19,161.5c.54-.19-2.58-11.36-3-11.25S321,154,321,154l4.48,11.22S338.55,161.72,339.19,161.5Z"/>
      </g>
    </g>
  </g>
</svg>
