<svg xmlns="http://www.w3.org/2000/svg" viewBox="0 0 360 432"><defs><style>.cls-1,.cls-2{fill:#fff;stroke:#231f20;}.cls-1{stroke-miterlimit:3;}.cls-2{stroke-miterlimit:10;}</style></defs><title>ProstateCancer</title><g id="symbols"><g id="antigen"><g id="paratrope"><path class="cls-1" d="M34.15,281.41l6.75-4.86c-.51,1.7,2.2,7.52,6.46,13.64,4.7,6.75,9.57,11.48,10.9,10.56l-7,5.27c-1.32.91-6.2-3.82-10.91-10.58S32.83,282.33,34.15,281.41Z"/><path class="cls-2" d="M41.22,276.28a.59.59,0,0,1,.44-.1h.14c1.83.27,6.16,4.67,10.33,10.67,4.41,6.35,7.1,12.2,6.33,13.67a.76.76,0,0,1-.2.23c-1.33.92-6.2-3.81-10.9-10.56-4.26-6.12-6.92-11.8-6.41-13.51A.66.66,0,0,1,41.22,276.28Z"/><path class="cls-2" d="M47.24,284.34c-1,.72,4.87,8.83,5.67,8.28l26.25-18-5.68-8.29S48.42,283.48,47.24,284.34Z"/></g><path id="soma" class="cls-2" d="M313.11,216a131,131,0,1,1-131-131A131,131,0,0,1,313.11,216Z"/><g id="paratrope-2" data-name="paratrope"><path class="cls-1" d="M280.83,74.11l-4,7.3c-.28-1.76-5.23-5.83-11.71-9.51-7.16-4.06-13.6-6.22-14.4-4.82l4.07-7.79c.79-1.39,7.24.77,14.4,4.83S281.62,72.71,280.83,74.11Z"/><path class="cls-2" d="M276.67,81.79a.62.62,0,0,1-.35.28h0l-.13,0c-1.77.55-7.57-1.55-13.93-5.16-6.71-3.82-11.67-7.94-11.61-9.59a.7.7,0,0,1,.08-.3c.8-1.4,7.24.76,14.4,4.82,6.48,3.68,11.33,7.65,11.61,9.41A.69.69,0,0,1,276.67,81.79Z"/><path class="cls-2" d="M267.76,77.12c.59-1.08-8.21-5.86-8.7-5l-15.9,27.55,8.7,5S267.07,78.4,267.76,77.12Z"/></g><g id="paratrope-3" data-name="paratrope"><path class="cls-1" d="M153.75,383.21c0-.12.29-6,.4-8.31,1,1.46,7.25,3,14.69,3.43,8.22.53,14.95-.34,15.06-1.95,0-.1-.26,8.72-.26,8.78-.1,1.6-6.85,2.47-15.06,1.95S153.65,384.81,153.75,383.21Z"/><path class="cls-2" d="M154.44,374.84a.66.66,0,0,1,.2-.41h0l.1-.1c1.36-1.25,7.5-1.85,14.79-1.33,7.7.56,13.95,2.15,14.61,3.66a.72.72,0,0,1,.05.31c-.12,1.61-6.86,2.43-15.07,1.84-7.43-.53-13.52-2-14.53-3.5A.65.65,0,0,1,154.44,374.84Z"/><path class="cls-2" d="M164.18,374.91c0,1.11,10,1.32,10,.45l1.28-28.63-10-.44S164.2,373.6,164.18,374.91Z"/></g><g id="paratrope-4" data-name="paratrope"><path class="cls-1" d="M187.89,65c0,.12-.28,6-.4,8.31-1-1.46-7.25-3-14.69-3.44-8.21-.52-15,.35-15.06,2,0,.1.26-8.72.26-8.79.1-1.59,6.85-2.47,15.06-1.94S188,63.38,187.89,65Z"/><path class="cls-2" d="M187.2,73.35a.56.56,0,0,1-.19.4h0a.43.43,0,0,1-.09.1c-1.37,1.26-7.51,1.86-14.8,1.34-7.7-.57-14-2.15-14.61-3.67a.65.65,0,0,1,0-.3c.12-1.61,6.86-2.43,15.07-1.85,7.43.54,13.52,2,14.53,3.51A.64.64,0,0,1,187.2,73.35Z"/><path class="cls-2" d="M177.48,72.86c0-.5-10-.84-10-.45s-.91,13.46-.91,13.46l10.4-.76S177.49,73.45,177.48,72.86Z"/></g><g id="paratrope-5" data-name="paratrope"><path class="cls-2" d="M196.39,216a14.32,14.32,0,1,1-14.32-14.32A14.32,14.32,0,0,1,196.39,216Z"/><path class="cls-2" d="M191.46,216a9.39,9.39,0,1,1-9.39-9.39A9.39,9.39,0,0,1,191.46,216Z"/></g><g id="paratrope-6" data-name="paratrope"><path class="cls-1" d="M71.24,85c.08.09,4.35,4.07,6.08,5.68-1.78-.16-6.95,3.62-12.13,9-5.71,5.93-9.4,11.63-8.25,12.75l-6.53-5.87c-1.15-1.11,2.54-6.82,8.26-12.75S70.08,83.9,71.24,85Z"/><path class="cls-2" d="M77.64,91a.62.62,0,0,1,.18.41h0a.51.51,0,0,1,0,.13c.09,1.85-3.38,7-8.46,12.21C64,109.26,58.8,113,57.21,112.58a.67.67,0,0,1-.27-.16c-1.15-1.12,2.54-6.82,8.25-12.75,5.18-5.36,10.23-9.07,12-8.9A.71.71,0,0,1,77.64,91Z"/><path class="cls-2" d="M70.91,98.42c-.91-.84-7.73,6.5-7,7.18l22.73,22.25,7-7.18S72,99.41,70.91,98.42Z"/></g><g id="paratrope-7" data-name="paratrope"><path class="cls-2" d="M293,315.91l6-8.05s-26.29-19.64-25.49-19c.33.24-5.21,8.7-6,8S293,315.91,293,315.91Z"/><path class="cls-1" d="M285.46,324l6.77,4.86c-.51-1.71,2.18-7.53,6.41-13.65,4.69-6.75,9.55-11.49,10.88-10.57l-7.06-5.26c-1.31-.91-6.18,3.83-10.87,10.58S284.14,323.12,285.46,324Z"/><path class="cls-2" d="M309.19,304.84a.7.7,0,0,0-.44-.1h-.14c-1.83.27-6.16,4.68-10.33,10.69-4.41,6.35-7.1,12.22-6.34,13.68a.69.69,0,0,0,.2.24c1.33.92,6.2-3.82,10.91-10.58,4.25-6.13,6.92-11.81,6.41-13.52A.73.73,0,0,0,309.19,304.84Z"/></g><g id="paratrope-8" data-name="paratrope"><path class="cls-1" d="M330.83,183.59l-8,2.13c1.09-1.42.63-7.81-1.15-15.05-2-8-4.84-14.15-6.41-13.76l8.45-2.41c1.56-.38,4.42,5.79,6.4,13.77S332.39,183.2,330.83,183.59Z"/><path class="cls-2" d="M322.65,185.46a.61.61,0,0,1-.45-.07h0a.52.52,0,0,1-.13-.06c-1.61-.92-4-6.59-5.73-13.7-1.79-7.52-2.16-13.95-.92-15a.74.74,0,0,1,.28-.14c1.57-.37,4.38,5.81,6.3,13.81,1.73,7.25,2.14,13.51,1,14.91A.66.66,0,0,1,322.65,185.46Z"/><path class="cls-2" d="M320.18,176c.47-.16-2.23-9.81-2.6-9.71l-13.1,3.2,3.86,9.68S319.62,176.23,320.18,176Z"/></g></g></g></svg>