<svg xmlns="http://www.w3.org/2000/svg" viewBox="0 0 360 432"><defs><style>.cls-1{fill:#fff;stroke:#231f20;stroke-miterlimit:10;}</style></defs><title>ProstateCancer</title><g id="symbols"><g id="needle-butterfly"><path id="butterfly" class="cls-1" d="M320,156c0,3.46-9.26,5-17,5s-93-10-93-10H150L57,161s-17,4.24-17-5V45.69C40,33,53.38,33,57,33s93,18,93,18h60l93-18s17,0,17,12.69Z"/><polygon id="needle-point" class="cls-1" points="177.5 418 177.5 168 182.5 168 182.5 408.72 177.5 418"/><rect id="needle-covered" class="cls-1" x="174" y="44" width="12" height="122"/><rect id="tube" class="cls-1" x="174" y="14" width="12" height="19"/><polygon id="connector" class="cls-1" points="183.5 41 176.5 41 176.5 36.03 183.5 36 183.5 41"/></g></g></svg>