<svg xmlns="http://www.w3.org/2000/svg" xmlns:xlink="http://www.w3.org/1999/xlink" viewBox="0 0 360 432">
	<defs>
		<g id="chemo">
				<circle id="chemo-wheel-left" fill="inherit" stroke="inherit" stroke-miterlimit="10" cx="72.41992" cy="410.19824" r="11.16309"/>
				<circle id="chemo-wheel-right" fill="inherit" stroke="inherit" stroke-miterlimit="10" cx="290.20898" cy="410.19824" r="11.42285"/>
				<rect id="chemo-wheel-center" x="173.77246" y="401.44141" fill="inherit" stroke="inherit" stroke-miterlimit="10" width="15.28809" height="22.8457"/>
				<rect id="chemo-base" x="48.97461" y="393.29736" fill="inherit" stroke="inherit" stroke-miterlimit="10" width="262.05078" height="5.47949"/>
				<rect id="chemo-pole" x="176.41992" y="4" fill="inherit" stroke="inherit" stroke-miterlimit="10" width="8.99414" height="389.29785"/>
			<polyline id="chemo-cross-bar" fill="inherit" stroke="inherit" stroke-miterlimit="10" points="98.03223,28.25684
				98.03223,28.15039 260.40234,28.15039 260.40234,37.31152 98.03223,37.31152 98.03223,28.25684 		"/>
			<path id="chemo-right-hook" fill="inherit" stroke="inherit" stroke-miterlimit="10" d="M259.37598,28.15234 M260.00684,37.33203
				 M260.00684,37.33203c7.42188,0.34375,14.58594,4.09766,19.01562,10.76074c7.38477,11.11035,4.36621,26.09863-6.74414,33.4834
				c-11.11035,7.38574-26.09766,4.36621-33.48242-6.74414c-7.38574-11.11035-4.36719-26.09766,6.74316-33.4834l-5.07129-7.62793
				c-15.32031,10.18359-19.48535,30.8623-9.30078,46.18359c10.18359,15.31934,30.8623,19.48438,46.18262,9.30078
				s19.48535-30.86328,9.30176-46.18359c-6.31543-9.50195-16.66797-14.71094-27.27539-14.86914"/>
			<path id="chemo-left-hook" fill="inherit" stroke="inherit" stroke-miterlimit="10" d="M99.23145,28.15137 M98.60059,37.33203
				 M99.23145,28.15137c-10.60742,0.15723-20.95996,5.36816-27.27539,14.87012C61.77246,58.3418,65.93652,79.02051,81.25684,89.2041
				c15.32031,10.18457,35.99902,6.01953,46.18359-9.2998c10.18359-15.32129,6.01953-36-9.30078-46.18359l-5.07227,7.62793
				c11.11133,7.38574,14.12988,22.37305,6.74414,33.4834s-22.37305,14.12891-33.4834,6.74316s-14.12891-22.37207-6.74316-33.48242
				c4.42969-6.66309,11.59375-10.41699,19.01562-10.76074"/>
			<path id="chemo-bag" fill="inherit" stroke="inherit" stroke-miterlimit="10" d="M281.51074,137.37695
				c-0.45605-0.61328-1.40234-1.1748-2.71191-1.6748v-0.00684c-1.19434-0.54785-6.55566-2.88184-7.56445-4.83789
				c-2.03613-3.93848-4.36426-13.28516-8.19238-16.18164l0.34961-28.68359l-5.08496-0.02246l-0.12891,28.5127
				c-4.86035,2.57422-9.2041,11.87109-10.26074,16.20215c-0.35742,1.46191-3.21094,3.47559-5.33105,4.39258
				c-1.34277,0.57129-2.2998,1.27539-2.75098,2.11133c-3.50586,6.54492-4.10156,56.1748-0.26953,59.77246
				c3.83887,3.5957,38.2793,3.92383,41.67578,0.1875C284.63867,193.41211,285.32227,142.42969,281.51074,137.37695z
				 M259.88574,130.80664c-1.74609-0.00781-3.14258-2.66602-3.12695-5.94336c0.01367-3.26953,1.43457-5.91602,3.17969-5.9082
				s3.14844,2.66699,3.13379,5.93652C263.05762,128.16895,261.62988,130.81445,259.88574,130.80664z"/>
			</g>
	</defs>
</svg>
