<?xml version="1.0" encoding="utf-8"?>
<!-- Generator: Adobe Illustrator 16.0.0, SVG Export Plug-In . SVG Version: 6.00 Build 0)  -->
<!DOCTYPE svg PUBLIC "-//W3C//DTD SVG 1.1//EN" "http://www.w3.org/Graphics/SVG/1.1/DTD/svg11.dtd">
<svg version="1.1" xmlns="http://www.w3.org/2000/svg" xmlns:xlink="http://www.w3.org/1999/xlink" x="0px" y="0px"
	 width="1354.6582px" height="918.17871px" viewBox="0 0 1354.6582 918.17871" enable-background="new 0 0 1354.6582 918.17871"
	 xml:space="preserve">
<g id="Backgrounds">
</g>
<g id="Shapes">
	<g>
		<g id="layer5_14_" transform="translate(-106.83931,-293.64792)" inkscape:label="Pons" inkscape:groupmode="layer">
			<g id="g4625_14_">
				
					<path id="path4610_14_" sodipodi:nodetypes="cccccccc" fill="#BABABA" stroke="#010101" stroke-width="0.70728" stroke-linecap="round" stroke-linejoin="round" d="
					M210.45648,744.83936l5.09277,0.42383l10.02148,4.91797c-3.00293,4.5791-4.50391,9.27539-11.08398,11.31348
					c-2.38086,0.86621-4.59277-0.57324-5.81445,1.81152c-4.71094,6.33301-11.18555,13.06348-16.9834,18.68848
					c-2.11523,1.1748-3.20215,4.20898-5.94922,4.14551c-2.35742-0.4668-5.3584-0.01172-6.94238-2.24219
					c-0.47168-3.07812,3.56445-3.28809,5.01465-5.21094c1.28809-1.43555,2.0127-3.25195,3.08203-4.83789"/>
				
					<path id="path4623_14_" sodipodi:nodetypes="cc" fill="none" stroke="#010101" stroke-width="0.70728" stroke-linecap="round" stroke-linejoin="round" d="
					M211.94769,761.72607c-4.61914-1.96094-4.96484-4.38672-4.96484-4.38672"/>
			</g>
		</g>
		<g id="layer4_14_" transform="translate(-106.83931,-293.64792)" inkscape:label="Eyes" inkscape:groupmode="layer">
			<g id="g4600_14_">
				
					<path id="path4582_14_" sodipodi:nodetypes="ccccccc" fill="#D1D2D1" stroke="#010101" stroke-width="0.35364" stroke-linecap="round" stroke-linejoin="round" d="
					M261.5141,750.12158c10.15527,1.37988,12.49805,6.63574,15.70898-0.21777c2.83008-9.91113,17.50586-18.87402,29.68945-5.16797
					c0,0,3.62695,3.69141,3.65332,7.36133c0.03613,2.89062-1.09668,6.58398-3.6416,9.49609
					c-9.7793,12.83789-24.44043,5.00781-28.11914-0.42383c-3.17578-6.3916-9.01562-7.16016-19.92383-9.66797"/>
				
					<path id="path4598_14_" sodipodi:type="arc" sodipodi:cy="643.10352" sodipodi:ry="22.186457" sodipodi:rx="6.3927078" sodipodi:cx="76.336449" fill="#FFFFFF" stroke="#010101" stroke-width="0.70728" stroke-linecap="round" stroke-linejoin="round" d="
					M303.22308,752.93604c0,4.33301,1.01172,7.84668,2.26074,7.84668c1.24805,0,2.26074-3.51074,2.26074-7.84375v-0.00098
					c0-4.33496-1.01172-7.84863-2.25879-7.84961c-1.25-0.00098-2.2627,3.51074-2.2627,7.84668V752.93604z"/>
				
					<path id="path4531_14_" sodipodi:nodetypes="ccc" fill="#C4C4C3" stroke="#010101" stroke-width="0.70728" stroke-linecap="round" stroke-linejoin="round" d="
					M305.1225,744.21143c-14.14258-11.81543-27.21582-1.24121-26.71289,11.40527
					c0.44043,8.98633,17.34961,17.26953,26.82812,6.12598"/>
			</g>
		</g>
		<g id="layer3_14_" transform="translate(-106.83931,-293.64792)" inkscape:label="Cerebrellum" inkscape:groupmode="layer">
			
				<path id="path4219_19_" fill="#7D7D7D" stroke="#010101" stroke-width="1.06093" stroke-linecap="round" stroke-linejoin="round" d="
				M147.2973,735.7085c-0.65625,0.12012-1.03711,0.20215-1.04785,0.22363c-2.36035,5.35059-1.20996,11.7998,2.19434,16.45605
				c3.47656,5.91602,7.19531,12.12695,13.10547,15.90918c4.04492,2.23535,8.33789,4.09668,12.76367,5.41211
				c4.44922,0.7627,9.01855,0.29199,13.45215-0.31348c7.9707-1.89746,13.71582-8.35449,18.4043-14.6748
				c2.50879-2.66309,2.89844-6.28906,3.09961-9.75586c0.19824-1.42285,0.54004-2.83691,1.1875-4.12598"/>
			<path id="path4219_17_" fill="#7D7D7D" d="M210.27777,745.01709c-0.08789,0.05273-20.08496-2.18164-17.69824-6.12988
				c-3.03516,1.8916-20.13086-6.37207-23.91992-6.9082c-1.87402-0.2666-19.05078,2.62891-21.3623,3.72949"/>
			
				<path id="path4318_14_" fill="none" stroke="#010101" stroke-width="0.35364" stroke-linecap="round" stroke-linejoin="round" d="
				M190.52386,756.37646c-1.48633-3.91406-4.65039-7.21094-8.7168-8.4082c-5.50488-1.74219-10.31934-5.50488-16.20312-6.01172
				c-4.95898-0.77734-9.99805-1.20703-14.79004-2.79395c-1.58398-0.43066-3.17773-0.97363-4.49414-1.9834"/>
			
				<path id="path4320_14_" fill="none" stroke="#010101" stroke-width="0.35364" stroke-linecap="round" stroke-linejoin="round" d="
				M192.2934,755.87256c-1.52051-4.04883-3.72656-8.37988-7.96875-10.09375c-1.99219-0.89062-3.98926-1.92578-5.38281-3.64844
				c-3.28906-2.56055-7.40039-3.82715-11.40039-4.74219c-4.80957-0.43164-9.31836-2.56836-14.14941-2.73438"/>
			
				<path id="path4322_14_" fill="none" stroke="#010101" stroke-width="0.35364" stroke-linecap="round" stroke-linejoin="round" d="
				M179.66351,745.26318c-3.3623-1.93945-6.78809-4.50977-10.88672-4.15039c-4.89844-0.63965-9.18457-3.75977-14.20898-3.76758
				c-2.08203-0.31348-4.15625-0.67188-6.22754-1.05078"/>
			
				<path id="path4324_14_" fill="none" stroke="#010101" stroke-width="0.35364" stroke-linecap="round" stroke-linejoin="round" d="
				M194.06097,755.99854c-1.18359-3.65137-1.74023-8.03809-5.30469-10.25391c-2.50781-1.44336-5.42969-2.00879-7.7041-3.8916"/>
			
				<path id="path4326_14_" fill="none" stroke="#010101" stroke-width="0.35364" stroke-linecap="round" stroke-linejoin="round" d="
				M195.70258,756.12451c-0.97949-4.21191-1.26953-9.22266-5.04102-12.03711c-2.60059-2.16309-5.63477-3.7041-8.47266-5.51758"/>
			
				<path id="path4328_14_" fill="none" stroke="#010101" stroke-width="0.35364" stroke-linecap="round" stroke-linejoin="round" d="
				M185.34515,742.23096c-7.51855-3.2334-14.83594-7.58984-23.1709-8.24707c-0.48535-0.07324-0.9707-0.14648-1.45703-0.21289"/>
			
				<path id="path4330_14_" fill="none" stroke="#010101" stroke-width="0.35364" stroke-linecap="round" stroke-linejoin="round" d="
				M188.12543,754.98779c-2.19043-2.42969-4.97266-4.18945-7.99512-5.37793c-3.55469-1.63184-7.34277-2.77832-10.66797-4.86719
				c-5.82031-2.37793-12.46484-0.68066-18.25586-3.24512c-1.69043-0.67578-3.32617-1.48242-5.01367-2.1709"/>
			
				<path id="path4332_14_" fill="none" stroke="#010101" stroke-width="0.35364" stroke-linecap="round" stroke-linejoin="round" d="
				M189.00922,757.0083c-3.55762-2.10449-7.2207-4.16211-11.27441-5.12988c-4.58398-1.85938-8.57129-5.38379-13.67773-5.77539
				c-4.10254-0.94043-8.33887-1.08398-12.47266-1.75391c-2.08008-0.63965-4.12891-1.41602-6.02246-2.49609"/>
			
				<path id="path4334_14_" fill="none" stroke="#010101" stroke-width="0.35364" stroke-linecap="round" stroke-linejoin="round" d="
				M184.96722,756.88135c-8.11426-1.4541-14.86133-6.67285-22.69141-8.93262c-4.83496-0.94629-10.10742-0.32227-14.50293-2.94629
				c-0.48438-0.20703-0.96875-0.41504-1.45312-0.62402"/>
			
				<path id="path4336_14_" fill="none" stroke="#010101" stroke-width="0.35364" stroke-linecap="round" stroke-linejoin="round" d="
				M181.81097,757.51514c-6.57812-0.62695-12.4248-4.77051-19.17871-4.25c-3.04297-0.10449-5.8457,1.30273-8.65723,2.01172
				c-0.78516,0.0293-1.56738,0.05957-2.35156,0.08984"/>
			
				<path id="path4338_14_" fill="none" stroke="#010101" stroke-width="0.35364" stroke-linecap="round" stroke-linejoin="round" d="
				M170.18988,753.09424c-4.62402-2.40137-9.64062-4.49121-14.94824-4.2793c-2.96582-0.30957-6.03711-0.65137-8.66992-2.16309"/>
			
				<path id="path4340_14_" fill="none" stroke="#010101" stroke-width="0.35364" stroke-linecap="round" stroke-linejoin="round" d="
				M164.0014,752.5874c-5.09961-1.72266-10.43359-2.39648-15.78809-2.65137"/>
			
				<path id="path4342_14_" fill="none" stroke="#010101" stroke-width="0.35364" stroke-linecap="round" stroke-linejoin="round" d="
				M158.19086,752.96826c-2.47559-0.18262-4.97852-0.53906-7.4502-0.12793"/>
			
				<path id="path4344_14_" fill="none" stroke="#010101" stroke-width="0.35364" stroke-linecap="round" stroke-linejoin="round" d="
				M192.79828,757.76611c-3.9541,2.69141-8.24023,5.53223-13.21973,5.48145c-4.5752-0.12793-9.14062-0.59375-13.62109-1.54395
				c-3.23535-0.63184-6.5625-0.41309-9.66016,0.73633"/>
			
				<path id="path4346_14_" fill="none" stroke="#010101" stroke-width="0.35364" stroke-linecap="round" stroke-linejoin="round" d="
				M187.99847,758.5249c-7.17383,2.95312-15.30762,2.96289-22.69824,0.81543c-3.26953-0.66211-6.51953,0.22266-9.76172,0.57227"/>
			
				<path id="path4348_14_" fill="none" stroke="#010101" stroke-width="0.35364" stroke-linecap="round" stroke-linejoin="round" d="
				M180.80121,758.39795c-3.71484,0.08789-7.56348,0.4834-11.11426-0.86719c-5.33105-0.84082-10.85059-0.75586-16.16797,0.11035"/>
			
				<path id="path4350_14_" fill="none" stroke="#010101" stroke-width="0.35364" stroke-linecap="round" stroke-linejoin="round" d="
				M194.56488,758.39795c-3.50195,3.20898-7.66504,6.40332-12.63281,6.48438c-3.32715,0.73438-6.88086,1.29785-10.11914-0.07812
				c-3.97266-0.81641-8.14844-0.71777-12.1084,0.05664l-0.43945,0.12109l-0.44141,0.10938"/>
			
				<path id="path4352_14_" fill="none" stroke="#010101" stroke-width="0.35364" stroke-linecap="round" stroke-linejoin="round" d="
				M196.71332,759.02881c-2.9248,2.68652-6.13477,5.17578-9.97656,6.37695c-4.1123,1.39648-8.39062,2.55566-12.76855,2.43555
				c-3.1123,0.0625-6.22363-0.00391-9.33496,0.03027"/>
			
				<path id="path4354_14_" fill="none" stroke="#010101" stroke-width="0.35364" stroke-linecap="round" stroke-linejoin="round" d="
				M198.10297,759.53564c-2.59961,2.48535-5.12109,5.25-8.55762,6.56738c-6.0918,3.35938-13.15234,4.36719-20.02246,4.36523
				l-0.4873,0.02637l-0.48633,0.02832"/>
			
				<path id="path4356_14_" fill="none" stroke="#010101" stroke-width="0.35364" stroke-linecap="round" stroke-linejoin="round" d="
				M200.25043,759.9126c-3.33008,3.12402-6.50195,6.55176-10.66016,8.59082c-5.15039,2.96484-11.2832,3.70898-17.12598,3.78906"/>
			
				<path id="path4358_14_" fill="none" stroke="#010101" stroke-width="0.35364" stroke-linecap="round" stroke-linejoin="round" d="
				M202.27094,760.41943c-4.21387,4.53027-8.74902,9.21875-14.84668,11.0625c-2.78125,0.97852-5.69922,1.47266-8.51855,2.32617"/>
			
				<path id="path4360_14_" fill="none" stroke="#010101" stroke-width="0.35364" stroke-linecap="round" stroke-linejoin="round" d="
				M197.34515,757.38818c-0.20801-4.62012-0.50195-9.67383-3.7334-13.30957c-0.82227-0.94629-1.7373-1.80566-2.58203-2.73047"/>
			
				<path id="path4362_14_" fill="none" stroke="#010101" stroke-width="0.35364" stroke-linecap="round" stroke-linejoin="round" d="
				M199.74457,757.89404c-0.70508-4.85254-1.37207-10.05859-4.29492-14.14648"/>
			
				<path id="path4364_14_" fill="none" stroke="#010101" stroke-width="0.35364" stroke-linecap="round" stroke-linejoin="round" d="
				M202.52289,757.64111c-1.35547-4.47656-1.85742-9.57031-5.17773-13.13477"/>
			
				<path id="path4366_14_" fill="none" stroke="#010101" stroke-width="0.35364" stroke-linecap="round" stroke-linejoin="round" d="
				M204.9223,756.12451c-0.75586-4.38867-3.30859-8.08887-5.68359-11.74609"/>
			
				<path id="path4368_14_" fill="none" stroke="#010101" stroke-width="0.35364" stroke-linecap="round" stroke-linejoin="round" d="
				M206.81683,753.34717c-0.2998-3.48242-2.81543-6.15234-4.92578-8.71484"/>
			
				<path id="path4370_14_" fill="none" stroke="#010101" stroke-width="0.35364" stroke-linecap="round" stroke-linejoin="round" d="
				M208.61664,749.60986c-1.34766-1.76953-2.69434-3.53711-4.04199-5.30566"/>
		</g>
		<g id="layer1_14_" transform="translate(-106.83931,-293.64792)" inkscape:label="Cortex" inkscape:groupmode="layer">
			
				<path id="path2453_14_" sodipodi:nodetypes="cccccccccccccccccccccccccccccccccccccccc" fill="#FFFFFF" stroke="#010101" stroke-width="1.32616" stroke-linecap="round" stroke-linejoin="round" d="
				M281.54535,737.16064c5.47266-2.01855,10.19531-5.72266,13.76367-10.42188c2.42676-2.75,5.66797-5.0127,6.19141-8.89941
				c0.71387-2.24609,2.15234-5.21484,1.29297-6.8125c4.3623-2.22266,2.28809-7.88672,1.29492-11.49805
				c-1.74414-3.13379,1.97852-6.38281-0.21582-9.34668c-3.09277-1.19434-0.32324-4.31934-2.22559-6.53711
				c-1.40234-2.30176-3.66211-4.59082-6.52637-4.89355c0.29102-3.63086-3.23145-5.54688-4.64355-8.57422
				c-3.05957-2.64062-5.66016-6.06543-9.89648-6.69238c-3.61719-2.09473-7.88867-2.52051-11.28516-5.06738
				c-3.28125-2.25195-6.90332-3.61914-10.84082-4.16797c-5.26367-1.02539-10.45898-2.26562-15.31152-4.6123
				c-8.75-1.45801-17.73242-3.30078-26.58789-2.17871c-3.64551,1.34961-7.29297-1.28809-11.06641-0.99609
				c-5.26172-0.41699-10.42773,1.53516-15.64746,2.13477c-4.35059,1.34766-8.77148,2.90625-12.91992,4.7168
				c-2.03809,2.66602-5.99414,1.68066-8.16602,4.28613c-3.23145,2.60449-7.6582,4.44824-9.38184,8.35352
				c-0.19531,2.49219-3.52539,3.47168-5.12109,5.19922c-4.25195,2.73145-7.125,7.03613-10.00879,11.03613
				c-0.62695,2.20703-1.94629,4.8877-1.24512,6.68359c-4.06055,3.55762-5.86914,8.85547-8.8125,13.27734
				c-0.51855,2.98047-2.71289,5.91504-1.96289,8.92969c-2.17969,1.67578-2.41992,4.91602-3.17578,7.38672
				c0.44141,3.58594,0.02344,7.46973,2.72363,10.27832c1.35742,2.8418,3.51758,4.87988,6.31934,6.27832
				c2.67578,1.61914,6.15625,1.33594,9.0127,0.25684c7.01855-2.12793,14.37598-2.08203,21.55664-3.30078
				c3.92383,1.66113,7.38184,4.23633,11.63379,5.12793c3.95605,1.2627,8.0918,3.37695,12.30078,2.01562
				c-0.10547,3.74023,4.35547,3.5293,7.0293,4.02539c5.11328,1.01562,10.38574,1.24414,15.49414,1.88281
				c5.64453,3.07812,11.75,5.5459,16.97656,9.25488c2.22461,2.75293,5.68945,4.40723,9.23535,3.53809
				c3.87793-0.27344,6.95996-3.30859,10.52539-4.71289c3.04785-1.95996,7.13867-0.7168,9.93066-3.34961
				c2.28906-1.10645,3.91992-3.45312,5.16016-5.51855c1.43164-1.92383-1.87109-6.27051,0.86035-6.2666
				C272.38422,737.70361,275.53656,738.146,281.54535,737.16064z"/>
			
				<path id="path3230_14_" fill="none" stroke="#010101" stroke-width="0.88411" stroke-linecap="round" stroke-linejoin="round" d="
				M259.93304,744.6626c-6.86426-2.45898-8.72656-10.40137-14.42871-14.30957c-4.23242-2.91504-8.85742-7.61328-14.46777-5.44238
				c-7.20215,2.38477-15.05566-0.28223-20.69141-4.99316c-4.07617-3.61719-9.43066-5.47266-14.86133-4.68848
				c-6.29297,1.65527-7.69629-4.53516-9.6377-8.91504c-2.43359-4.76758-8.2207-6.57812-9.48242-12.1748
				c-3.15039-4.86719-5.14258-10.38477-6.07129-16.10352c-0.09082-4.21582-2.8291-7.39355-5.46777-10.38379
				c-0.38574-0.55176-0.72656-1.13867-0.98633-1.75977"/>
			
				<path id="path3235_14_" fill="none" stroke="#010101" stroke-width="0.44205" stroke-linecap="round" stroke-linejoin="round" d="
				M246.35785,753.94775c-3.77441-2.60449-7.23535-5.73145-9.81836-9.53711c-2.22461-2.03223-5.46289-1.41797-8.17773-2.07227
				c-2.53711-0.05957-4.875-1.11035-6.94434-2.51172c-1.83008-1.50293-3.85645,0.20215-5.50781,1.12695
				c-1.85449,1.21387-3.65234,2.52051-5.63184,3.52734"/>
			
				<path id="path3250_14_" sodipodi:nodetypes="cccccc" fill="none" stroke="#010101" stroke-width="1.32616" stroke-linecap="round" stroke-linejoin="round" d="
				M266.89886,738.05225c-3.10645-7.17773-6.22656-14.62988-13.00195-19.16699c-7.03418-5.4502-15.33008-11.94629-24.7168-11.10547
				c-9.18652,3.31055-10.78906-7.9209-17.34766-11.13379c-5.72949-3.23535-14.56934,0.93066-18.2666-6.34375
				c-3.15039-6.23242-4.10254-5.53906-5.74805-7.5752"/>
			
				<path id="path3255_14_" sodipodi:nodetypes="cccc" fill="none" stroke="#010101" stroke-width="0.88411" stroke-linecap="round" stroke-linejoin="round" d="
				M217.4223,701.79443c1.88965-7.09082,4.57227-11.51465,2.86914-18.87109c-0.625-3.5293-4.71582-10.71973-7.48828-12.9375
				c-6.0791-9.39551-6.04102-7.19922-14.51562-9.74121"/>
			
				<path id="path3264_14_" sodipodi:nodetypes="ccccc" fill="none" stroke="#010101" stroke-width="0.44205" stroke-linecap="round" stroke-linejoin="round" d="
				M172.55804,685.81299c2.12988-7.54395,9.81152-5.54004,12.65918-12.71777c1.92969-3.07812,3.83203-12.22461,5.68457-15.35742
				c3.79199-1.8457,6.87988-5.45898,7.32812-9.74316c0.08691-0.28809,0.17383-0.57129,0.25977-0.8584"/>
			
				<path id="path3278_14_" fill="none" stroke="#010101" stroke-width="0.44205" stroke-linecap="round" stroke-linejoin="round" d="
				M167.41058,692.68311c-1.12109,1.66016-2.37109,3.2334-3.41113,4.94727c-0.4834,4.5752-1.88379,9.32617-0.34473,13.85352
				c0.98145,3.27344,2.2002,6.61719,1.86719,10.09277c1.08789,1.85645-0.1875,4.65137-2.36523,4.89844
				c-1.92285,0.91016-4.56836,1.15332-6.1123-0.5918c-2.35156-2.02637-5.41895-3.53125-8.59277-3.13086
				c-1.94824-0.09863-3.86328-1.92285-3.39258-3.96484c0.05273-0.55957,0.19141-1.1084,0.38086-1.63379"/>
			
				<path id="path3306_14_" fill="none" stroke="#010101" stroke-width="0.88411" stroke-linecap="round" stroke-linejoin="round" d="
				M157.05023,713.58154c-4.86035-1.0332-9.70801-2.14258-14.46875-3.57324c-1.29004,0.31152-2.8584,0.22559-3.78809,1.33887
				c-1.56445,1.22461-3.08105,2.56543-4.15332,4.25586c-1.79785,2.20312-3.1377,4.7207-4.37598,7.2666l-0.0918,0.17871
				l-0.09277,0.17773"/>
			
				<path id="path3308_14_" fill="none" stroke="#010101" stroke-width="0.44205" stroke-linecap="round" stroke-linejoin="round" d="
				M142.9389,709.83154c-0.71191-2.40527-2.02246-5.00781-0.97559-7.51855c1.23828-3.3457,3.91406-5.86133,5.52148-8.99707
				c0.625-1.63281,1.33008-3.41602,2.94824-4.30469c1.53516-1.08105,3.45898-1.22461,5.25684-1.46094
				c2.91113-0.80566,4.21973-3.8125,6.00391-5.94043"/>
			
				<path id="path3329_14_" fill="none" stroke="#010101" stroke-width="0.44205" stroke-linecap="round" stroke-linejoin="round" d="
				M172.76801,724.65576c2.4043,0.60547,4.73535,1.53906,7.2002,1.87695c3.55762,0.37109,7.13574,0.62109,10.71582,0.60449
				c1.19043,0,2.24609-0.66504,3.01172-1.53711c1.19824-1.32324,2.18262-2.8252,3.37207-4.1582
				c0.2959-0.35645,0.59082-0.7168,0.88574-1.07227"/>
			
				<path id="path3335_14_" fill="none" stroke="#010101" stroke-width="0.44205" stroke-linecap="round" stroke-linejoin="round" d="
				M195.63129,737.51514c3.42676-3.95508,8.72168-5.97949,11.24512-10.79395c1.50391-2.20996,2.21777-4.93848,1.97168-7.60449"/>
			
				<path id="path3337_14_" fill="none" stroke="#010101" stroke-width="0.44205" stroke-linecap="round" stroke-linejoin="round" d="
				M208.49066,735.37061c-2.0293-1.04102-4.60547-1.47852-5.89453-3.57031"/>
			
				<path id="path3339_14_" fill="none" stroke="#010101" stroke-width="0.44205" stroke-linecap="round" stroke-linejoin="round" d="
				M179.7348,708.04443c-3.98828,1.08203-9.12305,4.43457-5.54297,8.95117c0.38086,0.7666,0.85938,1.48828,1.43359,2.12109"/>
			
				<path id="path3341_14_" fill="none" stroke="#010101" stroke-width="0.44205" stroke-linecap="round" stroke-linejoin="round" d="
				M173.30414,711.6167c-1.60742-0.71484-3.21582-1.42969-4.82324-2.14258"/>
			
				<path id="path3343_14_" fill="none" stroke="#010101" stroke-width="0.44205" stroke-linecap="round" stroke-linejoin="round" d="
				M163.47992,702.86377c2.41602,0.93066,4.79785,1.94824,7.14453,3.03613"/>
			
				<path id="path3347_14_" fill="none" stroke="#010101" stroke-width="0.44205" stroke-linecap="round" stroke-linejoin="round" d="
				M170.08832,687.68213c-3.77246-3.6377-8.16602-6.54395-12.60254-9.30176c-0.91309-1.51953-0.9248-3.35059-1.50781-4.98828"/>
			
				<path id="path3349_14_" fill="none" stroke="#010101" stroke-width="0.44205" stroke-linecap="round" stroke-linejoin="round" d="
				M145.08246,734.12256c-4.49023-2.7793-7.72266-7.97852-6.59766-13.38184c0.17676-1.35352,0.52539-2.68652,1.06055-3.94434"/>
			
				<path id="path3351_14_" fill="none" stroke="#010101" stroke-width="0.44205" stroke-linecap="round" stroke-linejoin="round" d="
				M188.12836,713.22412c-1.49707,1.28223-4.64551,1.85645-4.10742,4.46582"/>
			
				<path id="path3353_14_" fill="none" stroke="#010101" stroke-width="0.44205" stroke-linecap="round" stroke-linejoin="round" d="
				M184.02094,715.7251c-0.77441-0.35547-1.54785-0.71582-2.32129-1.07324"/>
			
				<path id="path3355_14_" fill="none" stroke="#010101" stroke-width="0.44205" stroke-linecap="round" stroke-linejoin="round" d="
				M226.8891,737.69482c3.41504-1.2002,7.19434-4.84277,5.3584-8.75195"/>
			
				<path id="path3357_14_" fill="none" stroke="#010101" stroke-width="0.44205" stroke-linecap="round" stroke-linejoin="round" d="
				M182.94965,737.3374l2.50098-2.85742"/>
			
				<path id="path3345_14_" sodipodi:nodetypes="ccc" fill="none" stroke="#010101" stroke-width="0.44205" stroke-linecap="round" stroke-linejoin="round" d="
				M149.54926,704.47119c-0.00195-3.3418,0.05664-11.57715,5.35742-9.4668c3.80078,1.71973,4.30078,7.18262,7.50195,7.68164"/>
			
				<path id="path3361_14_" fill="none" stroke="#010101" stroke-width="0.44205" stroke-linecap="round" stroke-linejoin="round" d="
				M148.6557,689.82373l-0.53613-4.82031l1.25-4.4668l0.89258-3.57227"/>
			
				<path id="path3363_14_" fill="none" stroke="#010101" stroke-width="0.44205" stroke-linecap="round" stroke-linejoin="round" d="
				M141.15277,703.75732c-1.18945-0.83398-2.38086-1.66797-3.57227-2.5"/>
			<path id="path3572_14_" fill="none" stroke="#010101" stroke-width="0.44205" d="M266.89886,713.58154
				c1.99805-0.86719,4.0918-2.0752,4.88086-4.23438c0.83789-1.78516,0.74414-4.26367,2.69727-5.31738
				c1.33789-1.41797,3.89062-1.7002,4.4043-3.83008c0.1123-2.25586,0.51172-4.85742,2.5332-6.22852
				c1.54199-1.0791,2.68945-3.16504,4.81641-3.05078c1.90625,0.03516,3.73438,2.16895,5.58789,1.12598
				c2.1582-1.43164,3.15918-3.95312,4.3291-6.15625c0.83887-1.89258,1.07422-4.24316-0.1748-6.01465
				c-0.16797-0.31348-0.33984-0.625-0.49512-0.94531"/>
			<path id="path3702_14_" fill="none" stroke="#010101" stroke-width="0.44205" d="M281.00922,722.68896
				c1.13184-1.36719,2.2627-2.73535,3.39453-4.10547c0.2373-1.07129,0.47559-2.14453,0.71387-3.21387
				c-0.43164-2.16309-1.1748-4.30762-2.50391-6.08398c-0.34473-0.84961,0.21875-2,1.1709-2.08887
				c0.89453,0.16211,1.86035,0.59277,2.74512,0.16016c1.78516-0.41211,3.53613-1.36426,4.53809-2.94141
				c0.15332-0.16699,0.31055-0.33008,0.47949-0.47852"/>
			<path id="path3762_14_" fill="none" stroke="#010101" stroke-width="0.44205" d="M287.7973,698.57861
				c1.42969-0.23926,2.85742-0.47656,4.28613-0.71582c1.07227,0.47656,2.14258,0.95312,3.21582,1.42773
				c0.41504,1.08008,1.41016,2.07031,1.11914,3.31445c-0.22559,2.32031-0.44531,4.84375-1.99805,6.71094
				c-1.36816,1.52539-2.41504,3.31543-3.20312,5.20117c-0.54688,0.90723-0.65625,2.03125-0.38965,3.04785
				c0.00586,0.10059,0.00879,0.20215,0.00586,0.30176"/>
			<path id="path3826_14_" fill="none" stroke="#010101" stroke-width="0.44205" d="M269.57855,662.13818
				c1.27441,1.02246,2.5791,2.30078,4.31738,2.33594c2.3877,0.52051,4.38965,2.04199,6.1377,3.67383
				c2.12891,1.2793,4.79883,0.77832,6.98828,1.87109c1.59375,0.97754,2.95508,2.91016,2.34766,4.84375
				c-0.41797,1.125-1.67383,1.77832-1.83008,3.03516c-0.24805,1.21582-0.94922,2.33301-2.1377,2.79883
				c-0.16602,0.10938-0.32715,0.23047-0.46289,0.37695"/>
			<path id="path3565_14_" fill="none" stroke="#010101" stroke-width="0.44205" d="M242.96429,669.46338
				c-0.95508-0.96582-1.93066-1.91309-2.87207-2.88672c-0.99902-2.02637-1.98438-4.06348-3.25391-5.93652
				c-0.42773-0.73438-0.86719-1.50098-1.60449-1.96875c-0.93555-0.75098-1.87109-1.49805-2.80859-2.24609"/>
			<path id="path3689_14_" fill="none" stroke="#010101" stroke-width="0.44205" d="M279.04535,718.22607
				c-4.32031-0.64062-8.64941-1.28613-13.0166-1.49414c-0.86816-0.03516-1.77344-0.05273-2.55371-0.48438
				c-0.88281-0.35352-1.7666-0.70508-2.64941-1.05664"/>
			<path id="path4136_14_" fill="none" stroke="#010101" stroke-width="0.44205" d="M227.06781,692.14795L227.06781,692.14795
				c-0.71387,9.10938-1.25098,9.46484-1.25098,9.46484"/>
			<path id="path4138_14_" fill="none" stroke="#010101" stroke-width="0.44205" d="M245.28558,683.57275
				c-3.21387,6.78809-1.42773,8.5752-1.42773,8.5752"/>
			<path id="path4140_14_" fill="none" stroke="#010101" stroke-width="0.44205" d="M204.93207,666.23486
				c-6.07324,5.18066-4.64355,10.89551-4.64355,10.89551"/>
			<path id="path4142_14_" sodipodi:nodetypes="cc" fill="none" stroke="#010101" stroke-width="0.44205" d="M209.0141,683.51709
				c-0.70605,8.70312-11.85547,10.07129-11.85547,10.07129"/>
			<path id="path4144_14_" fill="none" stroke="#010101" stroke-width="0.44205" d="M286.01117,731.97998
				c-5.35938-6.07227-14.28906-0.35938-14.28906-0.35938"/>
			<path id="path3419_14_" fill="none" stroke="#010101" stroke-width="0.44205" d="M232.60492,724.47607
				c2.99805-2.8252,3.4541-7.67773,1.60645-11.25195"/>
			<path id="path3421_14_" fill="none" stroke="#010101" stroke-width="0.44205" d="M222.42426,708.04443
				c1.02148,3.25,2.96484,6.17773,3.58887,9.56055c0.37402,0.69727,1.10059,1.08984,1.58984,1.69336"/>
			<path id="path3423_14_" fill="none" stroke="#010101" stroke-width="0.44205" d="M208.31293,706.08057
				c-2.61523,0.54004-5.29492,1.50879-7.98828,0.89941c-2.70215,0.37695-3.35352-2.875-4.33594-4.65039"/>
			<path id="path3425_14_" fill="none" stroke="#010101" stroke-width="0.44205" d="M194.73773,697.50342
				c-2.78223,0.5918-5.77832,1.41992-8.55078,0.33594c-2.32129-0.09473-4.35645,1.20215-6.45215,1.98926"/>
			<path id="path3427_14_" fill="none" stroke="#010101" stroke-width="0.44205" d="M183.12738,668.9292
				c-1.36816-0.12109-2.73828-0.24023-4.10742-0.36035c-1.98242-1.42871-4.00293-2.80762-6.07227-4.10645"/>
			<path id="path3429_14_" fill="none" stroke="#010101" stroke-width="0.44205" d="M165.44476,666.06982
				c2.43262-2.79688,6.05469-4.04297,9.46582-5.18652c2.60742-1.0791,5.75781-1.49609,8.32227-0.06445
				c0.98047,0.49316,1.91406,1.08008,2.93066,1.50098"/>
			<path id="path3431_14_" fill="none" stroke="#010101" stroke-width="0.44205" d="M179.55609,659.81787
				c0.43066-1.16602-0.30371-2.59961-1.49316-2.94238c-0.90332-0.64355-1.56934-1.55371-2.4375-2.2373"/>
			<path id="path3433_14_" fill="none" stroke="#010101" stroke-width="0.44205" d="M207.59808,648.74463
				c-2.64844,0.61816-4.40625,5.4248-0.5791,5.57129c3.25488,0.57715,6.62012,1.07617,9.4043,3.01074
				c2.2334,1.4043,5.45117,3.22656,4.91016,6.34668c-1.55176,2.22754-0.23633,4.37109,2.27539,4.88477
				c2.49805,1.90039,3.41699,5.08398,4.18262,8.04883c1.31445,2.57227,2.3125,5.7998,4.8418,7.375
				c3.45117,1.35156,2.63965,5.25391,1.62988,7.88477c-0.09082,3.4082,3.57715,4.4707,4.99121,6.96191
				c0.5498,2.81738,2.79297,4.30371,4.82129,6.02051c2.33789,1.7207,0.4248,4.26367-1.34375,5.49902
				c-0.27051,0.20117-0.5498,0.38574-0.83984,0.55371"/>
			<path id="path3438_14_" fill="none" stroke="#010101" stroke-width="0.88411" d="M220.45844,649.10107
				c3.7373,0.62891,5.14453,4.69727,5.76953,7.94824c2.2627,2.28223,3.09473,5.64941,3.09863,8.5293
				c1.85254,2.05762,5.73828,3.59668,4.77832,6.98828c-0.52832,4.19043,4.99512,4.05664,7.82617,4.65918
				c2.98926-0.04492,7.17188-0.98828,8.80469,2.3457c1.64746,3.44922,0.00098,7.29785,0.43066,10.92285
				c0.61133,5.3916,4.07227,9.98926,4.58105,15.4209c0.53711,3.84961,0.24121,7.76172-0.28027,11.59668"/>
			<path id="path3446_14_" fill="none" stroke="#010101" stroke-width="0.44205" d="M257.9682,709.47412
				c0.46191-3.81836,1.24219-7.72852,0.37402-11.5498c-0.24805-2.17578-0.04688-4.37402,0.31836-6.52637
				c0.49023-1.45508,1.60254-2.57422,2.34375-3.89551"/>
			<path id="path3490_14_" fill="none" stroke="#010101" stroke-width="0.44205" d="M233.67621,650.17139
				c0.16797,1.53711,1.91797,1.95703,3.20605,2.04688c3.5625,0.37402,6.84082,1.95703,10.2832,2.83984
				c2.38574,0.83398,4.58691,2.09375,6.87305,3.15234c1.13086,1.78711,2.26172,3.57227,3.39355,5.35938
				c0.02539,1.49219-0.2832,3.44531-1.93262,3.95605c-1.66211,0.7002-3.26465,1.53125-4.91016,2.27344
				c-1.75098,1.55371-2.55957,3.82715-3.77148,5.77051c-0.27344,0.52246-0.54395,1.0498-0.81738,1.57324"/>
			<path id="path3502_14_" fill="none" stroke="#010101" stroke-width="0.44205" d="M251.53851,680.71533
				c1.18652-0.7959,2.51074-1.61914,4.00098-1.4873c1.44434-0.16016,2.88281,0.19336,4.19727,0.7666
				c1.78516,0.5498,3.54785,1.24121,5.07227,2.33887c1.08789,0.60938,2.00684,1.46289,2.8125,2.4043
				c0.86621,0.83496,1.6748,1.7793,2.02734,2.95312c0.30078,0.88965,0.96289,1.73242,0.77344,2.70703
				c-0.03516,1.32617-0.04199,2.72266-0.72852,3.90234c-0.39648,0.95117-0.79199,1.89844-1.1875,2.84961"/>
			<path id="path3509_14_" fill="none" stroke="#010101" stroke-width="0.44205" d="M271.00726,690.18213
				c1.74902,0.32129,4.00098-0.50684,4.37598-2.42285c1.04297-1.81836,0.61523-4.42578,2.51172-5.73828
				c2.13184-0.4209,3.51953-2.78516,2.9502-4.8623c-0.43457-2.58203-2.9502-3.93457-4.94141-5.24609
				c-3.30957-2.01367-7.07227-3.23828-10.16113-5.62012c-1.63379-1.4209,0.07031-3.62207-0.71387-5.26367
				c-1.18555-1.78418-3.53223-1.90234-5.33105-2.73438c-1.87109-0.72168-4.05859-1.1709-5.92383-0.18066l-0.27148,0.09668"/>
			<path id="path3522_14_" sodipodi:nodetypes="ccccc" fill="none" stroke="#010101" stroke-width="0.44205" d="
				M261.76703,665.63818c0.23438,1.61914,2.51367,2.98242,2.9834,5.11133c-0.7959,3.71094,0.68848,3.92773,4.3623,3.92383
				c1.39941,0.3916,2.0752,1.83984,2.50781,3.10547c0.46875,1.35156,0.62988,2.77832,0.81543,4.1875"/>
			<path id="path3580_14_" fill="none" stroke="#010101" stroke-width="0.35364" d="M252.07367,668.74854
				c-0.06738-1.65527-0.45703-3.34082-1.75586-4.47168c-0.81836-0.85938-1.39258-1.92773-1.44238-3.12305l-0.01367-0.06738
				l-0.00391-0.01758"/>
		</g>
	</g>
	<g>
		<rect x="588.2627" y="350.3877" stroke="#969696" stroke-miterlimit="10" width="289.1875" height="289.18848"/>
		<polygon stroke="#969696" stroke-miterlimit="10" points="503.87598,300.0293 587.54395,350.3877 587.54395,639.57617 
			503.87598,589.21777 		"/>
		<polygon stroke="#969696" stroke-miterlimit="10" points="503.87598,300.0293 586.7334,350.47852 875.92188,350.47852 
			793.06348,300.0293 		"/>
		<rect x="587.54395" y="406.16895" fill="none" width="287.18945" height="132.95703"/>
		<text transform="matrix(1 0 0 1 604.50293 449.12793)"><tspan x="0" y="0" fill="#D8D8D8" stroke="#434343" stroke-miterlimit="10" font-family="'Arial-BoldMT'" font-size="60">Option A</tspan><tspan x="-3.39844" y="72" fill="#D8D8D8" stroke="#434343" stroke-miterlimit="10" font-family="'ArialMT'" font-size="60">less utility</tspan></text>
	</g>
	<g>
		<rect x="982.01172" y="350.3877" stroke="#969696" stroke-miterlimit="10" width="289.1875" height="289.18848"/>
		<polygon stroke="#969696" stroke-miterlimit="10" points="897.625,300.0293 981.29297,350.3877 981.29297,639.57617 
			897.625,589.21777 		"/>
		<polygon stroke="#969696" stroke-miterlimit="10" points="897.625,300.0293 980.48242,350.47852 1269.6709,350.47852 
			1186.8125,300.0293 		"/>
		<rect x="981.29297" y="406.16895" fill="none" width="287.18945" height="132.95703"/>
		<text transform="matrix(1 0 0 1 998.25195 449.12793)"><tspan x="0" y="0" fill="#D8D8D8" stroke="#434343" stroke-miterlimit="10" font-family="'Arial-BoldMT'" font-size="60">Option B</tspan><tspan x="58.28613" y="72" fill="#D8D8D8" stroke="#434343" stroke-miterlimit="10" font-family="'ArialMT'" font-size="60">utility</tspan></text>
	</g>
	<linearGradient id="SVGID_1_" gradientUnits="userSpaceOnUse" x1="203.72754" y1="458.93848" x2="1312.54224" y2="458.93848">
		<stop  offset="0" style="stop-color:#F2F2F2"/>
		<stop  offset="1" style="stop-color:#000000"/>
	</linearGradient>
	<path opacity="0.35" fill="url(#SVGID_1_)" stroke="#000000" stroke-miterlimit="10" d="M1250.12598,887.35938
		C1139.3291,993.30371,453.95996,603.56055,206.77637,472.82227c-6.6123-3.49707-0.41016-14.83984-0.41016-22.30957
		c0-6.83887,947.02051-536.57129,1059.00684-421.74707C1371.99121,138.08789,1365.70312,776.83008,1250.12598,887.35938z"/>
</g>
<g id="Lines">
</g>
<g id="Words">
</g>
<g id="Layer_4">
</g>
</svg>
