<?xml version="1.0" encoding="utf-8"?>
<!-- Generator: Adobe Illustrator 16.0.0, SVG Export Plug-In . SVG Version: 6.00 Build 0)  -->
<!DOCTYPE svg PUBLIC "-//W3C//DTD SVG 1.1//EN" "http://www.w3.org/Graphics/SVG/1.1/DTD/svg11.dtd">
<svg version="1.1" xmlns="http://www.w3.org/2000/svg" xmlns:xlink="http://www.w3.org/1999/xlink" x="0px" y="0px" width="1600px"
	 height="900px" viewBox="0 0 1600 900" enable-background="new 0 0 1600 900" xml:space="preserve">
<g id="Backgrounds">
	<rect width="1600" height="900"/>
</g>
<g id="Shapes">
	<linearGradient id="SVGID_1_" gradientUnits="userSpaceOnUse" x1="806.354" y1="549.88965" x2="1368.37134" y2="549.88965">
		<stop  offset="0" style="stop-color:#F2F2F2"/>
		<stop  offset="1" style="stop-color:#000000"/>
	</linearGradient>
	<path fill="url(#SVGID_1_)" stroke="#000000" stroke-miterlimit="10" d="M1336.73438,649.23828
		c-56.1582,24.56836-403.54688-65.8125-528.83496-96.12988c-3.35156-0.81055-0.20801-3.44043-0.20801-5.17383
		c0-1.58594,480.00977-124.42773,536.77148-97.80078C1398.50391,475.48535,1395.31641,623.60742,1336.73438,649.23828z"/>
	<g>
		<g id="layer5_16_" transform="translate(-106.83931,-293.64792)" inkscape:label="Pons" inkscape:groupmode="layer">
			<g id="g4625_16_">
				
					<path id="path4610_16_" sodipodi:nodetypes="cccccccc" fill="#BABABA" stroke="#010101" stroke-width="0.70728" stroke-linecap="round" stroke-linejoin="round" d="
					M809.4292,834.38525l5.09277,0.42383l10.02148,4.91797c-3.00293,4.5791-4.50391,9.27539-11.08398,11.3125
					c-2.38184,0.86719-4.59277-0.57227-5.81543,1.8125c-4.70898,6.33301-11.18457,13.0625-16.98242,18.6875
					c-2.11523,1.17578-3.20215,4.20996-5.94922,4.14648c-2.35742-0.4668-5.35742-0.01172-6.94141-2.24219
					c-0.47266-3.07812,3.56348-3.28809,5.01367-5.20996c1.28711-1.43652,2.0127-3.25195,3.08203-4.83887"/>
				
					<path id="path4623_16_" sodipodi:nodetypes="cc" fill="none" stroke="#010101" stroke-width="0.70728" stroke-linecap="round" stroke-linejoin="round" d="
					M810.92041,851.27295c-4.61914-1.96191-4.96484-4.3877-4.96484-4.3877"/>
			</g>
		</g>
		<g id="layer4_16_" transform="translate(-106.83931,-293.64792)" inkscape:label="Eyes" inkscape:groupmode="layer">
			<g id="g4600_16_">
				
					<path id="path4582_16_" sodipodi:nodetypes="ccccccc" fill="#D1D2D1" stroke="#010101" stroke-width="0.35364" stroke-linecap="round" stroke-linejoin="round" d="
					M860.48584,839.66748c10.15625,1.37988,12.49902,6.63574,15.70996-0.21777c2.83008-9.91211,17.50488-18.87402,29.68848-5.16797
					c0,0,3.62695,3.69141,3.6543,7.36133c0.03613,2.89062-1.09668,6.58398-3.6416,9.49609
					c-9.77832,12.83789-24.44043,5.00879-28.11816-0.42383c-3.17676-6.3916-9.01758-7.16016-19.9248-9.66797"/>
				
					<path id="path4598_16_" sodipodi:type="arc" sodipodi:cy="643.10352" sodipodi:ry="22.186457" sodipodi:rx="6.3927078" sodipodi:cx="76.336449" fill="#FFFFFF" stroke="#010101" stroke-width="0.70728" stroke-linecap="round" stroke-linejoin="round" d="
					M902.1958,842.48193c0,4.33398,1.0127,7.84668,2.26074,7.84668s2.26074-3.51074,2.26074-7.84375v-0.00098
					c0-4.33398-1.01172-7.84863-2.25879-7.84961C903.2085,834.6333,902.1958,838.14502,902.1958,842.48193L902.1958,842.48193z"/>
				
					<path id="path4531_16_" sodipodi:nodetypes="ccc" fill="#C4C4C3" stroke="#010101" stroke-width="0.70728" stroke-linecap="round" stroke-linejoin="round" d="
					M904.09521,833.75732c-14.14258-11.81543-27.21484-1.24121-26.71289,11.40527c0.44043,8.9873,17.34961,17.26953,26.82812,6.125"
					/>
			</g>
		</g>
		<g id="layer3_16_" transform="translate(-106.83931,-293.64792)" inkscape:label="Cerebrellum" inkscape:groupmode="layer">
			
				<path id="path4219_23_" fill="#7D7D7D" stroke="#010101" stroke-width="1.06093" stroke-linecap="round" stroke-linejoin="round" d="
				M746.271,825.25439c-0.65723,0.12012-1.03809,0.20117-1.04883,0.22363c-2.36133,5.35059-1.21094,11.7998,2.19434,16.45605
				c3.47754,5.91602,7.19531,12.12695,13.10645,15.90918c4.04492,2.23535,8.33691,4.09766,12.7627,5.41211
				c4.44824,0.7627,9.01855,0.29199,13.45215-0.31348c7.9707-1.89746,13.71582-8.35449,18.4043-14.6748
				c2.50781-2.66309,2.89844-6.28906,3.09961-9.75586c0.19824-1.42285,0.53906-2.83691,1.1875-4.12598"/>
			<path id="path4219_22_" fill="#7D7D7D" d="M809.24951,834.56396c-0.08789,0.05176-20.08398-2.18262-17.69727-6.13086
				c-3.03516,1.8916-20.13086-6.37207-23.91992-6.9082c-1.87402-0.2666-19.05078,2.62891-21.36133,3.72949"/>
			
				<path id="path4318_16_" fill="none" stroke="#010101" stroke-width="0.35364" stroke-linecap="round" stroke-linejoin="round" d="
				M789.49756,845.92236c-1.48828-3.91406-4.65137-7.21094-8.71777-8.4082c-5.50488-1.74121-10.31934-5.50488-16.2041-6.01172
				c-4.95898-0.77734-9.99805-1.20703-14.78906-2.79492c-1.58398-0.42969-3.17773-0.97266-4.49414-1.98242"/>
			
				<path id="path4320_16_" fill="none" stroke="#010101" stroke-width="0.35364" stroke-linecap="round" stroke-linejoin="round" d="
				M791.26514,845.41846c-1.51953-4.04883-3.72559-8.38086-7.96777-10.09375c-1.99219-0.89062-3.98926-1.9248-5.38184-3.64844
				c-3.28906-2.56055-7.40137-3.82715-11.40137-4.74219c-4.80957-0.43164-9.31836-2.56836-14.14941-2.73438"/>
			
				<path id="path4322_16_" fill="none" stroke="#010101" stroke-width="0.35364" stroke-linecap="round" stroke-linejoin="round" d="
				M778.63623,834.80908c-3.36133-1.93945-6.78809-4.50977-10.88672-4.15039c-4.89844-0.63965-9.18457-3.75879-14.20898-3.76758
				c-2.08203-0.31348-4.15625-0.67188-6.22754-1.05078"/>
			
				<path id="path4324_16_" fill="none" stroke="#010101" stroke-width="0.35364" stroke-linecap="round" stroke-linejoin="round" d="
				M793.03467,845.54443c-1.18457-3.65137-1.74121-8.03809-5.30566-10.25488c-2.50781-1.44238-5.42969-2.00781-7.7041-3.88965"/>
			
				<path id="path4326_16_" fill="none" stroke="#010101" stroke-width="0.35364" stroke-linecap="round" stroke-linejoin="round" d="
				M794.67529,845.67041c-0.97949-4.21191-1.26953-9.22266-5.04102-12.03711c-2.60156-2.16309-5.63477-3.7041-8.47266-5.51758"/>
			
				<path id="path4328_16_" fill="none" stroke="#010101" stroke-width="0.35364" stroke-linecap="round" stroke-linejoin="round" d="
				M784.31787,831.77686c-7.51855-3.2334-14.83594-7.58984-23.1709-8.24707c-0.48535-0.07422-0.9707-0.14648-1.45703-0.21289"/>
			
				<path id="path4330_16_" fill="none" stroke="#010101" stroke-width="0.35364" stroke-linecap="round" stroke-linejoin="round" d="
				M787.09717,844.53369c-2.18945-2.42969-4.97168-4.18945-7.99414-5.37793c-3.55469-1.63086-7.34277-2.77832-10.66797-4.86719
				c-5.82031-2.37793-12.46484-0.68066-18.25586-3.24512c-1.69043-0.67578-3.32617-1.48242-5.01367-2.17188"/>
			
				<path id="path4332_16_" fill="none" stroke="#010101" stroke-width="0.35364" stroke-linecap="round" stroke-linejoin="round" d="
				M787.98193,846.5542c-3.55762-2.10449-7.2207-4.16211-11.27441-5.12988c-4.58398-1.8584-8.57129-5.38477-13.67773-5.77441
				c-4.10254-0.94238-8.33887-1.08398-12.47266-1.75488c-2.08008-0.63965-4.12891-1.41602-6.02246-2.49512"/>
			
				<path id="path4334_16_" fill="none" stroke="#010101" stroke-width="0.35364" stroke-linecap="round" stroke-linejoin="round" d="
				M783.94092,846.42725c-8.11523-1.4541-14.86133-6.67285-22.69141-8.93262c-4.83594-0.94629-10.1084-0.32227-14.50391-2.94629
				c-0.48438-0.20703-0.96875-0.41504-1.45312-0.62402"/>
			
				<path id="path4336_16_" fill="none" stroke="#010101" stroke-width="0.35364" stroke-linecap="round" stroke-linejoin="round" d="
				M780.78271,847.06104c-6.57715-0.62695-12.42383-4.77051-19.17773-4.25c-3.04297-0.10547-5.8457,1.30273-8.6582,2.01172
				c-0.78418,0.0293-1.56641,0.05957-2.34961,0.08984"/>
			
				<path id="path4338_16_" fill="none" stroke="#010101" stroke-width="0.35364" stroke-linecap="round" stroke-linejoin="round" d="
				M769.16357,842.64014c-4.625-2.40137-9.64062-4.49023-14.94922-4.2793c-2.96582-0.30957-6.03711-0.65137-8.66992-2.16309"/>
			
				<path id="path4340_16_" fill="none" stroke="#010101" stroke-width="0.35364" stroke-linecap="round" stroke-linejoin="round" d="
				M762.97412,842.1333c-5.09961-1.72266-10.43359-2.39648-15.78711-2.65137"/>
			
				<path id="path4342_16_" fill="none" stroke="#010101" stroke-width="0.35364" stroke-linecap="round" stroke-linejoin="round" d="
				M757.16357,842.51416c-2.47461-0.18359-4.97852-0.53906-7.45117-0.12793"/>
			
				<path id="path4344_16_" fill="none" stroke="#010101" stroke-width="0.35364" stroke-linecap="round" stroke-linejoin="round" d="
				M791.771,847.31201c-3.95508,2.69141-8.24023,5.53223-13.21973,5.48145c-4.5752-0.12793-9.14062-0.59375-13.62109-1.54492
				c-3.23535-0.63086-6.5625-0.41211-9.66113,0.7373"/>
			
				<path id="path4346_16_" fill="none" stroke="#010101" stroke-width="0.35364" stroke-linecap="round" stroke-linejoin="round" d="
				M786.97119,848.0708c-7.1748,2.9541-15.30762,2.96289-22.69824,0.81543c-3.26953-0.66211-6.51953,0.22266-9.76172,0.57129"/>
			
				<path id="path4348_16_" fill="none" stroke="#010101" stroke-width="0.35364" stroke-linecap="round" stroke-linejoin="round" d="
				M779.77295,847.94385c-3.71387,0.08789-7.5625,0.4834-11.11328-0.86719c-5.33105-0.84082-10.85059-0.75586-16.16797,0.11035"/>
			
				<path id="path4350_16_" fill="none" stroke="#010101" stroke-width="0.35364" stroke-linecap="round" stroke-linejoin="round" d="
				M793.53857,847.94385c-3.50293,3.20898-7.66602,6.40332-12.63379,6.48438c-3.32715,0.73438-6.87988,1.29785-10.12012-0.07812
				c-3.9707-0.81641-8.14648-0.71777-12.10742,0.05664l-0.43945,0.12109l-0.44141,0.10938"/>
			
				<path id="path4352_16_" fill="none" stroke="#010101" stroke-width="0.35364" stroke-linecap="round" stroke-linejoin="round" d="
				M795.68506,848.57471c-2.92383,2.68652-6.13379,5.17578-9.97461,6.37695c-4.11328,1.39648-8.3916,2.55566-12.76953,2.43555
				c-3.11133,0.0625-6.22363-0.00391-9.33594,0.03027"/>
			
				<path id="path4354_16_" fill="none" stroke="#010101" stroke-width="0.35364" stroke-linecap="round" stroke-linejoin="round" d="
				M797.07568,849.08057c-2.59961,2.48633-5.12109,5.25-8.55762,6.56934c-6.09082,3.3584-13.15234,4.36621-20.02246,4.36426
				l-0.48633,0.02539l-0.4873,0.0293"/>
			
				<path id="path4356_16_" fill="none" stroke="#010101" stroke-width="0.35364" stroke-linecap="round" stroke-linejoin="round" d="
				M799.22314,849.45752c-3.33105,3.125-6.50195,6.55273-10.66016,8.5918c-5.15039,2.96484-11.2832,3.70898-17.12598,3.78906"/>
			
				<path id="path4358_16_" fill="none" stroke="#010101" stroke-width="0.35364" stroke-linecap="round" stroke-linejoin="round" d="
				M801.24365,849.96533c-4.21484,4.53027-8.74805,9.21875-14.84668,11.0625c-2.78125,0.97852-5.7002,1.47266-8.51855,2.32617"/>
			
				<path id="path4360_16_" fill="none" stroke="#010101" stroke-width="0.35364" stroke-linecap="round" stroke-linejoin="round" d="
				M796.31787,846.93408c-0.20801-4.62012-0.50195-9.67383-3.73242-13.31055c-0.82324-0.94531-1.73828-1.80469-2.58301-2.72949"/>
			
				<path id="path4362_16_" fill="none" stroke="#010101" stroke-width="0.35364" stroke-linecap="round" stroke-linejoin="round" d="
				M798.71729,847.44092c-0.70508-4.85352-1.37207-10.05957-4.29395-14.14746"/>
			
				<path id="path4364_16_" fill="none" stroke="#010101" stroke-width="0.35364" stroke-linecap="round" stroke-linejoin="round" d="
				M801.49561,847.18701c-1.35547-4.47656-1.85742-9.57031-5.17773-13.13477"/>
			
				<path id="path4366_16_" fill="none" stroke="#010101" stroke-width="0.35364" stroke-linecap="round" stroke-linejoin="round" d="
				M803.896,845.67041c-0.75684-4.38867-3.31055-8.08984-5.68457-11.74609"/>
			
				<path id="path4368_16_" fill="none" stroke="#010101" stroke-width="0.35364" stroke-linecap="round" stroke-linejoin="round" d="
				M805.78955,842.89307c-0.2998-3.48242-2.81543-6.15234-4.9248-8.71484"/>
			
				<path id="path4370_16_" fill="none" stroke="#010101" stroke-width="0.35364" stroke-linecap="round" stroke-linejoin="round" d="
				M807.58936,839.15576c-1.34766-1.76953-2.69434-3.53711-4.04199-5.30566"/>
		</g>
		<g id="layer1_16_" transform="translate(-106.83931,-293.64792)" inkscape:label="Cortex" inkscape:groupmode="layer">
			
				<path id="path2453_16_" sodipodi:nodetypes="cccccccccccccccccccccccccccccccccccccccc" fill="#FFFFFF" stroke="#010101" stroke-width="1.32616" stroke-linecap="round" stroke-linejoin="round" d="
				M880.51807,826.70557c5.47266-2.01758,10.19531-5.72168,13.76367-10.4209c2.42676-2.75,5.66797-5.01172,6.19238-8.89941
				c0.71289-2.24609,2.15137-5.21484,1.29297-6.8125c4.36133-2.22266,2.28711-7.88672,1.29297-11.49805
				c-1.74316-3.13379,1.97949-6.38281-0.21484-9.34668c-3.09375-1.19434-0.32324-4.31934-2.22656-6.53711
				c-1.40039-2.30176-3.66211-4.59082-6.52539-4.89355c0.29102-3.63086-3.23047-5.54688-4.64355-8.57422
				c-3.05957-2.64062-5.65918-6.06543-9.89648-6.69238c-3.61621-2.09473-7.8877-2.52051-11.28418-5.06738
				c-3.28223-2.25195-6.9043-3.61914-10.8418-4.16797c-5.26367-1.02539-10.45898-2.26562-15.31152-4.6123
				c-8.75-1.45801-17.73242-3.30078-26.58789-2.17871c-3.64551,1.34961-7.29395-1.28809-11.06641-0.99609
				c-5.26172-0.41699-10.42676,1.53516-15.64746,2.13477c-4.35156,1.34766-8.77148,2.90625-12.91992,4.7168
				c-2.03711,2.66602-5.99414,1.67969-8.16602,4.28613c-3.23242,2.60449-7.6582,4.44824-9.38184,8.35352
				c-0.19434,2.49219-3.52539,3.47168-5.12207,5.19922c-4.25,2.73145-7.12402,7.03613-10.00781,11.03613
				c-0.62695,2.20703-1.94629,4.88672-1.24512,6.68359c-4.06152,3.55762-5.86914,8.85645-8.81152,13.27734
				c-0.51953,2.98047-2.71484,5.91504-1.96484,8.92969c-2.17871,1.67578-2.41895,4.91602-3.17383,7.38672
				c0.44141,3.58594,0.02246,7.46973,2.72266,10.27734c1.35742,2.84277,3.51758,4.88086,6.31836,6.2793
				c2.67676,1.61914,6.15625,1.33594,9.01367,0.25684c7.01855-2.12793,14.37598-2.08203,21.55664-3.30078
				c3.92383,1.66113,7.38281,4.23633,11.63379,5.12793c3.95605,1.26172,8.0918,3.37695,12.30176,2.01562
				c-0.10742,3.74023,4.35449,3.5293,7.02832,4.02539c5.11328,1.01562,10.38574,1.24414,15.49512,1.88281
				c5.64453,3.07812,11.74902,5.5459,16.97461,9.25391c2.22559,2.75391,5.68945,4.4082,9.23633,3.53906
				c3.87793-0.27344,6.95996-3.30859,10.52539-4.71289c3.04688-1.95996,7.13867-0.71582,9.92969-3.34961
				c2.29102-1.10645,3.9209-3.45312,5.16113-5.51953c1.43164-1.92285-1.87012-6.26953,0.86035-6.26465
				C871.35693,827.24951,874.50928,827.69189,880.51807,826.70557z"/>
			
				<path id="path3230_16_" fill="none" stroke="#010101" stroke-width="0.88411" stroke-linecap="round" stroke-linejoin="round" d="
				M858.90576,834.20752c-6.86328-2.45898-8.72656-10.40039-14.42871-14.30762c-4.23242-2.91602-8.8584-7.61426-14.46777-5.44336
				c-7.20215,2.38477-15.05566-0.28223-20.69141-4.99316c-4.07617-3.61719-9.43066-5.47266-14.86133-4.68848
				c-6.29297,1.65527-7.69629-4.53516-9.6377-8.91504c-2.43359-4.76758-8.22168-6.57812-9.4834-12.1748
				c-3.14844-4.86719-5.1416-10.38477-6.07031-16.10449c-0.09082-4.21484-2.82812-7.39258-5.46777-10.38281
				c-0.38574-0.55176-0.72559-1.13867-0.98633-1.75977"/>
			
				<path id="path3235_16_" fill="none" stroke="#010101" stroke-width="0.44205" stroke-linecap="round" stroke-linejoin="round" d="
				M845.33057,843.49365c-3.77441-2.60449-7.23535-5.73145-9.81836-9.53809c-2.22559-2.03125-5.46191-1.41699-8.17871-2.07129
				c-2.53613-0.05957-4.87305-1.10938-6.94336-2.51172c-1.83008-1.50293-3.85645,0.20215-5.50781,1.12598
				c-1.85449,1.21484-3.65234,2.52148-5.63281,3.52832"/>
			
				<path id="path3250_16_" sodipodi:nodetypes="cccccc" fill="none" stroke="#010101" stroke-width="1.32616" stroke-linecap="round" stroke-linejoin="round" d="
				M865.87061,827.59814c-3.10547-7.17773-6.22559-14.62988-13.00195-19.16699c-7.0332-5.44922-15.3291-11.94629-24.71582-11.10547
				c-9.18652,3.31055-10.78906-7.9209-17.34766-11.13379c-5.72949-3.23633-14.56934,0.92969-18.2666-6.34375
				c-3.15039-6.23242-4.10352-5.53906-5.74805-7.5752"/>
			
				<path id="path3255_16_" sodipodi:nodetypes="cccc" fill="none" stroke="#010101" stroke-width="0.88411" stroke-linecap="round" stroke-linejoin="round" d="
				M816.396,791.34033c1.88867-7.0918,4.57129-11.51465,2.86816-18.87109c-0.625-3.52832-4.71582-10.7207-7.48828-12.9375
				c-6.0791-9.39551-6.04102-7.19922-14.51562-9.74219"/>
			
				<path id="path3264_16_" sodipodi:nodetypes="ccccc" fill="none" stroke="#010101" stroke-width="0.44205" stroke-linecap="round" stroke-linejoin="round" d="
				M771.53076,775.35889c2.13086-7.54297,9.81152-5.54004,12.65918-12.71777c1.92969-3.07715,3.83203-12.22461,5.68457-15.35742
				c3.79297-1.8457,6.87988-5.45898,7.32812-9.74414c0.08594-0.28711,0.17383-0.57031,0.25977-0.85742"/>
			
				<path id="path3278_16_" fill="none" stroke="#010101" stroke-width="0.44205" stroke-linecap="round" stroke-linejoin="round" d="
				M766.3833,782.229c-1.12109,1.66016-2.37012,3.2334-3.41113,4.94727c-0.4834,4.5752-1.88379,9.32617-0.34473,13.85352
				c0.98145,3.27344,2.2002,6.61816,1.86816,10.0918c1.08691,1.85742-0.18848,4.65332-2.36523,4.89941
				c-1.92383,0.91016-4.57031,1.15332-6.11328-0.5918c-2.35156-2.02637-5.41992-3.53125-8.59277-3.13086
				c-1.94824-0.09863-3.86328-1.92285-3.3916-3.96484c0.05176-0.55859,0.19043-1.1084,0.38086-1.63379"/>
			
				<path id="path3306_16_" fill="none" stroke="#010101" stroke-width="0.88411" stroke-linecap="round" stroke-linejoin="round" d="
				M756.02295,803.12744c-4.85938-1.0332-9.70703-2.14258-14.46875-3.57324c-1.28906,0.31152-2.8584,0.22559-3.78906,1.33887
				c-1.56348,1.22461-3.08008,2.56445-4.15234,4.25684c-1.79883,2.20215-3.1377,4.71973-4.37598,7.26465l-0.09277,0.17969
				l-0.0918,0.17871"/>
			
				<path id="path3308_16_" fill="none" stroke="#010101" stroke-width="0.44205" stroke-linecap="round" stroke-linejoin="round" d="
				M741.91162,799.37744c-0.71191-2.40527-2.02344-5.00781-0.97461-7.51855c1.2373-3.3457,3.91309-5.8623,5.52051-8.99707
				c0.625-1.63281,1.33008-3.41602,2.94824-4.30469c1.53516-1.08105,3.45898-1.22461,5.25684-1.46094
				c2.91113-0.80566,4.21973-3.8125,6.00293-5.94043"/>
			
				<path id="path3329_16_" fill="none" stroke="#010101" stroke-width="0.44205" stroke-linecap="round" stroke-linejoin="round" d="
				M771.73975,814.20166c2.40527,0.60547,4.73633,1.53906,7.20117,1.87695c3.55859,0.37109,7.13574,0.62109,10.71484,0.60449
				c1.19141,0,2.24609-0.66504,3.0127-1.53711c1.19824-1.32324,2.18262-2.8252,3.37207-4.1582
				c0.2959-0.35645,0.59082-0.7168,0.88574-1.07324"/>
			
				<path id="path3335_16_" fill="none" stroke="#010101" stroke-width="0.44205" stroke-linecap="round" stroke-linejoin="round" d="
				M794.604,827.06104c3.42676-3.9541,8.72168-5.98047,11.24512-10.79395c1.50391-2.20996,2.21777-4.93848,1.97168-7.60449"/>
			
				<path id="path3337_16_" fill="none" stroke="#010101" stroke-width="0.44205" stroke-linecap="round" stroke-linejoin="round" d="
				M807.46436,824.9165c-2.03027-1.04102-4.60645-1.47852-5.89551-3.57031"/>
			
				<path id="path3339_16_" fill="none" stroke="#010101" stroke-width="0.44205" stroke-linecap="round" stroke-linejoin="round" d="
				M778.70654,797.59033c-3.98828,1.08203-9.12207,4.43457-5.54297,8.95117c0.38086,0.7666,0.85938,1.48828,1.43555,2.12109"/>
			
				<path id="path3341_16_" fill="none" stroke="#010101" stroke-width="0.44205" stroke-linecap="round" stroke-linejoin="round" d="
				M772.27686,801.1626c-1.60742-0.71484-3.21582-1.42871-4.82227-2.14258"/>
			
				<path id="path3343_16_" fill="none" stroke="#010101" stroke-width="0.44205" stroke-linecap="round" stroke-linejoin="round" d="
				M762.45264,792.40967c2.41602,0.93066,4.79785,1.94824,7.14453,3.03613"/>
			
				<path id="path3347_16_" fill="none" stroke="#010101" stroke-width="0.44205" stroke-linecap="round" stroke-linejoin="round" d="
				M769.06104,777.22803c-3.77246-3.6377-8.16699-6.54395-12.60254-9.30176c-0.91211-1.51953-0.92578-3.35059-1.50781-4.98828"/>
			
				<path id="path3349_16_" fill="none" stroke="#010101" stroke-width="0.44205" stroke-linecap="round" stroke-linejoin="round" d="
				M744.05518,823.66846c-4.49121-2.7793-7.72363-7.97754-6.59766-13.38184c0.17676-1.35352,0.52539-2.68652,1.06055-3.94434"/>
			
				<path id="path3351_16_" fill="none" stroke="#010101" stroke-width="0.44205" stroke-linecap="round" stroke-linejoin="round" d="
				M787.10107,802.77002c-1.49609,1.28223-4.64648,1.85645-4.10742,4.46582"/>
			
				<path id="path3353_16_" fill="none" stroke="#010101" stroke-width="0.44205" stroke-linecap="round" stroke-linejoin="round" d="
				M782.99365,805.271c-0.77441-0.35645-1.54688-0.71582-2.32227-1.07324"/>
			
				<path id="path3355_16_" fill="none" stroke="#010101" stroke-width="0.44205" stroke-linecap="round" stroke-linejoin="round" d="
				M825.86182,827.24072c3.41504-1.20117,7.19434-4.84277,5.3584-8.75195"/>
			
				<path id="path3357_16_" fill="none" stroke="#010101" stroke-width="0.44205" stroke-linecap="round" stroke-linejoin="round" d="
				M781.92236,826.8833l2.50098-2.85742"/>
			
				<path id="path3345_16_" sodipodi:nodetypes="ccc" fill="none" stroke="#010101" stroke-width="0.44205" stroke-linecap="round" stroke-linejoin="round" d="
				M748.52197,794.01709c-0.00195-3.3418,0.05762-11.57617,5.3584-9.4668c3.7998,1.71973,4.2998,7.18359,7.50098,7.68164"/>
			
				<path id="path3361_16_" fill="none" stroke="#010101" stroke-width="0.44205" stroke-linecap="round" stroke-linejoin="round" d="
				M747.62842,779.36963l-0.53613-4.82031l1.25-4.4668l0.89355-3.57227"/>
			
				<path id="path3363_16_" fill="none" stroke="#010101" stroke-width="0.44205" stroke-linecap="round" stroke-linejoin="round" d="
				M740.12549,793.30322c-1.18945-0.83398-2.38086-1.66797-3.57129-2.5"/>
			<path id="path3572_16_" fill="none" stroke="#010101" stroke-width="0.44205" d="M865.87061,803.12744
				c1.99805-0.86719,4.09277-2.0752,4.88184-4.23438c0.83789-1.78516,0.74316-4.26367,2.69727-5.31738
				c1.33887-1.41797,3.8916-1.7002,4.4043-3.83008c0.1123-2.25586,0.51172-4.85742,2.53418-6.22852
				c1.54102-1.0791,2.68945-3.16504,4.81543-3.05078c1.90723,0.03516,3.73438,2.16895,5.58789,1.12598
				c2.15918-1.43164,3.15918-3.95312,4.3291-6.15625c0.83887-1.89258,1.07422-4.24316-0.1748-6.01465
				c-0.16797-0.31348-0.33984-0.625-0.49512-0.94531"/>
			<path id="path3702_16_" fill="none" stroke="#010101" stroke-width="0.44205" d="M879.98193,812.23486
				c1.13086-1.36719,2.2627-2.73535,3.39453-4.10547c0.2373-1.07129,0.47559-2.14453,0.71387-3.21484
				c-0.43164-2.16211-1.1748-4.30664-2.50293-6.08301c-0.3457-0.84961,0.21777-2,1.16992-2.08887
				c0.89453,0.16211,1.85938,0.59277,2.74414,0.16016c1.78516-0.41211,3.53711-1.36426,4.53906-2.94141
				c0.15234-0.16699,0.31055-0.33008,0.47949-0.47754"/>
			<path id="path3762_16_" fill="none" stroke="#010101" stroke-width="0.44205" d="M886.77002,788.12354
				c1.42871-0.23828,2.85645-0.47559,4.28613-0.71484c1.07227,0.47656,2.14258,0.95312,3.21484,1.42773
				c0.41602,1.08008,1.41113,2.07031,1.12109,3.31445c-0.22656,2.32031-0.44629,4.84375-1.99902,6.71094
				c-1.36816,1.52539-2.41504,3.31543-3.20215,5.20215c-0.54785,0.90625-0.65625,2.03027-0.39062,3.04688
				c0.00586,0.10059,0.00781,0.20312,0.00586,0.30176"/>
			<path id="path3826_16_" fill="none" stroke="#010101" stroke-width="0.44205" d="M868.55127,751.68408
				c1.27441,1.02148,2.5791,2.30078,4.31738,2.33594c2.38672,0.51953,4.38965,2.04199,6.1377,3.67383
				c2.12891,1.2793,4.79883,0.77832,6.98926,1.87207c1.59375,0.97656,2.95508,2.90918,2.34668,4.84277
				c-0.41797,1.125-1.67285,1.77832-1.8291,3.03516c-0.24902,1.21582-0.94922,2.33301-2.13867,2.79883
				c-0.16602,0.10938-0.32715,0.23047-0.46289,0.37695"/>
			<path id="path3565_16_" fill="none" stroke="#010101" stroke-width="0.44205" d="M841.93701,759.00928
				c-0.95508-0.96582-1.93164-1.91309-2.87305-2.8877c-0.99805-2.02539-1.9834-4.0625-3.25293-5.93555
				c-0.42676-0.73438-0.86719-1.50098-1.60449-1.96875c-0.93555-0.75098-1.87109-1.49805-2.80859-2.24609"/>
			<path id="path3689_16_" fill="none" stroke="#010101" stroke-width="0.44205" d="M878.01709,807.77295
				c-4.31934-0.6416-8.64844-1.28711-13.01562-1.49512c-0.86816-0.03516-1.77344-0.05273-2.55371-0.48438
				c-0.88281-0.35254-1.7666-0.70508-2.64941-1.05664"/>
			<path id="path4136_16_" fill="none" stroke="#010101" stroke-width="0.44205" d="M826.04053,781.69385L826.04053,781.69385
				c-0.71484,9.10938-1.25098,9.46484-1.25098,9.46484"/>
			<path id="path4138_16_" fill="none" stroke="#010101" stroke-width="0.44205" d="M844.2583,773.11865
				c-3.21387,6.78809-1.42773,8.5752-1.42773,8.5752"/>
			<path id="path4140_16_" fill="none" stroke="#010101" stroke-width="0.44205" d="M803.90479,755.78076
				c-6.07324,5.18066-4.64355,10.89551-4.64355,10.89551"/>
			<path id="path4142_16_" sodipodi:nodetypes="cc" fill="none" stroke="#010101" stroke-width="0.44205" d="M807.98682,773.06396
				c-0.70605,8.70215-11.85645,10.07031-11.85645,10.07031"/>
			<path id="path4144_16_" fill="none" stroke="#010101" stroke-width="0.44205" d="M884.98389,821.52588
				c-5.35938-6.07227-14.28906-0.35938-14.28906-0.35938"/>
			<path id="path3419_16_" fill="none" stroke="#010101" stroke-width="0.44205" d="M831.57764,814.02295
				c2.99805-2.82617,3.4541-7.67871,1.60645-11.25293"/>
			<path id="path3421_16_" fill="none" stroke="#010101" stroke-width="0.44205" d="M821.396,797.59033
				c1.02344,3.25,2.9668,6.17773,3.58984,9.56055c0.37402,0.69727,1.10156,1.08984,1.58984,1.69336"/>
			<path id="path3423_16_" fill="none" stroke="#010101" stroke-width="0.44205" d="M807.28662,795.62646
				c-2.61621,0.54004-5.2959,1.50879-7.98926,0.89941c-2.70215,0.37695-3.35254-2.875-4.33594-4.65039"/>
			<path id="path3425_16_" fill="none" stroke="#010101" stroke-width="0.44205" d="M793.71045,787.04932
				c-2.78223,0.5918-5.77832,1.41992-8.55078,0.33594c-2.32129-0.0957-4.35645,1.20215-6.45312,1.98828"/>
			<path id="path3427_16_" fill="none" stroke="#010101" stroke-width="0.44205" d="M782.10107,758.4751
				c-1.36914-0.12109-2.73926-0.24023-4.1084-0.36035c-1.98242-1.42871-4.00293-2.80762-6.07227-4.10645"/>
			<path id="path3429_16_" fill="none" stroke="#010101" stroke-width="0.44205" d="M764.41748,755.61572
				c2.43262-2.79688,6.05469-4.04297,9.46484-5.18652c2.6084-1.0791,5.75977-1.49609,8.32324-0.06445
				c0.98047,0.49316,1.91406,1.08008,2.93066,1.50098"/>
			<path id="path3431_16_" fill="none" stroke="#010101" stroke-width="0.44205" d="M778.52881,749.36377
				c0.43164-1.16602-0.30371-2.59961-1.49316-2.94238c-0.90332-0.64355-1.56934-1.55371-2.43652-2.2373"/>
			<path id="path3433_16_" fill="none" stroke="#010101" stroke-width="0.44205" d="M806.57178,738.28955
				c-2.64941,0.61914-4.40625,5.42578-0.58008,5.57227c3.25488,0.57715,6.62109,1.07617,9.4043,3.00977
				c2.23242,1.40527,5.45117,3.22754,4.91016,6.34766c-1.55176,2.22754-0.23633,4.37109,2.27539,4.88477
				c2.49805,1.90039,3.41699,5.08398,4.18262,8.04883c1.31445,2.57227,2.31348,5.7998,4.84082,7.375
				c3.45215,1.35156,2.64062,5.25391,1.63086,7.88477c-0.08984,3.4082,3.57812,4.4707,4.99219,6.96191
				c0.54883,2.81738,2.79102,4.30371,4.82031,6.02051c2.33789,1.7207,0.4248,4.26367-1.34375,5.49902
				c-0.26953,0.20117-0.5498,0.38574-0.83984,0.55371"/>
			<path id="path3438_16_" fill="none" stroke="#010101" stroke-width="0.88411" d="M819.43115,738.64795
				c3.73633,0.62793,5.14453,4.69629,5.76953,7.94727c2.2627,2.28223,3.09473,5.64941,3.09863,8.5293
				c1.85254,2.05762,5.73828,3.59668,4.77832,6.98828c-0.52832,4.19043,4.99512,4.05664,7.82617,4.66016
				c2.98926-0.0459,7.17188-0.98926,8.80469,2.34473c1.64746,3.44922,0.00098,7.29688,0.43066,10.92285
				c0.61035,5.3916,4.07227,9.98926,4.58105,15.4209c0.53711,3.84961,0.24219,7.76172-0.28027,11.59668"/>
			<path id="path3446_16_" fill="none" stroke="#010101" stroke-width="0.44205" d="M856.94092,799.02002
				c0.46289-3.81836,1.24219-7.72852,0.37402-11.5498c-0.24707-2.17578-0.04688-4.37402,0.31836-6.52637
				c0.49121-1.45508,1.60254-2.57422,2.34375-3.89551"/>
			<path id="path3490_16_" fill="none" stroke="#010101" stroke-width="0.44205" d="M832.64893,739.71729
				c0.16797,1.53711,1.91797,1.95703,3.20605,2.04688c3.5625,0.37402,6.84082,1.95703,10.2832,2.83984
				c2.38574,0.83398,4.58594,2.09375,6.87305,3.15234c1.13086,1.78711,2.26172,3.57227,3.39453,5.35938
				c0.02344,1.49219-0.28516,3.44531-1.93359,3.95605c-1.66211,0.70117-3.26562,1.53125-4.91016,2.27344
				c-1.75098,1.55469-2.55957,3.82715-3.77148,5.77051c-0.27344,0.52246-0.54395,1.04883-0.81641,1.57324"/>
			<path id="path3502_16_" fill="none" stroke="#010101" stroke-width="0.44205" d="M850.51123,770.26123
				c1.18555-0.7959,2.51074-1.61914,4.00098-1.48633c1.44434-0.16113,2.88379,0.19238,4.19727,0.76465
				c1.78516,0.55078,3.54785,1.24219,5.07129,2.33984c1.08984,0.60938,2.00781,1.46289,2.81445,2.4043
				c0.86523,0.83496,1.67383,1.78027,2.02539,2.95312c0.30078,0.88965,0.96387,1.73242,0.77441,2.70703
				c-0.03516,1.32617-0.04199,2.72266-0.72949,3.90234c-0.39551,0.95117-0.79102,1.89844-1.18652,2.84961"/>
			<path id="path3509_16_" fill="none" stroke="#010101" stroke-width="0.44205" d="M869.97998,779.72803
				c1.74902,0.32129,4.00098-0.50684,4.37598-2.42285c1.04297-1.81836,0.61523-4.42578,2.51172-5.73828
				c2.13184-0.4209,3.51855-2.78516,2.9502-4.8623c-0.43457-2.58301-2.9502-3.93457-4.94141-5.24609
				c-3.30859-2.01367-7.07227-3.23828-10.16211-5.62012c-1.63281-1.4209,0.07129-3.62207-0.71289-5.26367
				c-1.18555-1.78516-3.53223-1.90234-5.33105-2.73438c-1.87109-0.72168-4.05859-1.1709-5.92383-0.18066l-0.27051,0.09668"/>
			<path id="path3522_16_" sodipodi:nodetypes="ccccc" fill="none" stroke="#010101" stroke-width="0.44205" d="
				M860.73975,755.18408c0.23438,1.61914,2.51367,2.98242,2.9834,5.11133c-0.7959,3.71094,0.68848,3.92773,4.3623,3.92383
				c1.39844,0.3916,2.07617,1.83984,2.50781,3.10547c0.46875,1.35156,0.62988,2.77832,0.81641,4.1875"/>
			<path id="path3580_16_" fill="none" stroke="#010101" stroke-width="0.35364" d="M851.04639,758.29443
				c-0.06738-1.65527-0.45703-3.34082-1.75586-4.47168c-0.81836-0.85938-1.39258-1.92773-1.44238-3.12305l-0.01367-0.06738
				l-0.00391-0.01758"/>
		</g>
	</g>
</g>
<g id="Lines">
</g>
<g id="Words">
</g>
<g id="Layer_4">
</g>
</svg>
