<?xml version="1.0" encoding="utf-8"?>
<!-- Generator: Adobe Illustrator 16.0.0, SVG Export Plug-In . SVG Version: 6.00 Build 0)  -->
<!DOCTYPE svg PUBLIC "-//W3C//DTD SVG 1.1//EN" "http://www.w3.org/Graphics/SVG/1.1/DTD/svg11.dtd">
<svg version="1.1" xmlns="http://www.w3.org/2000/svg" xmlns:xlink="http://www.w3.org/1999/xlink" x="0px" y="0px" width="500px"
	 height="500px" viewBox="0 0 500 500" enable-background="new 0 0 500 500" xml:space="preserve">
<g id="Backgrounds">
</g>
<g id="Shapes">
	<g>
		<g id="layer5_13_" transform="translate(-106.83931,-293.64792)" inkscape:label="Pons" inkscape:groupmode="layer">
			<g id="g4625_13_">
				
					<path id="path4610_13_" sodipodi:nodetypes="cccccccc" fill="#BABABA" stroke="#010101" stroke-width="1.81768" stroke-linecap="round" stroke-linejoin="round" d="
					M332.80884,617.06104l13.08594,1.08887l25.75464,12.64062c-7.71606,11.76953-11.57446,23.83594-28.48511,29.0752
					c-6.11914,2.22363-11.80322-1.47363-14.94336,4.65332c-12.10352,16.28027-28.74561,33.57227-43.64453,48.02441
					c-5.43604,3.02637-8.23047,10.82422-15.29004,10.6582c-6.05908-1.19922-13.76953-0.02734-17.83984-5.7627
					c-1.21313-7.90918,9.1582-8.44824,12.88525-13.3877c3.31006-3.69141,5.1709-8.36035,7.92139-12.43555"/>
				
					<path id="path4623_13_" sodipodi:nodetypes="cc" fill="none" stroke="#010101" stroke-width="1.81768" stroke-linecap="round" stroke-linejoin="round" d="
					M336.63843,660.46045c-11.86914-5.04004-12.75928-11.27344-12.75928-11.27344"/>
			</g>
		</g>
		<g id="layer4_13_" transform="translate(-106.83931,-293.64792)" inkscape:label="Eyes" inkscape:groupmode="layer">
			<g id="g4600_13_">
				
					<path id="path4582_13_" sodipodi:nodetypes="ccccccc" fill="#D1D2D1" stroke="#010101" stroke-width="0.90884" stroke-linecap="round" stroke-linejoin="round" d="
					M464.02173,630.63623c26.09961,3.54492,32.12207,17.0498,40.37354-0.5625c7.27197-25.47168,44.98755-48.50098,76.29712-13.27832
					c0,0,9.32129,9.48633,9.39258,18.91797c0.0918,7.42383-2.81934,16.91992-9.36035,24.4043
					c-25.13086,32.99316-62.81128,12.87012-72.2644-1.08887c-8.16284-16.42773-23.1709-18.40137-51.20361-24.84766"/>
				
					<path id="path4598_13_" sodipodi:type="arc" sodipodi:cy="643.10352" sodipodi:ry="22.186457" sodipodi:rx="6.3927078" sodipodi:cx="76.336449" fill="#FFFFFF" stroke="#010101" stroke-width="1.81768" stroke-linecap="round" stroke-linejoin="round" d="
					M571.21289,637.86865c0,11.1377,2.60059,20.16504,5.80957,20.16504c3.20801,0.00391,5.81055-9.02148,5.81055-20.15723v-0.00391
					c0.00098-11.13867-2.60156-20.16602-5.80664-20.16992c-3.21094-0.00391-5.81348,9.02246-5.81348,20.16016V637.86865z"/>
				
					<path id="path4531_13_" sodipodi:nodetypes="ccc" fill="#E8E8E8" stroke="#010101" stroke-width="1.81768" stroke-linecap="round" stroke-linejoin="round" d="
					M576.09277,615.4458c-36.34375-30.36133-69.94019-3.18652-68.65015,29.31543
					c1.13281,23.0957,44.58765,44.37695,68.94702,15.74023"/>
			</g>
		</g>
		<g id="layer3_13_" transform="translate(-106.83931,-293.64792)" inkscape:label="Cerebrellum" inkscape:groupmode="layer">
			
				<path id="path4219_16_" fill="#7D7D7D" stroke="#010101" stroke-width="2.72652" stroke-linecap="round" stroke-linejoin="round" d="
				M170.49341,593.59619c-1.68896,0.31152-2.66748,0.51465-2.69434,0.57715c-6.06787,13.74707-3.11084,30.32227,5.63867,42.29102
				c8.93555,15.2041,18.49072,31.16699,33.68213,40.87988c10.39502,5.74902,21.42651,10.53516,32.80029,13.91309
				c11.43311,1.95898,23.17773,0.75,34.57129-0.80762c20.48438-4.87305,35.24854-21.47168,47.29883-37.70996
				c6.44629-6.84766,7.44775-16.16309,7.96387-25.0752c0.51172-3.65332,1.38916-7.29102,3.05469-10.60352"/>
			<path id="path4219_15_" fill="#7D7D7D" d="M332.3479,617.51807c-0.22656,0.13379-51.61816-5.60742-45.48389-15.75391
				c-7.80029,4.86035-51.7356-16.37402-61.47168-17.75488c-4.81689-0.68359-48.95996,6.75879-54.89893,9.58691"/>
			
				<path id="path4318_13_" fill="none" stroke="#010101" stroke-width="0.90884" stroke-linecap="round" stroke-linejoin="round" d="
				M281.58276,646.71338c-3.82178-10.06055-11.95264-18.53711-22.40381-21.60938
				c-14.146-4.48047-26.51904-14.14844-41.64062-15.44824c-12.74487-2.00293-25.69482-3.10156-38.00977-7.18457
				c-4.06982-1.10352-8.16553-2.50098-11.54834-5.09277"/>
			
				<path id="path4320_13_" fill="none" stroke="#010101" stroke-width="0.90884" stroke-linecap="round" stroke-linejoin="round" d="
				M286.12817,645.41748c-3.90625-10.40625-9.57666-21.54004-20.47876-25.94238c-5.11938-2.28418-10.25195-4.94727-13.83228-9.37207
				c-8.45215-6.58398-19.01978-9.83789-29.29883-12.19141c-12.36084-1.1123-23.94922-6.59766-36.36377-7.02734"/>
			
				<path id="path4322_13_" fill="none" stroke="#010101" stroke-width="0.90884" stroke-linecap="round" stroke-linejoin="round" d="
				M253.67114,618.1499c-8.64014-4.98242-17.44434-11.58984-27.979-10.66309c-12.58789-1.64844-23.60254-9.66211-36.51709-9.68555
				c-5.3501-0.80371-10.68066-1.72754-16.00391-2.69629"/>
			
				<path id="path4324_13_" fill="none" stroke="#010101" stroke-width="0.90884" stroke-linecap="round" stroke-linejoin="round" d="
				M290.67358,645.74072c-3.04346-9.38281-4.47461-20.6582-13.6333-26.35352c-6.44629-3.71094-13.95605-5.16211-19.80127-9.99902"/>
			
				<path id="path4326_13_" fill="none" stroke="#010101" stroke-width="0.90884" stroke-linecap="round" stroke-linejoin="round" d="
				M294.89136,646.06787c-2.51709-10.82715-3.26392-23.70508-12.95703-30.93945
				c-6.68359-5.55957-14.48047-9.51953-21.77344-14.17969"/>
			
				<path id="path4328_13_" fill="none" stroke="#010101" stroke-width="0.90884" stroke-linecap="round" stroke-linejoin="round" d="
				M268.27344,610.36084c-19.323-8.30957-38.12866-19.50781-59.54858-21.19727c-1.24854-0.18945-2.49512-0.375-3.74414-0.5498"/>
			
				<path id="path4330_13_" fill="none" stroke="#010101" stroke-width="0.90884" stroke-linecap="round" stroke-linejoin="round" d="
				M275.41626,643.14307c-5.62695-6.24316-12.77686-10.76562-20.54541-13.82031
				c-9.13574-4.19531-18.87061-7.13965-27.41602-12.50586c-14.95752-6.11328-32.03467-1.75293-46.91797-8.34277
				c-4.34473-1.73926-8.54834-3.81152-12.8833-5.58008"/>
			
				<path id="path4332_13_" fill="none" stroke="#010101" stroke-width="0.90884" stroke-linecap="round" stroke-linejoin="round" d="
				M277.68921,648.33838c-9.1438-5.41406-18.55884-10.7002-28.97412-13.1875c-11.78125-4.77637-22.02881-13.83984-35.15234-14.83984
				c-10.54248-2.41895-21.43066-2.78613-32.05322-4.50879c-5.34473-1.64453-10.61133-3.6416-15.47803-6.41406"/>
			
				<path id="path4334_13_" fill="none" stroke="#010101" stroke-width="0.90884" stroke-linecap="round" stroke-linejoin="round" d="
				M267.302,648.01123c-20.85303-3.73828-38.19287-17.15234-58.31494-22.95605c-12.42676-2.43262-25.97754-0.83105-37.27368-7.5752
				c-1.24536-0.5332-2.48901-1.06543-3.73315-1.59863"/>
			
				<path id="path4336_13_" fill="none" stroke="#010101" stroke-width="0.90884" stroke-linecap="round" stroke-linejoin="round" d="
				M259.18774,649.63818c-16.90283-1.61328-31.93018-12.25977-49.28516-10.9209c-7.81982-0.27148-15.02417,3.34668-22.25122,5.16797
				c-2.01538,0.0791-4.02563,0.15527-6.03931,0.23047"/>
			
				<path id="path4338_13_" fill="none" stroke="#010101" stroke-width="0.90884" stroke-linecap="round" stroke-linejoin="round" d="
				M229.32544,638.27783c-11.88501-6.16797-24.77588-11.54395-38.41846-10.99902
				c-7.62061-0.79492-15.51367-1.67578-22.27979-5.56055"/>
			
				<path id="path4340_13_" fill="none" stroke="#010101" stroke-width="0.90884" stroke-linecap="round" stroke-linejoin="round" d="
				M213.42017,636.97607c-13.10498-4.43262-26.81372-6.16016-40.57324-6.81445"/>
			
				<path id="path4342_13_" fill="none" stroke="#010101" stroke-width="0.90884" stroke-linecap="round" stroke-linejoin="round" d="
				M198.48853,637.95166c-6.36133-0.46973-12.79541-1.38477-19.14893-0.32715"/>
			
				<path id="path4344_13_" fill="none" stroke="#010101" stroke-width="0.90884" stroke-linecap="round" stroke-linejoin="round" d="
				M287.427,650.28564c-10.16455,6.91113-21.17773,14.21582-33.97559,14.08594c-11.75635-0.33105-23.48877-1.52637-35.00439-3.97168
				c-8.31396-1.61914-16.86426-1.06055-24.82715,1.89648"/>
			
				<path id="path4346_13_" fill="none" stroke="#010101" stroke-width="0.90884" stroke-linecap="round" stroke-linejoin="round" d="
				M275.09106,652.23193c-18.43701,7.58984-39.33984,7.61426-58.33447,2.0957c-8.40088-1.70215-16.75342,0.57227-25.08545,1.47266"
				/>
			
				<path id="path4348_13_" fill="none" stroke="#010101" stroke-width="0.90884" stroke-linecap="round" stroke-linejoin="round" d="
				M256.59302,651.90479c-9.5459,0.22656-19.43604,1.24512-28.56152-2.22559c-13.69971-2.16211-27.88477-1.94531-41.55005,0.28223"
				/>
			
				<path id="path4350_13_" fill="none" stroke="#010101" stroke-width="0.90884" stroke-linecap="round" stroke-linejoin="round" d="
				M291.96948,651.90479c-9.00244,8.25-19.69971,16.45898-32.46875,16.66602c-8.55127,1.88867-17.68164,3.33789-26.00586-0.20117
				c-10.2085-2.09961-20.93945-1.84473-31.1167,0.14551l-1.12939,0.31152l-1.13525,0.28125"/>
			
				<path id="path4352_13_" fill="none" stroke="#010101" stroke-width="0.90884" stroke-linecap="round" stroke-linejoin="round" d="
				M297.48706,653.52979c-7.51562,6.90332-15.76367,13.29785-25.6377,16.38379c-10.56885,3.59082-21.56348,6.56836-32.81543,6.26367
				c-7.99609,0.15723-15.99268-0.00684-23.99072,0.07617"/>
			
				<path id="path4354_13_" fill="none" stroke="#010101" stroke-width="0.90884" stroke-linecap="round" stroke-linejoin="round" d="
				M301.05981,654.82959c-6.68164,6.39062-13.16235,13.48926-21.99341,16.88086
				c-15.65405,8.63184-33.80005,11.22168-51.45728,11.21582l-1.25073,0.06445l-1.25024,0.0752"/>
			
				<path id="path4356_13_" fill="none" stroke="#010101" stroke-width="0.90884" stroke-linecap="round" stroke-linejoin="round" d="
				M306.57739,655.80029c-8.55859,8.02832-16.70801,16.83691-27.39551,22.07422c-13.23682,7.62207-28.99658,9.53418-44.01367,9.7373
				"/>
			
				<path id="path4358_13_" fill="none" stroke="#010101" stroke-width="0.90884" stroke-linecap="round" stroke-linejoin="round" d="
				M311.76978,657.1001c-10.82935,11.64746-22.48242,23.69141-38.15283,28.42969c-7.1499,2.51855-14.64893,3.78906-21.89355,5.97949
				"/>
			
				<path id="path4360_13_" fill="none" stroke="#010101" stroke-width="0.90884" stroke-linecap="round" stroke-linejoin="round" d="
				M299.11108,649.31104c-0.53369-11.87207-1.29004-24.86035-9.59326-34.20605c-2.11328-2.43164-4.46484-4.6377-6.63745-7.0166"/>
			
				<path id="path4362_13_" fill="none" stroke="#010101" stroke-width="0.90884" stroke-linecap="round" stroke-linejoin="round" d="
				M305.27759,650.61279c-1.81104-12.47266-3.52441-25.84961-11.03516-36.35645"/>
			
				<path id="path4364_13_" fill="none" stroke="#010101" stroke-width="0.90884" stroke-linecap="round" stroke-linejoin="round" d="
				M312.41846,649.96143c-3.48364-11.50391-4.77368-24.59473-13.30737-33.75684"/>
			
				<path id="path4366_13_" fill="none" stroke="#010101" stroke-width="0.90884" stroke-linecap="round" stroke-linejoin="round" d="
				M318.58521,646.06787c-1.94287-11.2832-8.50439-20.79199-14.60596-30.18652"/>
			
				<path id="path4368_13_" fill="none" stroke="#010101" stroke-width="0.90884" stroke-linecap="round" stroke-linejoin="round" d="
				M323.45386,638.92432c-0.77148-8.94727-7.23486-15.80566-12.65747-22.39746"/>
			
				<path id="path4370_13_" fill="none" stroke="#010101" stroke-width="0.90884" stroke-linecap="round" stroke-linejoin="round" d="
				M328.07886,629.3208c-3.46436-4.54785-6.92383-9.08887-10.3877-13.62988"/>
		</g>
		<g id="layer1_13_" transform="translate(-106.83931,-293.64792)" inkscape:label="Cortex" inkscape:groupmode="layer">
			
				<path id="path2453_13_" sodipodi:nodetypes="cccccccccccccccccccccccccccccccccccccccc" fill="#FFFFFF" stroke="#010101" stroke-width="3.40815" stroke-linecap="round" stroke-linejoin="round" d="
				M515.50171,597.32471c14.06543-5.18555,26.20239-14.7041,35.37134-26.78125c6.23633-7.06836,14.56836-12.88184,15.91406-22.86914
				c1.83398-5.77246,5.53027-13.39941,3.32227-17.51074c11.20996-5.71387,5.88086-20.26953,3.3252-29.5459
				c-4.48047-8.05762,5.08691-16.4043-0.55176-24.02148c-7.9502-3.07324-0.83203-11.09863-5.72168-16.80176
				c-3.60156-5.91504-9.41113-11.7959-16.77051-12.5752c0.74805-9.33008-8.30371-14.25684-11.93555-22.0332
				c-7.86108-6.78613-14.5437-15.58789-25.43188-17.20117c-9.29492-5.38086-20.27246-6.47559-29.00244-13.02246
				c-8.43335-5.78613-17.7417-9.30176-27.86084-10.70996c-13.52832-2.63477-26.87939-5.82715-39.35107-11.85254
				c-22.48682-3.74707-45.56982-8.48242-68.32739-5.60254c-9.36938,3.46973-18.74438-3.31055-28.4397-2.55664
				c-13.52441-1.0752-26.79883,3.94531-40.21484,5.48535c-11.18164,3.46191-22.54248,7.46582-33.20361,12.11816
				c-5.23584,6.85742-15.40381,4.31934-20.98633,11.01562c-8.30566,6.69922-19.68018,11.43262-24.11255,21.47266
				c-0.49829,6.40137-9.05737,8.92188-13.15991,13.36133c-10.92505,7.02051-18.30908,18.07715-25.72217,28.3623
				c-1.61035,5.67188-5.00146,12.55566-3.19775,17.17578c-10.43799,9.14453-15.08398,22.75293-22.64722,34.11914
				c-1.33398,7.66309-6.97437,15.20215-5.04712,22.95215c-5.60083,4.30371-6.21875,12.63281-8.15869,18.98242
				c1.13428,9.21484,0.05786,19.19629,6.99756,26.41211c3.48779,7.30469,9.03931,12.54199,16.24023,16.13574
				c6.87744,4.16406,15.81982,3.43359,23.16113,0.66016c18.04004-5.4707,36.94727-5.35156,55.40186-8.48438
				c10.08398,4.27148,18.97217,10.88867,29.896,13.18164c10.16846,3.24121,20.7981,8.67773,31.61572,5.17969
				c-0.27466,9.61133,11.19141,9.07031,18.06299,10.34375c13.14038,2.61328,26.69043,3.19824,39.8208,4.83691
				c14.50537,7.91699,30.19629,14.25293,43.62598,23.78516c5.71924,7.07812,14.62305,11.3291,23.7356,9.0957
				c9.96704-0.70508,17.88599-8.50488,27.05005-12.11621c7.83057-5.03418,18.3457-1.83789,25.51855-8.60547
				c5.88672-2.84375,10.07544-8.87402,13.26465-14.18555c3.67773-4.94141-4.80762-16.11426,2.20947-16.10059
				C491.96045,598.72314,500.05933,599.85986,515.50171,597.32471z"/>
			<path id="path3230_13_" fill="none" stroke="#010101" stroke-width="2.2721" stroke-linecap="round" stroke-linejoin="round" d="
				M459.95874,616.604c-17.63867-6.31641-22.42529-26.72559-37.08032-36.77051
				c-10.87622-7.49316-22.76392-19.56641-37.18042-13.9873c-18.51025,6.12988-38.6936-0.72461-53.17676-12.83301
				c-10.47681-9.29199-24.2373-14.06348-38.19336-12.04688c-16.17139,4.25391-19.7793-11.65723-24.76807-22.91113
				c-6.25391-12.25195-21.12842-16.90723-24.37036-31.28906c-8.09351-12.50977-13.21313-26.68652-15.59985-41.39062
				c-0.23535-10.82617-7.27051-18.99707-14.05322-26.67676c-0.99194-1.42188-1.86719-2.93066-2.53564-4.52734"/>
			
				<path id="path3235_13_" fill="none" stroke="#010101" stroke-width="1.13605" stroke-linecap="round" stroke-linejoin="round" d="
				M425.07251,640.47021c-9.69971-6.69434-18.59375-14.72754-25.23291-24.51172c-5.71826-5.21973-14.0376-3.64258-21.01807-5.32617
				c-6.51904-0.15039-12.52612-2.85547-17.84473-6.4541c-4.70337-3.85742-9.91138,0.52051-14.1543,2.89746
				c-4.76807,3.12012-9.38672,6.47559-14.47461,9.06738"/>
			
				<path id="path3250_13_" sodipodi:nodetypes="cccccc" fill="none" stroke="#010101" stroke-width="3.40815" stroke-linecap="round" stroke-linejoin="round" d="
				M477.8606,599.61963c-7.98242-18.44824-16.00049-37.59668-33.41455-49.25879
				c-18.07764-14.00879-39.39697-30.69824-63.51904-28.54004c-23.60962,8.50977-27.72852-20.35449-44.58203-28.6123
				c-14.72607-8.31738-37.44482,2.38867-46.94556-16.2998c-8.09546-16.01953-10.5437-14.23926-14.77222-19.47168"/>
			
				<path id="path3255_13_" sodipodi:nodetypes="cccc" fill="none" stroke="#010101" stroke-width="2.2721" stroke-linecap="round" stroke-linejoin="round" d="
				M350.71021,506.43506c4.8562-18.22168,11.74902-29.58887,7.37354-48.49609c-1.60596-9.07129-12.12109-27.54688-19.24561-33.24707
				c-15.62158-24.14551-15.52539-18.50293-37.30469-25.03809"/>
			
				<path id="path3264_13_" sodipodi:nodetypes="ccccc" fill="none" stroke="#010101" stroke-width="1.13605" stroke-linecap="round" stroke-linejoin="round" d="
				M235.4104,465.36768c5.47412-19.38379,25.21484-14.23535,32.53467-32.68164c4.95898-7.91113,9.84717-31.41699,14.60742-39.47168
				c9.74707-4.74121,17.68188-14.02539,18.83301-25.04199c0.22168-0.73535,0.44531-1.46777,0.66699-2.19824"/>
			
				<path id="path3278_13_" fill="none" stroke="#010101" stroke-width="1.13605" stroke-linecap="round" stroke-linejoin="round" d="
				M222.1814,483.02295c-2.88037,4.26465-6.0918,8.31055-8.76709,12.71387c-1.23975,11.75977-4.84082,23.9707-0.88623,35.60449
				c2.52197,8.41211,5.65625,17.00879,4.80127,25.93359c2.79297,4.77441-0.48242,11.95508-6.07959,12.5918
				c-4.94043,2.33691-11.74219,2.96582-15.70752-1.51855c-6.04443-5.20996-13.92822-9.07812-22.08545-8.04785
				c-5.00586-0.25391-9.92627-4.94141-8.71729-10.18945c0.13428-1.43848,0.4917-2.84668,0.97998-4.19922"/>
			<path id="path3306_13_" fill="none" stroke="#010101" stroke-width="2.2721" stroke-linecap="round" stroke-linejoin="round" d="
				M195.55591,536.72998c-12.48853-2.65332-24.94751-5.50488-37.18359-9.18164c-3.31543,0.80176-7.34717,0.58105-9.73682,3.44043
				c-4.01904,3.14941-7.91748,6.58984-10.6709,10.93652c-4.62305,5.66211-8.06519,12.13184-11.24756,18.6748l-0.2373,0.45703
				l-0.2373,0.46094"/>
			
				<path id="path3308_13_" fill="none" stroke="#010101" stroke-width="1.13605" stroke-linecap="round" stroke-linejoin="round" d="
				M159.29224,527.09131c-1.83179-6.18066-5.20068-12.86719-2.5083-19.32031c3.18262-8.59668,10.05908-15.06738,14.18994-23.12305
				c1.60645-4.19434,3.41797-8.77734,7.57568-11.05762c3.9458-2.78125,8.88989-3.15137,13.50977-3.75977
				c7.48096-2.06836,10.84473-9.79199,15.42969-15.26465"/>
			
				<path id="path3329_13_" fill="none" stroke="#010101" stroke-width="1.13605" stroke-linecap="round" stroke-linejoin="round" d="
				M235.94995,565.19092c6.1792,1.55566,12.17041,3.9541,18.50342,4.82324c9.14502,0.95508,18.33936,1.59668,27.53809,1.55371
				c3.06152,0,5.77344-1.70703,7.74072-3.94922c3.08057-3.40039,5.60938-7.25879,8.66797-10.68555
				c0.75928-0.91992,1.51807-1.8418,2.27441-2.75977"/>
			
				<path id="path3335_13_" fill="none" stroke="#010101" stroke-width="1.13605" stroke-linecap="round" stroke-linejoin="round" d="
				M294.7063,598.24072c8.80859-10.16699,22.41455-15.37207,28.8999-27.74219c3.86523-5.67969,5.70166-12.69141,5.06836-19.54102"/>
			
				<path id="path3337_13_" fill="none" stroke="#010101" stroke-width="1.13605" stroke-linecap="round" stroke-linejoin="round" d="
				M327.7561,592.72998c-5.21631-2.68066-11.83789-3.80078-15.14868-9.17773"/>
			
				<path id="path3339_13_" fill="none" stroke="#010101" stroke-width="1.13605" stroke-linecap="round" stroke-linejoin="round" d="
				M253.85327,522.50049c-10.25,2.78027-23.44531,11.39746-14.24414,23.00488c0.97803,1.96777,2.20801,3.82129,3.68506,5.45215"/>
			
				<path id="path3341_13_" fill="none" stroke="#010101" stroke-width="1.13605" stroke-linecap="round" stroke-linejoin="round" d="
				M237.32739,531.68213c-4.13086-1.83789-8.26367-3.67285-12.39355-5.51074"/>
			
				<path id="path3343_13_" fill="none" stroke="#010101" stroke-width="1.13605" stroke-linecap="round" stroke-linejoin="round" d="
				M212.08179,509.18701c6.20703,2.39062,12.3291,5.00586,18.36035,7.80273"/>
			
				<path id="path3347_13_" fill="none" stroke="#010101" stroke-width="1.13605" stroke-linecap="round" stroke-linejoin="round" d="
				M229.06372,470.17139c-9.6958-9.34766-20.98877-16.81738-32.38818-23.90527c-2.34473-3.9043-2.37915-8.61133-3.87402-12.81934"/>
			
				<path id="path3349_13_" fill="none" stroke="#010101" stroke-width="1.13605" stroke-linecap="round" stroke-linejoin="round" d="
				M164.79956,589.51807c-11.54004-7.1377-19.84814-20.50293-16.95508-34.38574c0.4519-3.47949,1.35107-6.90625,2.72461-10.13867"/>
			
				<path id="path3351_13_" fill="none" stroke="#010101" stroke-width="1.13605" stroke-linecap="round" stroke-linejoin="round" d="
				M275.42603,535.81201c-3.84619,3.29492-11.93994,4.77246-10.55615,11.47656"/>
			
				<path id="path3353_13_" fill="none" stroke="#010101" stroke-width="1.13605" stroke-linecap="round" stroke-linejoin="round" d="
				M264.86987,542.24072c-1.99048-0.91992-3.97754-1.83789-5.96777-2.75879"/>
			
				<path id="path3355_13_" fill="none" stroke="#010101" stroke-width="1.13605" stroke-linecap="round" stroke-linejoin="round" d="
				M375.03784,598.69775c8.77637-3.08398,18.48853-12.44141,13.771-22.4873"/>
			
				<path id="path3357_13_" fill="none" stroke="#010101" stroke-width="1.13605" stroke-linecap="round" stroke-linejoin="round" d="
				M262.11743,597.78174l6.42529-7.34375"/>
			
				<path id="path3345_13_" sodipodi:nodetypes="ccc" fill="none" stroke="#010101" stroke-width="1.13605" stroke-linecap="round" stroke-linejoin="round" d="
				M176.27808,513.3208c-0.00269-8.59082,0.14746-29.75293,13.77051-24.33105c9.7666,4.41895,11.05127,18.4541,19.27881,19.74023"/>
			
				<path id="path3361_13_" fill="none" stroke="#010101" stroke-width="1.13605" stroke-linecap="round" stroke-linejoin="round" d="
				M173.98218,475.67822l-1.37744-12.39062l3.21338-11.47949l2.29443-9.17969"/>
			
				<path id="path3363_13_" fill="none" stroke="#010101" stroke-width="1.13605" stroke-linecap="round" stroke-linejoin="round" d="
				M154.70142,511.48486c-3.05957-2.14648-6.11914-4.28711-9.18066-6.42773"/>
			<path id="path3572_13_" fill="none" stroke="#010101" stroke-width="1.13605" d="M477.8606,536.72998
				c5.13525-2.22754,10.51758-5.33398,12.54346-10.88184c2.15527-4.58496,1.91309-10.95801,6.93335-13.66797
				c3.4397-3.63965,9.99902-4.36816,11.3186-9.8418c0.28857-5.7959,1.31445-12.48145,6.51123-16.00586
				c3.96118-2.77246,6.91162-8.13184,12.37695-7.84375c4.90088,0.0957,9.59644,5.57715,14.36011,2.89648
				c5.54785-3.68262,8.11914-10.16016,11.125-15.82129c2.15723-4.86035,2.76172-10.90039-0.44922-15.45605
				c-0.43164-0.80566-0.87207-1.6084-1.27148-2.42969"/>
			<path id="path3702_13_" fill="none" stroke="#010101" stroke-width="1.13605" d="M514.12427,560.13916
				c2.90869-3.51758,5.81592-7.03223,8.72363-10.55469c0.61084-2.75293,1.22217-5.50879,1.83594-8.26367
				c-1.10986-5.55371-3.01953-11.06445-6.43457-15.63184c-0.88818-2.18066,0.56152-5.13672,3.0061-5.36914
				c2.30054,0.42188,4.78003,1.52441,7.05493,0.41211c4.58887-1.05762,9.08813-3.50195,11.66431-7.55859
				c0.39258-0.42773,0.79883-0.8457,1.23242-1.23145"/>
			<path id="path3762_13_" fill="none" stroke="#010101" stroke-width="1.13605" d="M531.56909,498.17139
				c3.67285-0.6123,7.34302-1.22266,11.01587-1.83594c2.75586,1.22363,5.50781,2.44629,8.26367,3.66992
				c1.06738,2.77246,3.62305,5.31934,2.87793,8.51562c-0.58105,5.96387-1.14551,12.45117-5.13574,17.24902
				c-3.5166,3.91895-6.20605,8.51953-8.23047,13.36426c-1.40625,2.33008-1.6875,5.22363-1.00293,7.83496
				c0.01465,0.25781,0.02148,0.51758,0.01465,0.77539"/>
			<path id="path3826_13_" fill="none" stroke="#010101" stroke-width="1.13605" d="M484.7478,404.5249
				c3.2749,2.625,6.62793,5.91016,11.09668,6.00293c6.13525,1.33691,11.28125,5.24707,15.77148,9.44531
				c5.47314,3.28516,12.33398,1.99316,17.96191,4.80371c4.09619,2.5127,7.59497,7.47754,6.0332,12.44531
				c-1.0752,2.89648-4.30127,4.57324-4.70215,7.80273c-0.64014,3.125-2.44092,5.99805-5.49561,7.19238
				c-0.42725,0.28223-0.83984,0.59473-1.18848,0.96875"/>
			<path id="path3565_13_" fill="none" stroke="#010101" stroke-width="1.13605" d="M416.35181,423.35107
				c-2.45605-2.4834-4.96338-4.91406-7.38379-7.4248c-2.56494-5.20215-5.09766-10.43848-8.36157-15.25
				c-1.09546-1.88867-2.22827-3.8584-4.12207-5.06348c-2.40454-1.92773-4.8103-3.84863-7.21802-5.77246"/>
			<path id="path3689_13_" fill="none" stroke="#010101" stroke-width="1.13605" d="M509.07642,548.6665
				c-11.10303-1.64648-22.22754-3.30664-33.45166-3.8418c-2.229-0.08887-4.55615-0.13379-6.56201-1.24316
				c-2.27002-0.9082-4.53955-1.81348-6.80859-2.71777"/>
			<path id="path4136_13_" fill="none" stroke="#010101" stroke-width="1.13605" d="M375.4978,481.64795L375.4978,481.64795
				c-1.83643,23.40918-3.21484,24.32617-3.21484,24.32617"/>
			<path id="path4138_13_" fill="none" stroke="#010101" stroke-width="1.13605" d="M422.31812,459.61084
				c-8.26172,17.44531-3.6709,22.03711-3.6709,22.03711"/>
			<path id="path4140_13_" fill="none" stroke="#010101" stroke-width="1.13605" d="M318.6106,415.05322
				c-15.60791,13.31152-11.93506,28-11.93506,28"/>
			<path id="path4142_13_" sodipodi:nodetypes="cc" fill="none" stroke="#010101" stroke-width="1.13605" d="M329.10229,459.46729
				c-1.81689,22.36523-30.47192,25.88281-30.47192,25.88281"/>
			<path id="path4144_13_" fill="none" stroke="#010101" stroke-width="1.13605" d="M526.97925,584.01318
				c-13.77295-15.60645-36.72314-0.92188-36.72314-0.92188"/>
			<path id="path3419_13_" fill="none" stroke="#010101" stroke-width="1.13605" d="M389.72632,564.72998
				c7.70654-7.25977,8.87842-19.73242,4.13184-28.91797"/>
			<path id="path3421_13_" fill="none" stroke="#010101" stroke-width="1.13605" d="M363.56274,522.50049
				c2.62842,8.35449,7.62109,15.87598,9.22412,24.56934c0.96045,1.7959,2.8291,2.80273,4.08691,4.35254"/>
			<path id="path3423_13_" fill="none" stroke="#010101" stroke-width="1.13605" d="M327.30005,517.45459
				c-6.72266,1.38672-13.60791,3.87598-20.53174,2.3125c-6.94434,0.96875-8.61694-7.38574-11.14355-11.95508"/>
			<path id="path3425_13_" fill="none" stroke="#010101" stroke-width="1.13605" d="M292.41089,495.41455
				c-7.15039,1.51953-14.84912,3.64355-21.97461,0.8623c-5.96729-0.24609-11.19531,3.08984-16.58301,5.10645"/>
			<path id="path3427_13_" fill="none" stroke="#010101" stroke-width="1.13605" d="M262.57446,421.97412
				c-3.51758-0.30957-7.03711-0.61621-10.55762-0.92188c-5.09399-3.67285-10.2876-7.21582-15.60596-10.55371"/>
			<path id="path3429_13_" fill="none" stroke="#010101" stroke-width="1.13605" d="M217.13037,414.62842
				c6.2522-7.18945,15.56006-10.3877,24.32446-13.32617c6.70264-2.77637,14.80029-3.84766,21.38721-0.16895
				c2.52197,1.2666,4.92188,2.77637,7.53516,3.85645"/>
			<path id="path3431_13_" fill="none" stroke="#010101" stroke-width="1.13605" d="M253.39478,398.56104
				c1.10742-2.99316-0.78027-6.68066-3.83789-7.5625c-2.3208-1.65234-4.03247-3.99023-6.2627-5.74902"/>
			<path id="path3433_13_" fill="none" stroke="#010101" stroke-width="1.13605" d="M325.46265,370.1001
				c-6.80762,1.5918-11.32275,13.94629-1.49023,14.32227c8.36572,1.48242,17.01562,2.76465,24.16943,7.73438
				c5.73828,3.61328,14.00757,8.29688,12.61865,16.31641c-3.9873,5.72168-0.60693,11.22656,5.84692,12.55176
				c6.42163,4.88086,8.78198,13.06152,10.75073,20.68164c3.37744,6.61523,5.94287,14.90918,12.44189,18.9541
				c8.86938,3.4707,6.78418,13.49902,4.19043,20.26367c-0.2334,8.75879,9.19238,11.48828,12.82812,17.89258
				c1.41113,7.24023,7.1748,11.06152,12.38867,15.47266c6.0083,4.42188,1.09131,10.9541-3.45312,14.13086
				c-0.69336,0.5166-1.41211,0.99121-2.15771,1.42383"/>
			<path id="path3438_13_" fill="none" stroke="#010101" stroke-width="2.2721" d="M358.51147,371.02295
				c9.604,1.6123,13.22168,12.06738,14.8269,20.42188c5.81665,5.86719,7.95386,14.51953,7.9646,21.9209
				c4.76025,5.28809,14.74561,9.24219,12.27979,17.95801c-1.35693,10.77051,12.83667,10.42773,20.11328,11.97754
				c7.68237-0.11816,18.43115-2.54004,22.62695,6.02734c4.23438,8.86035,0.00293,18.75293,1.10498,28.07129
				c1.57275,13.85059,10.46875,25.66797,11.77539,39.62695c1.37891,9.89648,0.62061,19.95117-0.7207,29.80469"/>
			<path id="path3446_13_" fill="none" stroke="#010101" stroke-width="1.13605" d="M454.91089,526.17139
				c1.18799-9.80957,3.19287-19.86035,0.96045-29.67773c-0.63623-5.59375-0.12012-11.24219,0.81812-16.77441
				c1.26147-3.7373,4.11938-6.6123,6.02271-10.00879"/>
			<path id="path3490_13_" fill="none" stroke="#010101" stroke-width="1.13605" d="M392.48145,373.77295
				c0.4314,3.94922,4.92798,5.03027,8.2395,5.25684c9.1543,0.96289,17.57959,5.03027,26.42725,7.29883
				c6.13135,2.14453,11.7876,5.38086,17.6626,8.10254c2.90674,4.5918,5.81348,9.17969,8.72266,13.77051
				c0.06299,3.83496-0.73047,8.8584-4.96729,10.16992c-4.27271,1.79883-8.3916,3.93555-12.61816,5.8418
				c-4.50146,3.99219-6.5791,9.83203-9.69385,14.83008c-0.7041,1.34375-1.39941,2.69434-2.09961,4.04395"/>
			<path id="path3502_13_" fill="none" stroke="#010101" stroke-width="1.13605" d="M438.38501,452.26904
				c3.0498-2.04492,6.45312-4.16211,10.28442-3.8252c3.71069-0.41113,7.40845,0.49805,10.78638,1.96973
				c4.58691,1.41602,9.11768,3.18848,13.03369,6.00879c2.79785,1.57129,5.15796,3.76367,7.23096,6.18262
				c2.22363,2.14648,4.30396,4.57227,5.20752,7.58984c0.77393,2.28516,2.47656,4.44922,1.98779,6.95801
				c-0.08936,3.40527-0.10596,6.99707-1.87354,10.02734c-1.01587,2.44141-2.03271,4.87793-3.0498,7.32031"/>
			<path id="path3509_13_" fill="none" stroke="#010101" stroke-width="1.13605" d="M488.42041,476.59619
				c4.49438,0.8252,10.28101-1.30273,11.24683-6.22559c2.67871-4.67773,1.58057-11.37402,6.45508-14.74805
				c5.47803-1.08301,9.04297-7.15723,7.57959-12.49609c-1.1167-6.63965-7.57959-10.11328-12.69849-13.4834
				c-8.50415-5.17773-18.17603-8.32227-26.11499-14.44238c-4.19702-3.65332,0.18213-9.30762-1.8335-13.52441
				c-3.04785-4.59082-9.07617-4.8916-13.69873-7.02832c-4.80981-1.85547-10.43018-3.01367-15.22412-0.46484l-0.69824,0.24805"/>
			<path id="path3522_13_" sodipodi:nodetypes="ccccc" fill="none" stroke="#010101" stroke-width="1.13605" d="M464.67456,413.521
				c0.59985,4.16211,6.45996,7.66504,7.6665,13.13672c-2.04663,9.53418,1.76953,10.0918,11.21094,10.07812
				c3.59424,1.00977,5.3335,4.73047,6.44434,7.9834c1.2041,3.47168,1.61865,7.1416,2.09619,10.7627"/>
			<path id="path3580_13_" fill="none" stroke="#010101" stroke-width="0.90884" d="M439.76099,421.51318
				c-0.17261-4.25391-1.17285-8.58691-4.51123-11.49414c-2.10449-2.20898-3.57861-4.95508-3.70752-8.02539l-0.03564-0.1748
				l-0.00879-0.04199"/>
		</g>
	</g>
</g>
<g id="Lines">
</g>
<g id="Words">
</g>
<g id="Layer_4">
</g>
</svg>
