<?xml version="1.0" encoding="utf-8"?>
<!-- Generator: Adobe Illustrator 16.0.0, SVG Export Plug-In . SVG Version: 6.00 Build 0)  -->
<!DOCTYPE svg PUBLIC "-//W3C//DTD SVG 1.1//EN" "http://www.w3.org/Graphics/SVG/1.1/DTD/svg11.dtd">
<svg version="1.1" xmlns="http://www.w3.org/2000/svg" xmlns:xlink="http://www.w3.org/1999/xlink" x="0px" y="0px" width="234px"
	 height="70.71094px" viewBox="0 0 234 70.71094" enable-background="new 0 0 234 70.71094" xml:space="preserve">
<g id="Backgrounds">
</g>
<g id="Shapes">
</g>
<g id="Lines">
</g>
<g id="Words">
</g>
<g id="Layer_4">
	<g>
		<path fill="#8E8E8E" stroke="#000000" stroke-width="0.0205" stroke-miterlimit="10" d="M30.55078,23.0459
			c0,3.48926,0,6.97754,0,10.46582c-0.125,0.16113-0.24902,0.32617-0.37012,0.49023c-0.41309,0.55371-1.0625,0.71875-1.58105,0.3418
			c-0.46191-0.33789-0.78516-0.79297-0.78613-1.40625c0-2.15137,0-4.30273-0.00098-6.45312
			c0-0.1543,0.00977-0.31445-0.02148-0.46387c-0.01367-0.07227-0.11328-0.12793-0.17383-0.19238
			c-0.07129,0.06934-0.18164,0.12891-0.20605,0.21289c-0.03613,0.12695-0.01562,0.27051-0.01562,0.4043
			c0.00293,2.50098,0.00293,5,0.00293,7.50098c0,4.34082,0.00098,8.68164-0.00293,13.02246
			c-0.00293,0.91504-0.65625,1.8125-1.42285,1.98242c-0.79297,0.18066-1.48145-0.25098-1.90039-1.24805
			c-0.13672-0.32324-0.22266-0.69531-0.22461-1.04395c-0.01465-3.89551-0.00586-7.79004-0.01953-11.68457
			c-0.00098-0.22461-0.14453-0.44629-0.22266-0.66797c-0.07227,0.23047-0.2041,0.46191-0.20605,0.69531
			c-0.0127,3.93164,0.00293,7.86914-0.02441,11.80273c-0.00098,0.43848-0.15039,0.90625-0.33984,1.3125
			c-0.27051,0.57129-0.75391,0.9502-1.41992,0.94727c-0.66797,0-1.15234-0.37891-1.41699-0.95117
			c-0.18555-0.40625-0.33301-0.87207-0.33594-1.31348c-0.0127-6.78223,0-13.56348,0.00781-20.34766c0-0.24512,0-0.48926,0-0.71875
			c-0.58008-0.13379-0.50293,0.22656-0.50488,0.50488c-0.00195,2.2666,0.00195,4.53125-0.00195,6.79883
			c-0.00293,0.64258-0.53125,1.35547-1.08594,1.49316c-0.55762,0.1377-1.01855-0.12012-1.41504-0.7666
			c-0.06152-0.10156-0.17578-0.16992-0.26465-0.25195c0-3.64258,0-7.28809,0-10.93164
			c0.07422-0.15234,0.1543-0.30273,0.21973-0.45898c0.4375-1.03906,1.38184-1.65039,2.50781-1.62988
			c0.98633,0.01855,1.97168,0.02246,2.95605,0.03906c1.89062,0.02539,3.7793,0.0459,5.66992,0.08105
			c1.11133,0.02051,2.04297,0.7207,2.39844,1.7793C30.42188,22.60547,30.4834,22.82812,30.55078,23.0459z"/>
		<path fill="#8E8E8E" stroke="#000000" stroke-width="0.0205" stroke-miterlimit="10" d="M24.03906,14.32422
			c1.03809,0.3418,1.88672,0.8877,2.21973,2.01367c0.4209,1.42578-0.34961,2.94434-1.74512,3.4209
			c-1.41211,0.48047-2.95703-0.22949-3.49219-1.60449c-0.54688-1.41016,0.12305-3,1.50586-3.58008
			c0.19434-0.08398,0.3877-0.16699,0.58105-0.25C23.41797,14.32422,23.72852,14.32422,24.03906,14.32422z"/>
	</g>
	<g>
		<path fill="none" stroke="#000000" stroke-width="0.0205" stroke-miterlimit="10" d="M52.15918,23.0459
			c0,3.48926,0,6.97754,0,10.46582c-0.12402,0.16113-0.24805,0.32617-0.37012,0.49023
			c-0.41309,0.55371-1.0625,0.71875-1.58105,0.3418c-0.46094-0.33789-0.78467-0.79297-0.78613-1.40625
			c0-2.15137,0-4.30273-0.00098-6.45312c0-0.1543,0.00977-0.31445-0.02051-0.46387
			c-0.01367-0.07227-0.11328-0.12793-0.17383-0.19238c-0.07227,0.06934-0.18164,0.12891-0.20703,0.21289
			c-0.03516,0.12695-0.01465,0.27051-0.01465,0.4043c0.00098,2.50098,0.00098,5,0.00098,7.50098
			c0,4.34082,0.00195,8.68164-0.00195,13.02246c-0.00195,0.91504-0.65527,1.8125-1.42188,1.98242
			c-0.79297,0.18066-1.48242-0.25098-1.90039-1.24805c-0.13672-0.32324-0.22363-0.69531-0.22461-1.04395
			c-0.01562-3.89551-0.00586-7.79004-0.01953-11.68457c-0.00098-0.22461-0.14648-0.44629-0.22266-0.66797
			c-0.07227,0.23047-0.20605,0.46191-0.20703,0.69531c-0.0127,3.93164,0.00293,7.86914-0.02344,11.80273
			c-0.00293,0.43848-0.15039,0.90625-0.34082,1.3125c-0.26953,0.57129-0.75293,0.9502-1.41895,0.94727
			c-0.66895,0-1.15137-0.37891-1.41699-0.95117c-0.18652-0.40625-0.33496-0.87207-0.33594-1.31348
			c-0.01367-6.78223,0-13.56348,0.00781-20.34766c0-0.24512,0-0.48926,0-0.71875c-0.58105-0.13379-0.50488,0.22656-0.50488,0.50488
			c-0.00391,2.2666,0,4.53125-0.00391,6.79883c-0.00098,0.64258-0.5293,1.35547-1.08594,1.49316s-1.01758-0.12012-1.41406-0.7666
			c-0.06152-0.10156-0.1748-0.16992-0.26465-0.25195c0-3.64355,0-7.28906,0-10.93164
			c0.07422-0.15234,0.15332-0.30273,0.2207-0.45898c0.43652-1.03906,1.38086-1.65039,2.50879-1.62988
			c0.98438,0.01855,1.96875,0.02246,2.95508,0.03906c1.88965,0.02539,3.7793,0.0459,5.66895,0.08105
			c1.11133,0.02051,2.04395,0.7207,2.39746,1.7793C52.03125,22.60547,52.0918,22.82812,52.15918,23.0459z"/>
		<path fill="none" stroke="#000000" stroke-width="0.0205" stroke-miterlimit="10" d="M45.64746,14.32422
			c1.04004,0.3418,1.8877,0.8877,2.21973,2.0127c0.4209,1.42676-0.34961,2.94531-1.74512,3.42188
			c-1.41113,0.48047-2.95703-0.22949-3.49121-1.60449c-0.54785-1.41016,0.12207-3,1.50586-3.58008
			c0.19434-0.08398,0.3877-0.16699,0.58008-0.25C45.02734,14.32422,45.33789,14.32422,45.64746,14.32422z"/>
	</g>
	<g>
		<path fill="none" stroke="#000000" stroke-width="0.0205" stroke-miterlimit="10" d="M73.76855,23.0459
			c0,3.48926,0,6.97754,0,10.46582c-0.125,0.16113-0.25,0.32617-0.37109,0.49023c-0.41309,0.55371-1.06152,0.71875-1.5791,0.3418
			c-0.46289-0.33789-0.78516-0.79297-0.78809-1.40625c0-2.15137,0-4.30273,0-6.45312c0-0.1543,0.00977-0.31445-0.02148-0.46387
			c-0.01367-0.07227-0.11328-0.12793-0.17285-0.19238c-0.07227,0.06934-0.18262,0.12891-0.20703,0.21289
			c-0.03516,0.12695-0.01562,0.27051-0.01562,0.4043c0.00098,2.50098,0.00098,5,0.00098,7.50098
			c0,4.34082,0.00293,8.68164-0.00195,13.02246c-0.00098,0.91504-0.65527,1.8125-1.4209,1.98242
			c-0.79297,0.18066-1.4834-0.25098-1.90137-1.24805c-0.13672-0.32324-0.22363-0.69531-0.22363-1.04395
			c-0.01562-3.89551-0.00586-7.79004-0.02051-11.68457c-0.00098-0.22461-0.14551-0.44629-0.22363-0.66797
			c-0.07129,0.23047-0.2041,0.46191-0.20508,0.69531c-0.0127,3.93164,0.00293,7.86914-0.02441,11.80273
			c-0.00293,0.43848-0.15137,0.90625-0.34082,1.3125c-0.26953,0.57129-0.75195,0.9502-1.41895,0.94727
			c-0.66797,0-1.15137-0.37891-1.41699-0.95117c-0.18652-0.40625-0.33496-0.87207-0.33594-1.31348
			c-0.01367-6.78223,0-13.56348,0.00781-20.34766c0-0.24512,0-0.48926,0-0.71875c-0.58008-0.13379-0.50488,0.22656-0.50586,0.50488
			c-0.00195,2.2666,0.00098,4.53125-0.00195,6.79883c-0.00195,0.64258-0.5293,1.35547-1.08594,1.49316
			s-1.01855-0.12012-1.41406-0.7666c-0.06152-0.10156-0.17676-0.16992-0.26562-0.25195c0-3.64355,0-7.28906,0-10.93164
			c0.07324-0.15234,0.15625-0.30273,0.2207-0.45898c0.4375-1.03906,1.38184-1.65039,2.50879-1.62988
			c0.98535,0.01855,1.96973,0.02246,2.95605,0.03906c1.88965,0.02539,3.7793,0.0459,5.66797,0.08105
			c1.1123,0.02051,2.04297,0.7207,2.39844,1.7793C73.63867,22.60547,73.70117,22.82812,73.76855,23.0459z"/>
		<path fill="none" stroke="#000000" stroke-width="0.0205" stroke-miterlimit="10" d="M67.25684,14.32422
			c1.03809,0.3418,1.88672,0.8877,2.21973,2.0127c0.41992,1.42676-0.35059,2.94531-1.74512,3.42188
			c-1.41309,0.48047-2.95801-0.22949-3.49316-1.60449c-0.54688-1.41016,0.12305-3,1.50781-3.58008
			c0.19336-0.08398,0.3877-0.16699,0.5791-0.25C66.63477,14.32422,66.94727,14.32422,67.25684,14.32422z"/>
	</g>
	<g>
		<path fill="none" stroke="#000000" stroke-width="0.0205" stroke-miterlimit="10" d="M95.37695,23.0459
			c0,3.48926,0,6.97754,0,10.46582c-0.12402,0.16113-0.25,0.32617-0.37109,0.49023c-0.41211,0.55371-1.0625,0.71875-1.58008,0.3418
			c-0.46191-0.33789-0.78418-0.79297-0.78711-1.40625c0-2.15137,0-4.30273,0-6.45312c0-0.1543,0.01074-0.31445-0.02148-0.46387
			c-0.01367-0.07227-0.1123-0.12793-0.17383-0.19238c-0.07031,0.06934-0.18066,0.12891-0.20605,0.21289
			c-0.03516,0.12695-0.01465,0.27051-0.01465,0.4043c0.00098,2.50098,0.00098,5,0.00098,7.50098
			c0,4.34082,0.00293,8.68164-0.00293,13.02246c-0.00098,0.91504-0.6543,1.8125-1.4209,1.98242
			c-0.79199,0.18066-1.4834-0.25098-1.90137-1.24805c-0.13672-0.32324-0.22266-0.69531-0.22363-1.04395
			c-0.01562-3.89551-0.00684-7.79004-0.02051-11.68457c-0.00195-0.22461-0.14453-0.44629-0.22266-0.66797
			c-0.07227,0.23047-0.20508,0.46191-0.20508,0.69531c-0.01367,3.93164,0.00098,7.86914-0.02539,11.80273
			c-0.00195,0.43848-0.15137,0.90625-0.33984,1.3125c-0.26855,0.57129-0.75391,0.9502-1.41992,0.94727
			c-0.66797,0-1.15039-0.37891-1.41699-0.95117c-0.18555-0.40625-0.33398-0.87207-0.33496-1.31348
			c-0.01367-6.78223,0-13.56348,0.00684-20.34766c0-0.24512,0-0.48926,0-0.71875c-0.58008-0.13379-0.50391,0.22656-0.50488,0.50488
			c-0.00195,2.2666,0.00098,4.53125-0.00195,6.79883c-0.00391,0.64258-0.53125,1.35547-1.08594,1.49316
			c-0.55664,0.1377-1.01953-0.12012-1.41504-0.7666c-0.0625-0.10156-0.17676-0.16992-0.26514-0.25195
			c0-3.64355,0-7.28906,0-10.93164c0.07373-0.15234,0.15479-0.30273,0.22021-0.45898
			c0.4375-1.03906,1.38184-1.65039,2.50879-1.62988c0.98633,0.01855,1.9707,0.02246,2.95508,0.03906
			c1.89062,0.02539,3.78125,0.0459,5.66992,0.08105c1.11133,0.02051,2.04297,0.7207,2.39844,1.7793
			C95.24805,22.60547,95.30859,22.82812,95.37695,23.0459z"/>
		<path fill="none" stroke="#000000" stroke-width="0.0205" stroke-miterlimit="10" d="M88.86426,14.32422
			c1.03906,0.3418,1.88867,0.8877,2.21973,2.0127c0.42188,1.42676-0.34863,2.94531-1.74414,3.42188
			c-1.41211,0.48047-2.95801-0.22949-3.49219-1.60449c-0.54785-1.41016,0.12207-3,1.50684-3.58008
			c0.19385-0.08398,0.38672-0.16699,0.58008-0.25C88.24414,14.32422,88.55566,14.32422,88.86426,14.32422z"/>
	</g>
	<g>
		<path fill="none" stroke="#000000" stroke-width="0.0205" stroke-miterlimit="10" d="M116.98633,23.0459
			c0,3.48926,0,6.97754,0,10.46582c-0.125,0.16113-0.25,0.32617-0.37109,0.49023c-0.41211,0.55371-1.06152,0.71875-1.58008,0.3418
			c-0.46289-0.33789-0.78516-0.79297-0.78711-1.40625c0-2.15137,0-4.30273-0.00098-6.45312
			c0-0.1543,0.00977-0.31445-0.02051-0.46387c-0.01367-0.07227-0.11328-0.12793-0.17383-0.19238
			c-0.07031,0.06934-0.18164,0.12891-0.20605,0.21289c-0.03613,0.12695-0.01562,0.27051-0.01562,0.4043
			c0.00098,2.50098,0.00098,5,0.00098,7.50098c0,4.34082,0.00195,8.68164-0.00195,13.02246
			c-0.00195,0.91504-0.65674,1.8125-1.4209,1.98242c-0.79395,0.18066-1.4834-0.25098-1.90234-1.24805
			c-0.13574-0.32324-0.22168-0.69531-0.22363-1.04395c-0.01562-3.89551-0.00586-7.79004-0.01953-11.68457
			c-0.00195-0.22461-0.14648-0.44629-0.22266-0.66797c-0.07227,0.23047-0.20508,0.46191-0.20605,0.69531
			c-0.0127,3.93164,0.00195,7.86914-0.02441,11.80273c-0.00195,0.43848-0.15137,0.90625-0.3418,1.3125
			c-0.26855,0.57129-0.75195,0.9502-1.41895,0.94727c-0.66797,0-1.15137-0.37891-1.41699-0.95117
			c-0.18555-0.40625-0.33447-0.87207-0.33447-1.31348c-0.01416-6.78223,0-13.56348,0.00635-20.34766c0-0.24512,0-0.48926,0-0.71875
			c-0.5791-0.13379-0.50391,0.22656-0.50391,0.50488c-0.00293,2.2666,0,4.53125-0.00293,6.79883
			c-0.00293,0.64258-0.53027,1.35547-1.08691,1.49316c-0.55566,0.1377-1.01758-0.12012-1.41406-0.7666
			c-0.06152-0.10156-0.17578-0.16992-0.26367-0.25195c0-3.64355,0-7.28906,0-10.93164
			c0.07227-0.15234,0.15332-0.30273,0.21875-0.45898c0.43848-1.03906,1.38184-1.65039,2.50879-1.62988
			c0.98535,0.01855,1.9707,0.02246,2.95605,0.03906c1.88965,0.02539,3.7793,0.0459,5.66797,0.08105
			c1.11328,0.02051,2.04395,0.7207,2.39844,1.7793C116.85645,22.60547,116.91797,22.82812,116.98633,23.0459z"/>
		<path fill="none" stroke="#000000" stroke-width="0.0205" stroke-miterlimit="10" d="M110.47363,14.32422
			c1.03906,0.3418,1.88672,0.8877,2.21973,2.0127c0.42188,1.42676-0.34961,2.94531-1.74414,3.42188
			c-1.41211,0.48047-2.95703-0.22949-3.49316-1.60449c-0.54688-1.41016,0.12207-3,1.50684-3.58008
			c0.19531-0.08398,0.3877-0.16699,0.58008-0.25C109.85352,14.32422,110.16406,14.32422,110.47363,14.32422z"/>
	</g>
	<g>
		<path fill="none" stroke="#000000" stroke-width="0.0205" stroke-miterlimit="10" d="M138.5957,23.0459
			c0,3.48926,0,6.97754,0,10.46582c-0.12598,0.16113-0.25,0.32617-0.37207,0.49023c-0.41211,0.55371-1.06152,0.71875-1.58008,0.3418
			c-0.46191-0.33789-0.78613-0.79297-0.78613-1.40625c0-2.15137,0-4.30273-0.00195-6.45312
			c0-0.1543,0.01074-0.31445-0.02051-0.46387c-0.01465-0.07227-0.11328-0.12793-0.17383-0.19238
			c-0.07129,0.06934-0.18066,0.12891-0.20703,0.21289c-0.03516,0.12695-0.01465,0.27051-0.01465,0.4043
			c0.00195,2.50098,0.00195,5,0.00195,7.50098c0,4.34082,0.00195,8.68164-0.00293,13.02246
			c-0.00195,0.91504-0.65527,1.8125-1.4209,1.98242c-0.79395,0.18066-1.4834-0.25098-1.90234-1.24805
			c-0.13574-0.32324-0.22168-0.69531-0.22363-1.04395c-0.01465-3.89551-0.00586-7.79004-0.02051-11.68457
			c0-0.22461-0.14355-0.44629-0.22168-0.66797c-0.07129,0.23047-0.20508,0.46191-0.20703,0.69531
			c-0.01172,3.93164,0.00293,7.86914-0.02344,11.80273c-0.00195,0.43848-0.15137,0.90625-0.34082,1.3125
			c-0.26953,0.57129-0.75195,0.94922-1.41992,0.94727c-0.66797,0-1.15039-0.37891-1.41602-0.95117
			c-0.18555-0.40625-0.33398-0.87207-0.33496-1.31348c-0.0127-6.78223,0-13.56348,0.00684-20.34766c0-0.24512,0-0.48926,0-0.71875
			c-0.58008-0.13379-0.50391,0.22656-0.50586,0.50488c-0.00195,2.2666,0.00195,4.53125-0.00195,6.79883
			c-0.00195,0.64258-0.53027,1.35547-1.08691,1.49316c-0.55566,0.1377-1.0166-0.12012-1.41309-0.7666
			c-0.0625-0.10156-0.17578-0.16992-0.26562-0.25195c0-3.64355,0-7.28906,0-10.93164
			c0.07422-0.15234,0.15527-0.30273,0.2207-0.45898c0.43701-1.03906,1.38086-1.65039,2.50781-1.62988
			c0.9873,0.01855,1.97168,0.02246,2.95703,0.03906c1.88867,0.02539,3.7793,0.0459,5.66797,0.08105
			c1.1123,0.02051,2.04395,0.7207,2.39844,1.7793C138.46484,22.60547,138.52734,22.82812,138.5957,23.0459z"/>
		<path fill="none" stroke="#000000" stroke-width="0.0205" stroke-miterlimit="10" d="M132.08203,14.32422
			c1.03906,0.3418,1.8877,0.8877,2.2207,2.0127c0.4209,1.42676-0.35059,2.94531-1.74512,3.42188
			c-1.41113,0.48047-2.95703-0.22949-3.49316-1.60449c-0.5459-1.41016,0.12305-3,1.50684-3.58008
			c0.19531-0.08398,0.3877-0.16699,0.58105-0.25C131.46191,14.32422,131.77246,14.32422,132.08203,14.32422z"/>
	</g>
	<g>
		<path fill="none" stroke="#000000" stroke-width="0.0205" stroke-miterlimit="10" d="M160.2041,23.0459
			c0,3.48926,0,6.97754,0,10.46582c-0.12598,0.16113-0.25098,0.32617-0.37207,0.49023
			c-0.41211,0.55371-1.06152,0.71875-1.5791,0.3418c-0.46191-0.33789-0.78613-0.79297-0.78809-1.40625
			c0-2.15137,0-4.30273,0-6.45312c0-0.1543,0.00977-0.31445-0.02148-0.46387c-0.0127-0.07227-0.11328-0.12793-0.17285-0.19238
			c-0.07227,0.06934-0.18066,0.12891-0.20703,0.21289c-0.03613,0.12695-0.01514,0.27051-0.01514,0.4043
			c0.00146,2.50098,0.00146,5,0.00146,7.50098c0,4.34082,0.00293,8.68164-0.00293,13.02246
			c-0.00098,0.91504-0.65527,1.8125-1.42188,1.98242c-0.79199,0.18066-1.48145-0.25098-1.90039-1.24805
			c-0.13672-0.32324-0.22266-0.69531-0.22461-1.04395c-0.01465-3.89551-0.00586-7.79004-0.01953-11.68457
			c-0.00098-0.22461-0.14453-0.44629-0.22363-0.66797c-0.07031,0.23047-0.20312,0.46191-0.20508,0.69531
			c-0.0127,3.93164,0.00293,7.86914-0.02441,11.80273c-0.00195,0.43848-0.15234,0.90625-0.33984,1.3125
			c-0.26953,0.57129-0.75195,0.94922-1.41895,0.94727c-0.66895,0-1.15137-0.37891-1.41699-0.95117
			c-0.18652-0.40625-0.33398-0.87207-0.33594-1.31348c-0.01367-6.78223,0-13.56348,0.00684-20.34766c0-0.24512,0-0.48926,0-0.71875
			c-0.58008-0.13379-0.50391,0.22656-0.50488,0.50488c-0.00293,2.2666,0.00098,4.53125-0.00293,6.79883
			c-0.00098,0.64258-0.53027,1.35547-1.08594,1.49316s-1.01855-0.12012-1.41406-0.7666
			c-0.06152-0.10156-0.17578-0.16992-0.26562-0.25195c0-3.64355,0-7.28906,0-10.93164
			c0.0752-0.15234,0.15527-0.30273,0.22168-0.45898c0.43652-1.03906,1.38086-1.65039,2.50684-1.62988
			c0.98633,0.01855,1.9707,0.02246,2.95801,0.03906c1.88867,0.02539,3.77832,0.0459,5.66797,0.08105
			c1.11133,0.02051,2.04297,0.7207,2.39844,1.7793C160.07422,22.60547,160.13672,22.82812,160.2041,23.0459z"/>
		<path fill="none" stroke="#000000" stroke-width="0.0205" stroke-miterlimit="10" d="M153.69141,14.32422
			c1.03906,0.3418,1.8877,0.8877,2.2207,2.0127c0.41992,1.42676-0.35059,2.94531-1.74609,3.42188
			c-1.41211,0.48047-2.95703-0.22949-3.49268-1.60449c-0.54639-1.41016,0.12158-3,1.5083-3.58008
			c0.19336-0.08398,0.38672-0.16699,0.58008-0.25C153.07031,14.32422,153.38184,14.32422,153.69141,14.32422z"/>
	</g>
	<g>
		<path fill="none" stroke="#000000" stroke-width="0.0205" stroke-miterlimit="10" d="M181.8125,23.0459
			c0,3.48926,0,6.97754,0,10.46582c-0.125,0.16113-0.25,0.32617-0.37109,0.49023c-0.41309,0.55371-1.06152,0.71875-1.58008,0.3418
			c-0.46191-0.33789-0.78516-0.79297-0.78711-1.40625c0-2.15137,0-4.30273,0-6.45312c0-0.1543,0.00977-0.31445-0.02246-0.46387
			c-0.0127-0.07227-0.11328-0.12793-0.17285-0.19238c-0.07031,0.06934-0.18066,0.12891-0.20703,0.21289
			c-0.03613,0.12695-0.01465,0.27051-0.01465,0.4043c0.00098,2.50098,0.00098,5,0.00098,7.50098
			c0,4.34082,0.00293,8.68164-0.00195,13.02246c-0.00098,0.91504-0.65625,1.8125-1.42188,1.98242
			c-0.79297,0.18066-1.48242-0.25098-1.90137-1.24805c-0.13574-0.32324-0.22266-0.69531-0.22461-1.04395
			c-0.01465-3.89551-0.00488-7.79004-0.01855-11.68457c-0.00098-0.22461-0.14551-0.44629-0.22363-0.66797
			c-0.07129,0.23047-0.2041,0.46191-0.20508,0.69531c-0.0127,3.93164,0.00293,7.86914-0.02441,11.80273
			c-0.00293,0.43848-0.15137,0.90625-0.34082,1.3125c-0.26855,0.57129-0.75293,0.94922-1.41992,0.94727
			c-0.66895,0-1.15137-0.37891-1.41602-0.95117c-0.18652-0.40625-0.33398-0.87207-0.33496-1.31348
			c-0.01465-6.78223,0-13.56348,0.00586-20.34766c0-0.24512,0-0.48926,0-0.71875c-0.58008-0.13379-0.50391,0.22656-0.50488,0.50488
			c-0.00098,2.2666,0.00098,4.53125-0.00098,6.79883c-0.00293,0.64258-0.53125,1.35547-1.08789,1.49316
			c-0.55469,0.1377-1.01758-0.12012-1.41406-0.7666c-0.06055-0.10156-0.17578-0.16992-0.26465-0.25195
			c0-3.64355,0-7.28906,0-10.93164c0.07422-0.15234,0.15527-0.30273,0.22168-0.45898
			c0.43555-1.03906,1.37988-1.65039,2.50586-1.62988c0.98633,0.01855,1.97168,0.02246,2.95703,0.03906
			c1.88965,0.02539,3.7793,0.0459,5.66992,0.08105c1.11035,0.02051,2.04297,0.7207,2.39746,1.7793
			C181.68262,22.60547,181.74414,22.82812,181.8125,23.0459z"/>
		<path fill="none" stroke="#000000" stroke-width="0.0205" stroke-miterlimit="10" d="M175.30078,14.32422
			c1.03906,0.3418,1.88672,0.8877,2.21973,2.0127c0.41895,1.42676-0.35059,2.94531-1.74512,3.42188
			c-1.41309,0.48047-2.95898-0.22949-3.49316-1.60449c-0.5459-1.41016,0.12207-3,1.50684-3.58008
			c0.19434-0.08398,0.3877-0.16699,0.58105-0.25C174.67871,14.32422,174.99023,14.32422,175.30078,14.32422z"/>
	</g>
	<g>
		<path fill="none" stroke="#000000" stroke-width="0.0205" stroke-miterlimit="10" d="M203.4209,23.0459
			c0,3.48926,0,6.97754,0,10.46582c-0.12598,0.16113-0.24902,0.32617-0.37109,0.49023
			c-0.41211,0.55469-1.06152,0.71875-1.58008,0.3418c-0.46191-0.33789-0.78613-0.79297-0.78613-1.40625
			c0-2.15137,0-4.30273-0.00098-6.45312c0-0.1543,0.01074-0.31445-0.02051-0.46387
			c-0.01465-0.07227-0.11426-0.12793-0.17383-0.19238c-0.07227,0.06934-0.18262,0.12891-0.20703,0.21289
			c-0.03711,0.12695-0.01562,0.27051-0.01562,0.4043c0.00195,2.50098,0.00195,5,0.00195,7.50098
			c0,4.34082,0.00098,8.68164-0.00293,13.02246c-0.00098,0.91504-0.65527,1.8125-1.4209,1.98242
			c-0.79297,0.18066-1.48242-0.25098-1.90137-1.24805c-0.1377-0.32324-0.22363-0.69531-0.22461-1.04395
			c-0.01465-3.89551-0.00488-7.79004-0.01953-11.68457c-0.00098-0.22461-0.14551-0.44629-0.22266-0.66797
			c-0.07227,0.23047-0.2041,0.46191-0.20605,0.69531c-0.0127,3.93164,0.00293,7.86914-0.02344,11.80273
			c-0.00293,0.43848-0.15234,0.90625-0.3418,1.3125c-0.26855,0.57129-0.75195,0.94922-1.41895,0.94727
			c-0.66895,0-1.15137-0.37891-1.41602-0.95117c-0.1875-0.40625-0.33496-0.87207-0.33691-1.31348
			c-0.0127-6.78223,0-13.56348,0.00781-20.34766c0-0.24512,0-0.48926,0-0.71875c-0.58008-0.13379-0.50391,0.22656-0.50488,0.50488
			c-0.00293,2.2666,0.00098,4.53125-0.00293,6.79883c-0.00195,0.64258-0.53027,1.35547-1.08594,1.49316
			c-0.55664,0.1377-1.01855-0.12012-1.41504-0.7666c-0.06055-0.10156-0.1748-0.16992-0.26367-0.25195
			c0-3.64355,0-7.28906,0-10.93164c0.07227-0.15234,0.1543-0.30273,0.21973-0.45898c0.4375-1.03906,1.38086-1.65039,2.50781-1.62988
			c0.98633,0.01855,1.9707,0.02246,2.95703,0.04004c1.88965,0.02441,3.77832,0.04492,5.66797,0.08008
			c1.11133,0.02051,2.04395,0.7207,2.39844,1.7793C203.29102,22.60547,203.35254,22.82812,203.4209,23.0459z"/>
		<path fill="none" stroke="#000000" stroke-width="0.0205" stroke-miterlimit="10" d="M196.90918,14.32422
			c1.03809,0.3418,1.8877,0.8877,2.21973,2.0127c0.41943,1.42676-0.34961,2.94531-1.74512,3.42188
			c-1.41211,0.48047-2.95801-0.22949-3.49316-1.60449c-0.54688-1.41016,0.12305-3,1.50781-3.58008
			c0.19336-0.08398,0.38672-0.16699,0.58008-0.25C196.28711,14.32422,196.59863,14.32422,196.90918,14.32422z"/>
	</g>
</g>
</svg>
