<?xml version="1.0" encoding="utf-8"?>
<!-- Generator: Adobe Illustrator 16.0.0, SVG Export Plug-In . SVG Version: 6.00 Build 0)  -->
<!DOCTYPE svg PUBLIC "-//W3C//DTD SVG 1.1//EN" "http://www.w3.org/Graphics/SVG/1.1/DTD/svg11.dtd">
<svg version="1.1" xmlns="http://www.w3.org/2000/svg" xmlns:xlink="http://www.w3.org/1999/xlink" x="0px" y="0px" width="408px"
	 height="408px" viewBox="0 0 408 408" enable-background="new 0 0 408 408" xml:space="preserve">
<g id="Backgrounds">
</g>
<g id="Shapes">
	<g>
		<text transform="matrix(0.99999 0 0 1 282.60254 75.36719)" font-family="'ArialMT'" font-size="58.14596">P</text>
		<text transform="matrix(0.99999 0 0 1 282.60254 176.13574)" font-family="'ArialMT'" font-size="58.14596">N</text>
		<text transform="matrix(0.99999 0 0 1 282.60254 276.9043)" font-family="'ArialMT'" font-size="58.14596">D</text>
		<text transform="matrix(0.99999 0 0 1 282.60254 377.67188)" font-family="'ArialMT'" font-size="58.14596">R</text>
		<g>
			<path fill="#FFFFFF" d="M222.77148,382.22852c0,11.17773-9.14551,20.32422-20.32324,20.32422l-52.72754-0.00098
				c-11.17822,0-20.32373-9.14551-20.32373-20.32324V25.76953c0-11.17773,9.14551-20.32324,20.32373-20.32324l52.72754,0.00098
				c11.17773,0,20.32324,9.14648,20.32324,20.32422V382.22852z"/>
			<path fill="none" stroke="#000000" stroke-width="4.2922" stroke-linejoin="round" stroke-miterlimit="10" d="
				M222.77148,382.22852c0,11.17773-9.14551,20.32422-20.32324,20.32422l-52.72754-0.00098
				c-11.17822,0-20.32373-9.14551-20.32373-20.32324V25.76953c0-11.17773,9.14551-20.32324,20.32373-20.32324l52.72754,0.00098
				c11.17773,0,20.32324,9.14648,20.32324,20.32422V382.22852z"/>
		</g>
		
			<rect x="167.86035" y="69.4043" stroke="#000000" stroke-width="4.09335" stroke-linejoin="round" stroke-miterlimit="10" width="15.01123" height="273.27148"/>
		<g>
			<path d="M263.47314,269.49121c0,10.66016-8.72168,19.38184-19.38184,19.38184l-138.53809-0.00098
				c-10.66016,0-19.38184-8.72168-19.38184-19.38184v-19.27246c0-10.66016,8.72168-19.38184,19.38184-19.38184h138.53809
				c10.66016,0,19.38184,8.72168,19.38184,19.38184V269.49121z"/>
			<path fill="none" stroke="#000000" stroke-width="4.09335" stroke-linejoin="round" stroke-miterlimit="10" d="
				M263.47314,269.49121c0,10.66016-8.72168,19.38184-19.38184,19.38184l-138.53809-0.00098
				c-10.66016,0-19.38184-8.72168-19.38184-19.38184v-19.27246c0-10.66016,8.72168-19.38184,19.38184-19.38184h138.53809
				c10.66016,0,19.38184,8.72168,19.38184,19.38184V269.49121z"/>
		</g>
		<g>
			<path fill="#FFFFFF" d="M238.92285,245.69434c0,2.66504-2.18066,4.8457-4.8457,4.8457l-118.87549,0.00098
				c-2.66504,0-4.8457-2.18066-4.8457-4.8457v-2.58301c0-2.66504,2.18066-4.8457,4.8457-4.8457l118.87549-0.00098
				c2.66504,0,4.8457,2.18066,4.8457,4.8457V245.69434z"/>
			<path fill="none" stroke="#000000" stroke-width="0.9691" stroke-miterlimit="10" d="M238.92285,245.69434
				c0,2.66504-2.18066,4.8457-4.8457,4.8457l-118.87549,0.00098c-2.66504,0-4.8457-2.18066-4.8457-4.8457v-2.58301
				c0-2.66504,2.18066-4.8457,4.8457-4.8457l118.87549-0.00098c2.66504,0,4.8457,2.18066,4.8457,4.8457V245.69434z"/>
		</g>
	</g>
</g>
<g id="Lines">
</g>
<g id="Words">
</g>
<g id="Layer_4">
</g>
</svg>
