<?xml version="1.0" encoding="utf-8"?>
<!-- Generator: Adobe Illustrator 16.0.0, SVG Export Plug-In . SVG Version: 6.00 Build 0)  -->
<!DOCTYPE svg PUBLIC "-//W3C//DTD SVG 1.1//EN" "http://www.w3.org/Graphics/SVG/1.1/DTD/svg11.dtd">
<svg version="1.1" id="Layer_1" xmlns="http://www.w3.org/2000/svg" xmlns:xlink="http://www.w3.org/1999/xlink" x="0px" y="0px"
	 width="37px" height="40px" viewBox="0 0 37 40" enable-background="new 0 0 37 40" xml:space="preserve">
<g>
	<defs>
		<rect id="SVGID_1_" width="37" height="40"/>
	</defs>
	<clipPath id="SVGID_2_">
		<use xlink:href="#SVGID_1_"  overflow="visible"/>
	</clipPath>
	<path clip-path="url(#SVGID_2_)" fill-rule="evenodd" clip-rule="evenodd" d="M17.73682,12.08984
		c-5.44678,0.05127-10.88623,0.63525-16.18896,1.76221c2.33789,14.80811,11.59082,22.01904,16.18896,24.55811V12.08984z
		 M10.80566,15.0708c-3.25879,0-5.91064,2.65234-5.91064,5.91162c0,3.26074,2.65186,5.91211,5.91064,5.91211
		c3.26025,0,5.91211-2.65137,5.91211-5.91211C16.71777,17.72314,14.06592,15.0708,10.80566,15.0708 M11.06104,20.72754h2.2959
		c-0.01611-0.44043-0.07715-0.87646-0.17822-1.30371c-0.69482,0.12305-1.40283,0.19238-2.11768,0.20508V20.72754z
		 M13.03857,18.93115c-0.14355-0.45215-0.33496-0.89111-0.57178-1.30811c-0.46289,0.07178-0.93408,0.11279-1.40576,0.125v1.37305
		C11.729,19.10791,12.3877,19.04297,13.03857,18.93115 M12.1709,17.1499c-0.31299-0.46582-0.68506-0.90381-1.10986-1.2998v1.38574
		C11.43164,17.22803,11.80273,17.2002,12.1709,17.1499 M12.72363,17.06104c0.46094-0.08789,0.91895-0.20801,1.36523-0.35986
		c-0.71729-0.55029-1.57227-0.92432-2.5083-1.05811C12.02197,16.07617,12.40283,16.55518,12.72363,17.06104 M9.43359,17.14893
		c0.37012,0.05029,0.74512,0.0791,1.11719,0.08691V15.8418C10.12256,16.24023,9.74902,16.68018,9.43359,17.14893 M10.02295,15.64404
		c-0.93213,0.13477-1.78613,0.50879-2.49902,1.05713c0.44482,0.15186,0.89795,0.27197,1.35791,0.35791
		C9.20166,16.55518,9.58301,16.07812,10.02295,15.64404 M9.13965,17.62207c-0.23779,0.41699-0.42676,0.85596-0.57275,1.30811
		c0.65283,0.11279,1.31494,0.17773,1.98389,0.19092v-1.37305C10.07666,17.73584,9.604,17.69482,9.13965,17.62207 M8.42578,19.42188
		c-0.10205,0.42822-0.16211,0.86523-0.17822,1.30566h2.30322v-1.09863C9.83398,19.61621,9.12402,19.54688,8.42578,19.42188
		 M7.92773,19.32422c-0.68701-0.15039-1.35889-0.354-2.01807-0.6123c-0.28809,0.61816-0.45898,1.2998-0.4917,2.01562h2.32178
		C7.75586,20.25391,7.81885,19.78223,7.92773,19.32422 M5.41797,21.2373c0.03271,0.71875,0.20361,1.39844,0.4917,2.0166
		c0.65918-0.25781,1.33105-0.46191,2.01807-0.61133c-0.10889-0.45898-0.17188-0.92969-0.18799-1.40527H5.41797z M8.42773,22.54297
		c0.69727-0.125,1.40625-0.19336,2.12305-0.20703V21.2373H8.24756C8.26562,21.67969,8.32373,22.11719,8.42773,22.54297
		 M8.56885,23.03516c0.14404,0.45312,0.33496,0.89258,0.57275,1.31055c0.46729-0.07227,0.93799-0.11328,1.40918-0.125v-1.375
		C9.88184,22.8584,9.21973,22.92383,8.56885,23.03516 M9.43359,24.81738c0.31543,0.46875,0.68896,0.90723,1.11719,1.30762v-1.39746
		C10.17871,24.73926,9.80371,24.76758,9.43359,24.81738 M8.88184,24.90625c-0.45996,0.08691-0.91309,0.20703-1.35791,0.3584
		c0.71289,0.54688,1.56689,0.9209,2.49902,1.05762C9.58301,25.88672,9.20166,25.41211,8.88184,24.90625 M12.16992,24.81445
		c-0.36719-0.04883-0.73828-0.0752-1.10889-0.08691v1.38965C11.48584,25.71875,11.85791,25.2832,12.16992,24.81445
		 M11.58057,26.32422c0.93604-0.1377,1.79102-0.50977,2.5083-1.05957c-0.44629-0.15234-0.9043-0.27246-1.36523-0.36035
		C12.40283,25.41211,12.02197,25.8877,11.58057,26.32422 M12.46484,24.34473c0.23682-0.41895,0.42773-0.8584,0.57373-1.31055
		c-0.65088-0.1123-1.30957-0.17578-1.97754-0.18848v1.375C11.52979,24.23242,12,24.27344,12.46484,24.34473 M13.17871,22.54297
		c0.1001-0.42676,0.16211-0.86328,0.17822-1.30566h-2.2959v1.09863C11.77588,22.34961,12.48389,22.41797,13.17871,22.54297
		 M13.67773,22.6416c0.68701,0.14941,1.36426,0.35449,2.02393,0.6123c0.28906-0.61816,0.45996-1.29883,0.49316-2.0166h-2.33008
		C13.84863,21.71191,13.78564,22.18359,13.67773,22.6416 M16.19482,20.72754c-0.0332-0.71582-0.2041-1.39746-0.49316-2.01562
		c-0.65967,0.25928-1.33691,0.46289-2.02393,0.6123c0.10791,0.45898,0.1709,0.92969,0.18701,1.40332H16.19482z M14.53467,17.08203
		c-0.50488,0.18799-1.01904,0.33594-1.54395,0.44482c0.22705,0.41992,0.41016,0.85596,0.55029,1.30615
		c0.65283-0.14014,1.2959-0.33203,1.92383-0.5752C15.20996,17.82422,14.89697,17.42822,14.53467,17.08203 M6.14795,18.25781
		C6.77393,18.5,7.4126,18.69092,8.06396,18.83203c0.13867-0.4502,0.32471-0.88721,0.5498-1.30713
		c-0.521-0.10889-1.03418-0.25488-1.53516-0.44287C6.7168,17.42822,6.40283,17.82422,6.14795,18.25781 M7.07861,24.88477
		c0.50098-0.18652,1.01416-0.33398,1.53711-0.44141c-0.22705-0.42188-0.41309-0.85938-0.55176-1.30957
		c-0.65137,0.14062-1.29004,0.33301-1.91602,0.57324C6.40283,24.14258,6.7168,24.53906,7.07861,24.88477 M15.46484,23.70703
		c-0.62793-0.24219-1.271-0.43359-1.92383-0.5752c-0.14014,0.45215-0.3252,0.88965-0.55029,1.30957
		c0.52197,0.1084,1.03906,0.25488,1.54395,0.44336C14.89697,24.53906,15.20996,24.14258,15.46484,23.70703"/>
	<path clip-path="url(#SVGID_2_)" d="M1.00195,6.67139L1,3.6333c0-0.41211,0.28613-0.75586,0.66699-0.85205l0.021-0.00586
		C7.10986,1.61523,12.73389,1.00049,18.5,1.00049c5.75879,0,11.37598,0.61279,16.79004,1.77002l0.0127,0.00488
		C35.7002,2.85742,36,3.21143,36,3.6333l-0.00098,3.03809c0,1.99707-0.12109,3.87891-0.33691,5.66211
		C24.42383,9.96045,12.59619,9.95947,1.34033,12.3374C1.12305,10.55225,1.00195,8.66943,1.00195,6.67139 M18.49609,3.56543
		c-2.64209-0.97217-6.4248-1.18311-8.72412-0.70117L8.77002,3.64258L8.50195,3.68359
		c-0.0918,0.01172-0.16162,0.07568-0.19189,0.13281l-2.7959,6.18018c-0.08984,0.17188,0.0498,0.31689,0.21094,0.28564
		c4.25586-0.80859,8.76904-1.05762,12.77295-1.05762h0.00391c4.00293,0,8.51758,0.24902,12.77344,1.05762
		c0.16016,0.03125,0.30273-0.11377,0.21191-0.28564l-2.79688-6.18018c-0.03027-0.05713-0.10156-0.12109-0.19141-0.13281
		l-0.26855-0.04102l-1.00293-0.77832c-2.29883-0.48193-6.08301-0.271-8.72363,0.70117H18.49609z"/>
	<path clip-path="url(#SVGID_2_)" d="M18.28613,8.37891C14.84131,7.25,10.89111,7.08008,8.08105,7.61084l1.39014-3.95117
		L8.54834,4.35889L6.63232,9.34814c2.55566-0.41504,8.32959-0.88232,11.18896-0.84326
		C17.93799,8.45312,18.08105,8.37891,18.28613,8.37891"/>
	<path clip-path="url(#SVGID_2_)" d="M18.6709,8.37891C22.11621,7.25,26.07129,7.08008,28.88184,7.61084L27.4873,3.65967
		l0.92285,0.69922l1.91699,4.98926c-2.55664-0.41504-8.33008-0.88232-11.19141-0.84326
		C19.02051,8.45312,18.87793,8.37891,18.6709,8.37891"/>
	<path clip-path="url(#SVGID_2_)" d="M19.26367,23.23438V38.4082c0.92383-0.50781,2.03516-1.21094,3.24023-2.11914V25.38965
		L19.26367,23.23438z"/>
	<path clip-path="url(#SVGID_2_)" d="M22.50391,12.1875c-1.0791-0.05078-2.16016-0.08789-3.24023-0.09814v3.60205l3.24023,2.1543
		V12.1875z"/>
	<path clip-path="url(#SVGID_2_)" d="M28.98242,22.16016v-9.39795C27.90625,12.625,26.82715,12.5,25.74414,12.4043v7.59766
		L28.98242,22.16016z"/>
	<path clip-path="url(#SVGID_2_)" d="M25.74414,27.54688v5.92676c1.08887-1.08105,2.18652-2.33496,3.23828-3.76172v-0.00879
		L25.74414,27.54688z"/>
	<polygon clip-path="url(#SVGID_2_)" points="28.98242,29.71191 28.98828,29.70703 28.98242,29.70312 	"/>
	<path clip-path="url(#SVGID_2_)" d="M32.22949,24.32031c1.43066-2.9668,2.58594-6.43408,3.22363-10.47217
		c-1.07227-0.22803-2.14844-0.42969-3.23242-0.61084v11.07715L32.22949,24.32031z"/>
	<polygon clip-path="url(#SVGID_2_)" points="22.50391,17.84766 22.50391,25.39062 25.74414,27.54688 25.74414,20.00195 	"/>
	<path clip-path="url(#SVGID_2_)" d="M32.2207,24.31445l-3.23828-2.1543v7.54297l0.00586,0.00391
		c1.15723-1.56836,2.25879-3.35547,3.23242-5.36914V24.31445z"/>
	<path clip-path="url(#SVGID_2_)" d="M32.2207,24.33789c0.00195-0.00586,0.00488-0.0127,0.00879-0.01758l-0.00879-0.00586V24.33789z
		"/>
</g>
</svg>
