<?xml version="1.0" encoding="utf-8"?>
<!-- Generator: Adobe Illustrator 16.0.0, SVG Export Plug-In . SVG Version: 6.00 Build 0)  -->
<!DOCTYPE svg PUBLIC "-//W3C//DTD SVG 1.1//EN" "http://www.w3.org/Graphics/SVG/1.1/DTD/svg11.dtd">
<svg version="1.1" id="Layer_1" xmlns="http://www.w3.org/2000/svg" xmlns:xlink="http://www.w3.org/1999/xlink" x="0px" y="0px"
	 width="37px" height="40px" viewBox="0 0 37 40" enable-background="new 0 0 37 40" xml:space="preserve">
<polygon fill="#FFFFFF" points="28.683,22.056 25.536,19.959 25.536,27.288 28.683,29.384 "/>
<g>
	<g>
		<path fill="#FFFFFF" d="M28.399,4.237c-0.03-0.057-0.099-0.119-0.187-0.131l-0.261-0.039l-0.975-0.756
			c-2.232-0.467-5.908-0.264-8.474,0.682h-0.008c-2.566-0.946-6.241-1.149-8.475-0.682L9.048,4.067L8.787,4.106
			C8.698,4.118,8.63,4.18,8.601,4.237l-2.716,6.002c-0.087,0.168,0.049,0.309,0.206,0.278c4.133-0.786,8.517-1.028,12.407-1.028
			h0.004c3.889,0,8.273,0.242,12.408,1.028c0.156,0.031,0.295-0.11,0.206-0.278L28.399,4.237z M17.841,8.79
			c-2.778-0.037-8.387,0.416-10.87,0.82l1.861-4.845l0.896-0.681L8.379,7.923c2.729-0.516,6.566-0.352,9.914,0.746
			C18.094,8.669,17.955,8.741,17.841,8.79 M19.118,8.79c-0.112-0.049-0.251-0.121-0.452-0.121c3.348-1.098,7.188-1.262,9.919-0.746
			L27.23,4.084l0.896,0.681l1.862,4.845C27.506,9.206,21.896,8.753,19.118,8.79"/>
	</g>
	<g>
		<path fill="#FFFFFF" d="M11.025,26.655c3.167,0,5.743-2.576,5.743-5.744c0-3.166-2.576-5.742-5.743-5.742
			c-3.165,0-5.742,2.576-5.742,5.742C5.284,24.079,7.86,26.655,11.025,26.655 M11.778,26.102c0.429-0.425,0.8-0.886,1.11-1.38
			c0.448,0.086,0.893,0.203,1.326,0.35C13.519,25.606,12.688,25.968,11.778,26.102 M14.648,24.702c-0.49-0.182-0.993-0.324-1.5-0.43
			c0.219-0.408,0.397-0.834,0.534-1.273c0.635,0.139,1.259,0.324,1.869,0.562C15.305,23.981,15,24.366,14.648,24.702 M15.783,23.118
			c-0.642-0.25-1.299-0.449-1.967-0.594c0.105-0.445,0.166-0.904,0.183-1.365h2.263C16.229,21.856,16.063,22.52,15.783,23.118
			 M16.262,20.665h-2.263c-0.017-0.461-0.078-0.918-0.183-1.363c0.668-0.147,1.325-0.344,1.967-0.596
			C16.063,19.308,16.229,19.97,16.262,20.665 M15.551,18.265c-0.61,0.236-1.234,0.423-1.869,0.558
			c-0.137-0.437-0.313-0.859-0.534-1.267c0.51-0.106,1.01-0.25,1.5-0.434C15,17.458,15.305,17.845,15.551,18.265 M14.214,16.753
			c-0.433,0.148-0.878,0.264-1.326,0.349c-0.31-0.492-0.681-0.957-1.11-1.376C12.688,15.856,13.519,16.22,14.214,16.753
			 M11.272,15.927c0.414,0.384,0.775,0.808,1.079,1.261c-0.357,0.049-0.718,0.077-1.079,0.084V15.927z M11.272,17.77
			c0.46-0.011,0.917-0.05,1.367-0.121c0.231,0.405,0.415,0.832,0.556,1.27c-0.633,0.109-1.274,0.172-1.923,0.185V17.77z
			 M11.272,19.597c0.694-0.012,1.383-0.08,2.059-0.2c0.098,0.414,0.157,0.84,0.172,1.268h-2.231V19.597z M11.272,21.159h2.231
			c-0.015,0.43-0.075,0.854-0.172,1.27c-0.676-0.123-1.365-0.189-2.059-0.201V21.159z M11.272,22.722
			c0.649,0.012,1.29,0.074,1.923,0.184c-0.143,0.439-0.327,0.865-0.558,1.273c-0.452-0.07-0.908-0.109-1.365-0.121V22.722z
			 M11.272,24.552c0.361,0.01,0.722,0.035,1.078,0.082c-0.303,0.457-0.664,0.879-1.078,1.266V24.552z M5.792,21.159h2.256
			c0.016,0.463,0.077,0.92,0.182,1.365c-0.666,0.145-1.319,0.344-1.959,0.594C5.991,22.52,5.825,21.858,5.792,21.159 M6.5,23.561
			c0.608-0.235,1.229-0.423,1.862-0.56c0.135,0.438,0.315,0.863,0.536,1.273c-0.509,0.104-1.007,0.248-1.493,0.428
			C7.054,24.366,6.75,23.981,6.5,23.561 M7.836,25.071c0.433-0.146,0.873-0.264,1.32-0.348c0.311,0.492,0.681,0.953,1.108,1.375
			C9.359,25.966,8.53,25.604,7.836,25.071 M10.777,25.907c-0.415-0.389-0.778-0.814-1.085-1.27c0.359-0.049,0.724-0.076,1.085-0.086
			V25.907z M10.777,24.058c-0.457,0.012-0.915,0.051-1.368,0.121c-0.232-0.406-0.417-0.832-0.558-1.273
			c0.633-0.107,1.276-0.172,1.926-0.184V24.058z M10.777,22.228c-0.696,0.012-1.385,0.078-2.063,0.201
			c-0.1-0.414-0.157-0.84-0.173-1.27h2.236V22.228z M10.777,20.665H8.542c0.014-0.428,0.073-0.854,0.171-1.27
			c0.679,0.122,1.369,0.19,2.065,0.202V20.665z M10.777,19.104c-0.65-0.013-1.293-0.076-1.928-0.187
			c0.143-0.438,0.326-0.865,0.558-1.27c0.45,0.073,0.91,0.112,1.37,0.123V19.104L10.777,19.104z M10.777,17.272
			c-0.361-0.007-0.726-0.035-1.085-0.084c0.307-0.457,0.67-0.882,1.085-1.269V17.272z M10.265,15.726
			c-0.427,0.421-0.797,0.884-1.108,1.375c-0.447-0.084-0.887-0.2-1.32-0.348C8.53,16.222,9.359,15.858,10.265,15.726 M7.405,17.122
			c0.486,0.184,0.984,0.326,1.491,0.432c-0.219,0.408-0.399,0.832-0.534,1.269c-0.633-0.137-1.254-0.322-1.862-0.558
			C6.75,17.845,7.054,17.458,7.405,17.122 M6.271,18.706c0.64,0.25,1.293,0.449,1.959,0.596c-0.105,0.443-0.166,0.902-0.182,1.363
			H5.792C5.825,19.97,5.991,19.308,6.271,18.706"/>
	</g>
	<g>
		<path fill="#FFFFFF" d="M34.977,2.747l-0.004-0.002L34.916,2.73C29.542,1.582,24.019,1,18.5,1C12.977,1,7.446,1.583,2.064,2.735
			L2.042,2.741L1.998,2.755C1.423,2.895,1,3.436,1,4.059l0.001,2.952c0,20.898,12.889,29.352,16.839,31.443
			c0.226,0.12,0.445,0.18,0.668,0.18c0.22,0,0.436-0.06,0.656-0.18C23.108,36.364,36,27.909,36,7.011V4.059
			C36,3.44,35.573,2.895,34.977,2.747 M17.76,37.841C13.292,35.376,4.303,28.37,2.032,13.986c5.152-1.096,10.436-1.663,15.728-1.711
			V37.841z M31.838,24.155c-0.004,0.004-0.007,0.01-0.009,0.016c-0.946,1.957-2.016,3.693-3.141,5.217
			c-0.002,0.002-0.004,0.002-0.006,0.004c-1.021,1.387-2.088,2.605-3.146,3.654v-5.758l-3.147-2.094v10.587
			c-1.171,0.882-2.25,1.565-3.148,2.06V23.099l3.148,2.094v-7.327l3.147,2.094v-7.381c1.052,0.094,2.101,0.215,3.146,0.348v9.129
			l3.146,2.094V13.388c1.053,0.176,2.099,0.373,3.14,0.594C34.35,17.906,33.228,21.272,31.838,24.155 M19.241,15.772v-3.498
			c1.05,0.007,2.1,0.045,3.148,0.093v5.497L19.241,15.772z M35.499,7.011c0,1.939-0.117,3.768-0.327,5.498
			c-10.918-2.305-22.407-2.305-33.342,0.006c-0.211-1.734-0.328-3.563-0.328-5.504L1.5,4.059c0-0.4,0.277-0.736,0.648-0.828
			l0.021-0.006C7.436,2.098,12.899,1.5,18.5,1.5c5.594,0,11.051,0.596,16.311,1.719l0.013,0.006c0.386,0.08,0.677,0.422,0.677,0.834
			L35.499,7.011z"/>
	</g>
</g>
</svg>
