<svg xmlns="http://www.w3.org/2000/svg" xmlns:xlink="http://www.w3.org/1999/xlink" viewBox="0 0 1354.66 918.18">
  <defs>
    <style>
      .brain-sees-options-1 {
        fill: #bababa;
      }

      .brain-sees-options-1, .brain-sees-options-10, .brain-sees-options-11, .brain-sees-options-12, .brain-sees-options-13, .brain-sees-options-14, .brain-sees-options-15, .brain-sees-options-2, .brain-sees-options-3, .brain-sees-options-4, .brain-sees-options-5, .brain-sees-options-6, .brain-sees-options-8, .brain-sees-options-9 {
        stroke: #010101;
      }

      .brain-sees-options-1, .brain-sees-options-10, .brain-sees-options-11, .brain-sees-options-12, .brain-sees-options-2, .brain-sees-options-3, .brain-sees-options-4, .brain-sees-options-5, .brain-sees-options-6, .brain-sees-options-8, .brain-sees-options-9 {
        stroke-linecap: round;
        stroke-linejoin: round;
      }

      .brain-sees-options-1, .brain-sees-options-2, .brain-sees-options-4, .brain-sees-options-5 {
        stroke-width: 0.71px;
      }

      .brain-sees-options-10, .brain-sees-options-11, .brain-sees-options-12, .brain-sees-options-13, .brain-sees-options-14, .brain-sees-options-15, .brain-sees-options-2, .brain-sees-options-8 {
        fill: none;
      }

      .brain-sees-options-3 {
        fill: #d1d2d1;
      }

      .brain-sees-options-15, .brain-sees-options-3, .brain-sees-options-8 {
        stroke-width: 0.35px;
      }

      .brain-sees-options-4, .brain-sees-options-9 {
        fill: #fff;
      }

      .brain-sees-options-5 {
        fill: #c4c4c3;
      }

      .brain-sees-options-6, .brain-sees-options-7 {
        fill: #7d7d7d;
      }

      .brain-sees-options-6 {
        stroke-width: 1.06px;
      }

      .brain-sees-options-12, .brain-sees-options-9 {
        stroke-width: 1.33px;
      }

      .brain-sees-options-10, .brain-sees-options-14 {
        stroke-width: 0.88px;
      }

      .brain-sees-options-11, .brain-sees-options-13 {
        stroke-width: 0.44px;
      }

      .brain-sees-options-16 {
        fill: #231f20;
        stroke: #969696;
      }

      .brain-sees-options-16, .brain-sees-options-17, .brain-sees-options-20 {
        stroke-miterlimit: 10;
      }

      .brain-sees-options-17 {
        font-size: 60px;
        fill: #d8d8d8;
        stroke: #434343;
        font-family: Arial-BoldMT, Arial;
        font-weight: 700;
      }

      .brain-sees-options-18 {
        letter-spacing: -0.04em;
      }

      .brain-sees-options-19 {
        font-family: ArialMT, Arial;
        font-weight: 400;
      }

      .brain-sees-options-20 {
        stroke: #231f20;
        opacity: 0.35;
        fill: url(#linear-gradient);
      }
    </style>
    <linearGradient id="linear-gradient" x1="203.73" y1="458.94" x2="1312.54" y2="458.94" gradientUnits="userSpaceOnUse">
      <stop offset="0" stop-color="#f2f2f2"/>
      <stop offset="1"/>
    </linearGradient>
  </defs>
  <title>RUT_20180709</title>
  <g id="brain-sees-options">
    <g>
      <g id="layer5">
        <g id="g4625">
          <path id="path4610" class="brain-sees-options-1" d="M103.62,451.19l5.09.43,10,4.91c-3,4.58-4.5,9.28-11.08,11.32-2.38.86-4.6-.58-5.82,1.81a166.61,166.61,0,0,1-17,18.69c-2.12,1.17-3.2,4.21-5.95,4.14-2.36-.46-5.36,0-6.94-2.24-.47-3.08,3.56-3.29,5-5.21,1.29-1.44,2-3.25,3.08-4.84"/>
          <path id="path4623" class="brain-sees-options-2" d="M105.11,468.08c-4.62-2-5-4.39-5-4.39"/>
        </g>
      </g>
      <g id="layer4">
        <g id="g4600">
          <path id="path4582" class="brain-sees-options-3" d="M154.67,456.47c10.16,1.38,12.5,6.64,15.71-.21,2.83-9.92,17.51-18.88,29.69-5.17,0,0,3.63,3.69,3.66,7.36a14.82,14.82,0,0,1-3.64,9.5c-9.78,12.83-24.45,5-28.12-.43-3.18-6.39-9-7.16-19.93-9.67"/>
          <path id="path4598" class="brain-sees-options-4" d="M196.38,459.29c0,4.33,1,7.84,2.26,7.84s2.27-3.51,2.27-7.84h0c0-4.33-1-7.85-2.26-7.85s-2.27,3.51-2.27,7.85Z"/>
          <path id="path4531" class="brain-sees-options-5" d="M198.28,450.56c-14.14-11.81-27.21-1.24-26.71,11.41.44,9,17.35,17.27,26.83,6.12"/>
        </g>
      </g>
      <g id="layer3">
        <path id="path4219" class="brain-sees-options-6" d="M40.46,442.06a8.56,8.56,0,0,0-1.05.22c-2.36,5.35-1.21,11.8,2.19,16.46,3.48,5.92,7.2,12.13,13.11,15.91a64.51,64.51,0,0,0,12.76,5.41c4.45.76,9,.29,13.46-.31,8-1.9,13.71-8.36,18.4-14.68,2.51-2.66,2.9-6.29,3.1-9.75a13.16,13.16,0,0,1,1.19-4.13"/>
        <path id="path4219-2" data-name="path4219" class="brain-sees-options-7" d="M103.44,451.37c-.09.05-20.09-2.18-17.7-6.13-3,1.89-20.13-6.37-23.92-6.91-1.87-.27-19,2.63-21.36,3.73"/>
        <path id="path4318" class="brain-sees-options-8" d="M83.68,462.73A13.74,13.74,0,0,0,75,454.32c-5.51-1.74-10.32-5.5-16.21-6-4.95-.78-10-1.21-14.79-2.8a12.75,12.75,0,0,1-4.49-2"/>
        <path id="path4320" class="brain-sees-options-8" d="M85.45,462.22c-1.52-4-3.72-8.38-8-10.09a13.88,13.88,0,0,1-5.39-3.65c-3.29-2.56-7.4-3.82-11.4-4.74-4.81-.43-9.32-2.57-14.15-2.73"/>
        <path id="path4322" class="brain-sees-options-8" d="M72.82,451.62c-3.36-1.94-6.78-4.51-10.88-4.16-4.9-.63-9.19-3.75-14.21-3.76q-3.12-.48-6.23-1.05"/>
        <path id="path4324" class="brain-sees-options-8" d="M87.22,462.35c-1.18-3.65-1.74-8-5.3-10.25-2.51-1.45-5.43-2-7.71-3.89"/>
        <path id="path4326" class="brain-sees-options-8" d="M88.86,462.48c-1-4.22-1.27-9.23-5-12-2.6-2.16-5.63-3.7-8.47-5.52"/>
        <path id="path4328" class="brain-sees-options-8" d="M78.51,448.58C71,445.35,63.67,441,55.33,440.34l-1.45-.22"/>
        <path id="path4330" class="brain-sees-options-8" d="M81.29,461.34a21,21,0,0,0-8-5.38c-3.55-1.63-7.34-2.78-10.67-4.87-5.82-2.37-12.46-.68-18.25-3.24-1.69-.68-3.33-1.48-5-2.17"/>
        <path id="path4332" class="brain-sees-options-8" d="M82.17,463.36c-3.56-2.1-7.22-4.16-11.27-5.13-4.59-1.86-8.58-5.38-13.68-5.77-4.1-.95-8.34-1.09-12.47-1.76a29.93,29.93,0,0,1-6-2.49"/>
        <path id="path4334" class="brain-sees-options-8" d="M78.13,463.23c-8.12-1.45-14.86-6.67-22.69-8.93-4.84-.95-10.11-.32-14.51-2.95l-1.45-.62"/>
        <path id="path4336" class="brain-sees-options-8" d="M75,463.87c-6.58-.63-12.42-4.77-19.18-4.25-3-.11-5.84,1.3-8.65,2l-2.36.09"/>
        <path id="path4338" class="brain-sees-options-8" d="M63.35,459.45c-4.62-2.41-9.64-4.49-15-4.28-3-.31-6-.65-8.67-2.17"/>
        <path id="path4340" class="brain-sees-options-8" d="M57.16,458.94a57.52,57.52,0,0,0-15.79-2.65"/>
        <path id="path4342" class="brain-sees-options-8" d="M51.35,459.32a31.48,31.48,0,0,0-7.45-.13"/>
        <path id="path4344" class="brain-sees-options-8" d="M86,464.12c-4,2.69-8.24,5.53-13.22,5.48a76,76,0,0,1-13.62-1.54,17.76,17.76,0,0,0-9.66.73"/>
        <path id="path4346" class="brain-sees-options-8" d="M81.16,464.88a34.65,34.65,0,0,1-22.7.81c-3.27-.66-6.52.23-9.76.57"/>
        <path id="path4348" class="brain-sees-options-8" d="M74,464.75c-3.71.09-7.56.48-11.11-.87a51.59,51.59,0,0,0-16.17.11"/>
        <path id="path4350" class="brain-sees-options-8" d="M87.73,464.75c-3.51,3.21-7.67,6.4-12.64,6.48-3.32.74-6.88,1.3-10.12-.07a31,31,0,0,0-12.1,0l-.44.12-.45.11"/>
        <path id="path4352" class="brain-sees-options-8" d="M89.87,465.38c-2.92,2.69-6.13,5.18-10,6.38a37,37,0,0,1-12.77,2.43c-3.11.07-6.22,0-9.34,0"/>
        <path id="path4354" class="brain-sees-options-8" d="M91.26,465.89c-2.6,2.48-5.12,5.25-8.55,6.57-6.1,3.35-13.16,4.36-20,4.36l-.48,0-.49,0"/>
        <path id="path4356" class="brain-sees-options-8" d="M93.41,466.26c-3.33,3.13-6.5,6.56-10.66,8.6-5.15,3-11.28,3.7-17.13,3.78"/>
        <path id="path4358" class="brain-sees-options-8" d="M95.43,466.77c-4.21,4.53-8.75,9.22-14.85,11.06-2.78,1-5.69,1.48-8.51,2.33"/>
        <path id="path4360" class="brain-sees-options-8" d="M90.51,463.74c-.21-4.62-.51-9.67-3.74-13.31-.82-.95-1.73-1.81-2.58-2.73"/>
        <path id="path4362" class="brain-sees-options-8" d="M92.91,464.25c-.71-4.86-1.38-10.06-4.3-14.15"/>
        <path id="path4364" class="brain-sees-options-8" d="M95.68,464c-1.35-4.47-1.85-9.57-5.17-13.13"/>
        <path id="path4366" class="brain-sees-options-8" d="M98.08,462.48c-.75-4.39-3.31-8.09-5.68-11.75"/>
        <path id="path4368" class="brain-sees-options-8" d="M100,459.7c-.3-3.48-2.82-6.15-4.93-8.72"/>
        <path id="path4370" class="brain-sees-options-8" d="M101.78,456l-4-5.3"/>
      </g>
      <g id="layer1">
        <path id="path2453" class="brain-sees-options-9" d="M174.71,443.51a30.86,30.86,0,0,0,13.76-10.42c2.43-2.75,5.67-5,6.19-8.9.72-2.24,2.15-5.21,1.29-6.81,4.37-2.22,2.29-7.89,1.3-11.5-1.75-3.13,2-6.38-.22-9.35-3.09-1.19-.32-4.32-2.22-6.53-1.4-2.3-3.66-4.59-6.53-4.9.29-3.63-3.23-5.54-4.64-8.57-3.06-2.64-5.66-6.07-9.9-6.69-3.62-2.1-7.89-2.52-11.28-5.07a25.1,25.1,0,0,0-10.84-4.17A61.56,61.56,0,0,1,136.3,356c-8.75-1.46-17.73-3.3-26.58-2.18-3.65,1.35-7.3-1.29-11.07-1C93.39,352.4,88.22,354.35,83,355a126.05,126.05,0,0,0-12.92,4.72c-2,2.66-6,1.68-8.16,4.28-3.24,2.61-7.66,4.45-9.39,8.36-.19,2.49-3.52,3.47-5.12,5.19-4.25,2.74-7.12,7-10,11-.62,2.21-1.94,4.89-1.24,6.68-4.06,3.56-5.87,8.86-8.81,13.28-.52,3-2.72,5.92-2,8.93-2.18,1.68-2.42,4.92-3.17,7.39.44,3.58,0,7.47,2.72,10.28a13.38,13.38,0,0,0,6.32,6.28c2.68,1.61,6.16,1.33,9,.25,7-2.13,14.38-2.08,21.56-3.3,3.92,1.66,7.38,4.24,11.63,5.13,4,1.26,8.1,3.38,12.3,2-.1,3.74,4.36,3.53,7,4,5.12,1,10.39,1.24,15.5,1.88,5.64,3.08,11.75,5.55,17,9.26a9.21,9.21,0,0,0,9.24,3.54c3.88-.28,7-3.31,10.53-4.72,3-2,7.13-.71,9.93-3.35,2.29-1.1,3.92-3.45,5.16-5.52,1.43-1.92-1.87-6.27.86-6.26C165.54,444.06,168.7,444.5,174.71,443.51Z"/>
        <path id="path3230" class="brain-sees-options-10" d="M153.09,451c-6.86-2.45-8.72-10.4-14.42-14.3-4.24-2.92-8.86-7.62-14.47-5.45-7.2,2.39-15.06-.28-20.69-5a18.46,18.46,0,0,0-14.87-4.69c-6.29,1.66-7.69-4.53-9.63-8.91-2.44-4.77-8.22-6.58-9.49-12.18a42,42,0,0,1-6.07-16.1C63.36,380.17,60.62,377,58,374a8.94,8.94,0,0,1-1-1.76"/>
        <path id="path3235" class="brain-sees-options-11" d="M139.52,460.3a37,37,0,0,1-9.82-9.54c-2.22-2-5.46-1.42-8.18-2.07a13.08,13.08,0,0,1-6.94-2.51c-1.83-1.5-3.86.2-5.51,1.13a59.55,59.55,0,0,1-5.63,3.52"/>
        <path id="path3250" class="brain-sees-options-12" d="M160.06,444.4c-3.11-7.17-6.23-14.63-13-19.16-7-5.45-15.33-11.95-24.72-11.11-9.19,3.31-10.79-7.92-17.35-11.13-5.73-3.24-14.57.93-18.26-6.35-3.15-6.23-4.11-5.53-5.75-7.57"/>
        <path id="path3255" class="brain-sees-options-10" d="M110.58,408.15c1.89-7.09,4.58-11.52,2.87-18.87-.62-3.53-4.71-10.72-7.49-12.94-6.08-9.4-6-7.2-14.51-9.74"/>
        <path id="path3264" class="brain-sees-options-11" d="M65.72,392.17c2.13-7.55,9.81-5.55,12.66-12.72,1.93-3.08,3.83-12.23,5.68-15.36,3.79-1.85,6.88-5.46,7.33-9.74l.26-.86"/>
        <path id="path3278" class="brain-sees-options-11" d="M60.57,399c-1.12,1.66-2.37,3.23-3.41,4.94-.48,4.58-1.88,9.33-.34,13.86,1,3.27,2.2,6.61,1.86,10.09a3.39,3.39,0,0,1-2.36,4.9c-1.93.91-4.57,1.15-6.11-.59-2.36-2-5.42-3.54-8.6-3.14-2-.09-3.86-1.92-3.39-4a6.45,6.45,0,0,1,.38-1.63"/>
        <path id="path3306" class="brain-sees-options-10" d="M50.21,419.93c-4.86-1-9.71-2.14-14.47-3.57-1.29.31-2.86.23-3.79,1.34A17.32,17.32,0,0,0,27.8,422a36.7,36.7,0,0,0-4.38,7.26l-.09.18-.09.18"/>
        <path id="path3308" class="brain-sees-options-11" d="M36.1,416.18c-.71-2.4-2-5-1-7.51,1.24-3.35,3.92-5.87,5.53-9,.62-1.63,1.33-3.42,2.94-4.31,1.54-1.08,3.46-1.22,5.26-1.46,2.91-.8,4.22-3.81,6-5.94"/>
        <path id="path3329" class="brain-sees-options-11" d="M65.93,431a66.18,66.18,0,0,0,7.2,1.87,95.85,95.85,0,0,0,10.71.61,4.13,4.13,0,0,0,3-1.54c1.19-1.32,2.18-2.82,3.37-4.16l.88-1.07"/>
        <path id="path3335" class="brain-sees-options-11" d="M88.79,443.87c3.43-4,8.72-6,11.25-10.8a11.77,11.77,0,0,0,2-7.6"/>
        <path id="path3337" class="brain-sees-options-11" d="M101.65,441.72c-2-1-4.6-1.48-5.89-3.57"/>
        <path id="path3339" class="brain-sees-options-11" d="M72.9,414.4c-4,1.08-9.13,4.43-5.55,9a9.22,9.22,0,0,0,1.44,2.12"/>
        <path id="path3341" class="brain-sees-options-11" d="M66.46,418l-4.82-2.14"/>
        <path id="path3343" class="brain-sees-options-11" d="M56.64,409.22q3.63,1.39,7.15,3"/>
        <path id="path3347" class="brain-sees-options-11" d="M63.25,394a75.07,75.07,0,0,0-12.6-9.3c-.92-1.52-.93-3.35-1.51-5"/>
        <path id="path3349" class="brain-sees-options-11" d="M38.24,440.47c-4.49-2.77-7.72-8-6.59-13.38a14.65,14.65,0,0,1,1.06-3.94"/>
        <path id="path3351" class="brain-sees-options-11" d="M81.29,419.58c-1.5,1.28-4.65,1.85-4.11,4.46"/>
        <path id="path3353" class="brain-sees-options-11" d="M77.18,422.08,74.86,421"/>
        <path id="path3355" class="brain-sees-options-11" d="M120.05,444.05c3.41-1.2,7.19-4.85,5.36-8.76"/>
        <path id="path3357" class="brain-sees-options-11" d="M76.11,443.69l2.5-2.86"/>
        <path id="path3345" class="brain-sees-options-11" d="M42.71,410.82c0-3.34.06-11.57,5.36-9.46,3.8,1.72,4.3,7.18,7.5,7.68"/>
        <path id="path3361" class="brain-sees-options-11" d="M41.82,396.18l-.54-4.82,1.25-4.47.89-3.57"/>
        <path id="path3363" class="brain-sees-options-11" d="M34.31,410.11l-3.57-2.5"/>
        <path id="path3572" class="brain-sees-options-13" d="M160.06,419.93c2-.86,4.09-2.07,4.88-4.23.84-1.79.74-4.26,2.7-5.32,1.34-1.42,3.89-1.7,4.4-3.83.11-2.25.51-4.86,2.54-6.23,1.54-1.08,2.68-3.16,4.81-3.05,1.91,0,3.74,2.17,5.59,1.13,2.16-1.43,3.16-3.95,4.33-6.16a6.15,6.15,0,0,0-.18-6c-.16-.32-.34-.63-.49-1"/>
        <path id="path3702" class="brain-sees-options-13" d="M174.17,429l3.39-4.1.72-3.22a14.89,14.89,0,0,0-2.51-6.08,1.56,1.56,0,0,1,1.18-2.09c.89.16,1.86.59,2.74.16a7.21,7.21,0,0,0,4.54-2.94,5.44,5.44,0,0,1,.48-.48"/>
        <path id="path3762" class="brain-sees-options-13" d="M181,404.93l4.28-.72,3.22,1.43c.42,1.08,1.41,2.07,1.12,3.32-.23,2.32-.45,4.84-2,6.71a18.19,18.19,0,0,0-3.2,5.2,4,4,0,0,0-.39,3.05c0,.1,0,.2,0,.3"/>
        <path id="path3826" class="brain-sees-options-13" d="M162.74,368.49c1.27,1,2.58,2.3,4.32,2.34a13.52,13.52,0,0,1,6.13,3.67c2.13,1.28,4.8.78,7,1.87,1.6,1,3,2.91,2.35,4.84-.42,1.13-1.67,1.78-1.83,3a3.67,3.67,0,0,1-2.14,2.8,2.73,2.73,0,0,0-.46.38"/>
        <path id="path3565" class="brain-sees-options-13" d="M136.12,375.82c-1-1-1.93-1.92-2.87-2.89A49.54,49.54,0,0,0,130,367a5.41,5.41,0,0,0-1.61-2l-2.8-2.24"/>
        <path id="path3689" class="brain-sees-options-13" d="M172.21,424.58c-4.32-.64-8.65-1.29-13-1.5a5.55,5.55,0,0,1-2.55-.48L154,421.54"/>
        <path id="path4136" class="brain-sees-options-13" d="M120.23,398.5h0C119.51,407.61,119,408,119,408"/>
        <path id="path4138" class="brain-sees-options-13" d="M138.45,389.92c-3.22,6.79-1.43,8.58-1.43,8.58"/>
        <path id="path4140" class="brain-sees-options-13" d="M98.09,372.59c-6.07,5.18-4.64,10.89-4.64,10.89"/>
        <path id="path4142" class="brain-sees-options-13" d="M102.17,389.87c-.7,8.7-11.85,10.07-11.85,10.07"/>
        <path id="path4144" class="brain-sees-options-13" d="M179.17,438.33c-5.36-6.07-14.29-.36-14.29-.36"/>
        <path id="path3419" class="brain-sees-options-13" d="M125.77,430.83c3-2.83,3.45-7.68,1.6-11.25"/>
        <path id="path3421" class="brain-sees-options-13" d="M115.58,414.4c1,3.25,3,6.17,3.59,9.56.38.69,1.1,1.09,1.59,1.69"/>
        <path id="path3423" class="brain-sees-options-13" d="M101.47,412.43c-2.61.54-5.29,1.51-8,.9-2.71.38-3.36-2.87-4.34-4.65"/>
        <path id="path3425" class="brain-sees-options-13" d="M87.9,403.86c-2.78.59-5.78,1.42-8.55.33-2.32-.09-4.36,1.2-6.45,2"/>
        <path id="path3427" class="brain-sees-options-13" d="M76.29,375.28l-4.11-.36c-2-1.43-4-2.81-6.07-4.11"/>
        <path id="path3429" class="brain-sees-options-13" d="M58.61,372.42c2.43-2.8,6-4,9.46-5.18,2.61-1.08,5.76-1.5,8.32-.07,1,.49,1.92,1.08,2.93,1.5"/>
        <path id="path3431" class="brain-sees-options-13" d="M72.72,366.17a2.34,2.34,0,0,0-1.5-2.94c-.9-.65-1.57-1.56-2.43-2.24"/>
        <path id="path3433" class="brain-sees-options-13" d="M100.76,355.1c-2.65.61-4.41,5.42-.58,5.57,3.25.58,6.62,1.07,9.4,3,2.24,1.4,5.46,3.23,4.91,6.35-1.55,2.22-.23,4.37,2.28,4.88,2.5,1.9,3.42,5.08,4.18,8,1.32,2.57,2.31,5.8,4.84,7.37,3.46,1.36,2.64,5.26,1.63,7.89-.09,3.41,3.58,4.47,5,7,.54,2.82,2.79,4.3,4.82,6,2.33,1.72.42,4.26-1.35,5.5a7.57,7.57,0,0,1-.84.55"/>
        <path id="path3438" class="brain-sees-options-14" d="M113.62,355.45c3.74.63,5.14,4.7,5.77,7.95a12.27,12.27,0,0,1,3.1,8.53c1.85,2.06,5.74,3.6,4.78,7-.53,4.19,5,4.06,7.82,4.66,3-.05,7.17-1,8.81,2.34s0,7.3.43,10.93c.61,5.39,4.07,10,4.58,15.42a42.46,42.46,0,0,1-.28,11.59"/>
        <path id="path3446" class="brain-sees-options-13" d="M151.13,415.83c.46-3.82,1.24-7.73.37-11.55a23.44,23.44,0,0,1,.32-6.53c.49-1.46,1.6-2.57,2.35-3.9"/>
        <path id="path3490" class="brain-sees-options-13" d="M126.84,356.52c.16,1.54,1.91,2,3.2,2.05,3.57.37,6.84,2,10.29,2.84,2.38.83,4.58,2.09,6.87,3.15l3.39,5.36c0,1.49-.28,3.45-1.93,4-1.66.7-3.26,1.53-4.91,2.27-1.75,1.56-2.56,3.83-3.77,5.77l-.82,1.58"/>
        <path id="path3502" class="brain-sees-options-13" d="M144.7,387.07a6.4,6.4,0,0,1,4-1.49,8.25,8.25,0,0,1,4.2.77,17.2,17.2,0,0,1,5.07,2.34,10.27,10.27,0,0,1,2.81,2.4,7,7,0,0,1,2,3c.3.89,1,1.74.77,2.71a7.89,7.89,0,0,1-.73,3.9l-1.18,2.85"/>
        <path id="path3509" class="brain-sees-options-13" d="M164.17,396.53c1.75.33,4-.5,4.37-2.42,1.05-1.82.62-4.42,2.52-5.74a4,4,0,0,0,2.95-4.86c-.44-2.58-2.95-3.93-4.95-5.25-3.31-2-7.07-3.23-10.16-5.62-1.63-1.42.07-3.62-.71-5.26-1.19-1.78-3.53-1.9-5.33-2.73s-4.06-1.17-5.93-.18l-.27.09"/>
        <path id="path3522" class="brain-sees-options-13" d="M154.93,372c.23,1.62,2.51,3,3,5.11-.79,3.71.69,3.93,4.36,3.93,1.4.39,2.08,1.84,2.51,3.1a21.28,21.28,0,0,1,.82,4.19"/>
        <path id="path3580" class="brain-sees-options-15" d="M145.23,375.1a6,6,0,0,0-1.75-4.47,4.86,4.86,0,0,1-1.44-3.12l0-.07v0"/>
      </g>
    </g>
    <g>
      <rect class="brain-sees-options-16" x="588.26" y="350.39" width="289.19" height="289.19"/>
      <polygon class="brain-sees-options-16" points="503.88 300.03 587.54 350.39 587.54 639.58 503.88 589.22 503.88 300.03"/>
      <polygon class="brain-sees-options-16" points="503.88 300.03 586.73 350.48 875.92 350.48 793.06 300.03 503.88 300.03"/>
      <text class="brain-sees-options-17" transform="translate(606.73 449.13)">Option<tspan class="brain-sees-options-18" x="193.27" y="0" xml:space="preserve"> A</tspan><tspan class="brain-sees-options-19"><tspan x="-5.63" y="72">less utility</tspan></tspan></text>
    </g>
    <g>
      <rect class="brain-sees-options-16" x="982.01" y="350.39" width="289.19" height="289.19"/>
      <polygon class="brain-sees-options-16" points="897.63 300.03 981.29 350.39 981.29 639.58 897.63 589.22 897.63 300.03"/>
      <polygon class="brain-sees-options-16" points="897.63 300.03 980.48 350.48 1269.67 350.48 1186.81 300.03 897.63 300.03"/>
      <text class="brain-sees-options-17" transform="translate(998.25 449.13)">Option B<tspan class="brain-sees-options-19"><tspan x="58.29" y="72">utility</tspan></tspan></text>
    </g>
    <path class="brain-sees-options-20" d="M1250.13,887.36C1139.33,993.3,454,603.56,206.78,472.82c-6.62-3.49-.41-14.84-.41-22.31,0-6.84,947-536.57,1059-421.74C1372,138.09,1365.7,776.83,1250.13,887.36Z"/>
  </g>
</svg>
