<svg xmlns="http://www.w3.org/2000/svg" viewBox="0 0 500 500">
  <defs>
    <style>
      .cls-1 {
        fill: #bababa;
      }

      .cls-1, .cls-10, .cls-11, .cls-12, .cls-13, .cls-14, .cls-15, .cls-2, .cls-3, .cls-4, .cls-5, .cls-6, .cls-8, .cls-9 {
        stroke: #010101;
      }

      .cls-1, .cls-10, .cls-11, .cls-12, .cls-2, .cls-3, .cls-4, .cls-5, .cls-6, .cls-8, .cls-9 {
        stroke-linecap: round;
        stroke-linejoin: round;
      }

      .cls-1, .cls-2, .cls-4, .cls-5 {
        stroke-width: 1.82px;
      }

      .cls-10, .cls-11, .cls-12, .cls-13, .cls-14, .cls-15, .cls-2, .cls-8 {
        fill: none;
      }

      .cls-3 {
        fill: #d1d2d1;
      }

      .cls-15, .cls-3, .cls-8 {
        stroke-width: 0.91px;
      }

      .cls-4, .cls-9 {
        fill: #fff;
      }

      .cls-5 {
        fill: #e8e8e8;
      }

      .cls-6, .cls-7 {
        fill: #7d7d7d;
      }

      .cls-6 {
        stroke-width: 2.73px;
      }

      .cls-12, .cls-9 {
        stroke-width: 3.41px;
      }

      .cls-10, .cls-14 {
        stroke-width: 2.27px;
      }

      .cls-11, .cls-13 {
        stroke-width: 1.14px;
      }
    </style>
  </defs>
  <title>RUT_20180709</title>
  <g id="Shapes">
    <g>
      <g id="layer5">
        <g id="g4625">
          <path id="path4610" class="cls-1" d="M226,323.41l13.09,1.09,25.75,12.64c-7.72,11.77-11.57,23.84-28.49,29.08-6.11,2.22-11.8-1.48-14.94,4.65-12.1,16.28-28.74,33.57-43.64,48-5.44,3-8.23,10.82-15.29,10.65-6.06-1.2-13.77,0-17.84-5.76-1.22-7.91,9.16-8.45,12.88-13.39,3.31-3.69,5.17-8.36,7.92-12.43"/>
          <path id="path4623" class="cls-2" d="M229.8,366.81c-11.87-5-12.76-11.27-12.76-11.27"/>
        </g>
      </g>
      <g id="layer4">
        <g id="g4600">
          <path id="path4582" class="cls-3" d="M357.18,337c26.1,3.54,32.12,17.05,40.38-.56,7.27-25.48,45-48.51,76.29-13.28,0,0,9.32,9.48,9.4,18.92a37.89,37.89,0,0,1-9.36,24.4c-25.14,33-62.82,12.87-72.27-1.09-8.16-16.43-23.17-18.4-51.2-24.85"/>
          <path id="path4598" class="cls-4" d="M464.37,344.22c0,11.14,2.6,20.17,5.81,20.17s5.81-9,5.81-20.16h0c0-11.13-2.6-20.16-5.8-20.17s-5.82,9-5.82,20.16Z"/>
          <path id="path4531" class="cls-5" d="M469.25,321.8c-36.34-30.36-69.94-3.19-68.65,29.31,1.14,23.1,44.59,44.38,68.95,15.74"/>
        </g>
      </g>
      <g id="layer3">
        <path id="path4219" class="cls-6" d="M63.65,300a17.75,17.75,0,0,0-2.69.58c-6.07,13.74-3.11,30.32,5.64,42.29C75.53,358,85.09,374,100.28,383.7a165.72,165.72,0,0,0,32.8,13.91c11.43,2,23.18.75,34.57-.81,20.49-4.87,35.25-21.47,47.3-37.71,6.45-6.85,7.45-16.16,8-25.07A34.12,34.12,0,0,1,226,323.41"/>
        <path id="path4219-2" data-name="path4219" class="cls-7" d="M225.51,323.87c-.23.13-51.62-5.61-45.49-15.75-7.8,4.86-51.73-16.38-61.47-17.76-4.81-.68-49,6.76-54.9,9.59"/>
        <path id="path4318" class="cls-8" d="M174.74,353.07c-3.82-10.07-12-18.54-22.4-21.61C138.19,327,125.82,317.31,110.7,316c-12.75-2-25.7-3.1-38-7.19-4.07-1.1-8.17-2.5-11.55-5.09"/>
        <path id="path4320" class="cls-8" d="M179.29,351.77c-3.91-10.41-9.58-21.54-20.48-25.94-5.12-2.29-10.25-4.95-13.83-9.37-8.45-6.59-19-9.84-29.3-12.2-12.36-1.11-24-6.59-36.36-7"/>
        <path id="path4322" class="cls-8" d="M146.83,324.5c-8.64-5-17.44-11.59-28-10.66-12.59-1.65-23.6-9.66-36.51-9.69-5.35-.8-10.69-1.72-16-2.69"/>
        <path id="path4324" class="cls-8" d="M183.83,352.09c-3-9.38-4.47-20.66-13.63-26.35-6.45-3.71-14-5.16-19.8-10"/>
        <path id="path4326" class="cls-8" d="M188.05,352.42c-2.52-10.83-3.26-23.71-13-30.94-6.68-5.56-14.48-9.52-21.77-14.18"/>
        <path id="path4328" class="cls-8" d="M161.43,316.71c-19.32-8.31-38.12-19.5-59.54-21.19-1.25-.19-2.5-.38-3.75-.55"/>
        <path id="path4330" class="cls-8" d="M168.58,349.5A54,54,0,0,0,148,335.67c-9.13-4.19-18.87-7.13-27.41-12.5-15-6.11-32-1.75-46.92-8.34-4.35-1.74-8.55-3.82-12.89-5.58"/>
        <path id="path4332" class="cls-8" d="M170.85,354.69c-9.14-5.41-18.56-10.7-29-13.19-11.79-4.77-22-13.84-35.16-14.84-10.54-2.42-21.43-2.78-32-4.51a76.69,76.69,0,0,1-15.48-6.41"/>
        <path id="path4334" class="cls-8" d="M160.46,354.36c-20.85-3.74-38.19-17.15-58.31-22.95-12.43-2.44-26-.83-37.28-7.58l-3.73-1.6"/>
        <path id="path4336" class="cls-8" d="M152.35,356c-16.9-1.61-31.93-12.26-49.29-10.92-7.82-.27-15,3.35-22.25,5.17l-6,.23"/>
        <path id="path4338" class="cls-8" d="M122.49,344.63c-11.89-6.17-24.78-11.54-38.42-11-7.62-.79-15.52-1.67-22.28-5.56"/>
        <path id="path4340" class="cls-8" d="M106.58,343.33c-13.1-4.43-26.81-6.16-40.57-6.82"/>
        <path id="path4342" class="cls-8" d="M91.65,344.3c-6.36-.47-12.8-1.38-19.15-.32"/>
        <path id="path4344" class="cls-8" d="M180.59,356.64c-10.17,6.91-21.18,14.21-34,14.08a194.25,194.25,0,0,1-35-4,45.86,45.86,0,0,0-24.83,1.9"/>
        <path id="path4346" class="cls-8" d="M168.25,358.58c-18.44,7.59-39.34,7.62-58.33,2.1-8.4-1.7-16.76.57-25.09,1.47"/>
        <path id="path4348" class="cls-8" d="M149.75,358.26c-9.54.22-19.43,1.24-28.56-2.23a132.21,132.21,0,0,0-41.55.28"/>
        <path id="path4350" class="cls-8" d="M185.13,358.26c-9,8.25-19.7,16.46-32.47,16.66-8.55,1.89-17.68,3.34-26-.2a79.7,79.7,0,0,0-31.12.15l-1.13.31-1.14.28"/>
        <path id="path4352" class="cls-8" d="M190.65,359.88c-7.52,6.91-15.77,13.3-25.64,16.39-10.57,3.59-21.56,6.56-32.82,6.26-8,.16-16,0-24,.08"/>
        <path id="path4354" class="cls-8" d="M194.22,361.18c-6.68,6.39-13.16,13.49-22,16.88-15.66,8.63-33.8,11.22-51.46,11.22l-1.25.06-1.25.08"/>
        <path id="path4356" class="cls-8" d="M199.74,362.15c-8.56,8-16.71,16.84-27.4,22.08-13.23,7.62-29,9.53-44,9.73"/>
        <path id="path4358" class="cls-8" d="M204.93,363.45c-10.83,11.65-22.48,23.69-38.15,28.43-7.15,2.52-14.65,3.79-21.9,6"/>
        <path id="path4360" class="cls-8" d="M192.27,355.66c-.53-11.87-1.29-24.86-9.59-34.2-2.11-2.43-4.47-4.64-6.64-7"/>
        <path id="path4362" class="cls-8" d="M198.44,357c-1.81-12.47-3.53-25.84-11-36.35"/>
        <path id="path4364" class="cls-8" d="M205.58,356.31c-3.48-11.5-4.77-24.59-13.31-33.75"/>
        <path id="path4366" class="cls-8" d="M211.75,352.42c-1.95-11.28-8.51-20.79-14.61-30.19"/>
        <path id="path4368" class="cls-8" d="M216.61,345.28c-.77-8.95-7.23-15.81-12.65-22.4"/>
        <path id="path4370" class="cls-8" d="M221.24,335.67q-5.19-6.82-10.39-13.63"/>
      </g>
      <g id="layer1">
        <path id="path2453" class="cls-9" d="M408.66,303.68A79.29,79.29,0,0,0,444,276.9C450.27,269.83,458.6,264,460,254c1.83-5.78,5.53-13.4,3.32-17.51,11.21-5.72,5.88-20.27,3.33-29.55-4.49-8.06,5.08-16.4-.56-24-8-3.07-.83-11.1-5.72-16.8-3.6-5.92-9.41-11.8-16.77-12.58.75-9.33-8.3-14.26-11.93-22-7.87-6.79-14.55-15.59-25.44-17.2-9.29-5.38-20.27-6.48-29-13A64.26,64.26,0,0,0,349.32,90.6C335.79,88,322.44,84.78,310,78.75c-22.49-3.75-45.57-8.48-68.33-5.6-9.37,3.47-18.74-3.31-28.44-2.56-13.52-1.07-26.8,4-40.21,5.49A320.18,320.18,0,0,0,139.78,88.2c-5.23,6.85-15.4,4.32-21,11-8.31,6.7-19.68,11.43-24.11,21.47-.5,6.41-9.06,8.93-13.16,13.37-10.93,7-18.31,18.07-25.73,28.36-1.61,5.67-5,12.55-3.19,17.17C42.17,188.73,37.52,202.34,30,213.7c-1.34,7.67-7,15.21-5.05,23-5.6,4.3-6.22,12.63-8.16,19,1.14,9.21.06,19.19,7,26.41A34.33,34.33,0,0,0,40,298.19c6.88,4.16,15.82,3.43,23.16.66,18-5.47,36.95-5.36,55.4-8.49,10.09,4.27,19,10.89,29.9,13.18,10.17,3.24,20.8,8.68,31.61,5.18-.27,9.61,11.2,9.07,18.07,10.35,13.14,2.61,26.69,3.19,39.82,4.83,14.5,7.92,30.19,14.26,43.62,23.79,5.72,7.08,14.63,11.33,23.74,9.09,10-.7,17.89-8.5,27.05-12.11,7.83-5,18.35-1.84,25.52-8.61,5.89-2.84,10.07-8.87,13.26-14.18,3.68-4.94-4.8-16.12,2.21-16.1C385.12,305.08,393.22,306.21,408.66,303.68Z"/>
        <path id="path3230" class="cls-10" d="M353.12,323c-17.64-6.32-22.43-26.73-37.08-36.77-10.88-7.5-22.76-19.57-37.18-14-18.51,6.13-38.7-.73-53.18-12.83-10.47-9.3-24.24-14.07-38.19-12.05-16.17,4.25-19.78-11.66-24.77-22.91-6.25-12.25-21.13-16.91-24.37-31.29a108,108,0,0,1-15.6-41.39c-.24-10.83-7.27-19-14-26.68a24.56,24.56,0,0,1-2.54-4.53"/>
        <path id="path3235" class="cls-11" d="M318.23,346.82c-9.7-6.69-18.59-14.73-25.23-24.51-5.72-5.22-14-3.64-21-5.33-6.52-.15-12.52-2.85-17.84-6.45-4.71-3.86-9.91.52-14.16,2.9-4.76,3.12-9.38,6.47-14.47,9.07"/>
        <path id="path3250" class="cls-12" d="M371,306c-8-18.45-16-37.59-33.41-49.26-18.08-14-39.4-30.7-63.52-28.54-23.61,8.51-27.73-20.35-44.58-28.61-14.73-8.32-37.45,2.39-46.95-16.3-8.1-16-10.54-14.24-14.77-19.47"/>
        <path id="path3255" class="cls-10" d="M243.87,212.79c4.86-18.22,11.75-29.59,7.37-48.5-1.6-9.07-12.12-27.55-19.24-33.25-15.62-24.14-15.53-18.5-37.31-25"/>
        <path id="path3264" class="cls-11" d="M128.57,171.72c5.48-19.38,25.22-14.24,32.54-32.68,4.95-7.91,9.84-31.42,14.6-39.47,9.75-4.74,17.68-14,18.84-25l.66-2.19"/>
        <path id="path3278" class="cls-11" d="M115.34,189.38c-2.88,4.26-6.09,8.31-8.77,12.71-1.23,11.76-4.84,24-.88,35.6,2.52,8.42,5.65,17,4.8,25.94,2.79,4.77-.48,11.95-6.08,12.59-4.94,2.34-11.74,3-15.71-1.52-6-5.21-13.93-9.08-22.08-8.05-5-.25-9.93-4.94-8.72-10.19a16.88,16.88,0,0,1,1-4.2"/>
        <path id="path3306" class="cls-10" d="M88.72,243.08c-12.49-2.65-24.95-5.5-37.19-9.18-3.31.8-7.34.58-9.73,3.44-4,3.15-7.92,6.59-10.67,10.94-4.63,5.66-8.07,12.13-11.25,18.67l-.24.46-.24.46"/>
        <path id="path3308" class="cls-11" d="M52.45,233.44c-1.83-6.18-5.2-12.86-2.51-19.32C53.13,205.53,60,199.06,64.13,191c1.61-4.19,3.42-8.78,7.58-11.06,4-2.78,8.89-3.15,13.51-3.76,7.48-2.07,10.84-9.79,15.43-15.26"/>
        <path id="path3329" class="cls-11" d="M129.11,271.54c6.18,1.56,12.17,4,18.5,4.83a256,256,0,0,0,27.54,1.55,10.56,10.56,0,0,0,7.74-3.95c3.08-3.4,5.61-7.26,8.67-10.68l2.28-2.76"/>
        <path id="path3335" class="cls-11" d="M187.87,304.59c8.81-10.16,22.41-15.37,28.9-27.74a30.15,30.15,0,0,0,5.07-19.54"/>
        <path id="path3337" class="cls-11" d="M220.92,299.08c-5.22-2.68-11.84-3.8-15.15-9.18"/>
        <path id="path3339" class="cls-11" d="M147,228.85c-10.25,2.78-23.44,11.4-14.24,23a24.28,24.28,0,0,0,3.68,5.45"/>
        <path id="path3341" class="cls-11" d="M130.49,238l-12.4-5.51"/>
        <path id="path3343" class="cls-11" d="M105.24,215.54q9.32,3.59,18.36,7.8"/>
        <path id="path3347" class="cls-11" d="M122.22,176.52c-9.69-9.34-21-16.81-32.38-23.9C87.49,148.71,87.46,144,86,139.8"/>
        <path id="path3349" class="cls-11" d="M58,295.87c-11.54-7.14-19.85-20.5-17-34.39a38.64,38.64,0,0,1,2.72-10.13"/>
        <path id="path3351" class="cls-11" d="M168.59,242.16c-3.85,3.3-11.94,4.78-10.56,11.48"/>
        <path id="path3353" class="cls-11" d="M158,248.59l-6-2.76"/>
        <path id="path3355" class="cls-11" d="M268.2,305.05C277,302,286.69,292.61,282,282.56"/>
        <path id="path3357" class="cls-11" d="M155.28,304.13l6.42-7.34"/>
        <path id="path3345" class="cls-11" d="M69.44,219.67c0-8.59.15-29.75,13.77-24.33,9.77,4.42,11.05,18.46,19.28,19.74"/>
        <path id="path3361" class="cls-11" d="M67.14,182l-1.37-12.39L69,158.16,71.27,149"/>
        <path id="path3363" class="cls-11" d="M47.86,217.84l-9.18-6.43"/>
        <path id="path3572" class="cls-13" d="M371,243.08c5.14-2.23,10.52-5.33,12.54-10.88,2.16-4.58,1.92-11,6.94-13.67,3.44-3.64,10-4.37,11.32-9.84.29-5.8,1.31-12.48,6.51-16,4-2.77,6.91-8.13,12.37-7.84,4.91.1,9.6,5.58,14.36,2.9,5.55-3.69,8.12-10.16,11.13-15.82,2.16-4.86,2.76-10.9-.45-15.46-.43-.81-.87-1.61-1.27-2.43"/>
        <path id="path3702" class="cls-13" d="M407.28,266.49,416,255.94l1.83-8.27A38.56,38.56,0,0,0,411.41,232c-.89-2.18.56-5.14,3-5.37,2.3.42,4.78,1.53,7.05.41,4.59-1.05,9.09-3.5,11.67-7.55a16,16,0,0,1,1.23-1.24"/>
        <path id="path3762" class="cls-13" d="M424.73,204.52l11-1.83,8.26,3.67c1.07,2.77,3.62,5.32,2.88,8.51-.58,6-1.15,12.45-5.14,17.25a47.11,47.11,0,0,0-8.23,13.37,10.2,10.2,0,0,0-1,7.83c0,.26,0,.52,0,.78"/>
        <path id="path3826" class="cls-13" d="M377.91,110.88c3.27,2.62,6.63,5.91,11.1,6,6.13,1.34,11.28,5.25,15.77,9.45,5.47,3.28,12.33,2,18,4.8,4.09,2.51,7.59,7.48,6,12.44-1.07,2.9-4.3,4.58-4.7,7.81a9.41,9.41,0,0,1-5.5,7.19,6.1,6.1,0,0,0-1.18,1"/>
        <path id="path3565" class="cls-13" d="M309.51,129.7c-2.45-2.48-5-4.91-7.38-7.42A127.36,127.36,0,0,0,293.77,107c-1.1-1.89-2.23-3.86-4.13-5.07l-7.21-5.77"/>
        <path id="path3689" class="cls-13" d="M402.24,255c-11.11-1.65-22.23-3.31-33.45-3.84-2.23-.09-4.56-.14-6.57-1.25l-6.81-2.71"/>
        <path id="path4136" class="cls-13" d="M268.66,188h0c-1.84,23.41-3.22,24.33-3.22,24.33"/>
        <path id="path4138" class="cls-13" d="M315.48,166c-8.26,17.45-3.67,22-3.67,22"/>
        <path id="path4140" class="cls-13" d="M211.77,121.41c-15.61,13.31-11.93,28-11.93,28"/>
        <path id="path4142" class="cls-13" d="M222.26,165.82c-1.81,22.36-30.47,25.88-30.47,25.88"/>
        <path id="path4144" class="cls-13" d="M420.14,290.37c-13.77-15.61-36.72-.93-36.72-.93"/>
        <path id="path3419" class="cls-13" d="M282.89,271.08c7.7-7.26,8.88-19.73,4.13-28.92"/>
        <path id="path3421" class="cls-13" d="M256.72,228.85c2.63,8.36,7.62,15.88,9.23,24.57,1,1.8,2.83,2.8,4.08,4.35"/>
        <path id="path3423" class="cls-13" d="M220.46,223.81c-6.72,1.38-13.61,3.87-20.53,2.31-7,1-8.62-7.39-11.14-12"/>
        <path id="path3425" class="cls-13" d="M185.57,201.77c-7.15,1.52-14.85,3.64-22,.86-6-.25-11.2,3.09-16.59,5.11"/>
        <path id="path3427" class="cls-13" d="M155.74,128.33l-10.56-.93c-5.1-3.67-10.29-7.21-15.61-10.55"/>
        <path id="path3429" class="cls-13" d="M110.29,121c6.25-7.19,15.56-10.39,24.33-13.33,6.7-2.77,14.8-3.84,21.38-.16,2.52,1.26,4.92,2.77,7.54,3.85"/>
        <path id="path3431" class="cls-13" d="M146.56,104.91a6,6,0,0,0-3.84-7.56c-2.32-1.65-4-4-6.27-5.75"/>
        <path id="path3433" class="cls-13" d="M218.62,76.45c-6.8,1.59-11.32,14-1.49,14.32,8.37,1.49,17,2.77,24.17,7.74,5.74,3.61,14,8.3,12.62,16.32-4,5.72-.61,11.22,5.85,12.55,6.42,4.88,8.78,13.06,10.75,20.68C273.9,154.67,276.46,163,283,167c8.87,3.47,6.78,13.5,4.19,20.27-.23,8.76,9.19,11.48,12.83,17.89,1.41,7.24,7.17,11.06,12.39,15.47,6,4.42,1.09,11-3.46,14.13a23.59,23.59,0,0,1-2.15,1.43"/>
        <path id="path3438" class="cls-14" d="M251.67,77.38C261.28,79,264.89,89.44,266.5,97.8c5.82,5.86,7.95,14.52,8,21.92,4.76,5.29,14.75,9.24,12.28,18-1.35,10.77,12.84,10.42,20.12,12,7.68-.11,18.43-2.54,22.62,6,4.24,8.86,0,18.75,1.11,28.07,1.57,13.85,10.47,25.67,11.77,39.63,1.38,9.9.62,20-.72,29.8"/>
        <path id="path3446" class="cls-13" d="M348.07,232.52c1.19-9.81,3.19-19.86,1-29.67a60.16,60.16,0,0,1,.82-16.78c1.26-3.74,4.12-6.61,6-10"/>
        <path id="path3490" class="cls-13" d="M285.64,80.12c.43,3.95,4.93,5,8.24,5.26,9.16,1,17.58,5,26.43,7.3,6.13,2.15,11.79,5.38,17.66,8.1l8.72,13.77c.07,3.84-.73,8.86-5,10.17-4.28,1.8-8.39,3.94-12.62,5.85-4.5,4-6.58,9.83-9.7,14.83-.7,1.34-1.39,2.69-2.09,4"/>
        <path id="path3502" class="cls-13" d="M331.55,158.62c3.05-2,6.45-4.16,10.28-3.82a21.16,21.16,0,0,1,10.79,2,44.35,44.35,0,0,1,13,6,27.34,27.34,0,0,1,7.23,6.19c2.22,2.14,4.31,4.57,5.21,7.59.77,2.28,2.48,4.45,2,6.95-.09,3.41-.11,7-1.88,10q-1.51,3.66-3.05,7.32"/>
        <path id="path3509" class="cls-13" d="M381.58,183c4.5.82,10.28-1.3,11.25-6.23,2.68-4.68,1.58-11.37,6.45-14.75a10.26,10.26,0,0,0,7.58-12.49c-1.11-6.64-7.58-10.11-12.7-13.48-8.5-5.18-18.17-8.33-26.11-14.45-4.2-3.65.18-9.3-1.83-13.52-3.05-4.59-9.08-4.89-13.7-7-4.81-1.86-10.43-3-15.23-.46l-.7.24"/>
        <path id="path3522" class="cls-13" d="M357.84,119.87c.6,4.17,6.46,7.67,7.66,13.14-2,9.53,1.77,10.09,11.21,10.08,3.6,1,5.34,4.73,6.45,8a53.88,53.88,0,0,1,2.09,10.76"/>
        <path id="path3580" class="cls-15" d="M332.92,127.87c-.17-4.26-1.17-8.59-4.51-11.5a12.51,12.51,0,0,1-3.71-8l0-.18v0"/>
      </g>
    </g>
  </g>
</svg>
