<svg xmlns="http://www.w3.org/2000/svg" viewBox="0 0 690 690">
  <defs>
    <style>
      .cls-1 {
        fill: #fff;
        stroke: #231f20;
        stroke-miterlimit: 10;
      }

      .cls-2 {
        font-size: 31.94px;
        fill: #231f20;
        font-family: MyriadPro-Regular, Myriad Pro;
      }

      .cls-3 {
        letter-spacing: -0.02em;
      }

      .cls-4 {
        letter-spacing: 0.01em;
      }

      .cls-5 {
        letter-spacing: 0.01em;
      }

      .cls-6 {
        letter-spacing: 0em;
      }

      .cls-7 {
        letter-spacing: -0.01em;
      }
    </style>
  </defs>
  <title>RUT_20180709</title>
  <g id="Shapes">
    <g>
      <circle class="cls-1" cx="347.99" cy="343.43" r="333.36" transform="translate(-140.92 346.65) rotate(-45)"/>
      <path class="cls-1" d="M589.75,407.65C561.4,514.65,463.91,593.51,348,593.51a250.4,250.4,0,0,1-62.85-8"/>
      <path class="cls-1" d="M472.05,126.24a250,250,0,0,1,126,217.19q0,4.47-.16,8.9"/>
      <path class="cls-1" d="M155.08,184.28a250.44,250.44,0,0,1,275.2-77.08"/>
      <path class="cls-1" d="M231.19,564.61a250.38,250.38,0,0,1-115.9-313"/>
      <path class="cls-1" d="M401.44,490.7A160.39,160.39,0,0,1,191.09,306.82"/>
      <path class="cls-1" d="M477.23,244.81a160.29,160.29,0,0,1-34.79,224.24"/>
      <path class="cls-1" d="M205.78,265.63A160.3,160.3,0,0,1,459,224"/>
      <path class="cls-1" d="M417.48,354.61a71.14,71.14,0,0,1-99.42,49.46"/>
      <path class="cls-1" d="M336.33,269.45a71.16,71.16,0,0,1,82.35,62.66"/>
      <path class="cls-1" d="M295.51,387.51a71.09,71.09,0,0,1,26.27-114"/>
      <text class="cls-2" transform="translate(319.74 152.12)">E<tspan class="cls-3" x="15.72" y="0">x</tspan><tspan x="30.02" y="0">o</tspan></text>
      <text class="cls-2" transform="translate(307.49 252.17)"><tspan class="cls-4">M</tspan><tspan x="25.87" y="0">eso</tspan></text>
      <text class="cls-2" transform="translate(305.77 339.57)"><tspan class="cls-5">M</tspan><tspan class="cls-6" x="26.06" y="0">ic</tspan><tspan class="cls-7" x="47.85" y="0">r</tspan><tspan x="57.97" y="0">o</tspan></text>
      <text class="cls-2" transform="translate(301.9 64.74)"><tspan class="cls-4">M</tspan><tspan x="25.87" y="0">ac</tspan><tspan class="cls-7" x="55.58" y="0">r</tspan><tspan class="cls-6" x="65.7" y="0">o</tspan></text>
    </g>
  </g>
</svg>
